<?xml version="1.0" encoding="utf-8"?>
<!-- Generator: Adobe Illustrator 25.2.1, SVG Export Plug-In . SVG Version: 6.00 Build 0)  -->
<svg version="1.1" id="Ebene_1" xmlns="http://www.w3.org/2000/svg" xmlns:xlink="http://www.w3.org/1999/xlink" x="0px" y="0px"
	 viewBox="0 0 321.5 298.8" style="enable-background:new 0 0 321.5 298.8;" xml:space="preserve">
<style type="text/css">
	.st0{fill:#FFFFFF;}
</style>
<g>
	<g>
		<path class="st0" d="M90.9,128.4V101c0-40.1,32.6-72.7,72.7-72.7c38.9,0,70.8,30.8,72.5,69.4h22.6C257,46.7,215,5.9,163.6,5.9
			c-52.6,0-95.1,42.7-95.1,95.1v27.3H35.8v164.5h250V128.4L90.9,128.4L90.9,128.4z M267,274.3H54.5V147.1H267V274.3z"/>
	</g>
	
		<ellipse transform="matrix(3.327790e-02 -0.9994 0.9994 3.327790e-02 -90.412 290.821)" class="st0" cx="105.1" cy="192.1" rx="24.2" ry="24.2"/>
	<path class="st0" d="M149.6,257.1H60.8c1.4-19.3,17.7-34.5,37.3-34.5h14.4C131.9,222.6,148.2,238,149.6,257.1z"/>
	<rect x="164.3" y="166.9" class="st0" width="92" height="16.8"/>
	<rect x="164.3" y="190.6" class="st0" width="92" height="16.8"/>
	<rect x="164.3" y="214.2" class="st0" width="92" height="16.8"/>
	<rect x="164.3" y="237.7" class="st0" width="92" height="16.8"/>
</g>
</svg>
