<?xml version="1.0" encoding="utf-8"?>
<!-- Generator: Adobe Illustrator 25.2.1, SVG Export Plug-In . SVG Version: 6.00 Build 0)  -->
<svg version="1.1" id="Ebene_1" xmlns="http://www.w3.org/2000/svg" xmlns:xlink="http://www.w3.org/1999/xlink" x="0px" y="0px"
	 viewBox="0 0 272.2 298.8" style="enable-background:new 0 0 272.2 298.8;" xml:space="preserve">
<style type="text/css">
	.st0{fill:#FFFFFF;}
</style>
<g>
	<g>
		<path class="st0" d="M67.8,128.8v-26.7c0-39.3,31.9-71.2,71.2-71.2c38.1,0,69.3,30.2,71,67.9H232C230.3,48.9,189.2,9,138.9,9
			c-51.4,0-93.1,41.8-93.1,93.1v26.7H13.8v161h244.7v-161L67.8,128.8L67.8,128.8z M240.1,271.7h-208V147.2h208V271.7z"/>
	</g>
	
		<ellipse transform="matrix(3.327790e-02 -0.9994 0.9994 3.327790e-02 -112.1883 266.5169)" class="st0" cx="81.7" cy="191.3" rx="23.7" ry="23.7"/>
	<path class="st0" d="M125.2,254.9H38.3c1.4-18.9,17.3-33.8,36.5-33.8h14.1C107.9,221.1,123.9,236.2,125.2,254.9z"/>
	<rect x="139.6" y="166.6" class="st0" width="90" height="16.5"/>
	<rect x="139.6" y="189.7" class="st0" width="90" height="16.5"/>
	<rect x="139.6" y="212.9" class="st0" width="90" height="16.5"/>
	<rect x="139.6" y="235.8" class="st0" width="90" height="16.5"/>
</g>
</svg>
