<?xml version="1.0" encoding="utf-8"?>
<!-- Generator: Adobe Illustrator 25.2.1, SVG Export Plug-In . SVG Version: 6.00 Build 0)  -->
<svg version="1.1" xmlns="http://www.w3.org/2000/svg" xmlns:xlink="http://www.w3.org/1999/xlink" x="0px" y="0px"
	 viewBox="0 0 595.3 841.9" style="enable-background:new 0 0 595.3 841.9;" xml:space="preserve">
<style type="text/css">
	.st0{display:none;}
	.st1{fill:#141412;}
	.st2{fill:#B27E77;stroke:#8C5F5A;stroke-width:6;stroke-miterlimit:10;}
	.st3{fill:#1E1E1A;}
	.st4{fill:#E0BFA1;}
	.st5{fill:#D3B49C;}
	.st6{fill:#BAA08E;}
	.st7{display:inline;fill:#E8CFBA;}
	.st8{display:inline;fill:#CB9373;}
	.st9{display:inline;fill:#E0BFA1;}
	.st10{display:inline;fill:#AC4348;}
	.st11{display:inline;fill:#CF958B;}
	.st12{display:inline;fill:#89A5B8;}
	.st13{display:inline;fill:#678093;}
	.st14{display:inline;fill:#D3BA83;}
	.st15{display:inline;fill:#452B28;}
	.st16{display:inline;fill:#935F35;}
	.st17{fill:#E8CFBA;}
	.st18{fill:#E3C9B6;}
	.st19{fill:#DDBCA6;}
	.st20{fill:#FFFFFF;}
	.st21{fill:#8E6D62;}
	.st22{fill:url(#SVGID_1_);}
	.st23{fill:url(#SVGID_2_);}
	.st24{fill:#C9A98F;}
	.st25{fill:#6D111F;}
	.st26{fill:#A61C2A;}
	.st27{fill:#8C683F;}
	.st28{fill:#7C5835;}
	.st29{fill:#62400E;}
	.st30{fill:#A98955;}
	.st31{fill:#DEDEDE;}
	.st32{fill:#C6AA97;}
</style>
<g id="Ebene_1" class="st0">
	
		<image style="display:inline;overflow:visible;" width="613" height="1280" xlink:href="62D788BB.jpg"  transform="matrix(0.7875 0 0 0.7543 62.2728 -54.555)">
	</image>
</g>
<g id="Ebene_7">
	<path class="st1" d="M467,618.3c0,3,0.2,6.1,0,9.1v89.6H99.1V459.3c6-5.6,12.8-10.4,20.3-13.8c4.5-2,9.5-3.6,22.7-9.4
		c7.6-3.3,14.5-6.5,20.7-9.5c0.3-1.9,0.4-3.2,0.4-3.8c0.2-3.2,0.6-14.2-6.3-24c-9.3-13.4-21.8-9.8-27.1-20.9
		c-4.5-9.4-0.7-22.6,6.3-29.7c6.5-6.7,11.2-3.2,19.8-10.4c7.1-6,13.6-16.5,13-27.1c-0.3-6.3-2.9-6.9-4.2-16.2
		c-0.1-0.9-1.3-9.9,0.5-18.8c3.6-17.1,17.5-27.6,21.9-30.8c2.1-3.5,4.2-7,6.3-10.4c3.4,9.8,6,12.1,7.8,12c0,0,7.2-4.4,7.2-4.5
		c0,0-0.4,0.2-1.4,0.8c1-0.6,3.6-2.3,5.7-3.6c-2.4,3.8-5.8,9.3-9.9,16.2c-0.8,1.3-3.7,6.2-7.3,12.5c-8.7,15.4-9.7,18.7-9.4,22.4
		c0.3,3.6,1.7,5.2,4.2,9.9c2.2,4.2,15.4,29.3,7.3,40.2c-1.5,2.1-1.7,0.7-10.4,6.3c-10.2,6.5-11.5,9.3-16.7,11
		c-3.5,1.1-8.9,1.8-16.7-1c4.6-1.4,8.3-2.9,11-4.2c15.2-7.2,27.5-19,28.7-28.2c0.3-2.2,0.1-4.5,0.1-4.5c-0.1-1.4-0.2-6.3-3.8-10.6
		c-2.9-3.5-6-3.8-8.3-8.3c-0.7-1.4-2.3-5.1-1.6-9.4c0.8-4.5,3.5-5.2,5.2-11c1-3.1,0.6-4.2,1-7.3c0.6-3.7,2.2-8.8,6.8-14.6
		c-2.6,1.8-6.4,4.9-9.9,9.4c-1.9,2.4-7.4,9.7-8.9,19.8c-0.6,4.2,0.1,5,1.6,17.7c2.6,21.6,1.4,25.6-0.5,28.7
		c-2.6,4.2-6.5,6.4-9.9,8.3c-7.7,4.4-11.8,2.9-18.3,7.8c-4,3.1-6.1,6.5-7.3,8.3c-2.1,3.4-6.6,10.8-4.2,16.2c1.6,3.5,4.8,3,13,7.3
		c5.3,2.8,12.5,6.5,17.2,13.6c3.6,5.4,4.4,10.7,5.2,16.7c0.3,2.1,0.7,5.5,0.5,9.9c9.2-4.7,16.2-8.5,20.5-10.9
		c81.7-45.2,149.2-89.5,204.5-110.9c5.5-2.1,25.3-9.6,51.5-21.6c7-3.2,13.3-6.2,18.8-8.9l0.1,94.2c0,0-0.1,0.1-0.1,0.1V618.3z"/>
	<path class="st2" d="M467,120.5v149.4c-5.5,2.7-11.8,5.7-18.8,8.9c-26.2,12-46,19.5-51.5,21.6c-55.3,21.4-122.8,65.7-204.5,110.9
		c-4.3,2.4-11.3,6.2-20.5,10.9c0.2-4.3-0.2-7.8-0.5-9.9c-0.8-6-1.6-11.2-5.2-16.7c-4.7-7-11.9-10.8-17.2-13.6
		c-8.3-4.3-11.4-3.8-13-7.3c-2.5-5.4,2.1-12.8,4.2-16.2c1.2-1.9,3.3-5.3,7.3-8.3c6.5-5,10.5-3.4,18.3-7.8c3.4-2,7.3-4.2,9.9-8.3
		c1.9-3.1,3.1-7.1,0.5-28.7c-1.5-12.8-2.2-13.5-1.6-17.7c1.5-10.2,7-17.4,8.9-19.8c3.5-4.5,7.3-7.5,9.9-9.4
		c-4.6,5.9-6.2,10.9-6.8,14.6c-0.5,3.1-0.1,4.2-1,7.3c-1.8,5.7-4.4,6.4-5.2,11c-0.8,4.3,0.9,8,1.6,9.4c2.3,4.5,5.4,4.8,8.3,8.3
		c3.5,4.3,3.7,9.3,3.8,10.6c0,0,0.2,2.3-0.1,4.5c-1.2,9.2-13.5,21-28.7,28.2c-2.6,1.2-6.3,2.8-11,4.2c7.8,2.8,13.2,2.1,16.7,1
		c5.2-1.7,6.5-4.5,16.7-11c8.7-5.5,8.9-4.2,10.4-6.3c8.1-10.9-5.1-36-7.3-40.2c-2.5-4.7-3.9-6.3-4.2-9.9c-0.3-3.7,0.7-7,9.4-22.4
		c3.6-6.3,6.5-11.2,7.3-12.5c4.1-6.8,7.5-12.4,9.9-16.2c-2.1,1.4-4.8,3-5.7,3.6c1-0.6,1.4-0.8,1.4-0.8c0,0.1-7.2,4.5-7.2,4.5
		c-1.8,0.1-4.4-2.2-7.8-12c-2.1,3.5-4.2,7-6.3,10.4c-4.5,3.1-18.3,13.7-21.9,30.8c-1.9,8.8-0.6,17.9-0.5,18.8
		c1.3,9.3,3.8,9.9,4.2,16.2c0.6,10.7-5.9,21.1-13,27.1c-8.7,7.3-13.3,3.8-19.8,10.4c-6.9,7.1-10.8,20.3-6.3,29.7
		c5.3,11.1,17.8,7.5,27.1,20.9c6.9,9.8,6.4,20.8,6.3,24c0,0.5-0.1,1.9-0.4,3.8c-6.2,3-13.1,6.2-20.7,9.5
		c-13.2,5.8-18.2,7.4-22.7,9.4c-7.6,3.4-14.3,8.1-20.3,13.8v257.8h-3.2V120.5H467z"/>
	<path class="st2" d="M467,269.9v447.2H99.1V459.3c6-5.6,12.8-10.4,20.3-13.8c4.5-2,9.5-3.6,22.7-9.4c7.6-3.3,14.5-6.5,20.7-9.5
		c0.3-1.9,0.4-3.2,0.4-3.8c0.2-3.2,0.6-14.2-6.3-24c-9.3-13.4-21.8-9.8-27.1-20.9c-4.5-9.4-0.7-22.6,6.3-29.7
		c6.5-6.7,11.2-3.2,19.8-10.4c7.1-6,13.6-16.5,13-27.1c-0.3-6.3-2.9-6.9-4.2-16.2c-0.1-0.9-1.3-9.9,0.5-18.8
		c3.6-17.1,17.5-27.6,21.9-30.8c2.1-3.5,4.2-7,6.3-10.4c3.4,9.8,6,12.1,7.8,12c0,0,7.2-4.4,7.2-4.5c0,0-0.4,0.2-1.4,0.8
		c1-0.6,3.6-2.3,5.7-3.6c-2.4,3.8-5.8,9.3-9.9,16.2c-0.8,1.3-3.7,6.2-7.3,12.5c-8.7,15.4-9.7,18.7-9.4,22.4c0.3,3.6,1.7,5.2,4.2,9.9
		c2.2,4.2,15.4,29.3,7.3,40.2c-1.5,2.1-1.7,0.7-10.4,6.3c-10.2,6.5-11.5,9.3-16.7,11c-3.5,1.1-8.9,1.8-16.7-1
		c4.6-1.4,8.3-2.9,11-4.2c15.2-7.2,27.5-19,28.7-28.2c0.3-2.2,0.1-4.5,0.1-4.5c-0.1-1.4-0.2-6.3-3.8-10.6c-2.9-3.5-6-3.8-8.3-8.3
		c-0.7-1.4-2.3-5.1-1.6-9.4c0.8-4.5,3.5-5.2,5.2-11c1-3.1,0.6-4.2,1-7.3c0.6-3.7,2.2-8.8,6.8-14.6c-2.6,1.8-6.4,4.9-9.9,9.4
		c-1.9,2.4-7.4,9.7-8.9,19.8c-0.6,4.2,0.1,5,1.6,17.7c2.6,21.6,1.4,25.6-0.5,28.7c-2.6,4.2-6.5,6.4-9.9,8.3
		c-7.7,4.4-11.8,2.9-18.3,7.8c-4,3.1-6.1,6.5-7.3,8.3c-2.1,3.4-6.6,10.8-4.2,16.2c1.6,3.5,4.8,3,13,7.3c5.3,2.8,12.5,6.5,17.2,13.6
		c3.6,5.4,4.4,10.7,5.2,16.7c0.3,2.1,0.7,5.5,0.5,9.9c9.2-4.7,16.2-8.5,20.5-10.9c81.7-45.2,149.2-89.5,204.5-110.9
		c5.5-2.1,25.3-9.6,51.5-21.6C455.2,275.6,461.5,272.6,467,269.9z"/>
	<path class="st1" d="M-35-6.5v868.7h639V-6.5H-35z M467,627.4v89.6h-371V120.5h371v149.4l0.1,94.2c0,0-0.1,0.1-0.1,0.1v254.1
		C467,621.3,467.2,624.4,467,627.4z"/>
</g>
<g id="Ebene_6">
	<path class="st3" d="M169.9,716.3c0,0,0-0.1,0-0.1c0,0,0-0.1,0-0.1c0,0,0,0,0,0C169.9,716.2,169.9,716.3,169.9,716.3z"/>
	<path class="st3" d="M169.9,717.1L169.9,717.1C169.9,717.5,169.9,717.7,169.9,717.1z"/>
	<path class="st3" d="M467.5,618.7c0,3,0.2,6.1,0,9.1c-0.6,8.4-5.7,16.2-9.1,23.9c-6.2,14.2-11.6,28.8-14.6,44
		c-1.4,7.2-2.3,14.5-3.6,21.7h-5.4c0,0,0,0,0-0.1c-107.1,0-105.7,0.1-112.6,0.1H167.5c0-0.2,0-0.4,0-0.5c0,0,0,0,0,0
		c0-0.1,0-0.2-0.1-0.3c0-0.1,0-0.2,0-0.3c0,0,0,0.1-0.1,0.2c0,0,0,0,0-0.1v0.2c0,0.1,0,0.2-0.1,0.4c0-0.1,0-0.2,0-0.3
		c0,0.3,0,0.5,0,0.7H95.9V459.7c6.1-5.6,12.9-10.4,20.6-13.8c4.5-2,9.6-3.6,22.9-9.4c7.7-3.3,14.7-6.5,20.9-9.5
		c3.1-1.5,6.1-2.9,8.8-4.3c9.3-4.7,16.4-8.5,20.7-10.9c82.5-45.2,150.7-89.5,206.6-110.9c5.6-2.1,25.6-9.6,52-21.6
		c7.1-3.2,13.4-6.2,19-8.9l0.1,94.2c0,0-0.1,0.1-0.1,0.1c-4.5,5-13.7,10.6-18.2,15.6c-19.5,18.5-27.9,30-47.4,48.5
		c6.3,19,8,42.9,20.3,59.2c13.8,18.4,33,31.2,45.3,51.4V618.7z"/>
</g>
<g id="Ebene_11">
	<path class="st1" d="M200.8,717.1h-17.1c0.9-18,2.5-43.4,6-73.7c3.3-28.9,5.9-41.3,6.3-41.2c0.5,0.1-4.5,23.8-3.7,55.9
		c0,0.1,0,0.3,0,0.4c0.2,8.6,0.8,17.8,2.1,27.3C196.1,699,198.7,709.7,200.8,717.1z"/>
	<path class="st1" d="M332.7,616.5c-2.8,0.2-22.5,1.1-35.4-13.7c-8.8-10.1-13.8-26.8-7.6-37.4c2.2-3.8,6.3-7.7,8-6.8
		c2.2,1.1-0.8,9.5-1.2,15.1C295.9,583.1,301.9,597.2,332.7,616.5z"/>
	<path class="st1" d="M442.9,625.5c-4.6,3.1-12.1,7.2-22.1,9.4c-14.9,3.2-27.3,0.3-33.3-1.6c1.5,1.4,3,2.7,4.5,3.7
		c17.3,11.9,40.7,4.7,48.3,2C441.2,634.5,442,630,442.9,625.5z"/>
	<path class="st1" d="M261.5,717.1h-20.8c-5.9-4.3-10.5-8.4-13.8-11.5c-10-9.6-16-18.3-24.5-30.8c-1.2-1.8-9.5-13.8-10.2-16.3
		c0,0,0,0,0,0c-0.1-0.2-0.1-0.4,0-0.4c1-0.7,14.4,20.5,37,38.8C241,706.4,252.5,712.8,261.5,717.1z"/>
</g>
<g id="Ebene_8">
	<g>
		<path class="st1" d="M402,526.9c-2.6-12.8-5.3-25.3-9-37.4c-3.6-12.1-8.1-23.9-13.3-35.3c-5.3-11.4-11.4-22.4-18-33.3l-10.1-16.4
			L341.2,388c1.3,1,2.6,2,3.8,3.1c1.2,1.1,2.5,2.1,3.7,3.2c2.4,2.2,4.8,4.5,7.1,6.8c2.3,2.4,4.5,4.8,6.6,7.3c2.1,2.5,4.3,5,6.3,7.5
			c8.2,10.3,15.4,21.5,20.9,33.6c5.5,12.1,9.6,24.9,11.8,37.9C403.5,500.6,403.9,513.9,402,526.9z"/>
	</g>
	<g>
		<path class="st1" d="M432.9,533.9c-4-7.7-7.7-15.4-11.5-23.1c-3.9-7.6-7.7-15.2-11.7-22.8c-4-7.5-8.1-15-12.3-22.5
			c-4.2-7.5-8.5-14.9-12.6-22.5c5.8,6.4,11.1,13.3,15.9,20.4c4.9,7.1,9.3,14.6,13.4,22.2c4,7.6,7.7,15.5,10.9,23.5
			C428.1,517.3,430.9,525.5,432.9,533.9z"/>
	</g>
	<g>
		<path class="st1" d="M377,553.9c0.9,3.3,0.9,6.7,0.4,10c-0.5,3.3-1.5,6.6-3,9.6c-1.5,3-3.4,5.8-5.7,8.3c-2.3,2.4-5,4.5-8.1,5.8
			c1.7-2.9,3.4-5.5,5-8.2c1.6-2.7,3-5.3,4.4-8.1c1.3-2.7,2.6-5.5,3.7-8.4C374.7,560,375.8,557,377,553.9z"/>
	</g>
	<g>
		<path class="st1" d="M362.5,562.9c-0.2,1.9-0.8,3.7-1.5,5.4c-0.7,1.8-1.6,3.5-2.7,5.1c-2.2,3.2-5.3,6-8.9,7.9
			c-0.9,0.5-1.9,0.9-2.8,1.3c-1,0.3-2,0.7-3,0.9c-2,0.5-4.1,0.7-6.2,0.7c-4.2-0.1-8.3-1.2-11.9-2.9c-1.8-0.9-3.6-1.9-5.1-3l-2.4-1.8
			c-0.4-0.3-0.8-0.6-1.2-1l-1.1-1.1c-2.9-2.9-5.2-6.2-6.8-9.8c-1.6-3.6-2.6-7.4-3-11.1c-0.2-1.9-0.3-3.8-0.2-5.7
			c0.1-1.9,0.2-3.7,0.7-5.6c0.9,3.6,2.1,7,3.4,10.3c1.3,3.2,2.9,6.3,4.8,9.1c1.9,2.8,4,5.2,6.4,7.3c0.6,0.5,1.2,1.1,1.9,1.5l2,1.3
			c1.4,0.9,2.8,1.7,4.3,2.4c1.4,0.7,2.9,1.3,4.4,1.7c1.5,0.4,3,0.7,4.5,0.9c3,0.3,6.1,0,9.1-1C352.9,573.6,358.3,569,362.5,562.9z"
			/>
	</g>
	<g>
		<path class="st1" d="M366.8,554.3c-4.2,1-8.5,1-12.8,0.5c-4.3-0.6-8.5-1.8-12.4-3.6c-4-1.8-7.6-4.1-10.9-7
			c-3.2-2.8-6.1-6.1-8.1-9.9c3.6,2.4,6.9,4.7,10.4,6.7c3.5,2.1,7,3.9,10.6,5.6c3.6,1.6,7.4,3.1,11.2,4.3
			C358.7,552.2,362.6,553.2,366.8,554.3z"/>
	</g>
	<path class="st3" d="M393.8,422.8c-3.5-8.9-7-17.7-10.6-26.6"/>
	<path class="st3" d="M397.7,414.2c-3.5-11.2-5.1-20.5-5.9-27c-0.8-6.3-0.9-11-2.7-18c-1.9-7.4-4.7-13.1-6.8-16.9"/>
	<path class="st3" d="M380.5,389.9c-1.7-7.5-3.4-15-5.1-22.5"/>
	<g>
		<path class="st1" d="M225.9,568c1.4,4.8,3.4,9.4,5.7,13.9c2.3,4.5,4.8,8.8,7.3,13.2c2.5,4.3,5.1,8.6,7.8,12.9
			c2.7,4.2,5.5,8.4,8.5,12.4c5.9,8,12.6,15.3,20.1,21.7c3.7,3.2,7.7,6,11.7,8.7c4.1,2.7,8.3,5,12.7,7.1l-4.2,6.3
			c-5.1-4.3-9.9-8.9-14.5-13.6c-4.6-4.8-9-9.7-13.2-14.9c-8.4-10.3-15.6-21.7-21.5-33.5c-6-11.8-10.7-24.1-15.4-36.4l-3.4-9.2
			c-0.6-1.5-1.2-3.1-1.8-4.6c-0.3-0.8-0.6-1.5-1-2.2c-0.2-0.4-0.4-0.7-0.6-1c-0.3-0.3-0.4-0.3-0.6,0.1c-0.2,0.7-0.2,1.6-0.2,2.4
			c0,0.8,0.1,1.6,0.1,2.4c0.1,1.6,0.3,3.3,0.6,4.9C224.3,561.6,225,564.8,225.9,568z M225.9,568c-0.9-3.1-1.7-6.3-2.2-9.6
			c-0.3-1.6-0.5-3.2-0.7-4.9c-0.1-0.8-0.2-1.6-0.2-2.5c0-0.8,0-1.6,0.2-2.5c0.1-0.2,0.1-0.5,0.5-0.6c0.4,0,0.5,0.2,0.7,0.3
			c0.3,0.3,0.5,0.7,0.7,1c0.4,0.7,0.8,1.5,1.1,2.2c0.7,1.5,1.3,3,2,4.5c1.3,3,2.6,6,4,9c5.5,11.9,11.4,23.5,18.4,34.5
			c6.9,11,14.7,21.3,23.1,31c2.1,2.4,4.3,4.8,6.5,7.2c2.2,2.4,4.4,4.7,6.7,7c4.5,4.6,9.1,9.1,13.9,13.4l21.7,19.8l-26-13.5
			c-4.6-2.4-9.1-5.1-13.2-8.2c-4.2-3.1-8.1-6.5-11.8-10.1c-7.3-7.3-13.4-15.6-18.7-24.2c-1.3-2.2-2.6-4.4-3.8-6.5
			c-1.2-2.2-2.5-4.4-3.6-6.6l-3.4-6.7c-1.2-2.2-2.3-4.5-3.5-6.7c-2.3-4.5-4.6-8.9-6.7-13.5C229.3,577.4,227.3,572.8,225.9,568z"/>
	</g>
	<path class="st1" d="M171.7,622.4c-10-16.7-17.7-29.8-22.5-38.1c-8.3-14.3-12.7-22.1-21.1-31.2c-8.5-9.1-16.7-14.8-19.3-16.5
		c-3.6-2.4-6.8-4.2-9.2-5.5c-0.2,4.4-0.3,8.9-0.5,13.3c2.5,0.2,6.4,0.8,10.5,2.8c8.4,3.9,12.8,10.7,15.6,15.1
		c18.4,29.1,21.6,35,27.5,42.2C156.5,608.9,162.5,615.6,171.7,622.4z"/>
	<path class="st1" d="M166.5,653.5c0.4-0.3-4.4-8.4-25.2-44c-9.4-16-12.5-21.4-18.3-28.9c-8.9-11.4-17.7-19.6-23.8-24.8
		c0,5.7,0,11.3,0,17c2.5,2,6.3,5,10.5,9.2c6.2,6.1,9.9,11.1,13.8,16c8.4,10.8,9.7,11,18.3,21.5C158,639.3,166,653.8,166.5,653.5z"/>
	<path class="st1" d="M156.5,667.4c-2.4-3.7-6-9.2-10.5-15.8c-6.9-10.3-10.3-15.6-12.5-18.6c-8-11.5-12.3-17.5-19.3-24.3
		c-5.4-5.3-10.3-9.1-13.8-11.5c-0.2,7.6-0.3,15.3-0.5,22.9c2.5-0.2,6.1-0.1,10.1,1.4c9.3,3.4,13.8,12.2,16,16
		C130.9,645.5,139.4,656.3,156.5,667.4z"/>
	<path class="st1" d="M160.2,585.3c-4.9-10.4-13.1-24.9-26.6-39.4c-12-12.9-24.2-21.5-33.5-27c-0.3-1.6-0.7-3.2-1-4.8v-3.6
		c2.6,1.1,6,2.6,9.7,4.7c13.2,7.4,21.2,16.1,25.2,20.6C150.7,554.4,157.8,576.9,160.2,585.3z"/>
	<path class="st1" d="M99.7,491.8c3.9,2.1,7.9,4.5,11.9,7.3c16.1,11.2,26.9,24.5,33.9,35.3c-1.2-6.1-3.7-15.3-10.1-24.8
		c-12-17.9-29.4-24.5-35.8-26.6C99.7,486,99.7,488.9,99.7,491.8z"/>
</g>
<g id="Ebene_5">
	<path class="st4" d="M376.4,543.1c-4.5,0.4-10.7,0.5-18-0.8c-12-2.1-20.6-6.7-24.3-8.9c-4.7-2.8-11.5-7.6-19-16.7
		c-0.6-0.8-1.4-1.7-2.4-3c-5.8-8-17.3-27.5-27.9-75.2c-3.4-15.2-9.8-31-6.2-32.9c1.2-0.6,2.3,0.8,9.1,4.4c6.8,3.7,11.4,6.2,17,7.3
		c2.1,0.4,7.2,1.4,13.3,0c8.1-1.9,13.5-6.8,17-9.9c5.1-4.6,7.9-9.1,8.6-8.6c0.7,0.5-2.8,5-3.1,11.7c-0.1,2.2,0.1,5.3,2.3,11
		c0.2,0.4,0.4,0.9,0.5,1.3c3.3,8,7.6,13.2,9.4,15.7c4.1,5.6,6.8,14.2,12.3,31.6c2.4,7.8,5.6,18.1,8.1,32.1
		C374.9,512.5,376.6,526.5,376.4,543.1z"/>
	<path class="st5" d="M340.7,406.2c-2.7,2.6-4.8,4.6-6,5.9c-2.9,2.8-3.6,3.5-4.9,4.5c-1.2,0.9-3.3,2.5-6.3,3.8
		c-1.7,0.7-4.5,1.9-8.3,2c-4.3,0.1-7.7-1.2-9.4-1.9c-2.9-1.2-3.9-2.2-8.1-3.8c-4.2-1.5-4.7-1.1-4.9-0.9c-0.5,0.7,1.1,2.8,2.2,4.1
		c3.1,3.8,5.4,5.1,7,6.7c1.6,1.6,2.4,3.4,3.9,19.4c0.9,9.7,1,12.4,2.5,12.9c2,0.7,4.9-2.6,9.6-8.2c5.8-6.9,5.3-8.2,10.6-14.1
		c2.5-2.8,3.2-3.1,9-9.4c2.2-2.4,4-4.3,5.2-5.6c-0.9-0.8-0.6-2.2-1.3-3.7C338.8,412.4,340.3,407.1,340.7,406.2z"/>
	<path class="st6" d="M376.4,543.1c-4.5,0.4-10.7,0.5-18-0.8c-12-2.1-20.6-6.7-24.3-8.9c-4.7-2.8-11.5-7.6-19-16.7
		c-0.6-0.8-1.4-1.7-2.4-3c4.8,5.5,11.7,11.9,21.1,17.3c16.7,9.5,32,10.3,35.2,10.4c2,0.1,3.7,0,4.9,0c-0.8-17.4-2.8-32-4.9-43
		c-3.7-20-5.5-30-10.8-40.3c-3.7-7.2-5.7-15.4-10.6-21.9c-1-1.4-4.1-5.3-4.5-11c-0.1-0.9,0-1.7,0-2.4c3.3,8,7.6,13.2,9.4,15.7
		c4.1,5.6,6.8,14.2,12.3,31.6c2.4,7.8,5.6,18.1,8.1,32.1C374.9,512.5,376.6,526.5,376.4,543.1z"/>
</g>
<g id="Farben" class="st0">
	<circle class="st7" cx="-108" cy="126.3" r="11.5"/>
	<circle class="st8" cx="-42.7" cy="122.9" r="14.9"/>
	<circle class="st9" cx="-73.4" cy="122.9" r="12.3"/>
	<circle class="st10" cx="-42.3" cy="165.9" r="11"/>
	<ellipse class="st11" cx="-77.5" cy="165.9" rx="11.9" ry="14.1"/>
	<circle class="st12" cx="-77.5" cy="200.9" r="12.4"/>
	<circle class="st13" cx="-42.7" cy="200.9" r="15.9"/>
	<ellipse class="st14" cx="-96.5" cy="240.5" rx="15.8" ry="13.6"/>
	<circle class="st15" cx="-26.7" cy="241.6" r="13.6"/>
	<circle class="st16" cx="-57.5" cy="240.5" r="12.5"/>
</g>
<g id="Gesicht">
	<path class="st17" d="M380.8,238.8c-0.3-2.6-0.6-5-1-7.5C380.2,232.9,380.5,235.3,380.8,238.8z"/>
	<path class="st17" d="M382.3,260.5c-0.1-0.3-0.2-0.7-0.2-1.1c0-0.1,0-0.1,0-0.2v0c-0.2-4.5-0.4-8.4-0.6-11.8c0-0.4,0-0.9-0.1-1.3
		c0,0.4,0.1,0.9,0.1,1.3c0.2,3.6,0.5,7.9,0.9,12.9C382.3,260.4,382.3,260.4,382.3,260.5z"/>
	<path class="st18" d="M383.5,286.1c0,0.7,0,1.2,0,1.8v0c0,5.6-0.3,5.7-0.5,12.7v0c0,0.8,0,1.7,0,2.7c0,1.2,0,2.4,0,3.5
		c0,5.3,0,9.1,0,12.1v0.1c0,4.4-0.3,7.2-1.6,11c-1.3,4-1.6,2.9-5.2,11.5c-2.4,5.6-3.7,9.5-6.3,17.2c-5.3,15.7-7.9,23.5-8.9,25
		c-4.7,7.7-11.5,14.2-14.1,16.7c-1.9,1.8-3,2.7-6.2,5.8c-0.5,0.4-1,0.9-1.6,1.5c-7.2,6.9-7.1,7.2-9.4,8.9c-2.6,1.9-7.7,5.5-14.6,5.7
		c-4.4,0.2-7.6-1.1-12.5-3.1c-1.1-0.5-2-0.9-3.8-1.9c-1.9-1-4.8-2.8-10.3-6c-5.6-3.3-8.4-4.9-9.9-5.7c-8-4.4-8.9-4.1-12.5-6.3
		c-2.3-1.4-5.6-3.7-19.3-20.4c-5.1-6.3-7.7-9.4-8.3-10.4c-1.1-1.7-1.9-3.4-2.7-5.1c-0.2-0.5-0.5-1.1-0.7-1.6c-0.2-0.5-0.4-1-0.6-1.5
		c-0.1-0.4-0.3-0.8-0.4-1.2c-0.2-0.5-0.3-1-0.4-1.4c-1.5-5.5-2.2-11.9-3.1-20.5c-0.3-3.2-0.6-6.1-0.9-8.7c2.8-3.8,6-12,6-20.9
		c0-7.2-2.1-11.7-3.6-15.3c-1.3-3.1-2.2-5.6-0.8-8.4c4.8-10,27.2-4.7,30.5-14.6c0.8-2.3,0.5-5.4-1-6.5c-2.9-2.1-8.1,4.8-16.2,4.9
		c-4.8,0.1-11.3-2.2-13.6-6.5c-1.5-2.9-2.3-8.7,17.7-36.5c1.4-2,2.8-3.8,4.1-5.6c6.7-2.9,11.4-5.8,14.2-7.5
		c4.3-2.5,16.8-10,30.8-13.6c7.9-2,24.6-6.3,39.7,1.6c5.8,3,10.1,7.2,16.7,13.6c7.3,7.1,12,13.4,13.6,15.6c2.9,4.1,6.6,9.3,9.8,16.4
		c0,0,0,0,0,0c0.2,0.4,0.4,0.8,0.5,1.2c0.2,0.5,0.4,1.1,0.6,1.6c0.5,1.3,1,2.6,1.3,3.7c0,0,0,0,0,0c1,4.7,1.6,7.7,2,9.2
		c0-0.6,0-1.2-0.1-1.8c0-0.1,0-0.1,0-0.2c0.1,0.4,0.2,0.8,0.2,1.1c0,0.1,0,0.2,0.1,0.3v0c0,0.5,0.1,1.1,0.1,1.6
		C383.4,275.4,383.5,280.6,383.5,286.1z"/>
	<path class="st19" d="M308.2,418.9c-2.5,0.6-5.1,0-9.5-1.3c-1.9-1-4.8-2.8-10.3-6c-5.6-3.3-8.4-4.9-9.9-5.7
		c-8-4.4-8.9-4.1-12.5-6.3c-0.3-0.2-0.6-0.4-1-0.6c-3-2-5.5-4.5-9.1-8.7c-0.9-1-2.1-2.5-4.6-5.4c-2.9-3.4-2.9-3.5-4.6-5.6
		c-4.8-5.7-6.6-7.7-8.3-10.4c-1-1.6-1.9-3.2-2.6-4.9c-0.2-0.5-0.5-1.1-0.7-1.6c-0.2-0.5-0.4-1-0.6-1.5c-0.1-0.4-0.3-0.8-0.4-1.2
		c-0.2-0.5-0.3-1-0.4-1.4c-1.6-5.6-2.3-12-3.2-20.7c-0.3-3.1-0.6-5.9-0.8-8.5c-1.2-12.1-1.6-18.5-2.3-26.1c0,0,0-0.1,0-0.1
		c0,0.1,0,0.2,0,0.3c0.7,7.5,1.2,13.9,2.3,25.9c2.8-3.8,6-12,6-20.9c0-7.2-2.1-11.7-3.6-15.3c2.5-4.6,4.7-7.2,5.7-6.9
		c2,0.6-2.6,11.3,2.1,24.5c2.2,6.1,6.1,10.8,14.1,20.4c6.5,7.8,9.8,11.7,15.1,16.2c8,6.6,13,8.3,13,12.5c0.1,3.8-3.8,7.7-7.8,8.9
		c-7.8,2.3-15.3-5.8-16.7-4.2c-1.6,1.9,8.8,13.4,9.4,14.1c5.2,5.8,7.9,8.8,12.5,11.5c5.3,3.1,10.9,4.2,21.9,6.3
		c13.4,2.5,17.5,2,18.8,4.7C322.7,405.9,316.4,417.1,308.2,418.9z"/>
	<path class="st20" d="M338.6,293.9c-0.1-1,1-1.5,3.4-3.6c2.6-2.3,2.3-2.4,3.8-3.4c1.6-1,3.2-1.5,4.6-1.9c1.9-0.6,3.4-0.8,3.8-0.8
		c2.4-0.3,8.2-1.1,12.8,2.3c0.8,0.6,1.9,1.6,3,3.2c0,0.6,0,1.1,0.1,1.7c-0.3,0.5-0.7,1.2-1.3,1.9c-0.7,0.7-1.2,1-2.2,1.7
		c-2.3,1.6-1.9,1.7-2.9,2.2c-1.1,0.5-2.4,0.6-5,0.7c-1.3,0.1-2.4,0-3.7,0c-1.3,0-2.1-0.1-3.5-0.2c-5-0.3-4.6-0.1-6-0.3
		c-3-0.4-4.4-1.1-5.4-1.9C339.3,295.1,338.7,294.6,338.6,293.9z"/>
	<g>
		<path class="st21" d="M340.2,261.2c0,2.3,0,4.7,0,7c4.6-2.5,8.6-4.4,11.7-5.9c2.5-1.1,6.3-2.3,14.1-4.7c1-0.3,2.3-0.7,3.9-0.4
			c1.8,0.3,3.6,1.5,4.3,2c0.1,0.1,0.5,0.3,1.1,0.7c0.7,0.5,1.8,1.4,3.2,3.1c0.4,0.5,0.8,0.9,1.1,1.3c0.8,1,0.9,1.2,0.9,1.2
			c0.2-0.1-2.8-5.3-3-5.7c-0.8-1.3-1.5-2.6-2.3-3.8c-0.4-0.6-0.8-1.3-1.2-1.9c-0.3-0.4-0.7-1.3-1.2-1.5c-0.1-0.1-0.3-0.1-0.4-0.1
			c-2.7-0.2-5.3-0.2-7.9,0.1C362.3,252.8,355.9,254.8,340.2,261.2z"/>
		<path class="st21" d="M297.1,267.7c-0.1-2.1-0.1-4.2-0.2-6.3c-7.7-2-13.2-4.3-16.8-6.1c-3.4-1.6-5.7-2.3-10.4-3.7
			c-3-0.9-4.7-1.2-6.7-0.8c-2.2,0.5-3.7,1.7-5.9,3.5c-1.9,1.6-3.2,3-4.3,4.3c-1.3,1.5-2.7,3.3-4.1,5.5c2.2-1.1,4.5-2.3,6.8-3.7
			c1.4-0.8,2.3-1.8,4.1-2.5c0.8-0.4,2.5-1,4.5-1.2c2.3-0.2,4.2,0.2,7.8,1.4c2.7,0.9,4.9,1.8,8.6,3.3c6,2.5,7.2,3.1,10.4,4.3
			C293.6,266.6,295.8,267.3,297.1,267.7z"/>
	</g>
	<g>
		<radialGradient id="SVGID_1_" cx="353.3689" cy="291.0707" r="7.2613" gradientUnits="userSpaceOnUse">
			<stop  offset="0" style="stop-color:#F7F7F7"/>
			<stop  offset="1" style="stop-color:#678093"/>
		</radialGradient>
		<path class="st22" d="M361.2,291.7c0,2.5-1.4,4.7-3.5,6h0c-2.1,0-6.8-0.2-8.9-0.1c-2-1.3-3.3-3.5-3.3-5.9c0-4,3.5-7.3,7.8-7.3
			S361.2,287.7,361.2,291.7z"/>
		
			<ellipse transform="matrix(0.9109 -0.4126 0.4126 0.9109 -88.8081 171.7291)" class="st1" cx="353.2" cy="291.5" rx="2.5" ry="2.5"/>
		<path class="st20" d="M291.5,294.8c-0.2,0.5-0.8,0.5-2.7,1.1c-3.7,1.2-3.9,1.9-7.1,2.7c-2,0.5-3.4,0.6-3.8,0.6
			c-2.2,0.1-3.8-0.2-4.8-0.4c-1.5-0.3-3.4-0.7-5.6-1.9c-2-1.1-3.5-2.6-4.5-3.8c1-1,2.4-2.1,4.3-3.2c0.9-0.5,2.6-1.4,4.9-2.2
			c0.8-0.2,3.1-0.9,6.2-1c1.8-0.1,3.1-0.1,4.8,0.3c1.9,0.5,3.2,1.4,3.9,1.9C288.9,290.3,292.2,293.2,291.5,294.8z"/>
	</g>
	<radialGradient id="SVGID_2_" cx="277.6989" cy="292.4007" r="7.4713" gradientUnits="userSpaceOnUse">
		<stop  offset="0" style="stop-color:#F7F7F7"/>
		<stop  offset="1" style="stop-color:#678093"/>
	</radialGradient>
	<path class="st23" d="M285.5,292.2c0,4-3.5,7.3-7.8,7.3c-4.3,0-7.8-3.2-7.8-7.3c0-1.1,0.2-2.1,0.7-3c0.9-1.9,2.6-3.3,4.8-3.9
		c0.7,0,1.1,0.1,1.8,0.1c1.5,0,2.7,0.1,3.8,0.2c1.4,0.6,2.6,1.5,3.4,2.7C285.1,289.4,285.5,290.8,285.5,292.2z"/>
	<g>
		<path class="st1" d="M297.6,296c-0.2,0.3-4-1.7-7.5-4.1c-2.3-1.6-2.3-1.9-3.8-2.6c-0.4-0.2-1.1-0.6-2-0.9c-1.3-0.5-3.1-1-5.2-1
			c-2.1,0-3.5,0.4-5.7,1.1c-1,0.3-1.9,0.6-2.8,0.9c-2.3,0.8-4.3,1.7-6.3,3.4c-0.3,0.2-0.6,0.5-0.8,0.8c-1,1-1.9,1.8-3.4,2.2h0
			c-0.1,0-0.2,0.1-0.4,0.1c-1.4,0.2-2.4-0.1-2.6-0.2c-1-0.3-1.5-0.9-2.6-2.1c-2-2-2.9-3.7-3.1-4.2c-0.4-0.8-1.9-3.1-1.7-3.2
			c0.2-0.1,1.5,1.4,2.3,2c0.5,0.4,2.6,1.2,3.9,1.5c1.3,0.2,2.2-0.8,4.4-1.8c0.8-0.3,1.8-0.8,5.6-1.7c2.7-0.6,4.9-0.7,5.7-0.7
			c2-0.1,3.1-0.1,3.8-0.1c0.7,0,1.1,0.1,1.8,0.1c1.5,0,2.7,0.1,3.8,0.2c1.5,0.1,2.7,0.4,4.1,0.9c1,0.4,1.7,0.8,7.4,5.2
			C297.5,295.7,297.7,295.9,297.6,296z"/>
		<path class="st1" d="M376.4,290.7c-1.3,0.2-2.7,0.3-4,0.5c-1,0.1-1.9,0.2-2.9,0.3c-0.1-0.3-0.3-0.6-0.5-0.9
			c-0.3-0.4-0.7-0.9-1.2-1.4c-0.5-0.5-1.3-1.1-4.3-2.5c-1.7-0.8-2.5-1.2-3.1-1.4c-2.7-0.8-4.9-0.6-6.6-0.4c-2.6,0.3-4.6,1-5.7,1.5
			c-7.4,3-12,9-12.1,8.9c-0.1-0.1,3.2-4.7,9-8.4c2.9-1.9,4.9-2.5,5.5-2.6c2.3-0.7,4.1-1,6.9-1.1c2.1-0.1,3.7,0,5,0
			c4.5,0,6.6,0.9,7.5,1.4c1.5,0.9,3,2.3,3.6,2.9c1.1,1,2.1,2.2,2.1,2.3C375.9,290.1,376.2,290.4,376.4,290.7z"/>
	</g>
	<path class="st1" d="M284.9,297.2c-1.1,0.9-2,1.3-2.7,1.6c-1,0.3-1.8,0.4-3.2,0.6c-0.4,0-1.4,0.1-2.7,0.2c-0.3,0-1.6,0-3.4-0.2
		c-0.8-0.1-2.3-0.2-4-0.7c-2.2-0.5-3-1.1-6.8-2.6c-0.7-0.3-1.4-0.5-2-0.8c1.5-0.4,2.4-1.2,3.4-2.2c0.9,1,2.2,2.1,3.8,3.1
		c1.5,0.9,2.8,1.4,3.5,1.7c0.6,0.2,1.7,0.6,3.1,0.8c2.5,0.4,4.6,0.2,5.6,0.1C281.8,298.5,283.6,297.8,284.9,297.2z"/>
	<path class="st1" d="M376.4,290.4c-0.2,0.1-3.8,0.3-4,0.5c-0.8,0.6-1.4,1.5-2.2,2.2c-0.8,0.7-1.8,1.3-2.6,2c-0.9,0.9-1.9,1.6-3,2.3
		c-1.4,0.8-3.5,1-5.1,1.3c-0.5,0.1-2.1,0-3.5,0c-1,0-1.9-0.1-2.3-0.1c-0.4,0-3.1-0.5-4.6-0.6c-0.1,0-0.2-0.1-0.2-0.2
		c2-0.1,6.8,0.1,8.9,0.1h0c0.3,0,0.6,0,0.8,0c2.7-0.1,5.6-1.1,7.6-2.9c1-0.8,1.8-1.8,2.5-2.9c0.1-0.2,0.6-1.2,1-2.1
		c0.2,0.3,0.4,0.6,0.5,0.9C371.1,290.6,375.4,290.5,376.4,290.4z"/>
	<path class="st1" d="M349.1,297.8c-0.6-0.1-1-0.1-1.1-0.1c0.2,0,0.5-0.1,0.9-0.1C348.9,297.7,349,297.7,349.1,297.8z"/>
	<circle class="st1" cx="278.2" cy="292.2" r="2.3"/>
	<path class="st5" d="M329.2,338.7c1.9,1.6,6.1,1.3,8.3-1.3c1.3-1.5,1.8-3.7,1.3-5.5c-0.4-1.4-1.1-1.8-3.1-4.4c0,0-0.7-0.9-2.6-3.9
		c-2.2-3.4-8.8-22.4,0.3-35c4.2-5.8,7.3-4,18.3-14.9c0.9-0.9,8-7.9,7-9.1c-0.5-0.7-3,1.2-9.1,3.1c-5,1.6-6.2,1.2-9.4,2.7
		c-0.6,0.3-3.8,1.9-6.5,4.8c-1.9,2-4.1,5.3-6,14.1c-1.1,5.2-2.7,12.6-1.8,22.4c0.9,9.6,3.1,10.1,2.6,18
		C328.2,334.1,327.4,337.1,329.2,338.7z"/>
	<path class="st19" d="M323.9,340.2c-2-0.7-1.7-3.6-4.1-4.5c-2-0.7-3.2,0.8-4.7,0c-2-1.1-1.7-5.3-1.6-6.7c0.4-5,2.4-7.6,3.5-10.6
		c2-5,0.9-9.8-1.2-19.4c-1-4.5-2.5-11-6.8-18c-2.9-4.7-7.9-10.9-9.8-10c-1.2,0.6-0.7,4,0.2,10c0.8,5.6,1.6,7.6,2.3,11.3
		c0.4,1.8,1.8,9.8,0.6,19.6c-0.8,6.5-1.2,9.8-3.5,12.7c-2,2.6-4.2,3.5-5.1,6.8c-0.8,3,0,5.7,0.4,6.7c0.5,1.3,1.2,3.4,3.1,4.7
		c3,2,5.3-0.4,11.7,0.6c2.8,0.4,2.7,0.9,7.2,1.8c1.7,0.3,3.8,0.7,6.7,0.8c3,0.1,5.3,0.2,8-0.6c1.9-0.5,6.6-1.9,8.6-6.1
		c1-2,1.4-5.2,0.2-6.1c-1.1-0.8-3.7,0.7-8.8,3.7C326.6,339.7,325.4,340.8,323.9,340.2z"/>
	<path class="st1" d="M317.1,343.2c0.2-0.5-2.9-2.6-5.7-3.7c0,0-3.3-1.4-6.8-1.5c-0.1,0-0.3,0-0.6,0c-0.2,0-0.2,0-0.2,0
		c-0.2,0.2,0.6,1.5,1.6,2.3c1.2,1,2.6,1.1,3.5,1.2C314,341.9,316.9,343.7,317.1,343.2z"/>
	<path class="st1" d="M328,343.4c-0.2-0.4,1.3-1.9,2.9-2.7c0.4-0.2,1.2-0.6,2.3-0.8c0.2,0,2.3-0.4,2.4,0
		C335.9,340.6,328.5,344.1,328,343.4z"/>
	<g>
		<path class="st1" d="M301.6,342.6c-1.7-0.2-3.3-0.9-4.6-2.1c-1.3-1.2-2.1-2.8-2.4-4.6c-0.3-1.8,0.2-3.7,1.3-5.1
			c1.1-1.4,2.7-2.2,4.4-2.5c-1.5,0.6-2.9,1.7-3.8,3c-0.9,1.3-1.2,2.9-0.9,4.4c0.2,1.5,1,3,2,4.2C298.7,341.1,300.1,342,301.6,342.6z
			"/>
	</g>
	<path class="st24" d="M382.2,261.2c-0.4-1.5-1-4.5-2-9.2c0,0,0,0,0,0c-0.4-1.1-0.8-2.4-1.3-3.7c-0.2-0.5-0.4-1.1-0.6-1.6
		c-0.2-0.4-0.3-0.8-0.5-1.2c0,0,0,0,0,0c-1.4-5.6-3.6-9.5-4.6-11.2c-3.7-6.6-23.3-33.1-29-52.5c14.9,7.5,23.9,18.4,26.3,22.1
		c6.9,10.6,8.2,21.5,9.5,27.7c0.4,2.5,0.7,4.9,1,7.5c0,0.3,0,0.5,0.1,0.8c0.2,1.7,0.3,3.7,0.5,6c0,0.2,0,0.3,0,0.5
		c0,0.4,0.1,0.9,0.1,1.3c0.2,3.4,0.4,7.2,0.6,11.8v0c0,0.1,0,0.1,0,0.2C382.1,260,382.1,260.6,382.2,261.2z"/>
	<path class="st24" d="M379.8,231.3c-1.3-6.1-3.5-16.1-10.4-26.6C367,201,358.9,189,344,181.6c-0.1-0.2-0.1-0.4-0.2-0.6
		c3,1.3,18.9,10.6,26,23.9c3.6,6.7,7.1,11.8,8.8,19.9C379.1,227.1,379.5,229.2,379.8,231.3z"/>
	<path class="st24" d="M381.3,245.6c-0.2-2.2-0.3-4.2-0.5-6C381,241.5,381.2,243.5,381.3,245.6z"/>
	<path class="st24" d="M382.9,319.7c0-0.1,0-0.2,0-0.3c0,0.2,0,0.3,0,0.4c-0.2,1.5-0.3,2.2-0.3,2.2S382.7,321.1,382.9,319.7z"/>
	<path class="st24" d="M383.7,305.5c-0.1-1.5-0.3-3.1-0.6-4.7v0c-0.8-4.5-2.6-9-5.8-12.3c-2-2.1-5.1-4.3-5.2-8
		c-0.1-3.4,2.4-4.9,4.6-11.6c0.8-2.5,1.2-4.4,1.4-5.8c0.4-2.2,1.4-8.7,0-15.9c-0.1-0.7-0.3-1.3-0.4-1.9c0.2,0.4,0.4,0.8,0.5,1.2
		c0.2,0.5,0.4,1.1,0.6,1.6c0.5,1.3,1,2.6,1.3,3.7c0,0,0,0,0,0c1,4.7,1.6,7.7,2,9.2c0.1,1.1,0.1,2.3,0.2,3.5
		c0.7,13.7,1,18.4,1.2,23.5v0c0.1,1.7,0.1,3.4,0.1,5.4C383.7,298.2,383.7,302.1,383.7,305.5z"/>
	<path class="st24" d="M383,319.2c0,0.1,0,0.1,0,0.2C383,319.3,383,319.2,383,319.2V319c0.2-2.6,0.5-7,0.7-13.5
		C384.1,311,383.5,316.1,383,319.2z"/>
	<path class="st25" d="M294.8,372.1c0.1-0.4,0.6-1.7,9.6-2.3c6.7-0.5,11.6-0.2,17,0.2c6.6,0.5,0.8,0.4,11.9,2.2
		c1.4,0.2,3.6,0.5,3.9,1.8c0.4,1.2-1.3,2.7-1.6,2.9c-2.3,2-5.3,2-6.5,2c-12.1-0.3-17.7-6.7-25-4.1c-1.5,0.5-3.8,1.7-6.3,0.8
		C296.2,374.8,294.5,373.3,294.8,372.1z"/>
	<g>
		<path class="st26" d="M294.4,371.3c4.4-2.7,4.2-3.5,9.9-6.8c5.5-3.1,7.7-6.2,10.2-5.4c0.8,0.3,1.7,1.6,4,2.1
			c1.2,0.2,1.5,0.1,2-0.1c1.2-0.5,2-1.7,3-1.9c1.3-0.2,2.4,0.8,3.9,1.8c4.3,2.8,1.5,1.1,3.2,2c1.6,0.9,3.1,1.9,6.5,6.7
			c0,0,1,1.1,1.2,3.7l0,0c-0.1,1.8-0.1,2.2-0.1,2.2c-1.8-0.8-1.8-0.5-3.8-1.2c-1.9-0.6-4.1-0.5-8.6-0.2c-4,0.3-4.3,0.6-6.5,0.4
			c-2.2-0.2-2.7-0.6-5.3-1c-2.7-0.4-4.7-0.4-6.7-0.4c-8.5,0.1-13,2.1-14,0.4C292.8,372.7,293.7,371.7,294.4,371.3z"/>
		<path class="st26" d="M294.4,371.3c1-0.6,1.9-1.3,2.8-2c0.9-0.7,1.8-1.4,2.8-2.1c1.9-1.4,3.9-2.4,5.9-3.7c2-1.2,3.7-2.7,5.7-4
			c0.5-0.3,1.1-0.5,1.7-0.6c0.6-0.1,1.2,0,1.8,0.3c1,0.7,1.8,1.4,3,1.7c0.5,0.1,1.1,0.3,1.6,0.2c0.3,0,0.5-0.1,0.8-0.2
			c0.3-0.1,0.5-0.2,0.7-0.4c0.5-0.3,0.9-0.7,1.3-1.1c0.2-0.2,0.5-0.4,0.8-0.5c0.3-0.1,0.7-0.1,1,0c1.3,0.2,2.2,1.1,3.2,1.6l1.4,0.9
			l0.7,0.5l0.4,0.2l0.2,0.1l0,0l0,0c0.4-0.4-0.6,0.5-0.4,0.5c0,0,0,0.1,0-0.1c0-0.2,0-0.3,0.1-0.4c0.1-0.1,0.4-0.1,0.3-0.1l0,0
			c0.1,0,0.1,0,0.1,0.1c1.1,0.5,2.1,1.2,2.9,2c0.9,0.8,1.6,1.7,2.4,2.6c0.7,0.9,1.4,1.8,2.1,2.8c0.6,1.1,0.9,2.3,1,3.5l0,0l0,0
			c0,0.3,0,0.6-0.1,1c-0.1,0.4-0.3,0.7-0.3,0.9c-0.1,0.1-0.1,0.2-0.1,0.4c0,0.1,0,0.1,0,0.2l-0.2-0.1c-0.2-0.1-0.5-0.2-0.7-0.3
			c-0.5-0.2-0.9-0.3-1.5-0.4c-0.5-0.1-1-0.3-1.5-0.4c-1.9-0.6-4.1-0.4-6.2-0.3c-2.1,0.1-4.2,0.2-6.3,0.4c-2.1,0.2-4.3-0.3-6.3-0.8
			c-2-0.4-4.1-0.7-6.2-0.7c-2.1,0-4.2,0-6.3,0.2c-2.1,0.2-4.2,0.5-6.3,0.7c-0.5,0-1,0.1-1.6,0.1c-0.5,0-1.1-0.1-1.5-0.4
			c-0.2-0.2-0.4-0.4-0.4-0.7c0-0.3,0.1-0.5,0.2-0.8C293.6,371.9,294,371.5,294.4,371.3z M294.4,371.3c-0.4,0.3-0.8,0.6-1.1,1.1
			c-0.1,0.2-0.2,0.5-0.2,0.7c0,0.3,0.2,0.5,0.4,0.7c0.4,0.3,1,0.4,1.5,0.4c0.5,0,1,0,1.6-0.1c2.1-0.3,4.2-0.6,6.3-0.8
			c4.2-0.3,8.4-0.5,12.6,0.3c1,0.2,2,0.5,3.1,0.6c1,0.1,2.1,0.2,3.1,0c2.1-0.3,4.2-0.4,6.3-0.6c2.1-0.1,4.2-0.3,6.4,0.3
			c0.5,0.2,1,0.3,1.5,0.4c0.5,0.1,1.1,0.2,1.6,0.4c0.3,0.1,0.5,0.2,0.8,0.3l0.2,0.1c0,0,0-0.1,0-0.2c0-0.1,0-0.3-0.1-0.4
			c-0.1-0.3-0.2-0.5-0.3-0.6c-0.1-0.2,0-0.4,0-0.6l0,0c-0.1-1.1-0.3-2.2-0.9-3.1c-0.6-0.9-1.3-1.9-2-2.8c-0.7-0.9-1.4-1.8-2.3-2.5
			c-0.8-0.8-1.8-1.4-2.8-1.9c-1-0.6-1.9-1.3-2.9-1.9c-1-0.6-1.9-1.4-2.9-1.6c-1.1-0.3-1.8,0.8-2.8,1.4c-0.2,0.2-0.5,0.3-0.8,0.4
			c-0.3,0.1-0.6,0.2-0.9,0.2c-0.6,0-1.2-0.1-1.8-0.3c-1.2-0.3-2.1-1.1-3-1.8c-0.4-0.3-1-0.4-1.6-0.3c-0.5,0.1-1.1,0.3-1.6,0.6
			c-2,1.2-3.8,2.7-5.8,3.8c-2,1.2-4,2.3-5.9,3.6c-0.9,0.7-1.8,1.4-2.8,2.1C296.4,370,295.4,370.6,294.4,371.3z"/>
	</g>
	<g>
		<path class="st26" d="M294.3,375.1c0.7,0.9,1.7,2.4,2.9,4.2c3.1,4.6,3.5,5.4,4.9,6.9c0.8,0.8,2.6,2.5,5.4,3.7
			c1.7,0.7,3.4,0.9,6.7,1.3c5.4,0.7,8.2,1,11.2,0c2.3-0.8,3.7-1.9,4-2.1c0.8-0.6,1.5-1.4,3.6-4.6c0.1-0.1,0.2-0.2,0.2-0.3
			c1.1-1.2,2.4-2.9,3.5-5.2c0.5-1.1,0.8-2.1,1.1-3c-0.9-0.6-1.7-0.8-2.2-0.8c-1.4-0.2-2.3,0.3-4.1,0.1c-1.5-0.2-1.9-0.3-3.2-0.7
			c-3.4-1.1-4.8,1.4-9.3,1.2c-1.9-0.1-1.6-0.9-4.4-1.6c-2.8-0.7-5.1-0.5-7.6-0.3C302.5,374.3,298.4,374.7,294.3,375.1z"/>
		<path class="st26" d="M294.3,375.1l3.5,5c1.2,1.7,2.2,3.4,3.5,5c2.6,3,6.3,5.3,10.3,5.6c2,0.3,4,0.5,6,0.7c2,0.2,4,0.3,6,0
			c1.9-0.4,3.8-1.2,5.4-2.3c0.8-0.6,1.4-1.3,2-2.2c0.6-0.8,1.1-1.7,1.7-2.5l0,0l0,0c2.2-2.3,3.9-5.2,4.7-8.3l0.1,0.4
			c-0.7-0.5-1.6-0.8-2.4-0.8c-0.9,0-1.8,0.2-2.8,0.2c-1,0-1.9-0.1-2.8-0.4c-0.9-0.2-1.8-0.6-2.6-0.7c-1.7-0.2-3.4,0.9-5.3,1.2
			c-0.9,0.2-1.9,0.2-2.8,0.2c-0.5,0-1-0.1-1.4-0.4c-0.4-0.2-0.8-0.5-1.2-0.7c-1.6-0.7-3.5-1.1-5.3-1.1c-1.8-0.1-3.7,0.2-5.5,0.3
			L294.3,375.1z M294.3,375.1l11-1.2c1.9-0.2,3.7-0.4,5.6-0.4c1.9,0,3.8,0.3,5.5,1.1c0.4,0.2,0.8,0.5,1.2,0.7
			c0.4,0.2,0.8,0.3,1.2,0.3c0.9,0,1.8,0,2.7-0.2c0.9-0.2,1.7-0.5,2.6-0.8c0.9-0.3,1.9-0.6,2.9-0.5c0.5,0,1,0.2,1.4,0.3
			c0.4,0.1,0.9,0.3,1.3,0.4c0.9,0.2,1.8,0.3,2.7,0.3c0.9,0,1.8-0.2,2.8-0.2c1,0,2,0.4,2.8,0.9l0.2,0.1l-0.1,0.2
			c-0.8,3.2-2.5,6.3-4.9,8.6l0-0.1c-0.5,0.9-1.1,1.7-1.7,2.6c-0.6,0.8-1.3,1.7-2.1,2.3c-1.7,1.2-3.6,2.1-5.7,2.4
			c-2.1,0.3-4.1,0.2-6.2,0c-2-0.2-4-0.5-6.1-0.8c-1-0.2-2-0.3-3-0.6c-1-0.3-1.9-0.8-2.8-1.3c-1.8-1-3.4-2.4-4.7-4
			c-1.2-1.6-2.3-3.4-3.4-5.1L294.3,375.1z"/>
	</g>
	<path class="st24" d="M261.9,269.4c-3.4,9.9-25.7,4.6-30.5,14.6c-1.4,2.8-0.5,5.3,0.8,8.4c1.5,3.6,3.6,8.2,3.6,15.3
		c0,8.9-3.2,17.1-6,20.9c-1.1-12-1.6-18.3-2.3-25.9c0-0.1,0-0.2,0-0.3c-0.1-1.5,0-3.1-0.5-4.8c-6.8-22.4-7.1-22-6.8-29.5
		c0.6-13.1,7.5-23.4,13.6-41.4c0.2-0.7,0.5-1.4,0.7-2c3.1,0,7.4-1.5,12.3-3.2c2.2-0.8,4.2-1.6,6.1-2.4c-1.3,1.8-2.7,3.6-4.1,5.6
		c-20,27.8-19.3,33.6-17.7,36.5c2.3,4.4,8.8,6.6,13.6,6.5c8.1-0.1,13.2-7,16.2-4.9C262.4,264,262.7,267.1,261.9,269.4z"/>
	<path class="st24" d="M245.6,222.4c-5.1,1.8-9.6,3.5-12.8,3.4c0.7-2,1.3-3.7,1.8-5.2c8.8-13.6,18-19.4,20.7-21
		c1.1-0.7,10.9-6.6,12.7-4.5c1.7,2-5,9.7-15.8,24.5C250.3,220.6,248,221.5,245.6,222.4z"/>
	<path class="st24" d="M229.8,328.7C229.8,328.7,229.8,328.8,229.8,328.7c-1.2-12.1-1.7-18.5-2.4-26.1c0,0,0-0.1,0-0.1
		c0,0.1,0,0.2,0,0.3C228.2,310.4,228.7,316.8,229.8,328.7z"/>
</g>
<g id="Haare">
	<path class="st24" d="M378.9,247.4c-3.2-7.5-7-12.9-10-17.1c-1.7-2.3-6.4-8.8-13.9-16.1c-6.7-6.6-11.1-10.8-17-14
		c-7.6-4-15.5-4.9-22.6-4.6c-7,0.3-13.1,1.8-17.2,2.8c-0.2,0.1-0.4,0.1-0.6,0.2c-14.3,3.7-27.1,11.3-31.4,14
		c-2.8,1.7-7.5,4.7-14.2,7.6c10.6-14.4,17.2-21.8,15.6-23.7c-1.7-2.1-11.4,3.6-12.5,4.3c-2.6,1.5-11.7,7.2-20.4,20.3
		c2.5-6.5,4.1-9.3,6-11.7c2.8-3.7,5.4-5.8,18.6-15.6c3.5-2.6,6.5-4.7,9-6.6c3.5-2.5,6.1-4.4,7.9-5.6c1.4-0.9,2.3-1.5,2.8-1.8
		c5.6-2.5,10.8-3.6,16.4-4c4.5-0.4,9.2-0.3,14.5-0.3c12.1,0.1,19,0.2,27.7,3.2c1,0.3,1.9,0.7,2.8,1.1c1.5,0.6,2.9,1.3,4.3,1.9
		c5.9,20,25.9,47.3,29.7,54.1C375.2,237.6,377.5,241.6,378.9,247.4z"/>
	<path class="st27" d="M315.5,184.5c3.5-0.7,8.2-1.7,11.7-2c10.4-0.8,18.8,3.7,25.8,7.4c6.5,3.4,12.6,6.7,17.2,13.7
		c2.5,3.7,3.5,7,5.1,11.7c2.2,6.7,3,12.2,3.9,20.3c1.6,14.1,2.3,24.7,2.3,24.7c0,2.6,0.7,10.6,1.6,31.7c0.4,9-0.4,16.2-0.2,21.3
		c-1.2,12.3-2.7,19.9-4.9,24.5c-0.6,1.4-2.6,5.3-4.7,11c-1.2,3.2-1.8,5.4-2.7,8.6c-1.2,3.9-3.7,9.8-5.9,16.7c6-1.3,10.8-4.1,13-5.7
		c10.5-8,14.9-23.3,12.9-35.6c-1-6-3.6-11.9-2-12.9c1-0.6,2.4,1.1,7,3.1c3.3,1.4,7.4,2.7,7.8,2c0.4-0.8-4.9-2.8-7.8-8.2
		c-2.2-4-2-7.9-2-11c0.2-6.9,2.8-12,3.9-14.1c3.2-6,5.2-5.8,5.5-9c0.5-6.2-7.2-9.4-5.9-14.1c0.7-2.7,3.4-2.4,6.3-5.5
		c4.1-4.5,3.7-10.9,3.1-19.6c-0.6-8.6-0.9-14.4-5.1-20.3c-3.9-5.7-9.2-8.5-12.1-9.8c2.4-1,7.2-3.5,11-8.6c1.8-2.5,6.6-9,4.7-16.4
		c-2.4-9.4-13.4-12.4-15.3-12.9c-7-1.8-12.9,0.2-15.3,1.2c1.4-2.1,5.3-8.5,4.3-16.8c-1-8.1-6-13.1-9-16
		c-8.4-8.2-18.9-10.8-27.8-12.1c-14-2.1-26.1-1.3-62.2,5.5c-38.3,7.1-44.3,9.9-50.5,14.1c-12.7,8.7-22.1,21.1-25,25
		c-5.9,7.9-9.9,15.3-12.5,20.7c-5-0.3-16.5-0.3-28.2,6.7c-4.8,2.9-16.4,9.8-19.6,23.9c-2.8,12.4,2.6,22.6,4.3,25.4
		c-0.9,3.1-2.2,8-3.5,14.1c-3.7,17.5-2,20.1-5.5,28.6c-1.7,4.1-5.3,9.4-12.5,20c-6.5,9.6-8.1,10.8-9.4,15.3
		c-2.8,9.7,0.3,18.6,1.2,21.1c2.9,8.1,5.6,7,9.4,16.4c1.3,3.3,2.3,8.3,4.3,18.4c1.9,9.5,1.8,11,1.2,12.5c-2.4,6.1-8.7,5-12.1,11
		c-3.4,5.8-1.5,14.3,2,19.6c4.9,7.6,10.7,4.9,18.4,14.1c1.9,2.2,3.9,5.7,7.8,12.5c4.6,7.9,4.8,9.4,7.4,12.1
		c4.9,5.1,7.6,3.4,13.3,7.8c6.2,4.8,11.6,13.5,11.7,22.3c0.1,6.4-2.6,7.9-1.6,14.1c0.8,4.7,2.7,5.7,6.7,12.5
		c5.8,10,4.5,12.5,11.3,25c3.2,5.9,4.9,8.9,7.4,10.6c5.6,3.7,9.8,1.1,18,3.9c5.1,1.7,8.2,4.3,13.3,8.6c9,7.5,8.6,10.7,15.7,17.2
		c10.7,9.8,23.6,13.5,24.3,12.5c0.2-0.3-1.7-2.1-5.5-5.9c-1.2-1.2-2.2-2.1-3.8-3.6c-2.3-2.2-4.2-4-5.6-5.4c2.6,2.4,9.1,7.8,19.2,9.8
		c9.7,1.9,17.4-0.4,20.7-1.6c-3.3-0.1-10.1-0.7-17.2-4.7c-6.1-3.5-9.9-7.9-11.7-10.6c5,2.3,12.6,4.8,21.9,4.3
		c2.3-0.1,4.3-0.4,6.3-0.8c-1.1,0-11.5-0.7-16.8-9.4c-2.7-4.4-2.8-8.9-2.7-11c2.9,2.4,7.4,5.2,12.5,4.7c6.2-0.6,8.1-5.7,19.2-17.2
		c11.8-12.3,15-12.2,15.7-17.2c1-7.7-6.2-10.6-6.7-22.7c-0.1-1.3,0-2.3,2-12.9c3.9-21,4.7-22.4,4.3-25.8
		c-0.7-5.8-4.2-13.5-17.2-21.9c0.5-1.1,4.2-9,0.4-17.2c-3.4-7.2-11.1-11.7-19.6-11.3c-6-8.5-12.3-13.1-16.8-15.7
		c-6.1-3.4-9.1-3.3-14.1-7.8c-3.4-3.1-5.5-6.5-9.8-13.3c-2.3-3.7-4.1-6.7-5.9-11c-1.7-4.3-2.6-8.2-3.1-11c1-2,2.7-5.8,2.7-11
		c0-2,0.1-7-2.7-11.7c-3.4-5.7-6.9-4.1-10.6-10.2c-2.8-4.7-3.4-9.9-3.5-11.7c-0.1-1.8-0.1-3.2,0-4.3c5.7-2.6,7.3-6.2,7.8-7.4
		c2.9-7.4-2.4-18.5-14.5-25c2.4-1.1,6.3-3.1,9.4-7c2.6-3.3,3.2-6.2,6.3-23.1c2.2-12,2.3-12.9,2.3-14.5c0.4-8.2-1.1-10,0-16.4
		c0.7-4.5,1.6-9.7,5.5-13.7c4.8-5,8.4-2.3,16.8-8.2c4.6-3.3,4.7-4.9,9.4-7.4c4-2.1,7.4-2.8,11.3-3.5c9.9-1.8,11.5,0.2,21.1-1.6
		C308.5,186.4,308.6,185.9,315.5,184.5z"/>
	<path class="st28" d="M341.5,177.2c0,0-0.7,1.1-1.7,2.5c-0.9-0.4-1.8-0.7-2.8-1c-8.5-3-15.2-3-27.1-3.1c-5.2,0-9.8-0.1-14.2,0.3
		c-5.5,0.4-10.6,1.5-16.1,3.9c-0.5,0.2-1.4,0.8-2.8,1.7c-1.8,1.2-4.3,3-7.7,5.5c-4.7-5.3-7.3-11.7-5.7-13.7
		c1.5-1.7,5.2,1.3,11.7-0.1c6.9-1.5,11.3-6.7,12.2-7.7c2.8-3.3,2-4.3,5.9-9.4c1.9-2.5,3.7-4.9,6.7-7c4.1-2.9,8.1-3.8,11-4.3
		c4.5-0.9,15-2.9,25,3.1c2.8,1.7,11.3,6.7,11.7,14.5C347.9,167,345.1,171.5,341.5,177.2z"/>
	<path class="st28" d="M288.5,151.1c-6.7,7.8-16.1,16-26.6,15.1c-10.7-0.9-14.7-10.5-23.5-8.9c-2.6,0.5-5.1,1.9-18.8,20.9
		c-11.5,16-10.8,16.7-14.1,18.8c-10.1,6.6-18.2,1.5-30.8,7.8c-6.6,3.3-12.1,8.6-13.6,10.2c-0.7,0.8-1.4,1.7-1.4,1.7
		c-2.4,3-3.4,5.4-3.7,6.2c0,0,0,0.1-0.1,0.1c-0.7,1.7-1.6,5.7-1.6,16.2c0.7-3.8,3.1-13.4,11.5-20.3c6.4-5.3,13.9-7,16.4-7.5
		c4.3-0.9,4.6-0.3,10.2-1.4c4.5-0.8,10.3-1.9,16.2-5.2c2-1.1,8.7-4.9,13.6-12.5c4.9-7.7,3-11.4,8.9-18.8c2.4-3.1,4.9-6,8.9-6.8
		c4.8-0.9,7.1,2.9,13.6,5.7c12,5.3,24.1,1.2,26.1,0.5c3.5-1.2,14.2-4.8,14.6-12C294.6,156.1,290,152.2,288.5,151.1z"/>
	<path class="st28" d="M212.9,232.4c-4,1.5-22.1,8.7-30.8,28.2c-0.7,1.6-10.8,25.1,0.3,41.5c4.2,6.3,6.9,4.6,17,13.9
		c8.4,7.6,19.3,17.6,20.2,30.2c0.7,8.5-3.8,10.2-11,28.2c-6.7,17-10.1,25.5-8.6,33.9c3.6,20.1,30.5,32.1,46.2,39.1
		c19.4,8.7,25.1,6,37.6,15.7c5.3,4.1,22.3,17.2,21.5,33.3c-0.5,10.8-8.5,11.7-25.7,37.2c-15.6,23.1-14.9,31.1-13.6,35.5
		c2.6,8.4,10.8,13,9.4,15.2c-1.1,1.7-7.3,0.6-11.2-2.8c-2-1.7-5.5-5.8-5.4-18.1c0.1-18.7,8.4-33,9.9-35.5
		c11.1-18.5,21.6-19.5,21.4-28.7c-0.2-11.3-16.4-19.6-26.1-24.5c-27-13.8-37.5-4.9-55.2-16.6c-14.7-9.7-27.3-29-26.7-47.6
		c0.4-13.4,7.7-28.3,16.7-47c6-12.4,9.9-18,7.3-23.5c-3.8-7.9-15.7-4.3-28.8-15.1c-7.6-6.3-11.3-14-13-18.3c-5.7-15-1.5-29,1-37.6
		c2.3-7.8,5.4-13.7,7.7-17.6c-3.2,1.8-7.9,5-11.9,10.3c-6.2,8.1-7.3,16.5-8.3,25c-1.1,8.8-2.5,20.4,2.6,32.9c2,5,2.7,4.3,18.5,27.8
		c7.5,11.2,8.2,12.6,8.6,15c1.6,9.2-4,13.2-8.3,29.7c-1.6,6.2-3.3,12.4-3.1,20.3c0.3,14.3,6.3,24.9,9.9,31.3
		c3.3,5.9,9.6,16.8,21.9,25c14,9.3,19.9,4.5,31.8,13.6c3,2.3,15.8,12.1,17.2,27.7c1.3,13.9-7,27.9-20.5,36.7
		c0.1-5.7,0.4-10.6,0.7-14.3c0.7-8.2,1.4-10.9,0-14.6c-1.9-5-6.1-7.6-8.9-9.4c0,0-4.1-2.6-26.6-19.8c-13.2-10.1-21.1-20.9-28.7-31.3
		c-7.5-10.3-11.6-18.1-12.5-19.8c-4.8-9.2-8.8-17.1-9.9-28.2c-0.5-4.5-1.2-11.1,1-18.8c4.3-15.2,14.3-15.5,15.1-25.6
		c0.8-8.8-6.7-10.2-15.7-30.8c-2.2-5.1-4.7-10.8-6.3-18.8c-1.1-5.7-3.6-18.6,0.8-33.2c1.4-4.6,1.5-2.8,11.7-22.6
		c8.9-17.1,9.5-19.8,14.1-23.5c8.1-6.6,17.6-7.4,22.2-7.8C199.9,227.2,208.7,230.5,212.9,232.4z"/>
	<path class="st29" d="M245.9,376.5c1,1.4,2.4,3.3,4.3,5.5c4.1,4.6,8.2,7.6,12.9,10.6c9.7,6.2,10.4,5.1,17.6,9.8
		c7.7,5.1,13,8.5,15.7,14.9c2.6,6.3,1.4,12.2,0,18.8c-3.2,15-9.8,17.2-9,26.6c0.7,8.8,7.2,15.1,9.8,17.6c6.6,6.5,10.1,4.7,21.9,12.9
		c7.5,5.2,12.8,9,13.3,14.9c0.3,3.8-1.4,7.3-3.9,12.1c-2.1,4.1-4.3,6.9-6.2,9.3c-2.1,2.6-5.1,6-9,9.5c3-5.5,5.2-10.2,6.7-13.7
		c1.8-4.2,2.6-6.5,3.1-9.4c0.7-3.9,1.4-7.8-0.8-11c-0.8-1.2-1.8-1.9-7-4.3c-5-2.3-8.5-3.8-9.8-4.3c-6.9-3-11.4-7.5-13.7-9.8
		c-4.3-4.3-10-10-11-18.4c-0.5-4.7,0.6-8.5,2-13.3c1.9-6.7,3.6-7.3,5.5-14.1c1.3-4.5,2.4-8.5,1.6-13.7c-0.2-1.6-1.2-7.2-5.5-12.1
		c-1.3-1.5-3-3.1-14.5-9c-3.8-2-7.1-3.6-9.4-4.7c1.7,5.3,4.2,7.7,6.3,9c2.9,1.8,4.9,1.3,7.8,3.5c2.8,2.2,3.9,5.1,4.7,7
		c0.5,1.2,3.4,8.8,0,15.3c-1.7,3.2-3.2,2.8-4.7,6.3c-0.7,1.6-0.8,2.6-1.2,9c-0.4,6.2-0.5,9.3-0.4,10.6c0.3,2.3,1,5.7,3.1,9.8
		c-1.8-1.1-4.6-3.2-6.7-6.7c-2.4-4-2.5-7.7-2.7-13.7c-0.2-6.4-0.4-9.6,1.6-12.5c2.2-3.3,4.4-2.9,5.9-6.3c1.6-3.7,0.3-7.5-0.4-9.4
		c-0.6-1.6-1.8-5.2-5.1-7.4c-2.9-1.9-4-0.6-7-2.3c-3.4-1.9-5-5.2-7-9.4c-1.2-2.4-1.9-4.5-2.3-5.9c-0.9,1.6-2.1,4.7-1.6,8.2
		c0.4,2.5,1.5,4.3,2.3,5.5c4,5.8,8.8,11.3,11.7,14.5c-1.5,0.2-3.6,0.3-5.9-0.4c-9.4-2.8-12.5-15.8-12.9-17.6
		c-1.3-5.6,0.4-5.3-1.2-12.1c-1.4-6.1-3.3-9-2.3-13.3C243,379.8,244.7,377.7,245.9,376.5z"/>
	<path class="st29" d="M340.9,183.8c0.5-1.7,1.2-4.9,0.3-8.6c-1.2-5.1-5.2-10.4-10.7-11.7c-4.4-1.1-8.1,0.7-14.1,3.7
		c-7.4,3.7-8.3,6.3-13.6,8.6c-3.6,1.6-9.4,3.1-18,1.6c5.4-2,9.8-4.1,13-5.7c7-3.6,9.1-5.6,10.2-6.8c2.2-2.4,2.2-3.3,3.9-4.7
		c2.2-1.9,6.1-3.4,13-2.3c-3.1-1.7-10.4-5.2-16.2-2.3c-2.5,1.2-5.1,3.8-8.3,7c-1.7,1.7-3,3.1-3.9,4.2c0.1-1.7,0.4-4.9,2.3-8.3
		c0.7-1.3,2.7-4.6,6.8-7c4.5-2.7,8.9-2.7,12-2.6c8.9,0.1,15.4,4.3,18.8,6.5c3.2,2.1,6,4,8.3,7.8c2.6,4.2,3.1,8.4,3.1,10.7
		c0.7-0.9,3.2-4.4,2.9-9.4c-0.4-5.7-4.3-9.1-5-9.7c1.1,0.1,7.1,0.8,9.9,5.5c2,3.4,1.2,7.2,0.3,11.5c-1,4.4-2.8,7.5-4.7,11
		c-1.6,2.9-3.2,5.2-4.4,6.8c-0.3-1.8-0.7-3.7-1-5.5c-1.2,1-2.4,1.9-3.7,2.9C341.7,185.7,341.3,184.7,340.9,183.8z"/>
	<path class="st29" d="M403.1,321.1c-1,0.1-2.6,0-4.2-0.8c-2-1.1-3.2-3.1-4.2-6c-2-6.1-1.5-11.8-1.3-13.8c0.6-6.1,1.4-13.1,2.6-20.9
		c-2,4.3-3.3,8-4.2,10.7c-1.1,3.5-1.8,5.5-2.1,8.3c-0.5,4.5,0.1,8.4,0.8,11c-1.2-1.4-3.1-3.9-4.2-7.6c-0.4-1.5-1.3-5.3-0.3-9.7
		c0.9-3.7,2.4-4.8,3.9-10.4c0.4-1.4,0.6-2.6,0.8-3.4c-1.4,1.6-2.8,3.1-4.2,4.7c0.1-2.5,0.2-3.9,0.2-4.7c0-0.8,0-1,0-1
		c0.4-4.6,1.2-4.5,1-6.5c-0.3-3.6-2.9-3.5-5.4-8.7c-0.1-0.2-0.2-0.6-0.4-1.1c0-0.6,0-1.2-0.1-1.8c0-0.1,0-0.1,0-0.2v0
		c-0.2-4.5-0.4-8.4-0.6-11.8c0,0,0,0,0,0c1.2,0.3,2.6,1.3,3.1,1.7c2.3,1.6,3.6,3.6,4.2,4.7c2.2,3.8,1.6,5.5,2.9,8.3
		c2.3,5.2,6.4,4.2,8.9,8.4c2,3.2,0.6,5.7-2.1,20.1c-2.3,11.9-2.2,14.5-1.8,16.7C397.5,313.4,400.6,318.1,403.1,321.1z"/>
	<path class="st30" d="M100.2,465.9c-0.4,0-0.7-0.1-1.1-0.1v-0.4C99.6,465.6,99.9,465.7,100.2,465.9z"/>
	<path class="st30" d="M100.2,465.9c2.2,0.2,4.5,0.4,7.1,0.5c-2.5,0.6-4.6,0.6-6.6-0.3C100.6,466.1,100.4,466,100.2,465.9z"/>
	<path class="st30" d="M195.7,267.9c-8.7,15.4-9.7,18.7-9.4,22.4c0.3,3.6,1.7,5.2,4.2,9.9c2.2,4.2,15.4,29.3,7.3,40.2
		c-1.5,2.1-1.7,0.7-10.4,6.3c-10.2,6.5-11.5,9.3-16.7,11c-3.5,1.1-8.9,1.8-16.7-1c4.6-1.4,8.3-2.9,11-4.2
		c15.2-7.2,27.5-19,28.7-28.2c0.3-2.2,0.1-4.5,0.1-4.5c-0.1-1.4-0.2-6.3-3.8-10.6c-2.9-3.5-6-3.8-8.3-8.3c-0.7-1.4-2.3-5.1-1.6-9.4
		c0.8-4.5,3.5-5.2,5.2-11c1-3.1,0.6-4.2,1-7.3c0.6-3.7,2.2-8.8,6.8-14.6c-2.6,1.8-6.4,4.9-9.9,9.4c-1.9,2.4-7.4,9.7-8.9,19.8
		c-0.6,4.2,0.1,5,1.6,17.7c2.6,21.6,1.4,25.6-0.5,28.7c-2.6,4.2-6.5,6.4-9.9,8.3c-7.7,4.4-11.8,2.9-18.3,7.8c-4,3.1-6.1,6.5-7.3,8.3
		c-2.1,3.4-6.6,10.8-4.2,16.2c1.6,3.5,4.8,3,13,7.3c5.3,2.8,12.5,6.5,17.2,13.6c3.6,5.4,4.4,10.7,5.2,16.7c0.3,2.1,0.7,5.5,0.5,9.9
		c-0.1,3.4-0.5,7.3-1.5,11.5c-1.4,6-3.5,14.6-9.9,21.4c-8.2,8.6-19.1,9.6-34.4,11c-6.5,0.6-12.9,0.6-18.5,0.3
		c4.3-1.1,9.6-4,17.4-7.1c17.9-7.2,18.5-3.3,25-8.3c9.4-7.2,12.3-18.5,13.2-24.4c0.3-1.9,0.4-3.2,0.4-3.8c0.2-3.2,0.6-14.2-6.3-24
		c-9.3-13.4-21.8-9.8-27.1-20.9c-4.5-9.4-0.7-22.6,6.3-29.7c6.5-6.7,11.2-3.2,19.8-10.4c7.1-6,13.6-16.5,13-27.1
		c-0.3-6.3-2.9-6.9-4.2-16.2c-0.1-0.9-1.3-9.9,0.5-18.8c3.6-17.1,17.5-27.6,21.9-30.8c2.1-3.5,4.2-7,6.3-10.4c3.4,9.8,6,12.1,7.8,12
		c0,0,7.2-4.4,7.2-4.5c0,0-0.4,0.2-1.4,0.8c1-0.6,3.6-2.3,5.7-3.6c-2.4,3.8-5.8,9.3-9.9,16.2C202.2,256.7,199.3,261.5,195.7,267.9z"
		/>
	<path class="st29" d="M223.8,158.5c-19.3,17.3-24.7,24.3-25.8,27.4c0,0-2.4,6.6-5.5,12.3c0,0,0,0,0,0s0,0,0,0c0,0-2,3.6-2.3,4.1
		c-5.6,9.2-14.1,17.2-14.1,17.2c-17.3,16.3-29.4,15.2-34.4,28.2c-1.8,4.7-2.3,10.2-2.6,12.9c0,0-0.9,9,0.8,17.9
		c0.1,0.6,0.2,1.3,0.2,1.3c1,4.8,2.2,8.4,2.6,9.6c0.8,2.4,2,5.2,3.6,8.4c-0.5-2.2-6.4-32,7-47.7c4.1-4.9,8.6-7.8,8.6-7.8
		c9.5-6.3,13.5-2.9,21.1-8.6c4.4-3.3,9.3-9.2,11.4-16.6c0.7-2.6,0.8-4.5,1.2-4.5c0.9,0,4,11.5-0.8,21.9c-3.9,8.5-13,16-18.8,16.4
		c0,0-5.7,0.4-8.6,3.1c-0.3,0.3-0.6,0.6-0.6,0.6s0,0-0.1,0.1c-0.4,0.4-4.6,8.8-3.3,9.5c0.6,0.3,2.4-0.9,8.2-8.6
		c1.9-0.5,4.5-1.4,7.6-2.5c3.9-1.5,5.9-2.2,8.2-3.7c1.2-0.7,4.1-2.7,7-6.3c1.6-1.9,4.3-5.2,5.5-10.2c0.3-1.3,0.3-3.5,0.4-7.8
		c0.1-6.5,0.1-9.8-0.4-13.5c-0.7-5.4-1.5-4.7-1.6-7.6c-0.2-7.2,4.2-13,7.6-17.4c4.5-5.8,6.1-5.4,9.8-10
		C219,172.8,222.3,167.1,223.8,158.5z"/>
	<path class="st30" d="M291.1,145.2c0.7,2.1-7.7,3.8-12.5,12.5c-2,3.6-1.7,5.5-3.7,16.7c-1.9,10.9-2.8,16.3-3.7,17.7
		c-1.7,2.8-5.1,6.4-35.5,14.1c-12.7,3.2-16.2,3.6-20.3,7.3c-6.6,5.8-8.6,14.4-9.2,20.9c-0.7-1.5-5-11.8,0.3-21.4
		c4.8-8.7,14.3-11,18.3-12c5.1-1.3,5.2,0,14.1-1c10.1-1.2,16.6-1.9,21.4-6.8c3.6-3.6,4.7-8.1,5.7-12c1.4-5.5,1.2-10.2,3.7-18.3
		c0.4-1.3,0.8-2.3,1-2.9c1.7-4.5,3.7-7.9,5.3-10.1c-5.4,8.2-10.7,11-14.6,12c-2.7,0.7-4.5,0.5-5.7,2.1c-2.9,3.6,3.1,9.1,1,16.2
		c-1.2,4.3-5.2,8.6-9.4,9.4c-0.5,0.1-3.2,0.2-8.7,0.3c-0.4,0-1.6,0-3.1,0.1c0,0-0.9,0-1.7,0.1c-3,0.2-8.3,1.2-8.3,1
		c-0.1-0.2,13.2-0.5,22.4-9.4c0.6-0.5,3.4-3.3,5.7-7.8c5.4-10.4,1.8-17.6,7.3-23c1.5-1.4,3.8-2.2,8.3-3.7
		C278.5,144.4,290.3,142.8,291.1,145.2z"/>
	<path class="st30" d="M236.1,373.1c-0.1,0.2-0.2,0.3-0.3,0.5c-2.9,3.9-6.1,9.8-5.9,16.8c0.2,6.1,2.9,9.3,8.6,18.8
		c10.3,17.1,15.4,25.7,14.1,33.7c-0.8,4.9-3.4,8.9-7.8,15.7c-4.9,7.6-7,7.8-10.2,13.3c-1.8,3.1-8.2,14.2-4.7,22.7
		c2.6,6.3,7.6,4,26.6,15.7c0,0,10.2,6.3,21.9,17.2c0.9,0.9,2.6,2.5,4.4,4.9c0.7,0.9,4.6,6.3,5.7,11.5c1.6,7.3-2.6,13.8-6.3,19.6
		c-6.3,9.9-14,15.2-20.3,19.6c-1.6,1.1-9.5,6.5-21.3,11.1c-4.6,1.8-8.6,3-11.6,3.8c16.7-0.3,29.7-3.5,38.3-6.3
		c13.4-4.4,17.7-8.3,19.6-10.2c9.9-10.1,10.1-23.8,10.2-26.6c0.3-16.7-9.8-28.8-16.4-36.8c-3.4-4.1-8.2-9.9-16.4-14.9
		c-13.7-8.3-23-5.9-25-11.7c-0.7-1.9-0.2-3.7,14.1-25c5.6-8.4,8.6-12.6,10.2-19.6c0.6-2.7,1.7-7.5,0.8-13.3
		c-1.8-11.4-9.3-13.4-18.8-31.3c-3.7-7-4.5-10.3-4.7-13.3c-0.5-7.5,2.5-13.7,4.7-17.2c-1.8-2.5-3.5-5-5.3-7.4
		c-1.3,0.2-3.2,0.7-5.3,1.6c-4.1,1.7-6.6,4-8.8,6.1c-3.5,3.2-5.7,6.4-6.8,8.2c-2.5,3.9-9,14.1-6.7,25.5c0.5,2.5,1.9,5.3,4.7,11
		c5.4,10.9,8.7,11,8.9,15.7c0.2,4.6-3.2,8.8-9.9,17.2c-6,7.5-7.9,7.7-8.3,11c-0.9,6.2,5.1,8,7.3,17.7c0.4,1.9,2,9.1-1,16.2
		c-2,4.6-3.8,4.2-11.5,15.1c-1.6,2.3-3.7,5.4-4.1,9.7c-0.1,1.4-0.3,3.3,0.4,5.4c2.4,7.1,11.6,5,16.7,13c1.5,2.4,2.1,4.8,5.2,8.3
		c2,2.2,3.6,3.4,4.1,3.7c2.2,1.5,4.1,2.1,7,3c2.6,0.8,4.6,1.2,7.1,1.7c2.5,0.5,4.7,0.8,6.3,1c-7.4-3.4-12.7-7.4-16.2-10.4
		c-3.5-3.1-5.9-5.2-8.3-8.9c-3.3-4.9-3-7.2-6.3-9.9c-4-3.3-7.1-2.1-8.3-4.7c-0.6-1.2-0.9-3.4,3.7-11c3.7-6.2,5.6-7.3,8.3-11.5
		c3-4.4,9.5-14.1,6.8-22.4c-1.4-4.5-4.5-5.4-5.2-11c-0.5-3.9,0.6-7.1,1-8.3c2.1-6,5.3-5.7,8.3-12c1.5-3.1,2.1-5.9,3.1-11.5
		c0.8-4.2,1.2-6.3,1-7.8c-0.7-6.4-5.8-8.4-9.4-14.6c-1.9-3.3-3.8-8.5-3.1-16.4"/>
	<path class="st29" d="M220.2,211.8c-1.4,4.4-2.3,5.4-2.9,7.3c-1.8,5.7,2.3,8.5,3.4,16.7c1,7.2-1.1,13.1-1.8,15.1
		c-3,8.3-8.8,13.4-11,15.1c-3.7,3-4.8,2.5-8.6,6c-3.3,3-6.5,5.8-7.8,10.2c-1.3,4.2-0.2,8.2,2.1,16.2c1.4,4.8,1.9,5.2,4.2,12.3
		c2.3,7.2,3.4,10.8,3.1,12.8c-1.2,8-10.6,12.7-14.3,14.6c-5.6,2.8-10.8,3.7-14.1,3.9c1.4,0.7,3.6,1.7,6.5,2.1
		c4.9,0.6,8.8-1,11.2-2.1c3.6-1.5,6-3.5,8.1-5.2c3.3-2.7,4.9-4,6-6.3c0.8-1.7,1-3.2,0.5-11.5c-0.4-6.7-0.6-10.1-1-11.7
		c-1.7-6.7-3.9-6.6-4.7-12.3c-0.2-1.5-0.8-6.8,1.8-11.7c1.3-2.5,3.2-4.3,3.9-4.9c1.2-1.1,2.5-2.4,2.9-2.1c0.8,0.6-5,6.3-4.4,13
		c0.5,5.3,4.4,5.4,7,12.8c1.5,4.3,0.4,4.8,1.8,13.8c0.9,5.8,1.5,9.7,3.4,14.3c2.1,5.2,4.6,11.2,10.7,14.3c5.6,2.8,11.4,1.8,14.3,1
		c-2.8-0.9-6.1-2.1-9.7-3.9c-3.9-2-7.3-3.7-9.9-6.3c-9.6-9.4-6.3-28.3-4.8-36.7c0.3-1.9,0.7-3.5,0.9-4.6c0.5-0.1,5.6-1.3,7.8,1.3
		c2.8,3.3-1.1,9.8-1.8,11c-1.7,2.8-3.8,4.5-5.2,5.5c1.2,0.2,3.2,0.3,5.2-0.8c0.8-0.4,2.5-1.5,4.6-6.4c2.4-5.5,3.7-8.3,2.7-11.3
		c-1.4-4.1-5.7-6-6.3-6.3c-3.2-1.4-4.5-0.1-6.5-1.6c-2.5-1.9-3.5-6-2.3-9.4c0.7-2.1,2.1-3.3,2.9-3.9c0.7-0.3,5.1-1.8,7.3,0.3
		c0.9,0.9,1.3,2.3,2.1,5.2c0.1,0.3,0.3,1.1,0.7,3.3c0.4,2.1,0.7,3.8,0.9,5c0.4-2.5,0.8-5.9,0.8-9.9c0-5-0.1-7.5-1.8-8.9
		c-1.3-1-3.5-0.9-8.1-0.8c-2.8,0.1-4.6,0.3-4.7,0c-0.1-0.4,2.6-0.9,5.2-2.9c2.2-1.6,3.4-3.4,4.3-4.9c4.5-6.9,4.1-14.6,3.9-16.3
		c-0.3-4.3-1.3-4-1.5-8c-0.2-6.3,2.1-11.2,3.1-13.3c3.5-7.2,9-11.1,11.7-12.8c-2,0.2-6.9,1.1-11.2,5c-2.1,1.9-3.4,4-4.2,5.5
		c-2.4-1.6-2.9-2.8-2.9-3.7c0,0,0,0,0,0c0.1-1.7,2.3-2.8,2.9-3.1c3.2-1.8,5.9-6.7,5.2-7.6c-0.6-0.7-4.6,0.7-7.3,3.7
		c-3,3.3-3.4,7.4-3.4,9.1c1-9.4,1-11.4,0.8-11.5C221.8,205.7,221.4,208.1,220.2,211.8z"/>
	<path class="st29" d="M172.2,372.7c-2.4,6.7-3.7,10.1-3.4,14.1c0.8,12,12.3,19.6,13.8,20.6c6.6,4.3,9.1,2.2,13.8,6.8
		c6.7,6.3,7,15.2,7,15.9c0.1,4.9-1.5,8.4-3.9,13.8c-4,8.9-6.5,8.6-7.8,14.1c-1.5,5.9-0.7,14.6,5.2,20.1c3.9,3.6,8.6,4.5,10.7,4.7
		c-1.2-0.7-2.9-2-4.4-3.9c-2.5-3.3-3-6.8-3.4-10.4c-0.4-3.8-0.8-7.3,0.5-11.2c1.7-4.9,4.1-4.7,7.6-11c1.3-2.4,3.5-6.4,3.9-11.7
		c0.5-6-1.5-10.5-2.9-13.8c-1.5-3.5-3.7-8.7-8.9-12.5c-1.9-1.4-4.6-2.6-9.9-5c-5.8-2.6-7.9-3-9.1-5.2c-1.5-2.7-0.7-6.1,0.3-8.6
		c0.7,1.2,1.8,2.9,3.7,4.4c3.1,2.6,4.5,1.5,9.9,4.2c0,0,6.2,3,9.4,7.6c0.2,0.3,0.4,0.5,0.4,0.5c0.5,0.8,0.9,1.5,1.2,2.1
		c0-7.2-2.5-11.2-3.9-13c-1.2-1.5-2.7-2.7-4.7-4.4c-4.7-3.9-6.4-4.1-8.3-6.3c-1.5-1.7-3.2-4.8-3.1-10.4c2.1,0.9,4.9,2.4,7.8,4.4
		c1.1,0.8,4.7,3.4,8.6,7.8c2.7,3.1,8.1,9.2,10.4,18.3c1.4,5.5,0.4,7,2.6,10.2c1,1.5,2.5,3,9.9,7c5.6,3,8.4,4.6,11,5.5
		c3.3,1.2,10.8,3.7,20.3,2.3c3-0.4,7.6-1.5,12.8-4.2c-1.8-0.2-4.6-0.3-7.8,0c-4.4,0.4-6.2,1.2-8.6,1.6c-6.5,1-12.1-1.9-17.5-4.7
		c-4.1-2.1-9-4.7-12.8-10.2c-2.3-3.4-3.5-6.9-5.5-13c-1.5-4.6-1.9-7.2-4.2-11.2c-1.6-2.8-3.1-4.7-4.2-6c-2.1-2.5-6.7-8-14.1-11.5
		c-4.2-2-4.9-1.3-9.1-3.7c-4.2-2.3-5.1-4-7-3.7C175.6,363.5,174,367.7,172.2,372.7z"/>
	<path class="st17" d="M315.4,195c-0.3,0.1-0.5,0.2-0.8,0.2c0,0,0,0,0,0c-4.8,1.3-9.9,2.2-15,2.5c0,0,0,0,0,0c-0.3,0-0.7,0-1,0
		C302.6,196.8,308.6,195.3,315.4,195z"/>
	<path class="st28" d="M375.6,212.1c2.4-0.4,6.1-1.2,10.2-3.1c5.3-2.4,9.1-4.2,11-8.4c1.9-4.3,0.9-9.7-1.8-13.3
		c-3.8-5.1-10.3-5.7-12.5-5.9c-3.1-0.3-8.1,0.1-11.2,0.4c-0.9,0.1-1.6,0.1-2.2,0.2c1.2-1.9,2.8-4.9,3.9-8.8
		c0.9-3.3,2.3-8.6,0.4-14.3c-1.7-5.1-5.3-7.9-8.6-10.6c-3.1-2.5-7-4.8-13.5-7c-5.7-2-15-4.4-27.4-4.3c1.6,0.9,3.9,2.2,6.8,3.7
		c7.4,3.7,10.4,4.2,16.2,7c7.4,3.6,11.2,5.4,12.9,8.4c4.3,7.4-0.2,17.4-1.8,20.9c-2,4.4-4.5,7.6-6.3,9.6c2.4,0.4,10.8,2.3,17.2,10
		C374.3,202.8,375.3,209.4,375.6,212.1z"/>
	<path class="st28" d="M363.1,183.5"/>
	<path class="st29" d="M377.9,203.3c0.1,0.6,11.1,2.6,14.5-3.1c1.5-2.6,1.3-6.5-0.4-9.2c-1-1.6-2.2-2.4-3.1-2.9
		c-3-1.9-6.6-2.1-13.9-2.3c-4.9-0.2-5.7,0.1-7.9-0.3c-0.3-0.1-1.2-0.3-1.3-0.1c-0.1,0.3,1.8,1.5,3.1,2.2c2.8,1.4,4.2,1.2,8.4,2.2
		c4.9,1.1,7,2.2,7.6,2.5c1.9,1.1,4.3,2.3,4.3,4.1c0,1.5-1.8,2.7-3.7,3.9C381.3,202.8,377.9,203,377.9,203.3z"/>
	<path class="st30" d="M363.2,185.9c1.4-2.3,3.4-5.7,5.3-10.1c2.7-6.2,4-9.4,3.5-13.2c-0.7-5.2-4.1-8.6-5.5-10
		c-3.5-3.5-6.9-4.6-13.9-6.9c-4.1-1.4-10.6-3.6-19-6.7c1,0.8,2.4,1.9,4.3,3c1.5,0.9,3,1.6,6.3,2.8c4.8,1.8,5,1.6,8,2.7
		c3.4,1.3,6,2.4,8.7,4.7c1.5,1.3,4.1,3.6,5.5,7.4c0.3,0.9,1.5,4.4,0.6,8.5c-1.5,6.7-8.1,13.6-8.9,14.4c-0.6,0.6-2.2,2.2-1.8,3
		c0.3,0.6,1.5,0.6,2.3,0.6C360.2,186.1,361.7,186,363.2,185.9z"/>
	<path class="st30" d="M380.9,214.1c2.1,0.4,5.4,1.2,8.9,3.4c7.2,4.5,9.9,11.4,10.7,13.6c2.4,6.3,1.7,11.6,0.5,20.6
		c-0.7,5.4-1.6,7.7-2.3,9.1c-2.4,4.8-6.1,7.6-8.3,9.1c1.7-2.1,3.7-5,5-8.9c1-3.1,1.2-5.6,1.6-9.4c0.2-3,0.5-6.2,0-10.4
		c-0.6-4.8-0.9-7.3-2.6-10.2c-1.8-2.9-2.4-1.9-8.3-8.3c-1.3-1.4-2.3-2.6-2.9-2.3c-0.7,0.3-0.1,2.8,0.5,5c2.3,1.1,6.6,3.5,8.9,8.3
		c1.9,4.1,1.5,8.2,1,12.8c-0.3,3.3-1,6-1.6,7.8c-0.6-1-1.4-2.6-1.8-4.7c-0.7-3.4,0.4-4.5,0-7.8c-0.4-3.4-2-5.9-2.9-7.3
		c-1.7-2.7-3.6-4.4-5-5.5"/>
	<path class="st30" d="M385,315.7c0.1,2,0.1,5.2,0,9c-0.1,5.8-0.4,6.2-0.2,8.6c0.4,4,1.5,5.1,3.1,11.2c1.2,4.4,1.8,6.7,2,9.2
		c0.4,8.8-4.6,15.5-5.1,16c-4,5.1-9,7.1-12.9,8.6c-3.1,1.2-5.7,1.8-7.6,2.2c-1.6,0.3-3.1,0.7-4.7,1c1-1.1,2.6-2.6,4.9-3.7
		c2.4-1.2,3.3-0.8,6.7-2c1.6-0.6,4.3-1.5,7-3.7c1-0.8,2.9-2.3,4.5-4.9c2-3.2,2.4-6.2,2.5-7.6c0.5-4.4-0.4-7.9-1.6-12.1
		c-0.7-2.5-1.1-3.4-2-6.8c-0.6-2.4-0.9-4.4-1.2-5.7c-0.8,4.8-0.4,8.4,0.2,11c0.6,2.7,1.4,4.5,2,8.6c0.4,3.1,0.6,4.8-0.2,6.7
		c-0.8,1.9-2.1,3-5.5,5.3c-2.5,1.7-5.7,3.8-9.6,6.1c1-2.7,2.4-4.2,3.5-5.1c1.7-1.4,2.8-1.2,4.3-2.7c1.7-1.7,2.2-3.6,2.5-4.9
		c0.7-2.6,0.1-3.1,0.2-7.2c0.2-5.1,1.2-7.1,0-10.6c-0.3-0.8-0.6-1.4-0.8-1.8c1.8-3.7,2.8-6.8,3.3-9c0.4-1.5,0.6-2.8,0.8-3.5
		c0.5-2.5,0.7-4.6,0.8-6.2"/>
	<path class="st19" d="M381.4,329.9c-1.3,4-1.6,2.9-5.2,11.5c-2.4,5.6-3.7,9.5-6.3,17.2c-5.3,15.7-7.9,23.5-8.9,25
		c-4.7,7.7-11.5,14.2-14.1,16.7c-1.9,1.8-3,2.7-6.2,5.8c-0.2-2.7,1-7.9-1.4-9.5c-2.2-1.4-5.7,1.3-6.3,0.5c-0.7-1,5.2-5,10.4-12
		c3.6-4.8,6-8,5.7-12c-0.4-6.2-6.6-6.8-7.3-12.5c-0.6-4.8,3.6-6.6,12-18.3c6-8.4,4.6-8.6,10.4-16.2c3-3.9,6.5-7.5,13.6-14.6
		c2.3-2.4,3.9-3.9,5.1-4.9C382.9,320.1,383.5,323.6,381.4,329.9z"/>
	<g>
		
			<image style="overflow:visible;" width="709" height="654" xlink:href="62D788B9.png"  transform="matrix(0.24 0 0 0.24 232.08 294.96)">
		</image>
	</g>
</g>
<g id="Ebene_9">
	<path class="st31" d="M406.6,255.1c-2.4-0.1-5.6-2.3-5.9-4.9c-0.1-0.7,0.1-1.3,0.6-2.5c0.6-1.5,1.5-4.1,3.7-5.1
		c1-0.5,1.9-0.4,2.9-0.4c1.4,0.1,4.1,0.4,7.2,2.5C414.2,251.2,410.2,255.3,406.6,255.1z"/>
	<path class="st31" d="M405.7,343.4c-1.7-1.2-5.8-0.5-6.7,0.6c-0.2,0.2-0.2,0.4-0.2,2.3c0,1.9,0,2.8,0.2,4.3
		c0.2,2.1,0.2,3.5,0.6,3.5c11-0.2,7-0.4,7.8-0.8C407.5,352.9,409.4,345.9,405.7,343.4z"/>
	<path class="st5" d="M467,295.4c-0.1,2.7-0.2,5.1,0,5.2c-0.3-0.1-0.7-0.3-1.1-0.4c-2.1-0.9-3.6-1.9-4.4-2.4c-3-2-5-3.6-6.5-4.8
		c-2.8-2.1-4.5-3.1-6.5-4.5c-8.3-5.5-11.3-9.5-22.1-17.3c-5-3.6-9.5-7.7-14.8-11c-1.8-1.1-5.1-3.1-6.3-6.4c-0.2-0.7-0.9-3.1,0.4-5.6
		c2.2-4.3,8.2-5.3,9.1-5.4c6.7-1,13.8,2.2,19.2,5.5c4.9,3,9.3,6.5,14.6,9c3.5,1.6,7.3,2.8,10.4,5c2.7,2,5,4.9,8.2,5.7V295.4z"/>
	<path class="st32" d="M467,297.7v2.9c-0.3-0.1-0.7-0.3-1.1-0.4c-2.1-0.9-3.5-1.8-4.3-2.4c-2.9-2-5-3.6-6.5-4.7
		c-2.8-2.1-4.5-3.1-6.5-4.4c-8.3-5.4-11.3-9.5-22.1-17.1c-5-3.6-9.5-7.7-14.8-10.9c-1.8-1.1-5.1-3-6.3-6.5c-0.3-0.8-1-3.1,0.2-5.8
		c0.8-1.7,2.1-3,3.4-3.9c-0.5,0.6-0.9,1.2-1.2,1.9c-1.2,2.6-0.5,5-0.2,5.8c1.2,3.4,4.5,5.3,6.3,6.5c5.3,3.2,9.8,7.3,14.8,10.9
		c10.7,7.7,13.8,11.7,22.1,17.1c2,1.3,3.7,2.3,6.5,4.4c1.5,1.1,3.6,2.8,6.5,4.7C464.5,296.3,465.5,297,467,297.7z"/>
	<path class="st5" d="M467,321.1v29.5c-2.7,0.7-7.4,1.6-16.4,3.6c-11.9,2.7-13.7,3.2-18.6,3.6c-2.5,0.2-7.2,0-16.6-0.4
		c-5.1-0.2-8-0.4-10.8-2.4c-0.8-0.6-3.8-2.7-3.9-6c-0.1-2.7,1.9-4.6,3.1-5.8c2.2-2.2,5.3-3.9,12.5-5.5c8-1.8,8.5-0.6,15.3-2.2
		c4.7-1.1,8.1-2.5,13.5-4.7c5-2.1,6.4-3,13.1-6C461.7,323.3,464.7,322,467,321.1z"/>
	<path class="st32" d="M467,348.9v2.3c-2.7,0.6-7.4,1.5-16.4,3.4c-11.9,2.5-13.7,3-18.6,3.4c-2.5,0.2-7.2,0-16.6-0.3
		c-5.1-0.2-8-0.4-10.8-2.2c-0.8-0.5-3.8-2.5-3.9-5.6c0-2.1,1.4-3.8,2.6-4.9c-0.3,0.7-0.5,1.4-0.5,2.2c0.1,3.1,3.2,5.1,3.9,5.6
		c2.8,1.8,5.7,2,10.8,2.2c9.4,0.4,14.2,0.5,16.6,0.3c4.9-0.4,6.7-0.9,18.6-3.4C459.7,350.3,464.1,349.4,467,348.9z"/>
	<path class="st20" d="M481.6,254.7"/>
</g>
<g id="Ebene_10">
	<path class="st32" d="M419.9,267.4c1.5-1,3.2-2.2,4.9-3.9c5.6-5.8,7-12.8,7.4-16"/>
	<path class="st32" d="M426.1,267.7c1.2-1,3-2.6,4.5-5.1c1.9-3.2,2.4-6.2,2.5-7.8"/>
	<path class="st32" d="M450.3,286.7c1.4-1.4,3.6-4,5.1-7.8c2-5.2,1.5-9.8,1.2-11.9"/>
	<path class="st32" d="M449.3,353.9c-0.7-3.6-1.9-8.2-4.3-13.1c-1.5-3.1-3.2-5.7-4.7-7.8"/>
	<path class="st32" d="M425.2,354.4c0.2-1.9,0.2-5.1-1-8.8c-1.2-3.7-3.1-6.2-4.3-7.6"/>
	<path class="st32" d="M421.4,349.4c-0.1-1.6-0.5-3.9-1.8-6.5c-0.6-1.1-1.2-2-1.8-2.7"/>
</g>
<g id="Ebene_12">
	<g>
		<path class="st26" d="M368.4,765.3c-0.4-0.4-0.8-0.7-1.1-0.9c-0.5-0.3-0.8-0.5-1.1-0.5c-0.6,0-1,0.6-1.1,0.7c0.2,0.2,0.6,0.6,1,1
			c1.5,1.3,2.9,2.1,3.3,2.3c2.5,1.4,6.7,1.4,10,0.2c1.2-0.4,2.6-1.2,5.5-2.9c1.5-0.9,3.4-2,5.8-3.8c2.4-1.8,4.4-3.5,4.4-3.5
			c1.5-1.3,2.3-2.1,3.8-3c1.2-0.7,2.3-1,3-1.2c-0.3-0.4-0.6-0.8-1.1-1.2c-0.6-0.6-1.3-0.9-1.8-1.1c0.6-0.2,1.4-0.3,2.2-0.3
			c2.5,0,4.4,0.9,5.3,1.5c1.8-1.1,3.6-2.3,5.4-3.4c-0.1-0.6-0.3-1-0.4-1.2c-0.3-0.5-0.8-0.8-3.3-1.9c-0.2-0.1-0.7-0.3-1.2-0.8
			c0,0,0,0,0,0c-0.4-0.4-0.7-0.8-0.8-1.1c-0.2-0.5-0.3-1.4,0.2-2.2c0.7-1,1.8-1,2.1-1c0.4,0,0.7,0.1,0.9,0.1
			c-0.2,0.1-1.3,0.5-1.8,1.7c-0.3,0.9-0.1,1.6,0,1.8c0.3-0.1,0.8-0.1,1.4-0.1c1,0,1.8,0.2,3.9,0.7c2.4,0.7,2.7,0.8,3.1,0.6
			c1-0.3,1.8-1.4,2-1.8c0.6-0.8,0.7-1.3,1.1-1.3c0.5,0,0.6,1,1.4,1.4c0.5,0.3,1.1,0.2,1.9-0.1c2.1-0.6,2.7-1.4,5.4-2.9
			c1.2-0.6,2.1-1.1,2.1-1.8c0-0.3-0.1-0.7-0.3-1c-0.4-0.4-0.9-0.4-1.4-0.5c-1.6-0.2-2.5-0.3-3-0.6c-0.5-0.3-0.9-1.1-0.7-3
			c0.6,0.9,1.2,1.3,1.6,1.6c1.1,0.6,1.4,0.2,3.1,0.9c0.8,0.3,1.2,0.6,1.8,0.4c0.4-0.2,0.7-0.6,0.7-0.9c-0.1-0.3-0.4-0.4-0.9-0.5
			c-2-0.6-2.5-0.5-2.9-0.9c-0.3-0.2-0.6-0.7-0.6-1.6c0.2,0.2,0.6,0.4,1,0.6c0.5,0.3,1.7,0.9,3.3,1c1.5,0.1,2.6-0.3,3.2-0.6
			c-0.2-0.3-0.5-0.7-1.1-1.1c-1-0.7-1.8-0.5-2.3-1.1c-0.4-0.5-0.3-1.2-0.3-1.3c0.2-1.3,2.2-2.4,5.1-2.7c-4.7-3.1-11.6-8.3-17.9-16.3
			c-3.5-4.5-5.7-8.6-10-16.7c-0.5-0.9-1.1-2-0.9-2.2c0.7-0.5,13.8,17.2,13.8,17.2c0.5,0.7,1.3,1.7,2.6,2.5c2.2,1.4,4.4,1.4,5.3,1.4
			c-0.2,0.7-0.5,1.9-0.2,3.2c0.7,3.1,3.9,4.4,5,4.9c2.2,1,4.1,0.9,6.5,0.8c2-0.1,5.1-0.5,8.7-1.9c-0.3-2.1-0.6-3.9-0.9-5.4
			c-0.5-2.6-0.7-3.6-1.6-4.6c-0.8-1-1.8-1.5-2.4-1.7c0.6-0.1,1.2-0.2,1.9-0.3c-0.1-0.7-0.3-1.9-0.6-3.2c-0.2-0.9-1.2-4.6-3.9-9.7
			c-1.9-3.6-3-4.8-3.4-7.7c-0.1-1.1-0.1-2.1,0-2.8c1.2,1.8,2.1,3.4,2.7,4.4c4.2,7.5,7.7,13.7,8.3,17.4c0.1,0.4,0.2,1.6,1.1,2.2
			c0.6,0.4,1.3,0.3,2.2,0.2c1-0.1,1.9-0.4,2.5-0.7c-0.6,0.6-1.3,1.2-1.9,1.8c-0.7,0.3-0.9,0.7-1,1c-0.3,1.2,1.5,3,4.6,4.6
			c0.3,0.2,1.2,0.8,2.3,0.6c0.5-0.1,1.2-0.5,1.2-0.9c0-0.4-0.8-0.7-0.9-0.8c-0.6-0.2-0.9-0.1-1-0.3c-0.2-0.3-0.1-0.9,0.2-1.3
			c0.3-0.4,0.8-0.4,1.6-0.5c0.4,0,1-0.1,1.8,0c-0.2-0.3-0.5-1-0.5-1.9c0-1.1,0.6-1.9,0.8-2.1c0.8-1.1,1.8-1.1,1.8-1.8
			c0-0.5-0.4-0.9-0.8-1.1c-0.3-0.2-0.6-0.2-1-0.2c-1,0-1.5,0.4-2.3,0.2c-0.1,0-0.2,0-0.4-0.1c-0.3-0.1-1-0.4-0.9-0.6
			c0-0.3,1.1-0.2,2.6-0.6c1.3-0.4,1.5-0.7,1.5-0.9c0.1-0.4-0.2-0.9-0.5-1.1c-0.3-0.2-0.7-0.3-2.1,0c-0.7,0.1-1.5,0.3-2.5,0.7
			c0.4-0.4,1-0.9,1.4-1.7c0.1-0.2,0.6-1.1,0.8-1.8c0.3-1.8-1.8-3.6-2.3-4c-1.7-1.6-4-4.8-6.5-12.1c3.1,2.9,5.3,5.7,7,7.9
			c2.7,3.6,4.3,6.7,5.4,8.9c1.4,2.8,2.5,5.2,3.3,7.1c0.7-0.2,1.4-0.4,2.1-0.7c3.4-1.4,5.8-3.7,7.1-5.5c-0.3-0.5-0.8-1.3-0.6-2.3
			c0.1-0.5,0.3-1,1.7-2.4c0.5-0.6,1.3-1.3,2.3-2.2c-0.9-3.3-1.8-6.7-2.6-10.1c-2.3-9.1-4.4-18.1-6.2-26.9c1.6,2.1,3.7,5.3,5.2,9.6
			c1.5,4.2,1.7,7.6,1.8,9.4c0.4,4.9,1.5,12,4.6,21.4c2.1-0.9,3.9-1.7,5.4-2.3c2.9-1.2,3.9-1.5,5.2-1.3c1.6,0.2,2.9,1.1,3.6,1.8
			c1.4-1.3,2.7-2.6,4.1-4c-0.3-0.4-0.8-1-1.1-1.9c-0.3-0.9-0.4-2.6,0.3-3c0.5-0.3,1.1,0.1,1.2,0.2c0.6,0.4,0.8,1,0.9,1.5
			c0.4,1.5-0.3,2.5,0,2.8c0.3,0.2,0.9-0.8,2.3-1.2c0.4-0.1,1-0.2,2.2-0.3c1.1-0.1,1.1,0,1.3-0.1c0.2-0.1,0.6-0.2,2-1.5
			c0.8-0.8,0.9-0.9,1.2-1c0.7-0.3,1.4,0,1.9,0.2c0.4,0.1,1.2,0.5,1.9,1.2c0.6-0.7,1.8-2,3.7-2.9c2.9-1.3,5.6-0.7,6.5-0.4
			c0.7-0.7,1.4-1.5,2.1-2.2c0.4-0.4,0.8-0.8,1.2-1.2c0.1,0.5,0.3,1,0.4,1.5c0.3,0.2,0.8,0.3,1.3,0.2c0.7-0.1,1.1-0.7,1.4-1
			c1.4-1.7,4.8-1.9,7-1.3c0.6,0.2,1.5,0.5,2.4,1.1c2.8-4.5,4.1-8.5,4.8-11.3c0.8-3.2,1.4-6.1,0.5-9.6c-0.7-2.6-2.1-4.5-3.1-5.6
			c0.2,1.4,0.5,2.4,0.6,3.1c0.6,2.5,1.2,3.6,0.7,4.9c-0.1,0.2-0.4,1.2-1.1,1.3c-0.6,0.1-1.1-0.7-1.2-0.9c-0.3-0.5-0.5-1.1-0.5-2.2
			c0-2.3,0.6-2.7,0.2-3.9c-0.3-0.8-0.8-1.3-1-1.5c-0.8-0.8-1.8-1-2.2-1.1c0.1,0.4,0.3,1,0.3,1.8c0,0.6,0,2.2-1,2.9
			c-0.5,0.3-1.1,0.3-1.6,0.3c-0.5,0-0.5-0.1-1.8-0.4c-0.8-0.2-0.9-0.2-0.9-0.3c-0.4-0.6,0.6-2.3,0.6-2.3c0.1-0.1,0.5-0.7,1-0.7
			c0.6,0,1.2,0.9,1.1,2.2c0.3-0.3,0.7-0.7,1-1.4c0.8-1.8,0.3-3.5,0.1-4.3c-0.3-1.2-0.9-1.9-2.1-3.4c-0.2-0.2-0.6-0.7-0.9-0.6
			c-0.1,0-0.2,0.1-0.6,0.6c-0.3,0.4-0.5,0.8-0.6,1.1c-0.3,0.7-0.4,2.6,0.3,4.9c-0.4-0.3-1-0.9-1.4-1.9c-0.7-1.7-0.1-3.2,0.2-3.9
			c0.4-1,0.9-1.7,1.3-2.1c-0.9-0.4-1.7-0.8-2.6-1.2c-0.4,0.4-1,1.1-1.4,2.2c-0.1,0.4-0.3,1.1-0.3,2c0.1,1.2,0.5,2,0.8,2.5
			c0.6,1.1,1.2,1.6,1.4,1.9c1.5,1.8-0.4,4.9-1.5,10.5c-0.9,4.8-0.3,6.3-2.1,9.2c-0.8,1.3-1.7,2.2-2.3,2.8c0.4-1.4,1-3.4,1.4-5.7
			c0.5-2.4,1.2-6.8,1.2-12.6c0-4.1-0.4-7-0.8-9.2c-0.4-2.8-1.1-7.4-2.2-7.5c-0.5,0-1,1-1.4,2.1c-0.1-0.4-0.4-1.3-1.3-2.1
			c-0.7-0.7-1.5-1-1.9-1.1c-0.2,0.9-0.4,2.4-0.3,4.1c0.2,2.4,1,3.2,1.9,6.4c0.5,2.1,0.9,3.6,0.8,5.4c-0.1,1.3-0.6,3.6-2.6,6.2
			c-1.1-2.6-1.5-4.8-1.8-6.3c-0.5-3.7-0.2-6.8,0.4-11.2c0.3-2,0.5-3.7,0.7-4.8c-1.2-1.2-3.4-2.9-6.4-4.1c-3.6-1.4-6.8-1.5-8.6-1.4
			c-2.4-1.9-4.7-3.8-7.1-5.7c-0.5,1.4-1,2.8-1.5,4.2c-0.3-0.7-1.2-2.6-3.4-3.8c-3.9-2.1-8,0.4-8.2,0.5c-0.4-0.9-0.8-1.8-1.1-2.6
			c-2.7,2-4.9,2.7-6.4,2.8c-0.7,0.1-1.8,0.1-3,0.7c-1.2,0.6-2.2,1.5-2.6,2c-0.6,0.5-1,1.1-1.2,1.4c-0.3-0.9-0.6-1.9-1-2.8
			c-0.6,0.7-1.1,1.4-1.7,2.1c-0.1-0.7-0.3-0.9-0.5-1c-0.4-0.1-0.6,0.7-1.5,1.5c-0.3,0.3-1,0.8-1.8,1.1c-1.1,0.4-2.2,0.2-2.9,0
			c0.2,0.5,0.5,1.3,0.6,2.4c0.1,1.3-0.1,2.4-0.3,3.1c-0.3-0.3-0.8-0.9-1.1-1.7c-0.3-0.8-0.4-1.6-0.4-2c-0.1,0.3-0.3,1.2-1,1.8
			c-1,0.7-2.6,0.7-3.8-0.3c0.1,0.1,0.8,0.8,0.7,1.7c0,0-0.1,0.5-0.3,0.9c-0.6,0.9-2.7,0.9-5.1,0.2c0.2,1.4,0.4,2.8,0.7,4.2
			c-0.5-0.8-1.1-1.5-1.6-2.3c-0.2,0.4-0.5,0.8-1,1.3c-1.5,1.5-3.5,1.6-4.2,1.6c0,0.1,1.2,2.8,1.3,2.9c0,0,0.3,0.6,0.3,0.6
			c-0.9-0.6-1.8-1.1-2.7-1.7c-0.4,0.4-1,0.9-1.7,1.7c-1.3,1.6-1.6,2.7-2.2,4.1c-1.4,2.8-3.4,4.6-7,7.8c-0.6,0.5-1.1,0.9-1.4,1.2
			c-0.8-1-2.1-2.2-4-3.3c-3-1.7-5.9-1.9-7.3-2c0.2,0.2,0.6,0.6,0.7,1.2c0.1,0.5,0,1-0.2,1.3c-0.1,0.4-0.3,0.6-0.4,0.9
			c-0.2,0.3-0.3,0.5-0.4,0.5c-0.4,0-0.8-1.3-0.9-2.2c0-0.2-0.1-0.4-0.1-0.5c-0.1-0.6,0-1.1,0-1.5c0,3.3-0.4,4.2-0.7,4.2
			c-0.3,0-0.7-0.5-1.7-1.7c-0.8-1-1-1.4-1.5-1.5c-0.7-0.2-1.4,0.1-1.9,0.5c0.6,1.9,1.1,3.5,1.4,4.6c2.5,8.3,2.2,9.1,3.6,11.7
			c1,1.8,1.7,2.4,2,4.1c0.4,2.2-0.2,4.1-0.7,5.4c-1.2-2.3-2-4.3-2.5-5.7c-1.4-4-2.2-7.8-2.3-8.6c-0.5-2.7-0.5-3.7-1.3-5.7
			c-0.7-1.9-1.6-3.3-2.2-4.2c-3.3,1-6.7,2.1-10,3.1c0.4,0.4,0.9,0.9,1.3,1.7c0.1,0.2,0,0,0.7,1.6c0.1,0.2,0.1,0.3,0.1,0.4
			c-0.2,0.2-1.4-0.5-2.4-1.4c-0.5-0.5-0.9-1-1.2-1.4c-0.6,0.4-1.4,1.1-1.4,1.9c0,0.7,0.6,1.2,2.1,2.6c2.8,2.6,3.1,3.2,3.2,3.8
			c0.1,0.6,0.2,1.6-0.6,2.9c-0.8-0.5-1.8-1.3-2.6-2.6c-0.9-1.4-0.8-2.4-1.4-3.7c-0.5-1.1-1.6-2.6-4.3-3.8c0.7,2.3,1.5,4.6,2.2,7
			c-1.1-0.9-2.2-1.9-3.3-2.8c1.2,2.3,1.1,3.2,0.7,3.6c-0.5,0.5-1.6-0.1-3.1,0.2c-1.3,0.3-2.2,1.1-2.8,1.8c0.3,0.1,2.4,0.9,3.2,3.1
			c0.6,1.7,0.1,3.2,0,3.6c-1.3-1.4-1.9-2.6-2.3-3.5c-0.2-0.6-0.4-1.2-0.8-1.3c-0.6-0.2-1.4,0.9-2,1.8c0.5,0.3,2.4,1.4,3.1,3.6
			c0.2,0.8,0.2,1.5,0.2,2c-0.3-0.6-1-1.8-2.3-2.7c-1-0.7-1.9-0.9-2.3-1c-0.3-0.1-0.6-0.1-0.8-0.1c0.9,1.3,0.9,2.3,0.8,2.9
			c-0.2,0.9-0.8,1.3-2.4,3.5c-1.3,1.7-1.3,2-1.3,2.3c0,1.3,1.4,2.9,1.5,3.1c0,0,0,0,0,0c1.3,1.4,2.1,1.9,2.7,2.5
			c0.4,0.5,0.9,1.3,0.9,2.8c-0.7-0.7-1.6-1.6-2.7-2.3c-1.6-1.1-3-1.9-4.3-2.4c1.1,1.9,2.2,3.2,3.1,4.1c0.8,0.8,1.7,1.5,2.5,2.9
			c0.5,0.8,0.8,1.6,0.9,2.2c-0.9-1-1.7-1.8-2.4-2.3c-1.6-1.3-3.1-2-3.7-2.3c-0.9-0.4-1.7-0.7-2.3-0.8c0.3,0.4,0.7,1,1.2,1.7
			c1.2,1.6,1.6,2,2.1,2.8c0.5,0.8,1.2,2,1.7,3.7c-0.5-0.4-1.3-1.1-2.1-2c-0.8-1-1-1.6-1.7-2.3c-0.5-0.6-1.5-1.3-3-1.8
			c-0.1,1.5-0.2,3-0.3,4.5c0.8,0.7,2.1,1.7,3.6,3c4.6,3.7,7.5,5.7,9,6.8c2.8,2.1,6.4,5.8,9.7,12.3c0.5-0.5,0.9-1.1,1.4-1.6
			c1.1,1.5,2.3,2.4,3.1,3c1,0.7,1.4,0.8,2.5,1.7c1.1,0.9,1.9,1.5,2.4,2.6c0.5,1,0.5,2,0.5,2.8c-2.3-1-5.5-2.6-8.9-5.4
			c-2.3-1.9-2.3-2.4-7.8-8.1c-8.2-8.6-7.7-7-8.9-9c0,0-2.3-3.9-5.1-5c-0.1,0-0.4-0.1-0.8-0.3c-0.4-0.1-0.6-0.2-0.6-0.1
			c-0.2,0.2,1.2,1.3,1.7,3.1c0.2,0.9,0.1,1.1,0,1.2c-0.4,0.4-1.6-0.1-1.8-0.2c-1.7-0.8-2.2-2.2-2.5-2.1c-0.3,0.1-0.2,1.6,1.1,7
			c-0.9-0.5-2-0.3-2.5,0.4c-0.6,0.8-0.4,2.3,0.9,3c0.9,0.2,3.5,1,5.3,3.5c0.8,1.1,1.2,2.2,1.4,3c-0.6-0.5-1.4-1.3-2.5-2.3
			c-1.9-1.8-2.3-2.2-3-2.5c-0.6-0.2-2.1-0.5-4.6,1.2c0.7,0.3,1.7,0.8,2.6,1.7c0.2,0.2,0.5,0.6,0.8,1.1c0.7,1.1,0.9,2.2,1,2.9
			c-2.2-2.5-3.4-3.8-3.4-3.8l0,0c0,0-0.9,0.6-0.9,1.2c0,0.5,0.6,0.8,1.5,1.5c0.9,0.7,0,0.2,2.1,1.9c2,1.6,3.6,2.8,3.6,2.8
			c2.4,1.7,4.8,3.6,7.1,5.4c3.9,2.9,5.9,4.4,7,6c1.2,1.7,1.9,3.4,2.2,4.6c-0.9,0-2.3-0.2-3.9-0.9c-2.9-1.3-3.6-3.2-9.1-9.5
			c-0.5-0.6-2-2.3-4.2-4.3c-0.2-0.2-1.7-1.5-3.8-2.9c-1.2-0.8-2.1-1.2-3.3-1.4c-0.8-0.1-1.5-0.1-1.9,0c0.2,0.3,0.6,0.8,1.2,1.4
			c0.7,0.7,1.4,1.2,2.2,1.8c1.3,0.9,1.4,0.9,2,1.4c0.6,0.6,1.4,1.4,1.4,1.4l0,0c0,0-1.5,0-2.7-0.5c-0.6-0.2-1.2-0.7-2.3-1.7
			c-0.8-0.7-1.4-1.3-1.8-1.7c-0.2,0.2-0.6,0.5-0.8,1.1c-0.4,1,0,2.1,0,2.3c0.4,1,1,1.1,0.9,1.6c-0.1,0.9-1.9,1.4-2,1.3
			c0,0,0.9-0.5,0.9-0.4c0,0-1.6,0.7-1.8,1.8c-0.1,0.6,0.3,0.7,0.4,1.8c0,0.5,0.1,1.4-0.4,2c-0.3,0.4-0.8,0.6-1,0.7
			c-0.5,0.2-1,0.2-1.2,0.1c3.4,0.5,4.2,0.9,4.2,1.2c0,0.2-0.4,0.4-1.1,0.8c-1,0.5-1.5,0.5-1.6,0.8c-0.1,0.5,1.4,1.1,1.9,1.4
			c2.8,1.3,5.3,3.3,7.9,4.9c1.8,1.1,2.5,1.6,3.2,2.6c1,1.4,1.6,3.2,1.1,3.4c-0.4,0.3-1.8-1.2-3.2-2.4c-1.8-1.5-4.7-3.5-9.1-4.8
			c0.8,0.9,1.5,1.7,2,2.3c1.4,1.8,1.7,2.4,1.5,2.9c0,0.1-0.2,0.7-0.8,1c-0.2,0.1-0.4,0.1-0.6,0.1c-0.7,0-1.2-0.4-1.4-0.6
			c1.5,1.2,2.5,2.4,3.2,3.3c0.9,1.2,1.3,1.9,1.1,2.6C369,764.7,368.6,765,368.4,765.3z"/>
		<path class="st26" d="M549.4,675.4c-0.8-1.5-1.6-3.8-1-6.3c0.4-1.8,1.5-4.1,2.5-4.1c0.9,0.1,1.4,1.8,1.6,2.7
			C553.2,671.3,550.3,674.6,549.4,675.4z"/>
		<path class="st26" d="M575.6,724.5c0.6-0.4,1.5-1.1,2.3-2.1c3.3-4.4,0.9-10.5,0.6-11.4c-0.5-1.2-0.7-1.4-2.4-4.1
			c-3.7-5.8-4.2-7.6-5.8-9.9c-1.8-2.6-4.8-6-10.5-8.8c-0.9,1-1.8,2.1-2.9,3.1c-4.3,4-8.8,6.2-12.3,7.5c-0.1-0.2-0.6-0.9-1.4-1.1
			c-0.1,0-1.4-0.4-2.3,0.5c-0.9,0.9-0.7,2.1-0.6,2.2c0.3-0.2,0.8-0.4,1.5-0.4c0.9-0.1,1.7,0.2,2,0.4c-0.2,0.2-0.8,1-1.9,1.3
			c-0.8,0.2-1.5,0-1.8-0.1c-0.1,1.1-0.2,2.1-0.3,3.2c-0.7-0.6-1.4-1.2-2-1.8c-0.5,0.8-1.3,2.3-1.1,4.1c0.1,1.4,0.8,2.9,3.3,5.5
			c2.6,2.6,4.5,3.7,6.3,5c4,2.9,6.2,6.2,8.6,9.6c1.6,2.3,1.9,3.2,5.8,10.8c2.2,4.3,3.9,7.7,5.1,9.8c0.5-0.5,1-1,1.5-1.4
			c-1.8-2.5-2.8-4.6-2.3-5.2c0.7-0.7,4.1,1.7,4.4,1.9c0.2,0.2,0.4,0.4,0.6,0.6c0.4-0.7,0.9-1.6,1.3-2.7c0.7-2,0.7-3.9,0.3-7.4
			c-0.2-1.6-0.6-5.1-1.5-8.1c-2.8-9.8-13.2-22.2-13.6-22.7c1.2,0.7,2.4,1.5,3.6,2.3C567.8,710.9,572.6,718.4,575.6,724.5z"/>
		<path class="st26" d="M528.7,709.7c-0.5,0.5-1.3,1.3-2.4,1.8c-1.5,0.7-2.3,0.4-3.3,1.1c-0.5,0.4-1.2,1.2-1.5,2.8
			c-0.7-0.3-1.8-0.6-3.1-0.5c-2.2,0.1-3.9,1.2-5.4,2.3c-4.3,3.2-6.7,5.9-6.7,5.9c-2.2,2.4-5.5,5.8-10.2,9.7
			c-1.8,0.2-2.9,0.8-3.5,1.2c-3.1,2.1-3.7,6.1-3.8,6.5c-0.1,1,0,1.5-0.4,2.4c-0.4,0.9-1.1,1.6-2.6,2.9c-1.2,1.1-2.1,2-2.6,2.4
			c0.2,0.7,0.4,1.3,0.6,2c-0.7-0.2-1.3-0.5-2-0.7c-1.6,1.7-3.2,3.5-4.8,5.2c0.1,0,1,0.5,1.2,1.5c0.2,1.1-0.8,1.9-0.9,1.9
			c-0.6,0.4-0.9,0.2-1.2,0.5c-0.6,0.6,0.1,2.2,0.6,3.4c0,0,0.7,1.7,1.5,6.2c0.3,1.4,0.5,3.5,0.2,6.1c-0.3-1.5-0.8-3.1-1.6-4.7
			c-3.7-7.7-10.8-11.2-13.8-12.4c0.1,0.2,0.7,1,0.6,2.1c-0.1,1.1-0.8,1.8-1,1.9c-0.1-0.4-0.4-1-0.9-1.4c-0.8-0.6-1.6-0.1-2.7-0.5
			c-0.5-0.2-1.3-0.6-2-1.8c-0.8,0.8-1.7,1.7-2.5,2.5c-0.7-0.6-1.3-1.3-2-1.9c-1,3.9-1.7,4.2-2,4.2c-0.4,0-0.6-0.6-1.7-2.8
			c0,0-0.8-1.6-1.5-2.9c-0.6-1.1-1.6-2.7-3.2-4.3c-0.7,0.3-1.7,0.7-3,0.9c-1.9,0.4-2.3,0.1-4.2,0.3c-1.6,0.2-3.8,0.4-5.8,1.9
			c-0.9,0.7-1.6,1.5-1.9,2c-0.8-0.7-1.6-1.5-2.4-2.2c-0.4,0.7-1,1.6-1.9,2.5c-0.7,0.8-1.8,1.9-3,2.5c-2.7,1.3-5.9-0.2-6.7-0.6
			c-0.4,0.2-0.9,0.5-1.6,0.9c-2,1-2.7,1-4.2,1.7c-1.1,0.5-2.7,1.3-3.9,2.8c-0.9,1.1-1.3,2.2-1.5,2.9c-0.6-0.7-1.2-1.4-1.8-2
			c-0.5,1.1-1,2.3-1.4,3.6c-4,11.8-1.2,23.1,1.5,30.2c-0.8,3.4-0.7,6.1-0.4,7.8c0.3,2.2,0.8,6.5,4.2,9.6c0.7,0.6,1.8,1.7,3.7,2.1
			c2.1,0.5,3.9,0,4.6-0.3c-0.1-1.1-0.2-2.4-0.7-3.9c-1.2-3.5-3.4-5.7-4.6-6.8c0.4-0.6,0.9-1.5,1.3-2.8c0.4-1.4,0.4-2.7-0.2-5.4
			c-0.8-4.1-1.5-4.4-1.7-6.6c-0.1-1.5,0-3.6,1.2-6.3c0.2,0.6,0.5,1.5,0.8,2.6c0.6,2.7,0.3,4.4,0.5,6.7c0.1,1.5,0.4,2.9,1.1,5.8
			c0.9,3.7,1.7,6.8,3.3,10.5c1.1,2.5,2.8,5.8,5.6,9.5c0.5-0.4,1.2-0.9,2.1-1.3c2.3-0.9,4.3-0.3,5,0c-0.3-0.3-1-1.1-1-2.1
			c0-0.5,0.2-1.2,0.5-1.3c0.1,0,0.3,0,0.7,0.6c0.6,0.9,0.7,1.6,1.1,2.6c0,0.1,0.3,0.8,0.8,1.4c0.4,0.5,1.1,1.3,2.5,1.9
			c0.1-0.5,0.2-1.3,0-2.3c-0.2-0.8-0.5-1.5-1.4-2.6c-1.5-2-2.2-2.2-3.6-4.1c-1.3-1.6-1.4-2.3-1.4-2.8c0-1.1,0.6-1.9,0.9-2.3
			c0.4,0.5,0.9,1.3,1.5,2.1c2.1,3,3.6,5.3,4.1,6c0.8,1.2,1.7,2.7,2.8,4.4c0.9,0.1,2.3,0.3,4,0.5c5.5,0.6,5.5,0.3,6.7,0.8
			c4.5,1.8,5.4,2.2,5.4,2.2c0.2,0.1,0.9,0.5,1.1,0.2c0.4-0.3-0.3-1.8-0.4-1.8c0,0-0.1-0.3-0.9-1.4c0.4,0,1,0.1,1.6,0.5
			c0.5,0.3,0.7,0.7,1.2,1.3c1.1,1.6,1.7,2.3,2.4,2.4c0.9,0,1.5-1,1.6-1.2c0.6-1,0.4-2.2,0.2-2.7c-0.5-1.8-1.7-2.9-2-3.2
			c-2.2-2-3-6.5-4.1-11.9c-2.1-10.8-2.3-26.4-2.4-27.7c0.5-0.7,1.1-1.4,1.6-2c0.1,0.4,0.4,1.1,0.6,2c1.3,5,0.7,9.1,0.6,10.4
			c-0.5,4.9,0.5,9.2,2.3,17.3c0.9,4,2.5,9.6,5.5,16.1c2.6,0.4,5.2,0.9,7.9,1.3c-0.1-0.5-0.3-1-0.4-1.6c0.9,0.4,1.7,0.9,2.6,1.3
			c2.3-1.3,4.7-2.6,7-3.9c-2.1-3.5-4.4-8-6.3-13.4c-1.4-4.1-2.4-7.8-3-11.1c1-0.2,2-0.4,3-0.6c1.2,5.5,2.5,10,3.5,13.3
			c0.8,2.7,1.4,4.3,2.1,6.2c1.5,3.4,3.1,6.1,4.4,7.9c0.1-1.1,0.1-2.1,0.2-3.2c0.4,1.9,1.5,3.4,3,3.7c0.3,0.1,0.7,0.1,1.3,0
			c-0.2-0.2-0.6-0.9-0.5-1.8c0-0.2,0.1-1,0.6-1.2c0.2-0.1,0.4-0.1,1.7,0.5c1.1,0.5,1.3,0.6,1.7,0.6c0.6-0.1,1-0.8,1.1-0.9
			c0.7-1.3-0.2-3.2-0.5-3.9c-1.2-2.5-1.6-5.3-2.7-7.8c-1.8-4.3-2.6-7.8-3.3-11.3c-0.5-2.5-1.1-6.1-1.4-10.5c0.5,0.4,1.2,1,1.9,1.9
			c1.5,1.9,1.9,4,2.4,7.2c0.7,4.7,0.7,5.8,1.3,9.6c0.7,4.1,1.1,5.5,1.6,6.5c1.6,3.6,3.6,4.9,4.1,5.2c1.1,0.7,2.1,1,2.8,1.1
			c-0.3-1.7-0.6-3.4-0.9-5.1c0.4,0.5,1.1,1.3,2.4,1.8c1.1,0.4,3.1,0.6,4.2-0.6c0.3-0.3,0.5-0.6,0.6-0.9c-0.2-0.4-0.4-0.9-0.8-1.4
			c-0.8-1-1.4-1.2-1.4-1.8c0-0.6,0.7-1.3,1.2-1.3c0.3,0,0.4,0.3,1.3,1.9c0.6,1.1,0.7,1.2,0.8,1.4c0.5,0.7,1,1.3,1.7,1.4
			c0.9,0.1,1.9-0.5,1.9-1.1c0-0.6-1.1-0.7-1.7-1.8c-0.4-0.7-0.4-1.5-0.4-2.2c1,0.8,1.8,1.3,2.2,1.6c1.9,1.5,2.2,1.7,2.8,1.7
			c1.6,0.1,2.8-1.6,2.9-1.9c0.3-0.4,0.3-0.6,0.2-0.8c-0.2-0.3-0.7-0.2-1.3-0.5c-0.6-0.4-1.1-1.4-0.7-2c0.4-0.7,2-0.6,2.3,0
			c0.1,0.3-0.1,0.4-0.1,1.1c0,0.6,0.2,1.6,0.7,1.7c0.4,0.1,1-0.4,1.3-0.9c0.2-0.4,0.2-0.9-0.2-2.6c-0.4-1.4-0.7-2.1-1.1-3.6
			c-0.4-1.5-0.5-1.9-0.4-1.9c0.1,0,0.4,2.7,2.3,3.7c0.1,0.1,1.2,0.6,2.4,0.2c1.2-0.4,1.7-1.5,1.8-1.9c0.3-0.7,0.2-1.3,0.2-1.6
			c0.4,0.4,0.9,0.8,1.5,1.4c1.2,1,1.8,1.4,2.3,1.3c0.7-0.3,0.9-1.7,0.9-2.3c0-0.1,0-0.2,0-0.6c0-1.2,0-1.3,0.1-1.4
			c0.3-0.4,1.2-0.5,1.5-0.1c0.4,0.5-1,1.8-0.6,2.3c0.3,0.4,2,0.1,2.6-0.9c0.3-0.5,0.1-0.7,0.4-1.6c0.2-0.5,0.5-1.3,1.2-1.5
			c0.6-0.2,1,0.3,1.2,0.1c0.3-0.2-0.1-1-0.6-2.6c-0.4-1.5-0.3-1.6-0.2-1.7c0.3-0.2,1.1,0.7,1.2,0.7c0.7,0.8,0.7,1.4,1,1.4
			c0.6,0.1,1.4-1.7,1.8-2.7c0.6-1.4,1-2.7,1.4-4.1c0.1-0.4,0.1-0.7,0.3-1.1c0.6-1.2,1.7-1.6,2.3-1.9c0.3-0.1,5-2.3,5.7-5.3
			c0.3-1.1-0.2-1.4,0.2-3c0.4-1.4,1.1-2.7,1.6-2.7c0.3,0.1,0.2,0.6,0.9,1.7c0.4,0.6,0.5,1,0.8,1c0.8,0.2,2-2,2.8-3.8
			c0.9-2.3,0.4-2.6,1.3-5.1c0.7-2,1.2-2.2,1.9-4.4c0.5-1.6,0.7-2.9,0.7-3.2c0.2-1.2,0.2-2.6-0.1-4.5c-0.4-3.1-1.2-4.6-1.5-6.2
			c-0.5-2.1-0.6-5.2,1.7-9.8c0,0.7,0,1.8,0,3.3c0,2.8,0,3.4,0.2,4.3c0.2,0.8,0.4,1.1,1.5,3.1c0.5,1,1.2,2.3,2,3.9
			c-0.4,0.4-1.2,1.1-1.6,2.2c-0.2,0.6-0.5,1.1-0.4,1.8c0.2,1,1.3,1.8,2.8,2c-0.4-3.4,0.2-5.5,0.9-6.8c0.2-0.4,0.7-1.1,0.9-2.1
			c0,0,0.6-1.8,0.4-4c-0.3-6-5.5-14.5-5.5-14.5c-3-4.9-4.7-7.8-7.9-11.3C541.5,716.1,534,712,528.7,709.7z M437.7,810
			c1.7,6.1,4.5,9.8,4.1,10.1c-0.3,0.2-1.9-1.6-2.8-2.8c0,0-0.2-0.2-0.3-0.4c-1.2-1.6-3.1-5.8-2.9-11.7c0-0.7,0.1-2,0.3-2
			C436.5,803.1,436.7,806.4,437.7,810z M451.9,769.6c-0.1,1.8-0.5,3.2-0.8,4.1c-2-0.4-3.5-1.8-3.7-3.4c-0.4-2.7,2.9-5,4-4.5
			C452.1,766.1,452,768,451.9,769.6z M494.6,806c0.6,2,0.3,3.7,0.1,4.6c-0.9-1.8-1.7-3.7-2.6-5.5c-0.3-0.7-0.7-1.4-1-2.2
			c-0.4-0.8-0.8-1.6-1.1-2.4C490.5,800.7,493.6,802.4,494.6,806z"/>
		<path class="st26" d="M399.4,811.1c-6.2-0.8-12.5-1.5-18.7-2.3c-0.1-0.8-0.2-2.1-0.1-3.7c0.1-1.4,0.2-2.3,1-7.4
			c0.2-1.6,0.4-2.9-0.2-4.5c-0.2-0.6-0.5-1.1-0.8-1.5c-0.7,1.7-1.3,3.3-2,5c-0.8-2.2-1.3-3.2-1.5-3.1c-0.3,0.1-0.2,1.6,0.2,4.7
			c-1.1,0-3-0.2-5-1.1c-1.8-0.8-3.5-1.5-4-3.2c-0.7-2.4,1.4-4.7,1.6-4.9c-1.1-1.3-1.5-2.5-1.6-3.5c-0.6-4.9,5.2-10.7,14.6-14.2
			c0.1,0.7,0.2,1.4,0.3,2.1c0.6-0.5,1.4-1,2.4-1.6c0.9-0.6,2.3-1.4,4-2c2-0.7,2.4-0.3,3.7-1c1.4-0.7,2.3-1.8,2.8-2.5
			c0.3,0.7,0.8,1.7,1.1,2.9c0.3,1.1,0.7,3.1,0.4,5.8c-0.4,4-2.1,7-2.3,7.6C393.6,786.2,393.3,793.5,399.4,811.1z"/>
		<path class="st26" d="M377.2,808.5c0.5-0.7,1-1.7,1.4-3.1c0.6-2.3,0.1-4.2-0.2-5.1c-2.2,0-4.5-0.1-6.7-0.1
			C373.5,802.9,375.4,805.7,377.2,808.5z"/>
	</g>
</g>
</svg>
