<?xml version="1.0" encoding="utf-8"?>
<!-- Generator: Adobe Illustrator 25.2.1, SVG Export Plug-In . SVG Version: 6.00 Build 0)  -->
<svg version="1.1" id="Ebene_1" xmlns="http://www.w3.org/2000/svg" xmlns:xlink="http://www.w3.org/1999/xlink" x="0px" y="0px"
	 viewBox="0 0 321.5 298.8" style="enable-background:new 0 0 321.5 298.8;" xml:space="preserve">
<style type="text/css">
	.st0{fill:#FFFFFF;}
</style>
<path class="st0" d="M305.8,30.7v236.9c0,9.9-8.6,18-19.1,18h-64.9V160.9h23.2l11.3-37.2h-34.5v-8.3c0-15.9,7.5-28.9,25.1-28.9
	c7.2,0,12.7,1,17.4,2.3l2.2-39.1c-7.5-2.1-16.6-3.4-28.7-3.4c-15.5,0-34.2,4.4-47.8,16.4c-15.5,13.3-21.8,34.9-21.8,54.7v6.2h-22.6
	v37.2h22.6v125H34.7c-10.5,0-19.1-8.1-19.1-18V31c0-9.9,8.6-18,19.1-18h252.4C297.3,12.7,305.8,20.8,305.8,30.7z"/>
</svg>
