<?xml version="1.0" encoding="utf-8"?>
<!-- Generator: Adobe Illustrator 25.2.1, SVG Export Plug-In . SVG Version: 6.00 Build 0)  -->
<svg version="1.1" id="Ebene_1" xmlns="http://www.w3.org/2000/svg" xmlns:xlink="http://www.w3.org/1999/xlink" x="0px" y="0px"
	 viewBox="0 0 184.7 298.8" style="enable-background:new 0 0 184.7 298.8;" xml:space="preserve">
<style type="text/css">
	.st0{fill:#FFFFFF;}
</style>
<g>
	<path class="st0" d="M89.6,10.1c-16.1,0-30.2,12.4-30.2,29.4c0,16.1,14.1,29.4,29.8,29.4c17,0,30.2-13.3,30.2-29.4
		C119.4,22.5,106.2,10.1,89.6,10.1z M119,235.4v-89.9c0.1-18.6,0.3-37.2,0.5-55.8c-10.2,2.5-20.7,5-31.5,7.2
		c-15.2,3.2-30.1,5.9-44.4,8.3c0.1,5.8,0.2,11.6,0.3,17.4c19.5,2.5,21.5,4.2,21.5,31.9v80.8c0,29.4-2.5,31-24.9,34
		c-0.1,6.4-0.3,12.7-0.5,19.1c11.1-4.2,29.2-9.4,51.9-9.4c23,0.1,41.1,5.5,52.3,9.7c0.1-6.5,0.1-13,0.2-19.5
		C120.7,266.5,119,263.6,119,235.4z"/>
</g>
</svg>
