<?xml version="1.0" encoding="utf-8"?>
<!-- Generator: Adobe Illustrator 25.2.1, SVG Export Plug-In . SVG Version: 6.00 Build 0)  -->
<svg version="1.1" id="Ebene_1" xmlns="http://www.w3.org/2000/svg" xmlns:xlink="http://www.w3.org/1999/xlink" x="0px" y="0px"
	 viewBox="0 0 321.5 298.8" style="enable-background:new 0 0 321.5 298.8;" xml:space="preserve">
<style type="text/css">
	.st0{fill:#FFFFFF;}
</style>
<g>
	<g>
		<path class="st0" d="M235.9,288.1H85.6c-40,0-72.3-30.7-72.3-68.2V79c0-37.8,32.6-68.2,72.3-68.2h150.2c40,0,72.3,30.7,72.3,68.2
			v140.9C308.2,257.6,275.9,288.1,235.9,288.1z M85.9,35.8c-25.4,0-45.8,19.5-45.8,43.2v140.9c0,24,20.7,43.2,45.8,43.2h150.2
			c25.4,0,45.8-19.5,45.8-43.2V79c0-24-20.7-43.2-45.8-43.2H85.9z"/>
	</g>
	<g>
		<path class="st0" d="M160.8,218.5c-0.6,0-1.1,0-1.4,0c-40.3-0.8-72.3-32.3-71.5-70.3c0.8-37.5,33.4-67.4,72.9-67.4
			c0.6,0,1.1,0,1.4,0c40.3,0.8,72.3,32.3,71.5,70.3C233.1,188.3,200.5,218.5,160.8,218.5z M160.8,100.3c-28.4,0-51.6,21.4-52.2,48.2
			c-0.6,27.1,22.4,49.7,51.1,50.3c14.1,0.3,27.3-4.7,37.3-13.8c9.9-9.1,15.7-21.4,16-34.6c0.3-13.3-5-25.8-14.6-35.1
			s-22.6-14.8-36.7-15.1C161.6,100.3,161.3,100.3,160.8,100.3z"/>
	</g>
	<g>
		<ellipse class="st0" cx="243.3" cy="73" rx="18.5" ry="17.4"/>
	</g>
</g>
</svg>
