<?xml version="1.0" encoding="utf-8"?>
<!-- Generator: Adobe Illustrator 25.2.1, SVG Export Plug-In . SVG Version: 6.00 Build 0)  -->
<svg version="1.1" xmlns="http://www.w3.org/2000/svg" xmlns:xlink="http://www.w3.org/1999/xlink" x="0px" y="0px"
	 viewBox="0 0 419 768" style="enable-background:new 0 0 419 768;" xml:space="preserve">
<style type="text/css">
	.st0{display:none;}
	.st1{stroke:#000000;stroke-miterlimit:10;}
	.st2{fill:none;stroke:#FFFFFF;stroke-width:17;stroke-miterlimit:10;}
	.st3{fill:#FFFFFF;}
	.st4{fill:#C1272D;stroke:#000000;stroke-width:2;stroke-miterlimit:10;}
	.st5{fill:#FFFFFF;stroke:#000000;stroke-width:2;stroke-miterlimit:10;}
	.st6{fill:#FFFFFF;stroke:#000000;stroke-miterlimit:10;}
	.st7{fill:#FEAD53;stroke:#000000;stroke-miterlimit:10;}
	.st8{fill:#A82932;}
	.st9{fill:#C98C73;stroke:#000000;stroke-miterlimit:10;}
	.st10{opacity:0.39;fill:#841C28;}
	.st11{opacity:0.39;}
	.st12{fill:#841C28;}
	.st13{fill:#B57C68;}
	.st14{opacity:0.57;stroke:#000000;stroke-miterlimit:10;}
	.st15{fill:#FEAD53;stroke:#000000;stroke-width:0.75;stroke-miterlimit:10;}
	.st16{fill:#FFFFFF;stroke:#000000;stroke-width:0.75;stroke-miterlimit:10;}
	.st17{stroke:#000000;stroke-width:1.0419;stroke-miterlimit:10;}
	.st18{fill:#B57A66;}
	.st19{fill:#ED1C24;stroke:#000000;stroke-miterlimit:10;}
	.st20{fill:#C1272D;}
	.st21{stroke:#000000;stroke-width:1.150734e-02;stroke-miterlimit:10;}
	.st22{stroke:#000000;stroke-width:9.322791e-03;stroke-miterlimit:10;}
	.st23{fill:#E6E6E6;stroke:#000000;stroke-width:1.0256;stroke-miterlimit:10;}
	.st24{fill:#808080;}
	.st25{fill:#E6E6E6;}
	.st26{fill:#C98D79;stroke:#000000;stroke-miterlimit:10;}
	.st27{fill:#C98D79;}
	.st28{opacity:0.44;}
	.st29{fill:#B78679;}
	.st30{fill:#936860;}
	.st31{fill:#C6907D;stroke:#000000;stroke-miterlimit:10;}
	.st32{fill:#CCCCCC;}
	.st33{fill:none;stroke:#000000;stroke-miterlimit:10;}
	.st34{fill:#666666;}
	.st35{fill:#BC8475;}
	.st36{fill:#662D91;stroke:#000000;stroke-width:0.5;stroke-miterlimit:10;}
	.st37{fill:#FFFFFF;stroke:#000000;stroke-width:0.553;stroke-miterlimit:10;}
	.st38{fill:none;stroke:#000000;stroke-width:0.75;stroke-miterlimit:10;}
	.st39{fill:#EAEAEA;stroke:#000000;stroke-width:0.75;stroke-miterlimit:10;}
	.st40{fill:#C1272D;stroke:#000000;stroke-miterlimit:10;}
	.st41{fill:#CCCCCC;stroke:#000000;stroke-width:0.75;stroke-miterlimit:10;}
	.st42{opacity:0.43;stroke:#000000;stroke-width:1.9785;stroke-miterlimit:10;}
	.st43{fill:#C1272D;stroke:#000000;stroke-width:0.75;stroke-miterlimit:10;}
	.st44{fill:#999999;}
	.st45{fill:#FFFFFF;stroke:#000000;stroke-width:0.5;stroke-miterlimit:10;}
	.st46{fill:#FEAD53;stroke:#000000;stroke-width:0.5;stroke-miterlimit:10;}
	.st47{opacity:0.56;}
	.st48{opacity:0.68;}
	.st49{opacity:0.4;}
	.st50{opacity:0.5;}
	.st51{fill:none;stroke:#000000;stroke-width:2;stroke-miterlimit:10;}
</style>
<g id="Ebene_1" class="st0">
	
		<image style="display:inline;overflow:visible;opacity:0.51;" width="309" height="653" xlink:href="5CBAE46C.png"  transform="matrix(1.0971 0 0 1.0971 519 26.6019)">
	</image>
</g>
<g id="Ebene_13" class="st0">
	
		<image style="display:inline;overflow:visible;" width="1365" height="2048" xlink:href="5CBAE46B.jpg"  transform="matrix(0.4081 0 0 0.4081 441.7391 -45.099)">
	</image>
</g>
<g id="Ebene_4">
</g>
<g id="Ebene_12">
</g>
<g id="Ebene_5">
</g>
<g id="Ebene_7">
</g>
<g id="Ebene_11">
</g>
<g id="Ebene_3">
	<g id="Ebene_10">
	</g>
</g>
<g id="Ebene_8">
	<g id="Ebene_9">
	</g>
</g>
<g id="Ebene_14">
</g>
<g id="Ebene_15">
</g>
<g id="OberschenkelHose">
</g>
<g id="Ebene_19">
</g>
<g id="Oberschenkel_schatten">
	<g id="Ebene_16">
	</g>
</g>
<g id="Ebene_18">
</g>
<g id="Ebene_2">
</g>
<g id="Ebene_20">
</g>
<g id="Ebene_21">
</g>
<g id="Ebene_22">
	<path class="st1" d="M489.2,679.6"/>
	<path class="st2" d="M213.4,687.6c0.6,1,1.7,2.7,2.9,4.9c4,7.2,4.6,12.4,9.8,19c1.6,2,2.5,3.5,4.3,4.5c1.8,1,3.3,1,8.2,1
		c10.3,0,11.7,0.1,14.7-0.7c2.3-0.6,4-1.3,5.4-1.9c4.4-1.9,6.7-2.8,7.6-4.9c0.2-0.5,0.9-2.2-1.2-7.4c-1.1-2.8-3.1-6.7-6.7-11
		c6.1-0.1,12.1-0.1,18.2-0.2c0.5-0.1,1.3-0.4,2.2-1.2c0.2-0.2,1.4-1.3,1.6-3.1c0.2-1.7-0.7-3-1.2-3.7c-0.3-0.4-1.3-1.9-3.5-2.9
		c-1.9-0.9-3.1-0.9-7-1.2c-4.3-0.3-6.4-0.5-7.6-0.8c-3.4-0.9-5.6-2.5-7-3.5c-1.9-1.4-4.7-3.4-6.5-7.2c-0.9-1.9-1.2-3.8-1.2-3.9
		c-0.1-0.8-0.1-1.4-0.1-2.2c0-2.4-0.1-4.7-0.2-5.5c-0.3-3.3-2-3.9-3.7-7.8c0,0-1-2.4-1.7-7.2c-0.8-5.9,0.1-78.8-0.2-78.7
		c0.2-4.3-0.2-7.7-0.5-10.1c-0.5-3.5-1.1-4.9-1.8-9c-0.2-1.1-0.8-5-0.9-9c-0.2-6.6,1.2-11.8,3.8-21.8c1.1-4.3,1.4-4.8,1.8-7.3
		c0.9-5.4,0.7-9.9,0.4-12.9c1.1-2,2.7-5.1,4.6-8.9c3.6-7.3,8.2-16.8,11.3-27.5c1.9-6.6,2.6-11.9,3.9-22.3c1.1-8.6,2.3-20.6,2.6-35.1
		c1.1-0.4,2.7-1,4.6-1.8c6.7-2.8,8.3-4.3,9.3-5.3c1-1.1,2-2.3,2.3-4c0.4-2.2-0.6-3.7-1.4-5.7c-1.3-3-1.6-5.9-2.3-11.6
		c-0.8-6.2,0.4-5.5-0.4-9.5c-1.2-5.9-4.3-10.4-6.1-12.9c-2-2.8-2.6-2.8-4.6-5.6c-2.9-4.1-4.6-8-5.5-10.7c0.6-1.5,1.2-3.1,1.7-5
		c1.3-4.9,1.5-9.4,1.3-12.8c-0.6-0.6-1.3-1.6-1.7-3c-0.7-2.6,0.5-4.5,1-7.4c0.5-2.4,0.2-3.9-0.1-7.3c-0.7-8.1-0.1-10.7-0.8-21.7
		c-0.8-12-1.8-12.5-2.5-23c-0.5-7.7-0.3-14-0.1-18c1,0.6,2.5,1.6,4.3,2.7c4.1,2.6,8.4,5.5,15.9,10.8c9.7,6.8,10.5,7.7,14.6,10
		c6.7,3.9,9.5,4.6,11.3,5c3,0.5,8.8,1.5,13.6-2.1c4.2-3.2,5-8.1,5.2-9.1c0.2-1,0.9-5.7-1.6-10c-1.2-2.1-2.5-3-3.4-5.7
		c-0.8-2.4-0.7-4.4-0.7-4.7c0.1-3.3-8.5-12.8-36.2-34.9c0.5-0.6,1.2-1.4,1.9-2.6c0,0,0-0.1,0.1-0.1c0.4-0.7,1.4-2.9,0.7-6.9
		c-0.9-5.5-4.2-10.2-5.1-11.4c0,0-0.1-0.1-0.2-0.3c0,0-0.6-0.8-1.2-1.6c-1.4-1.9-1.8-6.9-1.8-6.9c-0.4-5.3-5.6-10.1-9.5-12.3
		c-4-2.1-8-2.2-10.6-2c-0.9-0.4-2.3-1.1-4-1.8c-4.5-2-5.5-2.3-6.3-2.5c-2-0.5-3.3-0.4-5.9-0.4c-2.5,0-6.1,0-10.6-0.4
		c2.8-1.4,4.4-3.1,5.2-4.2c0.5-0.7,1.2-1.5,1.7-2.9c0.9-2.4,0.6-4.5,0.4-5.6c1.1,0.2,3,0.3,5.1-0.3c0,0,1.1-0.3,2.2-0.9
		c2.5-1.4,5-10.2,5.5-22.4c0.6-0.2,1.5-0.5,2.1-1.3c0.9-1.2,0.6-2.8,0.5-3.2c-0.3-1.8,0-6.1,2.5-16.4c0.7-1.2,1.4-3.1,1.4-5.5
		c-0.1-5-3.7-9.9-8-11c-0.6-0.1-1.1-0.2-1.5-0.2c-0.1-1.1-0.3-2.8-0.8-4.7c-2.2-8.2-7.9-13.2-11.9-16.6c-2.8-2.4-7.5-6.3-14.6-8.6
		c-16.3-5.4-31.2,2.4-35.4,4.6c-3.8,2-13.6,7.3-20,18.7c-2.2,3.9-3.4,7.5-4,10.1c-0.1-0.1-0.5-1-1.5-1.3c0,0-1.2-0.3-2,0.4
		c-0.7,0.6-0.6,1.7-0.5,2.3c0.2,1.9,1.5,3.2,2.2,3.8c0.1,0.7,0.1,1.7-0.4,2.5c-0.4,0.7-0.9,1-1.1,1.2c-0.9,0.6-1.2,2-2.7,4.9
		c-0.7-0.5-2.6-1.2-3.9-1.9c-3.4-2-5.1-3-6.9-3.3c-1.6-0.3-3.4,0-7.1,0.6c-3.1,0.5-3.6,0.8-5.9,1.2c-3.1,0.5-5.1,0.4-8.6,0.3
		c-2.8,0-6.8,0-11.9,0.2c-0.4,0.2-1,0.5-1.7,0.9c-2.8,1.7-4.5,3.6-5,4.2c-0.9,1.1-8,9.1-14.6,14c-2.9,2.2-2.2,1.1-7.9,4.8
		c-8.6,5.5-14.2,10.5-15.7,11.8c-2,1.8-4.6,4.5-9.8,10c0,0-13.5,14.3-17.3,23.8c-0.3,0.7-0.5,1.4-0.5,1.4c-0.5,1.9-0.2,3.5-0.1,4.2
		c0.5,3.8,3.1,7.6,3.1,7.6c3.2,4.9,7.3,7.6,10.4,9.7c3.8,2.5,3.6,1.7,8.8,4.8c7.1,4.3,6.6,5.3,10.8,7c2.9,1.1,3.9,1,9.7,3
		c2.7,0.9,4.5,1.7,5,1.9c3.7,1.5,10.6,2.9,24.7,2.9c3.1,0.7,7.8,2.2,11.7,6.2c5.3,5.4,6,12.4,6.5,18.2c0.8,9.6,1.5,24.2,0.6,43.2
		c0.2,0.7,0.5,1.8,0.9,3.2c1.7,6.1,2.5,7.4,3.5,11.6c0.8,3.2,0.5,2.8,1.3,5.9c1.1,4.2,2.4,7.3,2.6,7.9c1.1,2.6,1.2,2.3,2.1,4.6
		c1,2.6,0.9,3.1,2.1,6.3c0.9,2.4,1.7,4.1,2,4.7c1.3,2.8,1.5,2.5,2,3.8c1.1,2.9,0.7,5.6,0.4,8.1c-0.4,2.6-0.8,2.9-1.3,5.5
		c-0.4,2-0.7,4.8-0.4,8.5c-0.7,1.7-1.7,4.2-2.7,7.1c0,0-1.8,5.3-2.8,9.7c-2,8.5,0.3,18,1.2,21.2c10.3,40,31,79.9,31,79.9
		c4.5,8.7,11.1,21.1,19.6,35.8c-0.3,2.8-0.5,5.9-0.5,9.3c0,4.5,0.4,8.5,1,12c0.4,1.5,0.9,2.9,1.3,4.4c0.1,1.9,0.3,4.7,0.4,8.2
		c0.1,6.2-0.2,10.1-1.3,23.9c-0.5,6.8-0.8,11.1-0.8,17c0,3.9,0.2,8.3,2.2,13.3c0.9,2.3,1.9,4.1,2.7,5.3c-0.1,1.5-0.2,4.1,0,7.2
		c0.3,4.4,0.9,7.7,1,8.3c0.8,4,1.3,14.6,0.8,42.1c-0.4,0.3-0.8,0.6-1.2,0.9c-0.1,6.1-0.1,12.1-0.2,18.2c-0.3,0.9-0.8,2.2-1.5,3.8
		c-1.5,3.5-1.9,3.6-2.5,5.5c-0.4,1.3-0.2,1-0.8,7.5c-0.3,3.1-0.4,4.1,0.2,5.3c0.7,1.4,2,2.1,2.9,2.5c6,0.4,12,0.8,18,1.2
		C213.1,686,213.2,686.8,213.4,687.6z"/>
	<path class="st3" d="M213.4,685.9c0.6,1,1.7,2.7,2.9,4.9c4,7.2,4.6,12.4,9.8,19c1.6,2,2.5,3.5,4.3,4.5c1.8,1,3.3,1,8.2,1
		c10.3,0,11.7,0.1,14.7-0.7c2.3-0.6,4-1.3,5.4-1.9c4.4-1.9,6.7-2.8,7.6-4.9c0.2-0.5,0.9-2.2-1.2-7.4c-1.1-2.8-3.1-6.7-6.7-11
		c6.1-0.1,12.1-0.1,18.2-0.2c0.5-0.1,1.3-0.4,2.2-1.2c0.2-0.2,1.4-1.3,1.6-3.1c0.2-1.7-0.7-3-1.2-3.7c-0.3-0.4-1.3-1.9-3.5-2.9
		c-1.9-0.9-3.1-0.9-7-1.2c-4.3-0.3-6.4-0.5-7.6-0.8c-3.4-0.9-5.6-2.5-7-3.5c-1.9-1.4-4.7-3.4-6.5-7.2c-0.9-1.9-1.2-3.8-1.2-3.9
		c-0.1-0.8-0.1-1.4-0.1-2.2c0-2.4-0.1-4.7-0.2-5.5c-0.3-3.3-2-3.9-3.7-7.8c0,0-1-2.4-1.7-7.2c-0.8-5.9,0.1-78.8-0.2-78.7
		c0.2-4.3-0.2-7.7-0.5-10.1c-0.5-3.5-1.1-4.9-1.8-9c-0.2-1.1-0.8-5-0.9-9c-0.2-6.6,1.2-11.8,3.8-21.8c1.1-4.3,1.4-4.8,1.8-7.3
		c0.9-5.4,0.7-9.9,0.4-12.9c1.1-2,2.7-5.1,4.6-8.9c3.6-7.3,8.2-16.8,11.3-27.5c1.9-6.6,2.6-11.9,3.9-22.3c1.1-8.6,2.3-20.6,2.6-35.1
		c1.1-0.4,2.7-1,4.6-1.8c6.7-2.8,8.3-4.3,9.3-5.3c1-1.1,2-2.3,2.3-4c0.4-2.2-0.6-3.7-1.4-5.7c-1.3-3-1.6-5.9-2.3-11.6
		c-0.8-6.2,0.4-5.5-0.4-9.5c-1.2-5.9-4.3-10.4-6.1-12.9c-2-2.8-2.6-2.8-4.6-5.6c-2.9-4.1-4.6-8-5.5-10.7c0.6-1.5,1.2-3.1,1.7-5
		c1.3-4.9,1.5-9.4,1.3-12.8c-0.6-0.6-1.3-1.6-1.7-3c-0.7-2.6,0.5-4.5,1-7.4c0.5-2.4,0.2-3.9-0.1-7.3c-0.7-8.1-0.1-10.7-0.8-21.7
		c-0.8-12-1.8-12.5-2.5-23c-0.5-7.7-0.3-14-0.1-18c1,0.6,2.5,1.6,4.3,2.7c4.1,2.6,8.4,5.5,15.9,10.8c9.7,6.8,10.5,7.7,14.6,10
		c6.7,3.9,9.5,4.6,11.3,5c3,0.5,8.8,1.5,13.6-2.1c4.2-3.2,5-8.1,5.2-9.1c0.2-1,0.9-5.7-1.6-10c-1.2-2.1-2.5-3-3.4-5.7
		c-0.8-2.4-0.7-4.4-0.7-4.7c0.1-3.3-8.5-12.8-36.2-34.9c0.5-0.6,1.2-1.4,1.9-2.6c0,0,0-0.1,0.1-0.1c0.4-0.7,1.4-2.9,0.7-6.9
		c-0.9-5.5-4.2-10.2-5.1-11.4c0,0-0.1-0.1-0.2-0.3c0,0-0.6-0.8-1.2-1.6c-1.4-1.9-1.8-6.9-1.8-6.9c-0.4-5.3-5.6-10.1-9.5-12.3
		c-4-2.1-8-2.2-10.6-2c-0.9-0.4-2.3-1.1-4-1.8c-4.5-2-5.5-2.3-6.3-2.5c-2-0.5-3.3-0.4-5.9-0.4c-2.5,0-6.1,0-10.6-0.4
		c2.8-1.4,4.4-3.1,5.2-4.2c0.5-0.7,1.2-1.5,1.7-2.9c0.9-2.4,0.6-4.5,0.4-5.6c1.1,0.2,3,0.3,5.1-0.3c0,0,1.1-0.3,2.2-0.9
		c2.5-1.4,5-10.2,5.5-22.4c0.6-0.2,1.5-0.5,2.1-1.3c0.9-1.2,0.6-2.8,0.5-3.2c-0.3-1.8,0-6.1,2.5-16.4c0.7-1.2,1.4-3.1,1.4-5.5
		c-0.1-5-3.7-9.9-8-11c-0.6-0.1-1.1-0.2-1.5-0.2c-0.1-1.1-0.3-2.8-0.8-4.7c-2.2-8.2-7.9-13.2-11.9-16.6c-2.8-2.4-7.5-6.3-14.6-8.6
		c-16.3-5.4-31.2,2.4-35.4,4.6c-3.8,2-13.6,7.3-20,18.7c-2.2,3.9-3.4,7.5-4,10.1c-0.1-0.1-0.5-1-1.5-1.3c0,0-1.2-0.3-2,0.4
		c-0.7,0.6-0.6,1.7-0.5,2.3c0.2,1.9,1.5,3.2,2.2,3.8c0.1,0.7,0.1,1.7-0.4,2.5c-0.4,0.7-0.9,1-1.1,1.2c-0.9,0.6-1.2,2-2.7,4.9
		c-0.7-0.5-2.6-1.2-3.9-1.9c-3.4-2-5.1-3-6.9-3.3c-1.6-0.3-3.4,0-7.1,0.6c-3.1,0.5-3.6,0.8-5.9,1.2c-3.1,0.5-5.1,0.4-8.6,0.3
		c-2.8,0-6.8,0-11.9,0.2c-0.4,0.2-1,0.5-1.7,0.9c-2.8,1.7-4.5,3.6-5,4.2c-0.9,1.1-8,9.1-14.6,14c-2.9,2.2-2.2,1.1-7.9,4.8
		c-8.6,5.5-14.2,10.5-15.7,11.8c-2,1.8-4.6,4.5-9.8,10c0,0-13.5,14.3-17.3,23.8c-0.3,0.7-0.5,1.4-0.5,1.4c-0.5,1.9-0.2,3.5-0.1,4.2
		c0.5,3.8,3.1,7.6,3.1,7.6c3.2,4.9,7.3,7.6,10.4,9.7c3.8,2.5,3.6,1.7,8.8,4.8c7.1,4.3,6.6,5.3,10.8,7c2.9,1.1,3.9,1,9.7,3
		c2.7,0.9,4.5,1.7,5,1.9c3.7,1.5,10.6,2.9,24.7,2.9c3.1,0.7,7.8,2.2,11.7,6.2c5.3,5.4,6,12.4,6.5,18.2c0.8,9.6,1.5,24.2,0.6,43.2
		c0.2,0.7,0.5,1.8,0.9,3.2c1.7,6.1,2.5,7.4,3.5,11.6c0.8,3.2,0.5,2.8,1.3,5.9c1.1,4.2,2.4,7.3,2.6,7.9c1.1,2.6,1.2,2.3,2.1,4.6
		c1,2.6,0.9,3.1,2.1,6.3c0.9,2.4,1.7,4.1,2,4.7c1.3,2.8,1.5,2.5,2,3.8c1.1,2.9,0.7,5.6,0.4,8.1c-0.4,2.6-0.8,2.9-1.3,5.5
		c-0.4,2-0.7,4.8-0.4,8.5c-0.7,1.7-1.7,4.2-2.7,7.1c0,0-1.8,5.3-2.8,9.7c-2,8.5,0.3,18,1.2,21.2c10.3,40,31,79.9,31,79.9
		c4.5,8.7,11.1,21.1,19.6,35.8c-0.3,2.8-0.5,5.9-0.5,9.3c0,4.5,0.4,8.5,1,12c0.4,1.5,0.9,2.9,1.3,4.4c0.1,1.9,0.3,4.7,0.4,8.2
		c0.1,6.2-0.2,10.1-1.3,23.9c-0.5,6.8-0.8,11.1-0.8,17c0,3.9,0.2,8.3,2.2,13.3c0.9,2.3,1.9,4.1,2.7,5.3c-0.1,1.5-0.2,4.1,0,7.2
		c0.3,4.4,0.9,7.7,1,8.3c0.8,4,1.3,14.6,0.8,42.1c-0.4,0.3-1.3,13-1.3,19.1c-0.3,0.9-0.8,2.2-1.5,3.8c-1.5,3.5-1.9,3.6-2.5,5.5
		c-0.4,1.3-0.2,1-0.8,7.5c-0.3,3.1-0.4,4.1,0.2,5.3c0.7,1.4,2,2.1,2.9,2.5c6,0.4,12,0.8,18,1.2C213.1,684.3,213.2,685.1,213.4,685.9
		z"/>
	<path class="st4" d="M176.5,135.2c-1.3-1.4-2.6-2-3.4-2.3c-1.8-0.7-3.4-0.6-4.4-0.5c-1.9,0.1-2.2,0.6-3.7,0.5
		c-1.8,0-3.1-0.7-3.8-1.1c-8.2-4.2-13.5-8.1-20-9.3c-1.1-0.2-4.7-0.8-9.2,0c-3.1,0.6-5.2,1.6-8.5,3.2c-1.2,0.6-5.5,2.7-11.7,7
		c-2.7,1.9-6.2,4.4-10,7.8c1.9,0.3,4.6,0.9,7.7,2.2c2.5,1,12.9,5.3,17.7,16.2c2.8,6.3,2.3,11.5,1.3,21.1
		c-1.2,11.3-4.3,13.9-5.2,14.6c-3.1,2.4-7,2.4-9.2,2.2c2.1,1,4.2,2,6.3,3c1.5,0.7,3,1.4,4.4,2.1c2.4,1.6,4.9,3.1,7.3,4.7
		c-1.7,0.4-3.3,0.9-5,1.3c0.4,1.1,1.1,2.9,1.6,5.2c0.8,3.5,0.8,6.2,0.8,7.3c0.2,15.6,2.2,31.7,0.8,39.6c-0.1,0.6-0.4,2.4-0.1,4.8
		c0.3,2.5,1.2,4.3,1.6,5.2c0.8,1.8,1.9,5.6,3.9,13.3c2.1,8,1.6,7.3,2.3,9.1c1.9,4.6,3.6,5.4,4.7,9.9c0.5,2.2,0.4,3.1,1.3,5.2
		c1.2,2.9,2.5,3.2,3.7,5.5c1.8,3.5,0.2,5.1,1.3,9.4c0.1,0.5,1.6,5.6,5.7,8.6c1.4,1,3,1.7,12.5,2.3c11.8,0.8,12.6,0,15.7,1.6
		c3.3,1.7,4.3,3.7,8.6,5c2.3,0.7,3.7,0.6,6.3,0.8c5.2,0.4,7.4,1.4,13.6,2.9c0,0,8,1.9,16.2,2.9c5,0.6,16.4,0.1,34.2-16.2
		c0.8-1.7,1.5-3.7,2.1-6c1.2-4.6,1.4-8.6,1.3-11.7c-0.8-0.7-1.8-1.8-2.1-3.4c-0.5-2.3,0.7-3.7,1.3-6.8c0.4-2.2,0.2-3.7,0-5.7
		c-0.4-4.7-2-30.5-4.2-66.3c1.5-1,2.8-2,3.9-3.1c11.4-11.1,9.2-29.7,8.3-35c0.4-0.7,1.1-1.8,2.3-2.3c2.2-1,5.3,0.1,7.4,2.8
		c0.7-0.2,1.7-0.6,2.5-1.5c2.1-2.1,1.6-5.5,1.3-7.6c-0.6-3.9-2.3-6.9-5.7-12.8c-1.3-2.2-1.5-2.4-2.1-3.7c-2.1-4.4-1.3-6.1-2.6-8.9
		c-2.3-5.1-8.2-7.2-9.4-7.6c-3.6-1.3-4.2,0-9.1-1.3c-4.3-1.1-5.3-2.4-8.9-3.7c-5.4-1.9-7.7-0.3-12.8-1.3c-0.6-0.1-2.8-0.6-5-0.1
		c-0.8,0.2-1.6,0.4-1.6,0.4c-1.3,0.4-1.8,0.7-2.8,1c-0.4,0.1-1.1,0.2-1.9,0.3c0,1.1-0.1,2.2-0.1,3.2c-0.1,3.8-0.2,7.6-0.3,11.4
		c-2-1-3.7-1.5-5-1.9c-1.7-0.4-5-1.3-9.4-0.9c-1.9,0.2-3.4,0.6-4.4,0.9c-0.4-1.7-1.3-4.2-2.9-6.9c-2.9-4.6-6.6-7.1-8.6-8.4
		c-1.7-1.1-2.4-1.3-8.1-4C181.6,137.7,178.5,136.2,176.5,135.2z"/>
	<path class="st5" d="M236.1,144.9c-0.3,0.8,2,2.4,3.2,3c1.1,0.6,4.7,2.6,6.8,1.2c1.3-0.9,0.7-2.1,1.9-2.8c1.8-1.1,5.2,0.5,7.3,2.6
		c1.7,1.7,1.3,2.6,3,3.9c1.6,1.3,4.5,2.5,6.4,1.3c1.2-0.8,1.9-2.8,1.3-3.7c-0.5-0.7-1.6-0.6-3.3-0.7c0,0-1.3-0.1-6.1-1.1
		c-5-1-4.6-2.7-9.4-3.7c-1.7-0.4-3.4-0.4-6.9-0.5C236.9,144.4,236.2,144.6,236.1,144.9z"/>
	<path class="st6" d="M111.7,133.2c2.7,0.8,6.4,2,10.6,4.1c4.7,2.3,13.3,6.7,20.3,15.8c3.3,4.3,9.9,12.8,9.8,24.8
		c-0.1,8.6-3.5,14.7-4.3,16c-3.9,6.8-9.4,10.3-11.9,11.7c-3-2.9-6-5.7-9-8.6c2-1.5,4.9-4,7.2-7.8c0.5-0.8,7-11.8,2.7-23.7
		c-2.3-6.5-6.7-10-13.1-15.1c-7.4-5.9-14.7-9.2-19.6-11C106.8,137.5,109.3,135.3,111.7,133.2z"/>
	<path class="st7" d="M130.7,199.8c1.8-0.7,4-1.8,6.1-3.8c8.1-8.1,6.2-24.6-0.4-34.8c-3.5-5.4-7.9-8.5-14.2-12.9
		c-6.4-4.5-12.3-7.2-16.5-8.9c0.6-0.7,1.2-1.4,1.9-2.2c1.6,0.2,3.9,0.7,6.6,1.6c7.1,2.4,11.6,6.2,14.9,8.9
		c5.8,4.9,9.2,9.8,10.7,12.1c2.3,3.6,4.4,6.8,5.6,11.8c1.6,6.7,0.5,12.2,0,14.9c-0.6,3-1.1,5.7-3,8.6c-2.9,4.5-7,6.6-9.1,7.5
		C132.2,201.7,131.4,200.8,130.7,199.8z"/>
	<g>
		<path class="st3" d="M116.7,130.8c0.2,0.3,0.3,0.4,0.5,0.4c0.3,0,0.9-0.2,1.5-0.3c0.6-0.1,1.2-0.3,1.9-0.2c0.3,0,0.7,0,1,0.1
			c0.3,0.1,0.6,0.2,0.8,0.2c0.9,0.2,1.9-0.3,2.8-1c0.8-0.7,1.6-1.6,2.2-2.5c-0.5,1-1.1,2-1.9,2.9c-0.8,0.9-1.8,1.7-3.2,1.6
			c-0.7-0.1-1.1-0.2-1.6-0.1c-0.5,0.1-1,0.2-1.5,0.4c-0.5,0.2-1,0.5-1.8,0.6c-0.4,0.1-0.9,0-1.3-0.2c-0.4-0.2-0.7-0.5-1-0.9
			L116.7,130.8z"/>
	</g>
	<g>
		<path class="st8" d="M122.9,196.4c2.2,1.8,4.3,3.6,6.4,5.3l3.3,2.6c1.1,0.9,2.1,1.8,2.8,3.1c0.7,1.2,1,2.6,1.4,4
			c0.3,1.3,0.7,2.7,1,4.1c0.6,2.7,1.2,5.4,1.6,8.2c0.4,2.8,0.5,5.6,0.2,8.4c-0.5,2.8-0.9,5.5-1,8.2c-0.2,2.7,0,5.5,0,8.3
			c0,2.8-0.1,5.6-0.2,8.3l-0.3,4.2c-0.1,1.4-0.2,2.8,0.1,4c0.3,1.3,0.8,2.6,1.4,3.8c0.6,1.2,1.3,2.5,1.7,3.9
			c0.4,1.4,0.7,2.8,0.8,4.2c0.1,1.4,0,2.8,0.3,4.1c0.3,1.3,0.8,2.6,1.5,3.6c0.4,0.5,0.9,1,1.3,1.6c0.5,0.6,0.8,1.2,1.1,1.9
			c0.6,1.3,0.8,2.8,0.7,4.3c-0.1,1.4-0.1,2.7,0.4,3.9c0.2,0.6,0.5,1.2,0.8,1.8c0.3,0.6,0.8,1,1.3,1.5c0.5,0.5,1,1,1.4,1.6
			c0.4,0.6,0.7,1.3,0.9,2c0.4,1.4,0.3,2.9,0.1,4.3c-0.2,1.4-0.3,2.7-0.3,4.1c-0.1,2.8,0.3,5.5,1,8.2l-0.1,0
			c-0.8-2.7-1.3-5.4-1.4-8.2c0-1.4,0.1-2.8,0.2-4.2c0.2-1.4,0.2-2.7-0.2-4c-0.2-0.6-0.5-1.2-0.8-1.8c-0.4-0.5-0.8-1-1.3-1.5
			c-0.5-0.5-1-1-1.4-1.6c-0.4-0.6-0.7-1.3-1-2c-0.2-0.7-0.4-1.4-0.5-2.1c-0.1-0.7,0-1.5,0-2.1c0.1-1.4-0.2-2.6-0.7-3.8
			c-0.3-0.6-0.6-1.2-1-1.7c-0.4-0.5-0.9-1-1.4-1.6c-0.9-1.2-1.4-2.6-1.7-4c-0.3-1.5-0.2-2.9-0.3-4.2c-0.1-1.3-0.3-2.7-0.7-4
			c-0.4-1.3-1-2.5-1.6-3.7c-0.6-1.3-1.1-2.6-1.4-4c-0.3-1.5-0.1-2.9,0-4.3l0.3-4.1c0.2-2.8,0.3-5.5,0.3-8.3c0-2.8-0.1-5.5,0.1-8.3
			c0.2-2.8,0.6-5.6,1.1-8.3c0.3-2.7,0.2-5.5-0.1-8.2c-0.4-2.7-1-5.4-1.5-8.2c-0.3-1.4-0.6-2.7-0.9-4.1c-0.3-1.3-0.7-2.7-1.3-3.9
			c-0.7-1.2-1.7-2.2-2.7-3l-3.2-2.6C127,200,124.9,198.2,122.9,196.4L122.9,196.4z"/>
	</g>
	<path class="st9" d="M284.8,246.5c-2.4-2.7-2.4-3.3-6.3-8.4c-3.7-4.9-7.1-8.7-9.4-11.2c4-3.4,7.3-5.8,9.6-7.4c5.8-4.1,8.7-5.5,10-9
		c1.1-2.9,0.5-5.7,0-7.4c3.8,1.7,7.6,3.4,11.3,5.1c2.7,2.3,5,4.1,6.5,5.3c4.6,3.6,6.9,5,9.8,8.2c0.8,0.9,2.6,2,3.1,4.1
		c0.1,0.6,0,0.6,0.3,2.3c0.2,1.6,0.4,2.8,0.8,4.1c0.4,1.1,0.8,1.9,1.6,3.3c1.5,2.6,2,2.9,2.7,4.2c1.8,3.3,1.4,6.9,1.2,8.1
		c-0.4,3.3-1.9,5.6-2.3,6.3c-1.5,2.2-3.1,3.4-3.7,3.8c-3.3,2.2-6.8,2.3-8.9,2.3c-4.9,0.1-8.5-1.5-11.5-2.8
		C297.3,256.3,290.9,253.2,284.8,246.5z"/>
	<g>
		<path d="M284.9,214.8c6.9,4.7,12.5,11.2,16.1,18.7c-3.9-7.3-9.7-13.5-16.7-17.9L284.9,214.8z"/>
	</g>
	<path class="st10" d="M187,168.9c-1.5-0.8-3.8-2.1-6.3-3.8c-1.2-0.8-6.5-4.4-12.5-10.5c-1.7-1.7-3.8-4-6.2-7
		c0.4,0.7,0.9,1.6,1.6,2.8c1.4,2.4,5.1,7.9,11.6,13.1c2.6,2,6.4,4.7,11.5,6.8C186.8,169.9,186.9,169.4,187,168.9z"/>
	<path class="st10" d="M189.5,174.4c-1.3-0.4-3.3-1-5.6-1.9c-1.1-0.4-5.8-2.4-11.5-6.2c-1.6-1-3.7-2.5-6-4.4c0.4,0.5,1,1.1,1.7,1.9
		c1.5,1.6,5.3,5.3,11.2,8.3c2.4,1.2,5.8,2.6,10.2,3.4C189.5,175.1,189.5,174.7,189.5,174.4z"/>
	<g class="st11">
		<path class="st12" d="M178.4,183.1c1,0.5,2.1,1,3.1,1.3c1.1,0.4,2.2,0.6,3.3,0.8c1.1,0.1,2.2,0,3.3,0c1.1,0,2.2-0.2,3.4-0.3l0,0.1
			c-1,0.7-2.1,1.1-3.3,1.3c-1.2,0.2-2.4,0-3.5-0.2c-1.2-0.2-2.3-0.6-3.3-1.1C180.3,184.5,179.3,183.9,178.4,183.1L178.4,183.1z"/>
	</g>
	<path class="st12" d="M191.6,184c0.2-0.5,0.5-1.3,0.8-2.2c0.3-1,0.3-1.3,0.4-1.6c0.7-1.9,3.9-2.4,5.3-2.6c1.3-0.2,3.3-0.4,5.9,0.3
		C199.8,179.9,195.7,181.9,191.6,184z"/>
	<path class="st10" d="M229,163.2c0.3-0.2,0.8-0.5,1.3-0.9c1.3-1,1.9-2.1,2.3-2.7c0.4-0.7,0.9-1.6,1.2-2.9c0,0.8-0.2,1.8-0.6,2.9
		c-0.7,2.3-2,3.8-2.9,4.6C230,163.9,229.5,163.6,229,163.2z"/>
	<path class="st10" d="M235.4,168.9c0.4-0.1,1.1-0.3,1.7-0.6c0.5-0.2,1.5-0.8,2.4-1.9c0.7-0.9,0.9-1.7,1-2.1
		c0.2-0.6,0.2-1.1,0.3-1.4c0.1,0.3,0.2,0.8,0.2,1.3c0,0.6,0,2.7-1.5,4.2c-1.2,1.2-2.7,1.4-3.3,1.4
		C236,169.5,235.7,169.2,235.4,168.9z"/>
	<path class="st13" d="M284.7,215.8c0.5,0.3,1.3,0.9,2.2,1.5c4.4,3.2,7.3,6.4,8.8,8.2c1.6,1.9,3.5,4.5,5.2,7.7
		c-1.6-1.7-3.3-3.5-5-5.2c-4.3-4.2-8.6-7.9-12.7-11.1C283.7,216.6,284.2,216.2,284.7,215.8z"/>
	<path class="st14" d="M192.5,192.3c0.8,0.2,1.2-0.2,3.2-1.1c0,0,2.2-1.1,5.2-2.2c2.9-1.1,4.4-1.7,6.4-1.6c2.5,0.1,4.4,1.2,7.2,2.9
		c1.2,0.7,1.7,1.2,2,1.4c0.5,0.5,0.6,0.7,1.3,1.4c0,0,0.7,0.8,1.6,1.6c1.6,1.5,3.7,2.4,4.3,2.6c0.6,0.3,2.9,1.2,6,1.4
		c1.8,0.1,3.2,0,4.3-0.2c0.4,0.7,1.1,1.7,2.1,2.7c0.4,0.5,1,1,3.5,2.9c1.7,1.3,2.3,1.7,3.8,2.8c0,0,1.9,1.4,3.4,2.6
		c1.6,1.3,4.5,3.6,7,6.8c2.2,2.8,2.1,3.5,6.1,9c0.7,0.9,1.2,1.7,1.6,2.2c0.7-0.5,1.4-1.1,2.1-1.6c-0.8-1.6-2.1-3.9-4-6.6
		c-4-5.7-8.1-9.4-14.2-14.7c-2.3-2-5.4-4.6-9.3-7.6c-0.8-0.5-2.1-1.1-3.8-1.5c-2.2-0.5-3.5-0.2-5-0.3c-2-0.1-3-0.9-7.8-4.1
		c-7.9-5.3-8.3-5.5-9-5.7c-3-0.8-3.4,0.3-9.8,0.7c-7.4,0.4-10.3-0.8-11.2,0.8C188.8,188.6,190.6,192,192.5,192.3z"/>
	<g class="st11">
		<path class="st12" d="M172.5,233c2-0.2,4,0,6,0.5c2,0.5,3.9,1.2,5.7,2.1c1.8,1,3.5,2.2,4.9,3.6c1.5,1.4,2.7,3,3.6,4.8
			c-1.6-1.3-3.1-2.5-4.6-3.6c-1.6-1.1-3.2-2.1-4.9-3c-1.7-0.9-3.4-1.7-5.2-2.4C176.3,234.3,174.5,233.7,172.5,233z"/>
	</g>
	<g class="st11">
		<path d="M171.9,233c3.9-0.2,7.8,0.7,11.4,2.3c1.8,0.8,3.5,1.8,5,3c1.5,1.2,3,2.6,4.1,4.1c-1.4-1.3-2.9-2.6-4.5-3.6
			c-1.6-1.1-3.3-2-5-2.8c-1.7-0.8-3.5-1.4-5.4-1.9C175.8,233.5,173.9,233.2,171.9,233z"/>
	</g>
	<g class="st11">
		<path class="st12" d="M181.9,226.3c2.5,0.2,5,1.3,7.1,2.8c2.1,1.6,3.8,3.6,4.7,5.9c-1.7-1.9-3.4-3.7-5.4-5.1
			C186.4,228.5,184.2,227.3,181.9,226.3z"/>
	</g>
	<g class="st11">
		<path d="M181.5,226.1c2.5,0.1,5,0.9,7.1,2.1c2.2,1.3,4.1,3,5.4,5.1c-1.8-1.7-3.7-3.3-5.8-4.5C186.2,227.7,183.9,226.8,181.5,226.1
			z"/>
	</g>
	<g class="st11">
		<path class="st12" d="M207.1,207.7c4.7,0.2,9.4,0.9,14.1,2.1c2.3,0.6,4.6,1.3,6.8,2.1c2.3,0.8,4.4,1.8,6.6,2.9
			c4.2,2.1,8.3,4.6,12.2,7.3c3.9,2.8,7.5,5.8,10.7,9.4c-3.8-2.8-7.7-5.4-11.7-7.8c-2-1.2-4-2.4-6.1-3.5c-2-1.1-4.1-2.2-6.2-3.3
			c-2.1-1-4.2-2.1-6.3-2.9c-2.2-0.9-4.3-1.7-6.6-2.4C216.2,210.1,211.7,208.8,207.1,207.7z"/>
	</g>
	<g class="st11">
		<path d="M207.7,207.9c4.9,0.2,9.9,0.9,14.7,2.2c4.8,1.2,9.5,3,13.9,5.2c8.9,4.4,17,10.4,23.6,17.8c-3.7-3.2-7.6-6.2-11.7-9
			c-4.1-2.7-8.3-5.2-12.6-7.3c-4.4-2.2-8.9-4-13.6-5.5C217.3,209.9,212.6,208.8,207.7,207.9z"/>
	</g>
	<g class="st11">
		<path class="st12" d="M209.4,218.8c3.5,3,7.3,5.6,11.2,7.9c4,2.3,8.1,4.2,12.4,5.7c1.1,0.4,2.1,0.8,3.2,1.1l1.6,0.5l1.6,0.4
			c2.2,0.6,4.4,1.1,6.7,1.5c4.5,0.8,9.1,1.2,13.7,1.4c-4.6,0.6-9.3,0.6-13.9,0.1c-4.6-0.5-9.2-1.6-13.6-3.2
			c-2.2-0.8-4.4-1.7-6.4-2.8c-2.1-1.1-4.1-2.2-6.1-3.5C216,225.5,212.4,222.4,209.4,218.8z"/>
	</g>
	<g class="st11">
		<path d="M207.3,215.8c1.7,1.7,3.5,3.4,5.4,4.9c1.9,1.5,3.8,3,5.8,4.3c4,2.7,8.2,5,12.7,6.7c4.5,1.8,9.1,3,13.9,3.7
			c4.8,0.7,9.6,0.8,14.4,0.4c-2.4,0.4-4.8,0.6-7.2,0.7c-2.4,0-4.9-0.1-7.3-0.3c-2.4-0.2-4.8-0.7-7.2-1.3c-2.4-0.6-4.7-1.4-7-2.2
			c-4.5-1.9-8.8-4.2-12.8-7C214,222.8,210.4,219.5,207.3,215.8z"/>
	</g>
	<g class="st11">
		<path class="st12" d="M208.8,224.6c3.4,2.4,6.6,4.7,9.9,7c3.3,2.2,6.7,4.4,10.2,6.4c3.5,2,6.9,4,10.5,5.8
			c3.6,1.8,7.2,3.5,10.9,5.3c-4.1-0.6-8-1.7-11.9-3.2c-3.8-1.5-7.6-3.2-11.1-5.3c-1.8-1.1-3.5-2.2-5.2-3.4c-1.7-1.2-3.3-2.4-4.9-3.8
			C214.2,230.8,211.3,227.9,208.8,224.6z"/>
	</g>
	<g class="st11">
		<path d="M207.6,223.1c3.5,2.6,7.1,5.1,10.7,7.6c3.6,2.4,7.2,4.9,11,7.1c3.7,2.3,7.5,4.5,11.2,6.7c1.9,1.1,3.8,2.1,5.7,3.2
			c1.9,1.1,3.8,2.1,5.8,3.1c-2-0.8-4-1.7-6-2.6c-2-0.9-3.9-1.9-5.9-2.9c-3.9-2-7.7-4.2-11.4-6.5c-3.7-2.3-7.3-4.8-10.9-7.3
			C214.3,228.7,210.9,226,207.6,223.1z"/>
	</g>
	<g class="st11">
		<path class="st12" d="M207,236.3c3.7,3.2,7.2,6.5,10.9,9.6c1.8,1.6,3.7,3.1,5.5,4.6c1.9,1.5,3.7,3,5.7,4.5
			c3.8,2.9,7.7,5.7,11.7,8.3c4,2.6,8.2,5.1,12.4,7.6c-4.7-1.3-9.2-3.3-13.6-5.6c-2.2-1.1-4.3-2.4-6.3-3.7c-2-1.4-4.1-2.8-6-4.2
			c-3.9-3-7.6-6.2-11-9.8C212.9,244.1,209.7,240.3,207,236.3z"/>
	</g>
	<g class="st11">
		<path d="M207.1,235.2c3.4,3.5,6.8,6.9,10.4,10.2c3.6,3.3,7.2,6.4,11.1,9.3c1.9,1.5,3.9,2.9,5.9,4.3c2,1.4,4,2.7,6.1,3.9
			c4.1,2.5,8.4,4.8,12.8,6.9c-2.3-0.8-4.5-1.8-6.7-2.9c-2.2-1.1-4.3-2.2-6.5-3.4c-4.2-2.4-8.3-5.2-12.2-8.1c-3.8-3-7.6-6.1-11-9.5
			C213.4,242.6,210.1,239,207.1,235.2z"/>
	</g>
	<g class="st11">
		<path class="st12" d="M191.7,263.9c-1.2-0.8-2.3-1.6-3.5-2.2c-1.2-0.7-2.4-1.2-3.7-1.7c1.4-0.2,2.9,0.2,4.2,0.9
			C190,261.5,191.1,262.5,191.7,263.9z"/>
	</g>
	<g class="st11">
		<path d="M191.7,263.4c-1.1-1-2.3-1.9-3.6-2.5c-1.3-0.6-2.7-0.9-4.2-1c1.5-0.5,3.1-0.3,4.5,0.3C189.8,260.8,191,262,191.7,263.4z"
			/>
	</g>
	<g class="st11">
		<path class="st12" d="M179.4,279.8c1.6,0.3,3.2,0.9,4.6,1.6c1.5,0.7,2.9,1.6,4.2,2.5c1.3,1,2.5,2.1,3.6,3.3c1.1,1.2,2.1,2.5,2.9,4
			c-1.4-0.9-2.7-1.9-3.9-2.8l-3.8-2.8l-3.8-2.8C181.9,281.8,180.6,280.8,179.4,279.8z"/>
	</g>
	<g class="st11">
		<path d="M178.9,279.6c3.4,0.7,6.6,2.3,9.5,4.4c2.8,2.1,5.3,4.7,7,7.8c-2.3-2.6-4.8-4.9-7.6-7C185.1,282.7,182.1,281.1,178.9,279.6
			z"/>
	</g>
	<g class="st11">
		<path class="st12" d="M203.2,284.6c4.7-0.1,9.4,0.6,14,1.6c4.6,1.1,9.1,2.6,13.5,4.5c4.3,1.9,8.5,4.3,12.4,7
			c3.9,2.7,7.5,5.8,10.6,9.3c-4.2-2.3-8.2-4.5-12.2-6.7c-4.1-2.1-8.2-4.1-12.4-6c-4.2-1.9-8.4-3.6-12.7-5.2
			C212.1,287.6,207.7,286.2,203.2,284.6z"/>
	</g>
	<g class="st11">
		<path d="M202.8,284.3c5,0.2,9.9,0.9,14.8,2.1c4.9,1.2,9.6,2.9,14.2,4.9c4.5,2.1,8.9,4.6,13,7.5c2,1.5,4,3,5.9,4.6
			c1.9,1.6,3.7,3.3,5.4,5.2c-3.7-3.3-7.6-6.4-11.7-9.1c-4.1-2.7-8.4-5.2-13-7.2c-4.5-2.1-9.2-3.7-13.9-5.1c-2.4-0.7-4.8-1.2-7.2-1.7
			C207.7,285,205.3,284.6,202.8,284.3z"/>
	</g>
	<path class="st15" d="M182.4,202.1c0,5-0.1,9.9-0.1,14.9c2.6,0,5.2,0.1,7.8,0.1c0.4,15.3,0.8,30.5,1.2,45.8
		c-2.9,0.2-5.7,0.4-8.6,0.7c0.1,6.5,0.2,13,0.3,19.6c12.7-0.3,25.5-0.6,38.2-0.9c-0.3-6.5-0.5-13-0.8-19.6c-2.9-0.1-5.8-0.2-8.7-0.3
		c0.6-7.2,0.2-12.9-0.3-16.8c-0.5-4.3-1.2-6.1-1-10.2c0.1-3.9,0.7-5.4,1.2-11.1c0.2-3.3,0.3-5.7,0.3-7.8c0-9.8-1.5-19.5-2.2-23.9
		c-4.9-0.1-9.8-0.3-14.7-0.4C190.7,195.5,186.6,198.8,182.4,202.1z"/>
	<path class="st16" d="M185.5,204.7c0.1,3.2,0.1,6.5,0.2,9.7c2.8-0.1,5.6-0.2,8.3-0.3c0.3,17.2,0.6,34.3,0.9,51.5
		c-3,0.2-6,0.3-9,0.5c0.1,4.6,0.2,9.2,0.3,13.8c10.7,0,21.4,0,32.1,0c-0.2-4.7-0.3-9.5-0.5-14.2c-3,0-6.1-0.1-9.1-0.1
		c-0.2-12.6-0.4-18.4-0.5-21.4c-0.1-2.3-0.2-4.6-0.3-6.9c-0.2-3.7-0.2-3.9-0.1-4.7c0.2-2.4,0.7-3.4,0.9-6.8c0.1-0.8,0.1-1.3,0.1-2.4
		c0.1-2,0.1-3.6,0.1-5.1c0-9.4-1.2-18.7-1.8-22.9c-3.9-0.1-7.8-0.2-11.7-0.4C192.1,198.3,188.8,201.5,185.5,204.7z"/>
	<path class="st15" d="M221.4,194.3c2.5,9,2.8,16.3,2.6,21.4c-0.2,6.1-1.3,9.3-1.6,17c-0.3,7.2,0.3,13.1,0.8,17
		c9.1,0,18.3-0.1,27.4-0.1c0.9,4.7,1.7,9.3,2.6,14c-3.6,0.2-7.2,0.3-10.8,0.5c0-2.1-0.1-4.2-0.1-6.3c-5.9,0-11.7-0.1-17.6-0.1
		c0.1,5.4,0.2,10.8,0.3,16.2c2.9,3.3,5.8,6.6,8.7,9.9c8.6,0,17.1,0.1,25.7,0.1c1-1.9,2-3.8,3-5.7c-0.7-9.5-1.2-19.1-1.7-28.8
		c-0.2-4.1-0.4-8.1-0.5-12.1c-1.2-2.3-2.4-4.7-3.7-7c-5.1-0.2-10.3-0.3-15.4-0.5c0-5.2,0-10.3,0-15.5c5-0.1,10.1-0.3,15.1-0.4
		c-6.4-6.3-12.8-12.7-19.2-19C231.9,194.5,226.7,194.4,221.4,194.3z"/>
	<path class="st16" d="M224.4,195.9c2.5,9,2.8,16.3,2.6,21.4c-0.2,5-1.3,8.9-1.6,17c-0.2,5,0,9.1,0.1,11.7c8.7,0,17.5,0,26.2,0
		c1.5,6.5,3,13,4.6,19.6c-5.5,0.3-11,0.7-16.6,1c-0.2-2.2-0.3-4.3-0.5-6.5c-3.9,0-7.7,0.1-11.6,0.1c0,4.6,0,9.2,0,13.8
		c2.6,2.6,5.1,5.2,7.7,7.8c7.7-0.1,15.5-0.2,23.2-0.3c1.3-2.6,2.5-5.3,3.8-7.9c-0.2-7-0.6-14.5-1.3-22.2c-0.3-3.4-0.7-6.8-1.2-10
		c-1.4-2.8-2.9-5.7-4.3-8.5c-5.7-0.1-11.3-0.3-17-0.4c0.1-7.1,0.2-14.3,0.3-21.4c6.2,0,12.3,0,18.5,0c-5.8-5-11.6-10-17.3-15
		C234.9,196,229.7,196,224.4,195.9z"/>
	<g class="st11">
		<path class="st12" d="M141.5,296.8c6.5,5.5,14.8,8.6,23.1,9.2c8.5,0.6,17,1.3,25.5,2.2c8.5,1,17,1.7,25.4,4.2
			c2.1,0.6,4.2,1.3,6.2,2.3c2,0.9,3.9,2,5.7,3.1c3.7,2.3,7.1,5,10.1,8l-0.2,0.2c-3.5-2.4-7.2-4.5-11-6.4c-1.9-0.9-3.8-1.8-5.7-2.5
			c-1.9-0.8-3.9-1.3-5.9-1.8c-4.1-1-8.2-1.8-12.4-2.6c-4.2-0.8-8.4-1.5-12.6-2.1c-8.4-1.2-16.9-2.2-25.4-3.1
			c-8.6-1-16.9-4.6-23.2-10.5L141.5,296.8z"/>
	</g>
	<g class="st11">
		<path d="M140.7,295.7c6.5,5.7,15,8.9,23.5,9.5c8.6,0.7,17.3,1.3,25.9,2.2c4.3,0.4,8.6,0.9,12.9,1.6c2.2,0.4,4.3,0.7,6.4,1.2
			c2.1,0.5,4.3,1.1,6.3,1.8c8.3,2.9,15.8,7.9,21.9,14.1l-0.1,0.1c-3.4-2.7-6.9-5.1-10.7-7.2c-3.7-2.1-7.6-3.9-11.7-5.1
			c-8.1-2.5-16.7-3.8-25.3-4.9c-8.6-1.1-17.2-1.9-25.8-2.8c-8.7-0.9-17.2-4.4-23.6-10.3L140.7,295.7z"/>
	</g>
	<g class="st11">
		<path class="st12" d="M265.3,314.1c-6.1,0.1-12.2-1-17.9-3.1c-5.7-2.1-10.9-5.3-15.4-9.2c4.8,3.6,10.2,6.3,15.8,8
			c5.7,1.7,11.6,2.2,17.4,1.7L265.3,314.1z"/>
	</g>
	<g class="st11">
		<path d="M265.9,312.4c-6.3,0.2-12.6-0.7-18.6-2.7c-6-2-11.6-5-16.5-8.8c5,3.7,10.7,6.6,16.6,8.4c6,1.8,12.2,2.5,18.4,2.1
			L265.9,312.4z"/>
	</g>
	<g class="st11">
		<path class="st12" d="M130,263.6c1.9-1.3,3.5-3,4.6-4.9c0.3-0.5,0.5-1,0.7-1.5c0.1-0.3,0.2-0.5,0.3-0.8c0.1-0.3,0.1-0.5,0.2-0.8
			c0.2-1.1,0.2-2.3,0.2-3.5c0-2.4,0-4.9,0-7.3c0.1-2.5,0.5-4.9,1.2-7.3c-0.4,2.4-0.6,4.8-0.5,7.2c0.2,2.4,0.4,4.9,0.6,7.3
			c0.1,1.2,0.2,2.4,0.1,3.8c0,0.3-0.1,0.7-0.1,1c-0.1,0.3-0.1,0.6-0.2,1c-0.2,0.6-0.4,1.2-0.7,1.8c-1.1,2.4-2.8,4.4-4.7,6.1
			L130,263.6z"/>
	</g>
	<g class="st11">
		<path d="M129.4,262.4c2-1.5,3.7-3.2,4.8-5.4c0.6-1.1,0.9-2.2,1.1-3.4c0.2-1.2,0.1-2.4,0.1-3.7c-0.2-2.6-0.1-5.2,0.4-7.7
			c0.5-2.5,1.3-5,2.3-7.3c-0.9,2.4-1.5,4.9-1.8,7.4c-0.3,2.5-0.2,5,0.1,7.6c0.2,1.3,0.3,2.6,0.2,3.9c-0.1,1.3-0.5,2.7-1,3.9
			c-1.1,2.5-2.9,4.6-4.9,6.3L129.4,262.4z"/>
	</g>
	<path class="st17" d="M224.2,146.6c0.7,0.8,2.4,2.8,2.8,5.9c0.5,4.2-1.8,8.2-2.8,8C223.4,160.4,223.1,157.4,224.2,146.6z"/>
	<path class="st10" d="M169.3,137.1c-0.2-0.1-1.1-0.8-2.4-1.8c-0.3-0.2-0.5-0.4-0.7-0.5c-0.3-0.3-0.6-0.5-0.9-0.8
		c0.3,0,0.6-0.1,0.9-0.1c0.2,0,0.3-0.1,0.5-0.1c0.3,0.2,0.7,0.4,1.1,0.6c1.7,1.1,3,2,3.5,2.5c0.7,0.6,3.1,2.5,5.5,5.6
		c0.8,0.9,1.3,1.5,1.2,1.6C177.8,144.4,171.9,139,169.3,137.1z"/>
	<g class="st11">
		<path d="M228.2,162.7c2.8-1.2,5-3.7,5.9-6.8c-0.5,3.1-2.5,6.1-5.4,7.7L228.2,162.7z"/>
	</g>
	<g class="st11">
		<path d="M234.4,168c1.5,0,3.2-0.5,4.4-1.5c1.2-1,2-2.7,2.1-4.3c0.1,1.7-0.5,3.4-1.7,4.7c-0.6,0.6-1.3,1.2-2.1,1.5
			c-0.8,0.4-1.7,0.6-2.6,0.7L234.4,168z"/>
	</g>
	<path class="st6" d="M246.2,174c-0.3-0.6-0.6-1.7-0.5-2.9c0.4-2.9,3.3-4.2,3.7-4.4c3.1-1.5,6.4-0.2,8.5,0.7c0.7,0.3,3.3,1.4,5.8,4
		c1.1,1.2,2.7,3.1,3.7,5.9c0.6,1.5,1.3,3.4,1,6c-0.2,2.5-1.3,4.3-1.9,5.3c-1.7-1.2-3.4-2.3-5.2-3.5c-2.8-1.8-5.5-3.5-8.2-5.2
		c-2.2-1.6-4.5-3.1-6.7-4.7C246.4,174.7,246.3,174.3,246.2,174z"/>
	<path class="st6" d="M281.2,172.6c-0.7-0.3-1.9-0.7-3.3-0.5c-2.8,0.4-4.4,2.7-5.2,3.9c-3.1,4.5-2,10.1-1.7,11.6
		c1.2-0.4,2.7-0.8,4.4-1c4.9-0.6,8.9,0.9,11,1.8c0.2-1.1,0.3-2.8,0-4.7c-0.3-2.1-1-3.7-1.7-5.2C284,177,282.9,174.9,281.2,172.6z"/>
	<path class="st7" d="M271.4,179c1.5-0.2,2.9-0.3,4.3-0.4c0.4,0,2.5-0.2,5.3-0.2c2.7,0,3.5,0.2,4.2,0.8c0.6,0.5,1.1,1.4,0.8,1.9
		c-0.3,0.5-1.5,0.2-3.4,0.1c-0.5,0-2.1,0-5.3,0c-1.5,0-3.7,0.1-6.4,0.3c0-0.3,0-0.8,0.2-1.2C271.1,179.7,271.2,179.3,271.4,179z"/>
	<g class="st11">
		<path d="M187,169.2c-12.3-6.8-22.7-16.8-30-28.6c7.6,11.7,18.2,21.3,30.5,27.7L187,169.2z"/>
	</g>
	<g class="st11">
		<path d="M188.7,174.4c-8.7-3.1-16.8-7.8-23.8-13.8c7.2,5.7,15.5,10.1,24.2,12.8L188.7,174.4z"/>
	</g>
	<g class="st11">
		<path d="M166.8,132.8c4.7,3,8.6,7.1,11.6,11.7c-3.2-4.5-7.4-8.2-12.1-10.9L166.8,132.8z"/>
	</g>
	<g class="st11">
		<path d="M176.4,182.1c2.4,1.2,5,2,7.6,2.3c1.3,0.1,2.6,0.1,4,0.1c1.3,0,2.6-0.1,4-0.1l0,0.1c-1.3,0.6-2.6,0.9-4,1
			c-1.4,0.1-2.8-0.1-4.1-0.3c-1.4-0.3-2.7-0.6-4-1.1C178.7,183.5,177.5,182.9,176.4,182.1L176.4,182.1z"/>
	</g>
	<path class="st9" d="M188.7,96.3c1.9-1.9,5-4.5,9.3-6.7c5.9-3,11.1-3.6,16-4.2c6.3-0.7,10.1-1.1,14.7,0.5c5.6,2,9.2,5.8,11,8.1
		c0,3-0.1,7.7-0.3,13.6c-0.2,7.8-0.3,10-1.2,13.2c-0.5,1.7-0.9,2.8-1.6,5.5c-1.4,6-0.5,6-1.4,7.7c-2.3,4-7.4,2.9-10.2,7.6
		c-0.7,1.2-1,2.3-1.2,3c-0.1,5.2-0.3,10.4-0.4,15.7c-1.8-0.7-4.1-1.5-6.8-2c-4.6-0.8-8.5-0.4-11.1,0.1c-0.7-1.8-1.7-4.2-3.4-6.8
		c-1-1.6-3.4-5.1-7.6-8.1c-2.1-1.5-4.9-2.7-10.4-5c-3-1.3-5.6-2.2-7.3-2.9c0.1-2.1,0.2-4.2,0.3-6.3c0.9-0.1,2.2-0.3,3.7-0.8
		c0.9-0.3,4.1-1.5,6.8-4.4c2.9-3.1,3.6-6.6,4-9C193.3,106.7,190.3,99.4,188.7,96.3z"/>
	<path class="st18" d="M238.7,93.8c-0.9-0.6-2.4-1.3-4.2-1.9c-3.3-1-6.1-0.6-10.1,0.1c-8.1,1.5-12.1,2.2-16,4.2
		c-4.3,2.2-7.4,4.8-9.3,6.7c1.6,3.2,4.7,10.5,3,18.9c-0.5,2.4-1.2,5.9-4,9c-2.7,3-5.9,4.1-6.8,4.4c-1.5,0.5-2.7,0.7-3.7,0.8
		c0,1.1-0.1,2.1-0.1,3.2c-0.8-0.3-1.7-0.7-2.7-1.1c-3-1.2-5.6-2.2-7.3-2.9c0.1-2.1,0.2-4.2,0.3-6.3c0.9-0.1,2.2-0.3,3.6-0.8
		c0.9-0.3,4.1-1.5,6.8-4.4c2.8-3.1,3.6-6.6,4-9c1.7-8.4-1.4-15.7-3-18.9c1.9-1.9,5-4.5,9.3-6.7c6.9-3.5,13-4,16-4.2
		c5.1-0.3,10.8-0.7,16.8,2.6C234.8,89.5,237.2,92,238.7,93.8z"/>
	<path class="st19" d="M175.7,51.1c1.2,1.4,2.5,3,3.8,4.7c1,1.4,2,2.7,2.9,4c-3.5,3.1-7,6.3-10.4,9.4c1.2,0.8,2.5,1.8,3.8,3
		c4,3.8,5.9,8.2,6.8,11c-0.5-1.4,1.2-4.9,2.5-5.6c0.7-0.4,1.4-0.5,2.2-0.6c5.6-1,11.2-1.7,16.8-2.4c1.3-0.2,2.6-0.3,3.9-0.5
		c4-0.5,8-1,12-1.1c9.3-0.3,24.5,1,28.8,10.9c3,6.9-0.6,13.8-1.2,15c1.4-2.7,2.8-5.8,3.9-9.4c0.5-1.5,0.9-2.9,1.2-4.3
		c0.3-1.4,0.4-3.2,0.1-5.3c-0.7-4.7-3.2-7.8-4.4-9.1c0-1.1,0-2.9-0.4-5.2c-2.7-14.1-18.3-24.3-32.1-26.6c-1.1-0.2-6.9-1.1-14.2,0.1
		c-7.8,1.3-13.4,4.2-16.6,6C180.8,47.1,177.7,49.4,175.7,51.1z"/>
	<path class="st19" d="M162.1,83.3c3.1,3.5,5.9,4.7,8,5.1c3.3,0.6,5.3-0.6,7.6,1c1.9,1.3,0.9,2.4,3.4,4.8c1.7,1.7,2.8,1.8,5.3,4.2
		c0.8,0.8,1.6,1.6,2.1,2.2c4.8,5.9,2.4,15.7,2.2,16.4c-0.9,3.3-2.2,5.4-2.5,5.9c-0.9,1.4-2.8,4.3-6.5,6c-0.6,0.3-3,1.4-5.6,1.3
		c-7.7-0.3-12.6-11.2-13.4-13c-3.6-8,0.3-9.2-3.3-19.4c-1.7-4.8-4.3-9.7-2.4-12.9c0.4-0.6,1.4-2.3,3-2.4
		C160.9,82.4,161.7,83,162.1,83.3z"/>
	<path class="st1" d="M164.7,91.1c0.1,2.8,0.3,5.7,0.4,8.5c2,3.1,4,6.1,6.1,9.2c-0.1-3-0.1-6-0.2-9C168.9,96.9,166.8,94,164.7,91.1z
		"/>
	<path class="st1" d="M202.4,63.7c2.1-2,4.2-4,6.4-6.1c0.6,1,1.6,5.3,2.2,6.4c-2.9-0.1-3.5-0.7-5,0.6c-1.6,0.1-3.2,0.2-4.8,0.3
		C201.5,64.5,201.9,64.1,202.4,63.7z"/>
	<path class="st1" d="M242.4,64.7c0.9,1,1.8,2.1,2.6,3.1c-1.3-0.1-2.6-0.2-3.9-0.3c-0.1-1.1-0.3-2.3-0.4-3.4
		C241.3,64.3,241.8,64.5,242.4,64.7z"/>
	<path class="st6" d="M239.7,111.1c1.6-2.8,3.2-5.6,4.8-8.3c-1.6-0.4-3.1-0.8-4.7-1.2C239.8,104.7,239.7,107.9,239.7,111.1z"/>
	<path class="st6" d="M237.5,124.4c1-1.3,1.9-2.8,2.9-4.3c3.6-5.8,6-11.5,7.7-16.6c0.3,2.2,0.5,4.7,0.4,7.6
		c-0.3,7.3-2.7,13.1-4.6,16.7c-2.3-0.3-4.5-0.7-6.8-1C237.2,126,237.3,125.2,237.5,124.4z"/>
	<path class="st6" d="M162.9,105.1c1.9,1.2,3.3,2.4,4.3,3.4c1.6,1.6,0.9,1.4,3.3,3.9c1.2,1.4,1.8,1.9,2,2.9c0.1,1-0.3,1.7,0.1,2.3
		c0.3,0.5,0.9,0.4,1.8,0.8c0.9,0.4,1.3,1,2,1.7c3.9,4.7,5.5,6.9,7.6,8.5c2.3,1.8,4.5,2.4,7,3c3.7,1,6.9,0.9,9,0.7
		c0.5,0.6,1,1.2,1.6,2c0.6,0.9,1.2,1.7,1.7,2.5c-1.3,0.3-3,0.5-5.1,0.5c-0.6,0-4.8,0-9.4-1.6c-7.6-2.6-12.3-8.2-14-10.3
		c-0.5,0.1-1.9,0.3-3.3-0.5c-1.4-0.9-1.8-2.5-2-3.4c-0.3-1.5-0.1-2.7,0.1-3.4c-0.9-1.6-2.1-3.4-3.8-5.2c-0.9-1-1.8-1.8-2.6-2.5
		C163.1,108.6,163,106.8,162.9,105.1z"/>
	<path class="st6" d="M199.4,131c1.3-2.4,2.7-4.8,4-7.1c0.5-0.1,1.3-0.1,2.2,0c2.1,0.3,3.6,1.2,4.2,1.6c1.2,0.7,3.4,1.2,7.8,2.2
		c1.6,0.4,3.4,0.7,12.1,1.7c2.2,0.2,5.1,0.6,8.5,0.9c0.2,0.7,0.4,1.8,0.4,3.1c-0.2,5.1-4.6,8.4-5.6,9.1c-4.6,3.4-9.8,3.1-11.9,3
		C208.5,144.8,200.6,132.9,199.4,131z"/>
	<path class="st6" d="M175.7,51.1c1,1.1,2.3,2.5,3.8,4.2c3.1,3.6,3.2,4.2,3.2,4.7c0,0.6-0.2,1.8-6.3,6.2c-3.2,2.3-5.8,3.9-5.7,4
		c0,0.1,0.9-0.3,1.7-0.7c-0.6,0.2-1.1,0.5-1.7,0.7c0,0-2,1.3-2.5,1.7c-1.1,0.8-2.4,2.2-3.5,5.1c-0.7-0.9-1.5-1.8-2.2-2.7
		c0.2-2.4,0.6-5.3,1.8-8.5C167.3,57.8,172.8,53.2,175.7,51.1z"/>
	<path class="st6" d="M257.6,77.9c-0.7-2.2-2-3.5-3-4.6c-1.1-1.2-3.2-3.3-5.6-3.1c-0.3,0-0.5,0.1-1,0.2c-1.7,0.4-2.9,1.1-3.7,1.6
		c-1.1-0.8-2.3-1.5-3.6-2.2c-9.3-4.7-18.8-3.5-24.2-2.2c-0.5-0.6-1.3-1.5-2.5-2.2c-1.6-1-3.2-1.2-4.2-1.4c-6.1-0.8-12.2-0.1-12.7,0
		c-3.9,0.5-5.8,0.7-7.1,1.3c-4.7,1.9-7.6,6-9.2,9.1c-2-1.2-3.3-2-4-2.4c-1.9-1.1-2.8-1.7-4.1-1.8c0,0-1,0-2.1,0.3
		c-3.6,1.1-5.4,6.1-5.6,6.7c-0.6-0.5-1.2-1-1.9-1.6c-0.3-0.6-1-1.5-2.2-2.1c-0.5-0.2-1.1-0.5-1.7-0.2c-0.6,0.3-0.9,1.1-0.9,1.7
		c0,0.8,0.4,1,1.2,2.4c0.4,0.9,0.8,1.6,0.9,2.6c0,0.7-0.1,1.3-0.2,1.7c5.1,5.2,10.2,10.5,15.4,15.8c-0.4,2.2-0.5,5.1,0.2,8.3
		c0.5,2.3,1.3,3.9,1.9,5.1c1.5,3.1,2.3,4.8,4,5.9c3.5,2.1,8.3-0.3,9.1-0.7c1.5,1.9,4,4.3,7.7,6.3c1.5,0.8,3,1.4,4.3,1.8
		c0.3-0.1,0.8-0.1,1.4-0.2c0.8,0,1.7-0.1,2.7,0.2c0.6,0.2,1.1,0.4,1.8,0.8c0.7,0.4,0.9,0.5,1.5,0.8c0,0,0.7,0.3,1.5,0.6
		c4.6,1.4,8.9,1.9,8.9,1.9c6.8,0.7,11.7,1.3,17.1,2.3c0.4,0.1,1.5,0.6,3.1,0.7c0.5,0,3.4,0.1,5.3-1.8c0.9-0.9,1.2-2,1.7-3.8
		c1.9-7.5,1.8-5.9,2.2-8.3c0.4-2.6,0.8-6,0.7-10c0.4-0.1,0.9-0.3,1.5-0.7c0.8-0.5,1.2-0.7,1.5-1.2c0.4-0.8-0.1-1.5-0.4-2.7
		c-0.1-0.7-0.1-1.4,0.3-3.6c0.8-4,1.6-6.8,1.6-6.8c1.7-5.8,1.9-5.7,2.3-7.9C258.1,81.8,258.3,80.1,257.6,77.9z M199.9,67.5
		c7-0.7,12.5,0.9,15.4,2c-9.9,0.9-19.8,1.8-29.7,2.7C188.2,70.7,193.2,68.2,199.9,67.5z M175.7,87.9c-0.1,0.1-0.3,0.2-0.4,0.3
		c-1.7-1.3-3.4-2.7-5.2-4c-4.3-4-4.1-3.9-3.8-4.1c0.1-0.2,0-0.2,1.4,0c0.1-0.5,0.8-5.4,3.7-6.2c1-0.3,1.9,0,3.5,0.6
		c2.4,0.8,4.2,1.8,5.3,2.6c0.2,1.8,0.3,3.7,0.5,5.5C179,84.3,177.3,86.1,175.7,87.9z M187.7,113.2c-1.2,0.4-2.4-0.4-3.5-1.1
		c-2.8-1.8-5-5.2-5-9c0-1.2,0.2-2.2,0.4-2.8c3.4,2.4,6.8,4.8,10.3,7.2C190.1,110.4,189.2,112.7,187.7,113.2z M200.1,119.5
		c-3-1.6-6.5-3.4-7-6.6c-0.1-0.6-0.2-1.7,0.5-3.2c3.2,3.7,6.4,7.4,9.6,11.2C202.4,120.6,201.4,120.2,200.1,119.5z M206.2,121.4
		c-4-5.3-8-10.6-12-15.8c0-2.4-0.1-4.8-0.1-7.2c7.2,0.1,14.3,0.2,21.5,0.3c0.1,8.2,0.2,16.5,0.3,24.8
		C212.6,122.7,209.4,122,206.2,121.4z M247.2,119.1c-0.8,3.3-1.9,6.2-2.9,8.6c-8.2-0.9-16.4-1.8-24.7-2.7c0-8.7,0.1-17.3,0.1-26
		c7.3-0.1,15.8,0.6,24.8,3.2c1.5,0.4,2.9,0.9,4.3,1.4C248.9,107.6,248.7,113,247.2,119.1z M249.9,92c-1.3,3.4-2.7,6-3.7,7.8
		c-0.6-0.1-1.1-0.2-1.7-0.3c0,0-9.7-2.8-19.8-3.8c-3.1-0.3-1,0.1-12.3-0.4c-8.8-0.4-15.6-0.8-17.5-0.9c-1.7-0.1-3.1-0.2-4-0.3
		c-1.3-2.4-2.4-4.4-3.3-5.7c-0.8-1.3-2.3-3.7-3.7-6.9c-0.9-2.2-1-2.9-0.8-3.7c0.1-0.4,0.7-1.5,4.4-2.7c2.8-1,5.1-1.2,5.6-1.3
		c3.8-0.4,5.5-0.4,9.3-0.7c4.3-0.3,8.6,0.1,12.9-0.3c0.4,0,1.6-0.2,2.5,0.5c0.6,0.4,0.9,1,1,1.4c3.6-0.3,6.7-0.5,9.1-0.5
		c5.6-0.1,7.9,0.3,10,1.4c1.2,0.6,2.1,1.3,2.6,1.8c0.8-0.6,2.3-1.4,4.2-1.3c3.8,0.3,6.5,4.5,6.9,8.1C252,86.5,251.3,88.3,249.9,92z"
		/>
	<path class="st6" d="M218.1,66.7c-0.2-2.9-0.5-5.8-0.7-8.7c7.9,1.4,15.8,2.9,23.8,4.3c0.1,2.6,0.2,5.3,0.3,8
		c0.1,2.3,0.3,4.5,0.4,6.8c-1.5-0.5-3.4-1.1-5.7-1.6c-3.2-0.6-5.8-0.7-7.2-0.7c-1.2,0-2.9,0.1-6.3,0.3c-1.6,0.1-2.8,0.2-3.7,0.3
		C218.6,72.5,218.4,69.6,218.1,66.7z"/>
	<path class="st1" d="M179.3,89.7c0.4-0.5,0.8-0.8,1-1c0.6-0.6,1.5-1.4,2.7-2.7c1.2,1.9,2.5,3.8,3.7,5.7c1.1,1.8,2.8,3.9,3,6.1
		c0.1,0.7-0.1,1-0.3,1.1c-0.8,0.7-2.9-0.8-3.2-1c-0.7-0.5-0.8-0.7-1.9-1.6c-0.8-0.7-1.3-1.1-2.3-1.7c-1.3-1-2.4-2.3-3.9-3
		c0,0-0.1-0.1-0.1-0.1c0,0,0-0.1,0.1-0.2c0.1-0.2,0.2-0.3,0.3-0.4C178.7,90.4,179,90.1,179.3,89.7z"/>
	<path class="st20" d="M166.9,80.5c0.1-0.2,0.6-0.4,0.7-0.5c-0.1,0.1,0.6-1.9,1.2-3.1c0.6-1.2,1.1-2,2-2.4c1-0.5,1.9-0.3,3.7,0.1
		c1.9,0.4,3.7,1.4,5.1,2.9c0.4,0.4,0.4,0.6,0.6,1.1c0.5,1.5,0.5,2.9,0.4,3.7c-0.8,1-1.6,2-2.4,2.9c-0.6,0.8-1.9,1.9-2.5,2.6
		c-0.4,0-0.9-0.5-1.4-0.8C169.8,83.7,170,83.7,166.9,80.5z"/>
	<path class="st1" d="M184.9,77.6c0.7-0.2,1.8-0.6,3.2-0.9c3.1-0.7,4.9-0.7,8.2-1c3.3-0.3,2.3-0.4,8.1-1.1c7.7-0.9,6.7-0.4,7.8-0.8
		c0.5-0.2,2.7-0.9,4.2-0.3c0.2,0.1,1.5,0.6,1.5,0.6c0,0,0.5,1.1,0.5,1.2c1-0.1,2.4-0.2,4.1-0.3c3.4-0.2,5.2-0.3,7.1-0.3
		c1.6,0,2.9,0.2,5.4,0.5c1.6,0.2,2.7,0.4,3.8,1.2c0.8,0.6,1.3,1.3,1.6,1.8c0.3-0.2,0.6-0.5,0.9-0.7c0.6,0.3,1.5,0.7,2.4,1.4
		c2.7,2,3.8,4.5,4.3,5.6c1.6,3.8,1.2,7.3,0.9,8.8c-1,2-2.1,3.9-3.1,5.9c-2-0.3-4-0.6-6-0.9c0.1-1.6,0.3-3.1,0.4-4.7
		c-1.1-1.5-2.9-3.6-5.7-5.4c-3.6-2.4-7-3-9.4-3.4c-4.6-0.8-8.1-0.4-12.2,0.1c-4.4,0.5-9.4,1.2-15.1,4c-3.2,1.6-5.6,3.4-7.2,4.7
		c-1.4-2.5-2.6-4.5-3.3-5.9c-0.8-1.3-1.4-2.7-2.2-4c-1.3-2.4-2.1-3.5-1.7-4.6C183.8,78.3,184.5,77.9,184.9,77.6z"/>
	<g>
		<path d="M170.7,119.9c0.1,0.6,0.2,1.1,0.5,1.6c0.2,0.5,0.5,0.9,0.8,1.3c0.7,0.7,1.6,1.1,2.8,1.2c-0.5,0.2-1.1,0.3-1.7,0.2
			c-0.6-0.1-1.2-0.4-1.6-0.9C170.6,122.3,170.3,121,170.7,119.9z"/>
	</g>
	<polygon class="st21" points="213.5,136.2 214.2,137.3 214.8,138.5 213.5,138.5 212.1,138.5 212.8,137.3 	"/>
	<polygon class="st21" points="219.6,138.5 219.4,139.9 219.3,141.2 218.2,140.4 217.1,139.6 218.4,139.1 	"/>
	<polygon class="st21" points="225.4,138.7 224.7,139.9 224,141 223.4,139.8 222.8,138.6 224.1,138.7 	"/>
	<polygon class="st22" points="230.3,137.3 229.7,138.2 229.1,139.1 228.6,138.2 228.1,137.2 229.2,137.2 	"/>
	<circle class="st23" cx="184.4" cy="109.9" r="3.9"/>
	<circle class="st23" cx="170.7" cy="78.6" r="3.9"/>
	<path class="st18" d="M187.9,136c0.1-0.2,2.3,0.8,5.5,1.3c4.2,0.7,7.7,0.3,10.2-0.2c1.2,1.3,3,2.9,5.3,4.4c1.5,1,3.6,2.4,6.6,3.4
		c1.7,0.6,4.4,1.2,7.9,1.2c-0.1,1.6-0.1,3.1-0.2,4.7c-2.3-0.3-5.8-0.9-9.8-2.2c-4.5-1.5-7.1-3.2-12.8-6.2
		C193,138.4,187.7,136.4,187.9,136z"/>
	<path class="st3" d="M181.1,52.8c2.2-2.4,5.5-5.4,10-7.6c12.5-6.1,26-2.4,26-2c0,0.4-8.2-1.2-19.2,1.8
		C190.6,47,184.9,50.2,181.1,52.8z"/>
	<path class="st6" d="M267.1,227.7c1.1,0,1.8-0.6,3.4-1.8c2.6-2.1,3.9-3.1,4.5-3.7c3-2.8,3.4-2.1,9.3-6.7c2.7-2.1,3.9-3.2,4.5-5
		c0.6-1.6,0.5-3.2,0.4-4c-0.1-2.1-0.7-3.7-1.2-4.7c-9.1-5.8-15.8-10.1-21.3-13.5c0,0-12.4-7.8-17.8-11.8c-0.7-0.5-1.4-1-2.2-1.6
		c-1.3-0.9-1.5-1.1-1.8-1.2c-0.6-0.2-1.7-0.4-3.6,0.6c0.1,0.6,0.1,1.6,0.2,2.7c0.2,3.5,0.3,7-0.4,10.2c-0.4,1.8-1.6,5.2-5.1,8.8
		c0.9,1.1,2.3,2.7,4.3,4.6c3.7,3.5,5,3.6,9.3,7.2c3.8,3.2,6.3,6.2,7.8,8c1.8,2.1,2.7,3.2,3.4,4.4c1.3,2.3,1.4,3.6,3.1,5.5
		C264.7,226.6,265.7,227.7,267.1,227.7z"/>
	<g>
		<path d="M286.1,204.5c0,1-0.2,2-0.6,2.9c-0.4,0.9-1.3,1.8-2.4,1.9c-1.1,0.2-2.2-0.1-3.1-0.5c-1-0.4-1.8-0.8-2.7-1.3
			c-3.6-1.7-7.1-3.5-10.6-5.4l-1.3-0.7c-0.4-0.3-0.8-0.5-1.3-0.8l-2.5-1.6c-1.6-1.1-3.3-2.2-4.9-3.3l-2.4-1.7
			c-0.8-0.6-1.7-1.3-2.2-2.2c-0.5-1-0.4-2.2,0.1-3.1c0.4-0.9,1.1-1.7,1.9-2.3c-0.6,0.7-1.2,1.6-1.5,2.5c-0.3,0.9-0.3,1.9,0.2,2.6
			c0.5,0.8,1.2,1.3,2.1,1.8l2.5,1.5c1.7,1,3.4,2,5,3.1l2.5,1.6c0.4,0.3,0.8,0.5,1.2,0.8l1.3,0.7c3.5,1.8,6.9,3.7,10.4,5.6
			c0.9,0.5,1.7,1,2.6,1.4c0.8,0.4,1.7,0.7,2.6,0.7c0.9,0,1.7-0.6,2.2-1.4C285.7,206.4,286,205.4,286.1,204.5z"/>
	</g>
	<g>
		<path class="st24" d="M285.1,201.4c0,0.8-0.1,1.7-0.5,2.5c-0.3,0.8-1.1,1.6-2.1,1.7c-1,0.2-1.9-0.1-2.7-0.4
			c-0.8-0.3-1.6-0.7-2.3-1.1c-3.1-1.5-6.1-3-9.1-4.6l-1.1-0.6c-0.4-0.2-0.7-0.5-1.1-0.7l-2.1-1.4c-1.4-1-2.8-1.9-4.2-2.9l-2.1-1.5
			c-0.7-0.5-1.5-1.1-1.9-2c-0.4-0.9-0.3-1.9,0.1-2.7c0.4-0.8,1-1.4,1.7-2c-0.5,0.6-1,1.4-1.2,2.1c-0.2,0.8-0.2,1.6,0.2,2.2
			c0.4,0.6,1,1.1,1.7,1.4l2.2,1.3c1.5,0.8,2.9,1.7,4.3,2.6l2.1,1.3c0.4,0.2,0.7,0.5,1.1,0.7l1.1,0.6c3,1.6,5.9,3.2,8.8,4.9
			c1.5,0.8,2.9,1.9,4.4,1.8c0.7,0,1.4-0.5,1.8-1.1C284.7,203,284.9,202.2,285.1,201.4z"/>
	</g>
	<path class="st25" d="M260.8,230.4c1.4-1.1,2.9-2.3,4.3-3.4c0.3,0.2,0.9,0.6,1.6,0.7c1.2,0.2,2.1-0.2,2.5-0.3
		c0.3,0.3,0.9,1,1.6,1.8c1.5,1.7,2,2.5,4.4,5.4c1.1,1.4,1.1,1.4,1.7,2.1c1.2,1.5,1.9,2.6,2.6,3.5c0.9,1.2,2.1,3,3.8,5.3
		c-0.7-0.3-1.7-0.7-2.9-1.3c-4.4-2.3-7-4.9-8.4-6C269.6,236.3,265.9,233.6,260.8,230.4z"/>
	<path class="st26" d="M241.3,174.3c-0.8-0.4-1.9-1.2-3.2-2.2c-1.8-1.5-2.9-2.8-3.3-3.3c-1.6-2.4-3.9-3.8-7.6-6.3
		c-5.8-3.8-11.9-4.6-16.7-5.2c-4.6-0.6-4.4,0-9-0.7c-2.8-0.4-5.8-1.1-10.5-1.4c-3-0.1-4.9,0-5.9,1.3c-0.5,0.7-0.8,1.8-0.4,2.6
		c0.4,0.9,1.3,1.3,2.2,1.6c3.1,1,6.8,1.1,8.9,1.1c-0.6,0.5-1.6,1.3-2.8,2.2c-1.8,1.2-2.5,1.3-3.5,2.3c-0.8,0.7-1.8,1.7-2.2,3.3
		c-0.4,2.2,0.8,4,1.2,4.5c-0.4,0.6-0.8,1.5-1.1,2.6c-0.3,1.2-0.3,2.1-0.3,2.8c0,2.1,0,3.8,1.1,4.5c0.2,0.1,0.9,0.4,2.1,0.1
		c0.4-0.2,1.1-0.5,1.6-1.2c0.7-1.1,0.4-2,1-3.2c0.4-0.7,1-1.1,1.6-1.5c1.8-1.2,5.9-1.5,11-0.8c-2.6,0.9-4.7,1.9-6.3,2.6
		c-3.1,1.5-2,1.4-5.6,3.2c-1.8,0.9-3.3,1.6-3.9,3.1c-0.4,0.9-0.2,1.6-0.2,1.8c0.2,1.2,1.2,2,2,2.3c0.6,0.3,1.8,0.6,7.1-2.1
		c3.2-1.6,3.2-1.9,4.8-2.4c0.5-0.2,3.1-1,6.5-0.5c4.1,0.6,6.8,2.7,8.3,3.8c1.8,1.4,1.4,1.6,3.3,3c1.4,1.1,3.8,2.9,7.4,3.6
		c1.3,0.3,3.7,0.6,6.6,0c0.5-0.4,1.2-1.1,2-1.9c0.2-0.2,1.5-1.7,2.4-3.5c0.6-1.1,1.2-2.8,1.6-7C241.6,181.4,241.7,178.2,241.3,174.3
		z"/>
	<g>
		<path d="M187.8,173.3l5.2-2.7c0.9-0.4,1.7-0.9,2.6-1.3c0.9-0.4,1.8-0.8,2.9-0.9c1-0.1,2,0,3,0.2c1,0.1,1.9,0.3,2.9,0.4l5.8,0.5
			l-5.8-0.2c-1,0-1.9-0.1-2.9-0.2c-1-0.1-1.9-0.2-2.8,0c-0.9,0.2-1.7,0.6-2.6,1c-0.8,0.5-1.7,0.9-2.5,1.4l-5,3L187.8,173.3z"/>
	</g>
	<g>
		<path d="M194.4,161.5c1.5-0.3,3-0.5,4.5-0.3c0.7,0.1,1.5,0.2,2.2,0.4l2.1,0.4l8.4,1.7l-8.6-1l-2.1-0.3c-0.7-0.1-1.4-0.2-2.1-0.2
			c-1.4,0-2.7,0.2-4,0.7L194.4,161.5z"/>
	</g>
	<g>
		<path class="st27" d="M211.3,179c0.4-0.2,1.7-0.5,3.1-0.1c1.2,0.3,2,1,2.3,1.4"/>
		<path d="M211.3,179c0.9-0.5,2-0.6,3-0.4c1,0.2,1.9,0.8,2.5,1.7c-0.8-0.6-1.7-1-2.6-1.2C213.2,178.9,212.3,178.9,211.3,179z"/>
	</g>
	<g>
		<path class="st27" d="M213.3,170.8c0.4-0.1,1.3-0.4,2.5-0.1c1.1,0.2,1.8,0.8,2.1,1"/>
		<path d="M213.3,170.8c1.4-0.9,3.6-0.5,4.6,0.9c-0.7-0.4-1.5-0.7-2.2-0.8C214.9,170.7,214.2,170.7,213.3,170.8z"/>
	</g>
	<g>
		<path class="st27" d="M214.9,164.6c0.3-0.1,0.9-0.2,1.6-0.1c0.8,0.2,1.3,0.5,1.5,0.7"/>
		<path d="M214.9,164.6c1-0.7,2.5-0.4,3.1,0.7c-0.6-0.2-1-0.4-1.5-0.5C216,164.6,215.5,164.6,214.9,164.6z"/>
	</g>
	<path class="st13" d="M270.7,227.9c3,1.2,7.5,3.5,11.6,7.6c4.2,4.3,4,6.6,8.4,10.6c5.2,4.7,10.9,6.4,13.1,7c3,0.9,8.1,1.8,14.1,1
		c2.3-0.3,4.1-0.8,5.5-1.3c-0.3,0.6-0.7,1.3-1.4,2.1c-1.4,1.7-2.9,2.7-3.5,3c-2.3,1.3-4.5,1.4-6.1,1.5c-1.8,0.1-3.2-0.1-4.3-0.3
		c-3.1-0.5-5.4-1.6-6.7-2.2c-1-0.5-2-1-3.9-2.1c-1.2-0.7-2.2-1.2-3.5-2.1c-1.8-1.1-3-2-5.3-3.6c-1.6-1.2-2-1.5-2.2-1.7
		c-0.8-0.7-1.6-1.5-2.8-3.2c-1.6-2-2-2.8-3.5-5c-1-1.3-1.7-2.3-2.7-3.6C275.8,233.7,273.6,231,270.7,227.9z"/>
	<path class="st28" d="M264.9,226.9c0.1-0.1,0.9,0.6,2.2,0.8c0.9,0.1,1.6-0.1,2.2-0.3c0.5,0.5,1.3,1.3,2.1,2.2
		c1.7,1.8,3.5,4,6.6,8.2c2.1,2.9,5.3,7.1,5.1,7.3c-0.1,0.1-0.9-0.6-3.9-4c0,0-2.3-2.3-6.2-6c-0.1-0.1-0.2-0.2-0.3-0.3
		c-1.4-1.3-2-1.9-3.4-3.2l0,0C265.6,228.1,264.8,227,264.9,226.9z"/>
	<path class="st29" d="M122.7,104.5c1.6,1.3,2.9,2.2,4,2.8c3.7,2.3,7,3.3,8.5,3.8c6,1.8,6,0.9,9.5,2.3c4.7,1.9,8.6,5.1,8.2,5.8
		c-0.2,0.5-2.3,0-3.5-0.3c-0.9-0.3-1.6-0.6-1.9-0.8c-2-1.1-2.7-0.9-6.9-2.3c-1.7-0.6-2.9-1.1-5.2-2c-1-0.4-2.2-0.9-4.6-1.9
		c-3.7-1.5-4-1.7-4.5-2c-1.1-0.6-2.6-1.8-4.1-3.7C122.4,105.7,122.5,105.1,122.7,104.5z"/>
	<path class="st30" d="M131.6,95.3c-0.1,1.2,0.8,2,1.8,3.4c1.3,1.9,1.8,3.7,2.3,5.7c0.2,0.8,0.5,2.3,1.2,5.3c0.2,0.9,0.2,0.9,0.2,1
		c1,2.3,5.4,2.3,9.8,2.3c0.5,0,4.7,0,4.7-0.4c0-0.2-0.9-0.4-1-0.5c-1.6-0.4-3-0.1-3.8,0.1c-1.1,0.2-4.2,0.8-6.5-0.5
		c-1.1-0.6-2.1-1.6-1.9-2.3c0.2-0.7,1.5-0.6,1.7-1.3c0.1-0.6-0.9-0.9-1.7-2.3c-0.6-1.1-0.1-1.3-0.7-2.6c-0.5-1.1-1-1.3-1.6-2.7
		c-0.3-0.7-0.2-0.7-0.5-1.4c-0.8-1.9-1.8-1.9-2.4-3.7c-0.4-1-0.3-1.6-0.6-1.7C132.2,93.7,131.7,94.5,131.6,95.3z"/>
	<path class="st31" d="M111.6,84.3c1.4,0.9,3,2.2,4.4,3.8c6,6.7,6,15.2,5.9,18.1c0.4,0.7,1.1,1.7,2.1,2.6c1.9,1.8,3.7,2.4,5.7,3.1
		c4.9,1.8,3.2,1.6,8.7,3.7c6.4,2.4,5.7,1.6,8.7,3c2.3,1.1,3.5,1.9,5.6,2c1.6,0,4.3-0.4,4.8-2c0.6-1.5-1.1-4.1-4.4-5.7
		c0.4,0,3.2,0.3,4.8-1.6c0.8-0.9,1-2,1.2-2.7c0.3-1.5,0.1-2.9-1-6c-1.7-4.6-2.2-4-2.5-6c-0.3-1.8-0.2-4.4,0.1-6.7
		c0.2-1.4,0.3-1.9,0-2.6c-0.5-0.9-1.3-1-4.6-2.5c-1.4-0.6-1.3-0.6-3.4-1.6c-1.8-0.8-2.7-1.2-3-1.3c-2.1-0.7-3.4-0.1-8.6,0.8
		c-1.4,0.2-2.8,0.5-4.2,0.7c-4.3,0.5-6.8,0.2-10.3,0.1C119.4,83.5,115.9,83.6,111.6,84.3z"/>
	<g>
		<path d="M150.9,112.1l-4.8,0.2c-1.6,0-3.2,0.3-4.8,0c-0.8-0.2-1.6-0.5-2.3-0.9c-0.4-0.2-0.7-0.5-1.1-0.9c-0.2-0.2-0.3-0.5-0.2-0.9
			c0-0.3,0.2-0.6,0.3-0.8c0.3-0.4,0.7-0.6,1.1-0.8c0.4-0.2,0.8-0.4,1.3-0.4c0.9-0.2,1.7-0.1,2.5,0c1.6,0.1,3.1,0.2,4.7,0.1
			c1.6,0,2.9-0.1,4.3-0.8c1.4-0.5,2.4-1.5,2.7-2.9c0.2-0.7,0.3-1.5,0.2-2.2c0-0.8-0.2-1.5-0.4-2.3l0.1-0.1c0.8,1.4,1.3,3,1.1,4.8
			c-0.1,0.9-0.5,1.7-1,2.5c-0.6,0.7-1.3,1.2-2.1,1.6c-0.7,0.3-1.6,0.7-2.5,0.8c-0.9,0.1-1.7,0.1-2.5,0.1c-1.6-0.1-3.2-0.2-4.8-0.4
			c-0.8-0.1-1.5-0.2-2.2-0.1c-0.3,0-0.7,0.1-1,0.3c-0.3,0.2-0.6,0.4-0.8,0.6c-0.2,0.2-0.2,0.3-0.1,0.5c0.1,0.2,0.4,0.5,0.7,0.7
			c0.6,0.4,1.4,0.7,2.1,0.9c1.4,0.4,3.1,0.2,4.7,0.3l4.8,0.1L150.9,112.1z"/>
	</g>
	<g>
		<path d="M151.9,93.4c0.2,2.2,0,4.4-0.3,6.6c-0.1,0.6-0.2,1.1-0.6,1.7c-0.3,0.5-0.8,1-1.4,1.1c-0.6,0.2-1.2,0.2-1.7,0.2
			c-0.6,0-1.1,0-1.6,0c-1.1,0.1-2.1,0.3-3.2,0.6c-1,0.2-2.1,0.7-3.4,0.6c-1.3-0.2-2.3-1.1-2.9-2.1c-0.6-0.9-1.1-2.1-1.2-3.2l0.1,0
			c0.4,1,0.9,2,1.6,2.8c0.7,0.8,1.5,1.5,2.4,1.5c0.9,0.1,2-0.4,3.1-0.6c1.1-0.2,2.2-0.4,3.4-0.4c0.6,0,1.1,0,1.7,0
			c0.5,0,1.1,0.1,1.5-0.1c0.5-0.1,0.9-0.4,1.1-0.8c0.3-0.4,0.4-0.9,0.6-1.4C151.6,97.8,151.9,95.6,151.9,93.4L151.9,93.4z"/>
	</g>
	<g>
		<path d="M140.9,108c-0.6,0.1-1.2-0.2-1.7-0.6c-0.5-0.4-0.9-0.9-1.1-1.5c-0.3-0.6-0.4-1.2-0.4-1.8c0-0.6,0.1-1.2,0.2-1.7
			c0.2,0.6,0.2,1.1,0.4,1.7c0.1,0.5,0.3,1,0.5,1.5c0.2,0.5,0.5,0.9,0.9,1.3C140.1,107.3,140.4,107.7,140.9,108z"/>
	</g>
	<g>
		<path d="M148.1,88.5c0.7,1.5,1,3.1,1.1,4.7c0.1,0.8,0.1,1.6,0.1,2.4c0,0.8-0.2,1.7-0.5,2.5c-0.4,0.8-1,1.4-1.7,1.9
			c-0.7,0.4-1.5,0.6-2.3,0.8c-1.6,0.2-3.2,0.5-4.8,0.3c-0.8-0.1-1.6-0.3-2.4-0.6c-0.2-0.1-0.4-0.2-0.6-0.3c-0.2-0.1-0.4-0.2-0.6-0.3
			c-0.3-0.3-0.6-0.5-0.9-0.8c-0.6-0.6-1.1-1.1-1.7-1.7l-0.8-0.9c-0.3-0.3-0.6-0.6-0.8-1.1c-0.1-0.2-0.2-0.6-0.1-0.9
			c0.1-0.3,0.3-0.6,0.5-0.8c0.4-0.3,0.9-0.4,1.3-0.5c0.8-0.1,1.7-0.1,2.5,0.1c0.8,0.3,1.4,0.5,2.2,0.5c0.7,0,1.5-0.2,2.2-0.6
			l0.1,0.1c-0.6,0.5-1.4,0.8-2.2,1c-0.8,0.2-1.7,0-2.4-0.2c-0.7-0.2-1.4-0.1-2.2,0.1c-0.3,0.1-0.7,0.2-0.9,0.4
			c-0.2,0.2-0.2,0.1-0.1,0.4c0.3,0.5,0.9,1.1,1.4,1.7c0.5,0.6,1,1.2,1.6,1.7c0.3,0.3,0.5,0.5,0.8,0.8c0.3,0.2,0.6,0.4,0.9,0.6
			c0.7,0.3,1.4,0.6,2.1,0.8c1.5,0.3,3.1,0.2,4.6-0.1c1.5-0.3,2.9-1.3,3.3-2.7c0.5-1.3,0.4-2.9,0.5-4.5
			C148.4,91.6,148.3,90.1,148.1,88.5L148.1,88.5z"/>
	</g>
	<path class="st32" d="M40.3,159.8c1.3-0.3,3.1-0.5,5.2,0c3.6,0.8,5.9,3,7.1,4.1c2.1,2,6.1,3.6,14.2,6.8c7.1,2.8,12.5,4,20.9,5.8
		c0.7,0.2,6.2,1.4,13.6,2.4c8.6,1.3,12.9,1.5,17-0.2c4.3-1.8,8.3-5.3,9.4-4.3c0.3,0.2,0.3,0.6,0.3,0.8c0.1,9.2-2.9,15-2.9,15
		c-0.8,1.5-1.1,2.2-1.8,2.9c-2.7,2.7-7,2.7-9.6,2.7c-2.1,0-2.2-0.3-5.5-0.4c-1.6,0-2.8,0-5.1,0.1c-4.3,0.2-7.7-0.5-9.6-0.8
		c-1.5-0.2-3.3-0.5-5.7-1.1c-4.6-1.2-4.7-1.9-10.2-3.5c-1.4-0.4-2.8-0.8-4.7-1.6c-1.7-0.8-1.5-0.9-3.2-1.6c-1.3-0.5-2.2-0.8-3.2-1.7
		c-0.4-0.4-0.4-0.5-0.9-1c-0.7-0.7-1.2-1-2.5-1.9c-2.9-1.9-3.2-2.3-4.1-2.5c-0.2-0.1-0.7-0.2-1.2-0.4c-0.8-0.3-1.3-0.6-1.8-0.9
		c-1.5-0.9-1.7-0.7-2.9-1.4c-1-0.6-1.7-1.2-2.1-1.6c-2.7-2.4-5.3-3.8-6.8-5.2C42.8,168.8,40.7,165.9,40.3,159.8z"/>
	<path class="st33" d="M111.9,84.7c2.7,1.6,4.4,3.4,5.5,4.7c6.3,7.5,5,15.9,4.4,17.2c-0.3,0.7-0.8,1.2-0.8,1.2
		c-0.7,0.6-1.1,0.4-1.8,0.9c-0.9,0.6-0.8,1.4-1.4,1.8c-0.5,0.4-1.5,0.5-3.5-0.4c-0.6,0.7-3.2,3.7-3.8,4.4c-10.6,12.4-12.8,15-15,19
		c-1.2,2.1-2.7,5.3-4,9.4c0,0,2.1-0.4,2.1-0.4c0,0,6.4-1.4,6.4-1.4c1.3-0.1,3.1,0,5.2,0.4c1.2,0.2,3.7,0.8,7.4,2.9
		c3,1.6,7.3,4,11.1,8.9c1.5,2,3.7,5.3,5.1,9.9c1.6,5.6,0.6,11.2-1.6,22.4c-0.6,3.3-1.2,5.7-3.3,7.8c-0.3,0.3-3.3,3.3-7.7,3.4
		c-1.7,0-2.9-0.4-3.9-0.7c-6.2-1.7-7.9,0.8-15.3-0.1c-3.7-0.5-6.9-1.6-11.7-3.3c-2.5-0.9-3.2-1.2-5.9-2.1c-5.3-1.7-6.2-1.4-8.6-2.5
		c-3.4-1.6-3.7-3.1-7.2-6c-4.8-3.9-6.1-2.4-11.9-6.1c-3.4-2.2-9.4-6.1-11.3-13c-0.2-0.6-1-3.7-0.4-7.6c0.6-4.1,2.4-7,3.5-8.7
		c1.3-2.1,2.5-3.3,4-5c4.7-5.1,4.1-5.2,9.7-11.5c4.6-5.2,6.9-7.8,9.8-10.4c7.5-6.7,15.9-11.5,19.2-13.3c2.5-1.4,4.3-2.3,6.8-4.2
		c4.8-3.6,8.2-7.9,8.6-8.5c2.7-3.4,3.6-5.5,6.8-7.6C109.7,85.5,111,85,111.9,84.7z"/>
	<path class="st32" d="M88.9,137.5c0.3,0.3,0.6,0.5,0.7,0.6c0.5,0.3,0.7,0.4,1.1,0.7c0.3,0.2,0.3,0.3,0.5,0.4
		c0.4,0.2,0.9,0.4,1.1,0.2c0-0.1,0-0.1,0-0.1c0-0.3-0.6-0.4-1.2-0.7c-1.3-0.5-1.9-1.3-2.1-1.2C88.9,137.4,88.8,137.4,88.9,137.5z"/>
	<path class="st32" d="M91.3,134.2c0.2,0.2,0.4,0.4,0.6,0.5c0.4,0.3,0.5,0.3,0.8,0.6c0.2,0.2,0.2,0.2,0.4,0.3
		c0.3,0.2,0.7,0.3,0.8,0.2c0,0,0-0.1,0-0.1c0-0.2-0.5-0.4-1-0.6c-1-0.5-1.5-1.1-1.6-1C91.3,134.1,91.2,134.1,91.3,134.2z"/>
	<path class="st32" d="M83.6,149.3c-2.3,0.3-2.9-0.9-6.8-0.9c-2.1,0-3.8,0.4-3.8,0.7c0,0.3,1.7,0.5,1.7,1c0,0.6-2.1,0.9-2.1,1.5
		c0,0.5,1.4,0.9,1.6,0.9c2.6,0.7,4.7-0.3,4.9,0.1c0.1,0.3-1,0.8-2.3,2.2c-0.5,0.5-1.4,1.6-1.2,1.9c0.5,0.7,7.3-3.7,7.9-2.9
		c0.4,0.6-3,3.5-2.5,4.1c0.3,0.4,2-0.3,3.4-1.4c1.5-1.1,1.9-2.3,2.4-2.2c0.6,0.2,0.3,2.4,0.6,2.5c0.3,0,0.6-2.2,1.6-5
		c1.1-3.2,1.6-4.8,2.9-5.9c1.1-0.9,2.4-1.3,2.4-2c0-0.4-0.5-0.7-1-0.9c-0.6,0.1-1.3,0.2-1.9,0.3c-0.3-0.4-0.8-1.1-1.5-1.6
		c-1-0.7-2-1-2.6-1.1c0.3,0.3,0.8,0.9,1.4,1.5c0.8,1,1.3,1.5,1.3,1.8C90.3,145.7,87.2,148.9,83.6,149.3z"/>
	<path class="st32" d="M109.5,89.5c0.6,0.2,1.3,0.5,2.2,1.1c0.7,0.5,1.8,1.4,3.5,4.1c0.9,1.4,1.9,3,2.7,5.3c1.6,4.4,1.4,7.7,1.7,7.7
		c0.3,0,0.8-2.9,0.1-6.2c-0.5-2.6-1.6-4.4-2.2-5.4c-1.5-2.4-3.1-3.9-4.5-5.1c-0.3-0.3-4.4-3.9-5.2-3.2c-0.2,0.2-0.1,0.5-0.1,0.7
		C108.3,88.9,108.9,89.2,109.5,89.5z"/>
	<path class="st33" d="M93.5,142.6c3.6,3.9,5.2,7.7,5.9,10c2.3,7.1,0.9,14-0.1,19.3c-0.3,1.4-0.5,2.6-0.9,3.9
		c-1.1,3.5-4,10.4-13,17.1"/>
	<path class="st32" d="M113.4,104.3c1.5,2,2.2,3.5,2.5,4.4c0.1,0.3,0.3,0.8,0.1,1.2c-0.4,0.6-1.7,0.7-2.4,0.4
		c-0.2-0.1-0.4-0.2-0.5-0.2c-0.3-0.2-0.9-0.6-0.8-0.8c0.1-0.2,1.1,0,1.3,0c-2-2-2.4-2.6-2.2-2.8c0.2-0.3,2.1,1.1,2.7,0.6
		C114.4,106.6,114,105.4,113.4,104.3z"/>
	<g>
		<path d="M91.9,143.2c-0.7,2-1.9,3.8-3.4,5.2c-0.8,0.7-1.6,1.3-2.6,1.8c-0.9,0.5-1.9,0.8-2.9,1c-4,0.9-8.1,0.9-12.1,0.2
			c4,0.5,8.1,0.4,12-0.7c1-0.3,1.9-0.6,2.8-1.1c0.9-0.5,1.6-1.1,2.3-1.8c1.4-1.4,2.4-3.1,3-5L91.9,143.2z"/>
	</g>
	<g>
		<path d="M88.1,152.1c0,0.6-0.1,1.2-0.2,1.8c-0.1,0.6-0.3,1.2-0.6,1.7c-0.3,0.6-0.5,1.1-0.9,1.6c-0.4,0.5-0.7,1-1.2,1.4l0.8-1.6
			c0.3-0.5,0.5-1.1,0.7-1.6c0.2-0.5,0.5-1.1,0.7-1.6L88.1,152.1z"/>
	</g>
	<g>
		<path d="M80.1,159.5c0.8-1.4,1.7-2.6,2.7-3.8c1-1.2,2.1-2.3,3.3-3.3c-0.8,1.4-1.7,2.6-2.7,3.8C82.4,157.4,81.3,158.6,80.1,159.5z"
			/>
	</g>
	<g>
		<path d="M83.6,152.2c-1.1,1.4-2.6,2.5-4.2,3.3c-1.6,0.8-3.4,1.2-5.2,1.1c1.7-0.7,3.2-1.3,4.8-2C80.5,153.9,82,153,83.6,152.2z"/>
	</g>
	<g>
		<path d="M82.4,149.6c-1.8,0.4-3.7,0.4-5.6,0.1c-1.9-0.3-3.7-0.8-5.3-1.7c1.8,0.3,3.6,0.7,5.4,1C78.8,149.2,80.6,149.4,82.4,149.6z
			"/>
	</g>
	<g>
		<path class="st34" d="M94.8,183.4c2.4-1.7,5.1-3,7.9-3.9c2.8-0.9,5.8-1.3,8.8-1.3c3,0.1,6,0.5,8.8,1.4c2.8,0.9,5.5,2.2,7.9,3.8
			c-2.7-1.2-5.4-2.1-8.2-2.8c-1.4-0.3-2.8-0.6-4.2-0.8c-1.4-0.2-2.8-0.3-4.3-0.3c-1.4,0-2.9,0.1-4.3,0.2c-1.4,0.1-2.8,0.4-4.2,0.7
			C100.2,181.2,97.4,182.2,94.8,183.4z"/>
	</g>
	<g>
		<path d="M107.1,87.4c1.1,0.2,2.1,0.7,3.1,1.1c1,0.5,1.9,1.1,2.8,1.8c1.8,1.3,3.3,3.1,4.5,4.9c0.6,1,1.1,2,1.5,3
			c0.4,1,0.8,2.1,1,3.2c0.2,1.1,0.3,2.2,0.4,3.3c0,1.1,0,2.2-0.3,3.3l-0.1,0c0-2.1-0.2-4.3-0.7-6.4c-0.5-2.1-1.4-4.1-2.5-5.9
			C114.4,92.1,111,89.2,107.1,87.4L107.1,87.4z"/>
	</g>
	<g>
		<path d="M112.6,103.1c1.2,0.8,2.2,1.9,2.9,3.2c0.4,0.6,0.7,1.3,0.8,2.1c0.1,0.7,0.1,1.5-0.2,2.2l-0.1,0c-0.3-0.7-0.5-1.4-0.7-2
			c-0.2-0.6-0.3-1.3-0.6-2C114.2,105.4,113.5,104.2,112.6,103.1L112.6,103.1z"/>
	</g>
	<g>
		<path d="M111.3,106l1.4,0.9c0.5,0.3,1,0.6,1.4,1c0.4,0.4,0.9,0.7,1.3,1.2c0.3,0.5,0.6,1,0.7,1.6l-0.1,0.1c-0.6-0.3-1-0.6-1.4-1
			c-0.4-0.4-0.7-0.9-1.1-1.3c-0.4-0.4-0.8-0.8-1.2-1.2L111.3,106L111.3,106z"/>
	</g>
	<g>
		<path d="M112.1,108.6c0.6,0.2,1.2,0.3,1.7,0.6c0.3,0.1,0.6,0.2,0.8,0.4c0.2,0.2,0.5,0.4,0.6,0.7l0,0c-0.3-0.1-0.6-0.2-0.9-0.3
			c-0.3-0.1-0.5-0.3-0.7-0.5c-0.2-0.2-0.5-0.3-0.8-0.4L112.1,108.6L112.1,108.6z"/>
	</g>
	<g>
		<path d="M91.3,134c0.6,0.1,1.2,0.3,1.7,0.5c0.3,0.1,0.6,0.1,0.8,0.3c0.2,0.2,0.4,0.4,0.6,0.8l0,0.1c-0.4,0.1-0.7,0.1-1,0
			c-0.3-0.1-0.5-0.3-0.7-0.5C92.2,134.9,91.7,134.5,91.3,134L91.3,134z"/>
	</g>
	<g>
		<path d="M88.9,137.2c0.7,0.2,1.4,0.5,2,0.7c0.3,0.1,0.7,0.2,1,0.4c0.3,0.2,0.5,0.5,0.7,0.9l0,0.1c-0.4,0.1-0.8,0-1.1-0.1
			c-0.3-0.1-0.6-0.4-0.9-0.6C89.9,138.2,89.4,137.7,88.9,137.2L88.9,137.2z"/>
	</g>
	<g>
		<path d="M87.1,140.7c0.8,0.3,1.5,0.6,2.3,0.9c0.4,0.2,0.8,0.3,1.1,0.5c0.3,0.3,0.6,0.6,0.8,1l-0.1,0.1c-0.5,0-0.9-0.1-1.3-0.2
			c-0.4-0.1-0.7-0.5-1-0.7C88.3,141.8,87.6,141.3,87.1,140.7L87.1,140.7z"/>
	</g>
	<path class="st33" d="M91.8,139.2"/>
	<path class="st35" d="M194,188.3c2.4-1.7,3.9-2.7,6.4-3.8c2.8-1.3,5-2.2,8.1-2.3c0.2,0,0.3,0,0.5,0c4,0.2,7.2,2.2,8.8,3.2
		c1,0.6,2.3,1.7,4.8,3.7c3.3,2.7,3.4,3,4.4,3.6c1.7,1.1,4.6,2.3,9.3,2c-0.1,0.2-0.3,0.4-0.6,0.6c-0.5,0.4-1.1,0.6-1.7,0.7
		c-0.5,0.1-1.4,0.2-3.3-0.1c-0.8-0.1-1.7-0.2-2.9-0.6c-0.4-0.1-1.7-0.5-3.3-1.3c-1-0.5-1.6-1-2.4-1.5c-0.4-0.3-0.7-0.5-1.1-0.8
		c-0.4-0.4-0.5-0.6-0.9-1c-0.7-0.8-1.4-1.3-1.7-1.5c-0.1-0.1-0.4-0.3-1.6-1.1c-1.3-0.9-2-1.3-2.5-1.5c-1.1-0.6-2.1-0.9-2.6-1
		c-1.4-0.4-2.4-0.4-3-0.5c-1.1-0.1-1.9,0-2.7,0.1c-1.2,0.1-1.8,0.2-2.6,0.4c-0.4,0.1-0.7,0.3-2.9,1.4c-0.7,0.4-1.2,0.6-1.8,1
		c-1.9,1-3.1,1.6-4.6,2.1c-0.4,0.1-2,0.6-2.2,0.2C191.9,189.9,192.7,189.2,194,188.3z"/>
	<path class="st36" d="M235.9,195.2L235.9,195.2c0.4-0.8,0.9-2.1,1.4-3.6c0.2-0.6,2-4.5,2.3-6.7c0.4-2.4,0.8-6.2,0.2-11.1
		c0.4,0.2,0.8,0.4,1.2,0.6c0.2,1.8,0.3,4.2,0.1,7.1c-0.2,3.3-0.3,5.2-1.1,7.5C239.5,190.7,238.4,193,235.9,195.2z"/>
	<path class="st37" d="M264.2,180.8c-1,0-1.9,0-2.9,0c-1.3-2.8-2.6-5.5-3.9-8.3c0.7,0,1.3,0,2,0c0-0.6,0-1.1-0.1-1.7
		c-2.6,0-5.1,0-7.7,0.1c0,0.6,0,1.1,0,1.7c0.9,0,1.7,0,2.6,0c-0.4,2.3-0.9,4.6-1.3,6.9c0.6,0.4,1.1,0.7,1.7,1.1
		c0.2-0.9,0.3-1.9,0.5-2.8l3-0.1c0.5,1,1,1.9,1.5,2.9c0.1,0.3,0.1,0.6,0.2,0.8c0.3,0.2,0.6,0.5,0.8,0.7c1.2,0,2.4,0,3.6,0
		C264.3,181.7,264.3,181.3,264.2,180.8z M257.6,176.7l-2.2,0.1c0.2-1.1,0.4-2.1,0.6-3.2C256.6,174.6,257.1,175.6,257.6,176.7z"/>
	<path class="st38" d="M148.3,320.4c0.2,1.4,0.8,3.6,2.2,5.9c0.7,1.2,2.1,3.4,4.8,5.1c3.4,2.1,6.8,2,8.2,1.9
		c0.7,0.6,1.4,1.1,2.2,1.7c6.1,4.6,12.3,7.9,18.2,10.2c-0.1,2.1,0.1,3.8,0.4,5c0.3,1.4,0.5,2.6,1.3,3.8c1,1.6,2.3,2.4,2.9,2.9
		c2.7,1.9,4,4.7,5.7,8c2.9,5.9,2.9,11.2,2.9,12.3c0,1.6-0.2,3-0.3,4c1,0.1,2.4,0.2,4,0.8c1.1,0.4,5,1.7,7.6,5.2c1.5,2,1.7,3.5,3.8,5
		c0.9,0.6,1.8,1,2.3,1.1c7.9,2.9,11.7,3.5,11.7,3.5c18,3.1,34,0.1,34,0.1c2.6-0.5,4.7-1,6.1-1.4c0,1.4-0.1,3.5-0.2,6.1
		c-0.5,11.8-0.9,22-2.9,34.2c-2.6,15.3-6.5,26.1-7.3,28.5c-2.1,5.6-3.2,8.6-5.3,12.5c-1.1,2.1-3.1,5.4-5.7,10.7
		c-0.6,1.3-1.1,2.3-1.5,3c0.1,2,0.2,3.9,0.3,5.9c-0.7,0.7-1.3,1.3-1.7,1.8c-0.9,1-1.4,1.6-2.3,2.4c-0.2,0.2-0.5,0.5-1,0.8
		c-0.6,0.5-1.5,1.2-2.7,1.7c-0.5,0.2-1.5,0.6-2.8,0.7c-0.7,0.1-1,0-3.6-0.5c-2.5-0.4-3.3-0.5-3.7-0.5c-1-0.1-1.9-0.1-2.5-0.1
		c-6.5-0.1-18.2,0.5-18.2,0.5c-1,0.1-1.8,0.1-2.4,0.1c0-1,0-2.6-0.4-4.5c-0.8-4.4-2.7-7.8-4.4-10.5c-1.8-3-2.1-2.8-2.9-4.8
		c-1-2.3-1.7-5.5-2-6.6c-0.6-2.6-0.6-3.2-1.2-3.6c-0.6-0.3-2.1-0.7-6.3,2.8c-1.8-3.1-4-7.2-6.7-12c-2.3-4.3-6.1-11.2-10.2-19.6
		c-3.3-6.7-7.8-15.8-12.7-28c-3.1-7.7-1.4-4.3-8.7-24.1c-2.2-5.9-4.7-12.7-7-22.1c-1.5-6.2-2.3-11.2-1.1-16.9c0.4-1.7,1-3.6,2.2-7.4
		c1.6-5,3.1-9.1,4.1-11.9c-0.1-1.7-0.1-3.1-0.1-4.2c0-6.5,0.7-8.2,1.9-9.1C147.8,320.6,148.1,320.5,148.3,320.4z"/>
	<path class="st39" d="M229.5,402.1c2.5,0.4,5.1,0.8,8,0.9c11.2,0.6,20.7-1.6,27.7-4c-0.2,7-0.6,16.9-2,28.8c-1,8.7-1.8,16-3.7,24
		c-2.1,8.9-6.4,22.2-15.9,37.4c0.1-1.4,0.2-3.2,0.2-5.4c0-2.9-0.2-6.5-0.9-11.4c-0.5-3.7-1-5.4-2.2-11c-0.5-2.3-2.2-10.5-3.9-19.5
		c-0.5-2.7-1-5.9-2.1-12.1c-1.5-9-1.9-11.7-2.9-16.9C230.9,408.2,230,404.4,229.5,402.1z"/>
	<path class="st40" d="M163.1,333.5c2.9,1.9,5.9,3.8,9.2,5.7c4.1,2.3,8,4.4,11.7,6.3c-0.1-0.3-0.3-1.8,0.6-3.1c1-1.4,2.8-2,4.7-1.6
		c-3.5-2-7-3.9-10.6-5.9C173.6,334.5,168.3,334,163.1,333.5z"/>
	<path class="st41" d="M232,412.8c2.2-1.2,3.6-2.4,4.5-3.3c0.9-0.9,1.8-2,6.8-10.2c0.2-0.3,0.3-0.5,0.4-0.6c1.2-0.1,2.5-0.2,3.8-0.3
		c1.6-0.1,3.2-0.2,4.8-0.3c-1.2,7.5-3.6,17-8.5,27.4c-2.6,5.4-5.4,10-8.1,13.9c-0.2-0.9-0.4-2.3-0.7-3.9c-0.8-4.6-1.3-7.9-1.5-9.7
		c-0.5-3-1.1-7.3-2.2-12.9C231.6,412.8,231.8,412.8,232,412.8z"/>
	<path class="st42" d="M188.7,341.9c4.7,0.4,7,0.6,7.7,0.8c2.6,0.8-0.6-0.5,12.5,2.2c13.7,2.9,13.2,3.5,16.9,3.5
		c1.2,0,6.4-0.2,12.6-2.7c5-2,4.9-3.2,10.3-5.1c8.8-3.2,12.2-1,13-0.4c1.1,0.8,2.2,2,2.2,2c1.6,1.8,2.3,3.5,2.9,4.9
		c1.9,4.1,2.8,3.7,4,6.5c1.1,2.4,0.8,3.2,1.6,13.1c0.4,4.8,0.7,7.2,0.9,8.2c1.2,4.5,3.1,6.2,3.1,10.4c0,1.1,0,2.7-0.7,4.5
		c-0.9,2-2.3,3.5-5.5,5.3c-5.2,3.1-9.2,4.1-9.2,4.1c-13.8,3.5-25.3,2.5-25.3,2.5c-10.4-1-22.3-2.1-26.9-9.2c-0.6-1-2.3-3.8-5.5-5.9
		c-2.5-1.7-5-2.2-6.8-2.5c0.3-2.8,0.3-6.8-0.7-11.2c-2.1-9.3-7.4-14.9-9.7-17.2c-0.7-2.3-1.7-6.2-1.3-10c0.2-1.5,0.5-2.6,1.3-3.3
		C187,341.8,188.1,341.8,188.7,341.9z"/>
	<path class="st4" d="M188.4,340.8c5,0.4,7.5,0.6,8.2,0.8c2.8,0.8-0.6-0.5,13.3,2.2c14.6,2.8,14.1,3.4,18,3.3
		c1.2,0,6.9-0.2,13.5-2.5c5.3-1.9,5.2-3.1,11-4.9c9.4-3,13-0.9,13.9-0.4c1.2,0.8,2.3,2,2.3,2c1.7,1.7,2.4,3.4,3.1,4.7
		c2.1,3.9,2.9,3.6,4.3,6.3c1.1,2.3,0.8,3.1,1.8,12.5c0.5,4.6,0.7,6.9,1,7.8c1.3,4.3,3.3,5.9,3.3,10c0,1.1,0,2.6-0.8,4.3
		c-0.9,2-2.5,3.3-5.9,5.1c-5.6,2.9-9.8,3.9-9.8,3.9c-14.8,3.4-27,2.3-27,2.3c-11.1-0.9-23.8-2-28.8-8.8c-0.7-0.9-2.4-3.6-5.9-5.7
		c-2.7-1.6-5.4-2.1-7.2-2.3c0.3-2.7,0.3-6.5-0.8-10.8c-2.2-8.9-7.9-14.3-10.4-16.4c-0.7-2.2-1.8-5.9-1.4-9.6
		c0.2-1.4,0.5-2.5,1.4-3.1C186.6,340.7,187.7,340.7,188.4,340.8z"/>
	<path class="st3" d="M254,338.1c1.4-1.2,2.9-2.4,4.3-3.7c0.7-0.6,1.4-1.2,1.4-1.2c0.8-0.6,1.4-1.1,2-1.6c0.4,0.9,0.8,1.9,1.3,2.8
		c0.5,1,1,2,1.5,2.8c-0.8-0.1-1.8-0.3-3-0.3c0,0-0.6,0-1.2,0C257.8,337.1,254.6,337.9,254,338.1z"/>
	<g>
		<path class="st3" d="M179.8,335c0.9,0.2,1.9,0.6,2.9,1c2.6,1.1,4.5,2.6,5.9,3.9"/>
		<path class="st3" d="M179.8,335c1.7,0.2,3.3,0.9,4.8,1.7c1.5,0.8,2.9,1.9,4,3.2c-0.7-0.5-1.4-1-2.1-1.5c-0.7-0.5-1.4-0.9-2.1-1.3
			C182.9,336.3,181.4,335.6,179.8,335z"/>
	</g>
	<path class="st43" d="M261.8,331.6c0.4,0.9,0.8,1.9,1.3,2.8c0.5,1,0.9,1.9,1.4,2.9c-0.6-0.1-1.4-0.2-2.2-0.3c-0.7,0-1.4-0.1-2,0
		c-0.5-1-1-2.1-1.4-3.1C259.9,333.1,260.9,332.3,261.8,331.6z"/>
	<path class="st43" d="M146.7,337.5c2,0.1,3.9,0.3,5.9,0.4c-0.7,1.8-1.6,4.6-2,8c-0.5,4.8,0.6,8.8,2.7,16.6
		c1.4,5.2,2.6,9.5,4.9,15.1c1.6,3.8,2.5,5.3,2.7,8.4c0.3,3.2-0.4,4.9,0.2,8.6c0.5,2.7,1.3,4.6,1.8,5.7c2.6,6.1,15,34.9,16,46.8
		c0.1,1.3,0.3,4.5,2.2,7.6c1.6,2.8,3.5,4.7,3.5,4.7c1.5,1.5,2,1.6,2.5,2.7c0.7,1.6,0,2.3,0.6,5c0.3,1.1,0.5,2.1,1.2,3.2
		c1,1.4,1.8,1.3,2.7,2.7c0.5,0.7,0.6,1.2,1.3,3.3c0.5,1.5,1,3.1,1.4,4.6c1.1,4,3.5,6.6,5.2,9.7c1.5,2.6,3,6.6,3.3,12.5
		c5.1-0.3,9.6-0.5,13.2-0.6c7.9-0.2,10.1,0,12.1,0.4c2.5,0.5,3,0.8,4.5,0.8c4.4-0.1,7.8-3.6,10.1-6.7c0,1,0.1,2.5-0.1,4.4
		c-0.3,4.6-1.4,6.5-3.1,13.3c-1.1,4.1-1.8,6.9-2.2,10.7c-0.4,3.5-0.4,6.2-0.3,7.4c0,0.7,0.1,3.2,0.7,7.1c0.6,3.8,0.9,4.2,1.9,8.9
		c1.5,7.5,1.6,11.1,1.6,12.1c0,2.5-0.2,4.3-0.3,4.9c-0.5,4.9-0.8,20.6-0.6,57.2c-2,1.6-7.3,5.2-15,5.9c-7.2,0.6-12.7-1.7-15.1-2.8
		c-1.3-4.5-2.3-8.2-3-10.5c-1.2-4-2.4-7.6-3.6-12.7c-0.4-1.7-0.6-2.8-0.8-3.7c-0.6-3.5-1-6.4-1.1-8.5c-1.6-4.6-3.5-7.9-5-10.1
		c-1.3-1.9-2-2.7-3-4.7c-1.6-3.3-1.9-6.3-2-8.7c-0.4-6.6-0.1-12.1,0.2-15.8c0.6-8.7,0.7-9.5,1.1-15.7c1.2-19,0.4-13.5,0.6-15.1
		c0.4-2.4,0.9-4.7-0.2-6.9c-0.4-0.9-1.2-2-1.6-4.1c-0.2-0.8-0.2-1.2-0.2-2.3c-0.2-2.5-0.4-3.3-0.5-5.1c-0.4-4.6-0.2-8.6,0-10.2
		c0.2-1.8,0.4-3.3,0.5-4.3c-1.5-1.9-2.5-3.5-3.1-4.7c-2-3.9-2.8-7.7-3.2-9.7c-0.5-2.4-0.3-2.4-0.7-3.4c-1.2-3-3.4-3.8-5.5-6
		c-0.6-0.6-1.4-1.6-4-8.8c-2.1-5.7-2.1-6.6-3.5-10.5c-2.4-6.8-5.5-12.8-6.7-15.1c-2.9-5.5-4.1-6.8-4.4-10c-0.2-2.1,0.2-3.8-0.5-7.1
		c-0.2-1-0.5-2.1-1.6-5.2c-1.1-3-1.6-4.5-3-7.8c-1.4-3.3-1.8-4.7-7.1-21.8c-3.3-10.5-3.2-10-3.3-10.4
		C143.7,360.7,142.7,350.9,146.7,337.5z"/>
	<g>
		<path d="M195.7,493.7c2,5.4,3.3,11,3.8,16.7c0.5,5.8-0.3,11.5-0.8,17.2c-0.5,5.7-1.1,11.4-1.4,17.1c-0.3,5.7-0.6,11.4-0.2,17
			c0.1,1.4,0.3,2.8,0.6,4.1l1,4.2c0.3,1.4,0.7,2.8,1,4.1c0.4,1.3,0.8,2.7,1.4,3.8c0.3,0.6,0.7,1,1.1,1.4c0.2,0.2,0.5,0.4,0.8,0.6
			c0.3,0.2,0.5,0.4,0.8,0.5c1.2,0.6,2.4,1,3.7,1.2c2.6,0.5,5.4,0.2,8.1-0.4c2.7-0.6,5.4-1.5,7.9-2.7c2.5-1.2,4.8-2.8,7-4.6
			c2.1-1.8,4-3.9,5.7-6.2c1.7-2.3,3.1-4.8,4.3-7.3l0.2,0.1c-1.9,5.4-5,10.5-9.2,14.5c-2.1,2-4.5,3.7-7.2,5.1
			c-2.6,1.3-5.4,2.3-8.2,3.1c-1.4,0.3-2.9,0.6-4.4,0.7c-1.5,0.1-3,0.1-4.5-0.2c-1.5-0.2-3-0.8-4.4-1.5c-0.3-0.2-0.7-0.4-1-0.7
			c-0.3-0.2-0.6-0.4-0.9-0.7c-0.6-0.6-1.1-1.3-1.5-2c-0.7-1.4-1.1-2.8-1.5-4.3c-0.4-1.4-0.7-2.8-1-4.2l-0.9-4.2
			c-0.3-1.4-0.5-2.9-0.6-4.4c-0.3-5.8,0.1-11.5,0.5-17.3c0.5-5.7,1.1-11.4,1.7-17.1c0.6-5.7,1.5-11.4,1.2-17
			c-0.3-5.7-1.5-11.3-3.4-16.7L195.7,493.7z"/>
	</g>
	<path class="st16" d="M204.2,603.9c1.8,1.7,3.6,2.9,5.2,3.7c13,6.2,28.5-4.9,30.1-6.1c0,4.4,0.1,8.9,0.1,13.3
		c-1.8,0.9-4.2,2.1-7.2,3c-3.6,1.1-6.3,1.4-11.9,2c-6.6,0.7-8.9,0.3-11-0.9c-0.8-0.5-1.4-1.1-1.8-1.4
		C206.7,612.8,205.4,608.3,204.2,603.9z"/>
	<path class="st15" d="M205.7,608.3c0.8,0.6,2.2,1.5,4.1,2.2c5.4,2,10.4,0.4,13.2-0.4c1.7-0.5,3.4-1.4,6.6-3
		c4.1-2.1,7.4-3.9,9.6-5.2c0,1.4,0,2.7,0,4.1c-1,0.7-2.3,1.5-4,2.4c-1.4,0.8-4.4,2.4-8.5,3.6c-3.1,0.9-7.4,2.2-12.9,1.4
		c-3.3-0.4-5.9-1.5-7.5-2.2C206.2,610.2,205.9,609.3,205.7,608.3z"/>
	<g>
		<path class="st44" d="M262.5,222.5c2.3,0.1,4.5,0,6.8-0.4c1.1-0.2,2.2-0.5,3.3-0.8c1.1-0.2,2.2-0.5,3.3-0.7l0,0.1
			c-1,0.7-2,1.1-3.1,1.5c-1.1,0.4-2.3,0.5-3.4,0.6C267,223,264.7,223,262.5,222.5L262.5,222.5z"/>
	</g>
	<g>
		<path d="M261.5,222.4c2.8-0.1,5.5-0.4,8.2-1c1.3-0.3,2.7-0.7,4-0.9c1.3-0.3,2.7-0.6,4.1-0.8l0,0.1c-1.2,0.7-2.5,1.2-3.9,1.6
			c-1.3,0.4-2.7,0.6-4.1,0.8C267,222.5,264.2,222.6,261.5,222.4L261.5,222.4z"/>
	</g>
	<g>
		<path d="M177.7,427.8c0.7,1.6,1.2,3.4,1.5,5.1c0.2,0.9,0.3,1.8,0.4,2.6c0.1,0.4,0.1,0.9,0.3,1.3c0.1,0.4,0.3,0.8,0.6,0.9
			c0.3,0.2,0.7,0.1,1-0.1c0.4-0.2,0.7-0.4,1.1-0.6c0.8-0.4,1.6-0.8,2.4-1.1c1.6-0.7,3.3-1.3,5-1.9c1.7-0.6,3.2-1.4,4.9-2l4.9-2
			l10-3.7c3.4-1.1,6.8-2.1,10.1-3.2c1.7-0.5,3.4-1,5-1.6c0.8-0.3,1.5-0.6,2-1c0.2-0.2,0.5-0.5,0.7-0.8c0.2-0.2,0.3-0.6,0.3-0.9
			c0.3-1.5,0.2-3.3,0.1-5c-0.2-1.7-0.4-3.5-0.7-5.2c-0.3-1.7-0.7-3.4-1.1-5.2c-0.4-1.7-0.9-3.4-1.3-5.1l0.2-0.1
			c0.8,1.6,1.4,3.3,2,4.9c0.6,1.7,1.1,3.4,1.5,5.1c0.5,1.7,0.8,3.5,1.1,5.3c0.2,1.8,0.5,3.6,0.1,5.6c-0.1,0.5-0.3,1-0.6,1.5
			c-0.3,0.5-0.6,0.9-1.1,1.3c-0.9,0.7-1.8,1.1-2.6,1.4c-1.7,0.6-3.4,1.1-5.1,1.6c-3.4,1-6.8,1.8-10.2,2.8l-10,3.3l-4.9,1.9
			c-1.6,0.6-3.3,1.3-5,1.9c-1.7,0.6-3.4,1.1-5,1.7c-0.8,0.3-1.6,0.7-2.4,1c-0.4,0.2-0.8,0.4-1.2,0.6c-0.4,0.2-1,0.3-1.5,0
			c-0.5-0.3-0.7-0.8-0.8-1.3c-0.1-0.5-0.2-0.9-0.2-1.3c-0.1-0.9-0.2-1.8-0.3-2.6c-0.2-1.7-0.7-3.4-1.3-5.1L177.7,427.8z"/>
	</g>
	<g>
		<path d="M228.4,397.4c1.6,7.7,3.2,15.4,4.8,23.1c0.7,3.9,1.4,7.8,2,11.6c0.6,3.9,1.2,7.8,2,11.6c0.8,3.8,1.6,7.7,2.6,11.5l1.4,5.7
			c0.4,1.9,0.9,3.9,1.2,5.8c0.6,3.9,1,7.9,1.2,11.8c0.1,2,0.1,4,0.2,5.9c0,2-0.1,3.9-0.2,5.9l-0.2,0c-0.6-7.9-1.5-15.6-2.9-23.3
			c-0.3-1.9-0.8-3.8-1.2-5.7l-1.3-5.8c-0.8-3.9-1.6-7.7-2.2-11.6c-0.7-3.9-1.2-7.8-1.7-11.7c-0.5-3.9-1.1-7.8-1.7-11.7
			c-1.3-7.8-2.6-15.5-4-23.3L228.4,397.4z"/>
	</g>
	<path class="st45" d="M186.3,353c-0.5-2.2-1-4.5-1.5-6.7c1,0.4,2.4,0.9,4,1.8c6.2,3.4,9.4,8.4,10.7,10.4c2.8,4.4,3.7,8.4,4.5,12
		c1.2,5.3,1.4,9.9,1.3,13c-0.9-0.7-2.3-1.6-4.3-2.2c-1.1-0.3-2.1-0.4-2.9-0.5c0.3-0.5,0.8-1.2,1.2-2.2c2.1-5.6-1.6-11.5-3.8-15.3
		C192.6,358.4,189.1,355.1,186.3,353z"/>
	<path class="st46" d="M185.3,348.4c1.2,0.6,2.9,1.5,4.7,2.8c3.5,2.6,5.5,5.3,6.7,7c2.5,3.5,3.7,6.6,4.1,7.8c1.2,3.3,1.6,6,2.2,10.5
		c0.3,2.4,0.5,4.5,0.6,5.9c-0.6-0.3-1.2-0.6-1.8-0.8c0-0.8,0-2,0-3.3c-0.1-1.4-0.3-4.9-1.7-9.2c-0.8-2.6-1.9-6.2-4.8-10.2
		c-1.2-1.7-3.2-4.5-6.8-6.7c-1-0.6-1.9-1.1-2.6-1.4C185.6,349.9,185.5,349.2,185.3,348.4z"/>
	<g>
		<path class="st3" d="M235.4,381.3c-0.5,0-0.8-0.1-1-0.3c-0.8-0.8-0.3-2.9,0.5-4.6c0.1-0.1,0-0.2,0-0.4c-0.1-0.1-0.2-0.2-0.3-0.2
			h-6.4l-0.5-14l7.1-0.1c0.1,0,0.3-0.1,0.3-0.2s0-0.3,0-0.4c-1.7-2.1-2.4-4.2-1.7-5.1c0.3-0.4,0.9-0.6,1.8-0.6c1,0,2.2,0.2,3.6,0.4
			c2.2,0.4,4.3,1,6.8,2c4,1.6,7.3,3.5,9.9,5.6c3.4,2.8,3.3,3.9,3.3,4.3c0,1.3-1.3,2.3-2.4,3.1l-0.4,0.3l-0.8,0.7
			c-1.2,1-2.5,2.1-3.9,3c-3.3,2.2-7,3.9-11,5.1C237.9,380.9,236.4,381.3,235.4,381.3C235.4,381.3,235.4,381.3,235.4,381.3z"/>
		<path d="M235.2,356c0.9,0,2.2,0.2,3.5,0.4c2.2,0.4,4.2,1,6.8,2c4,1.6,7.3,3.5,9.8,5.6c2.1,1.8,3.2,3.1,3.2,4
			c0,1.1-1.2,2.1-2.2,2.9c-0.1,0.1-0.3,0.2-0.4,0.3c-0.3,0.2-0.6,0.5-0.8,0.7c-1.3,1.1-2.5,2.1-3.9,3c-3.2,2.2-6.9,3.9-10.9,5
			c-2.1,0.6-3.8,1.1-4.8,1.1c-0.5,0-0.6-0.1-0.7-0.2c-0.5-0.5-0.3-2.2,0.5-4.2c0.1-0.2,0.1-0.5-0.1-0.7c-0.1-0.2-0.4-0.3-0.6-0.3h-6
			l-0.3-7.7l-0.2-5.5l2.4,0l4.3,0c0.3,0,0.5-0.2,0.7-0.4s0.1-0.6-0.1-0.8c-1.7-2.1-2.1-4-1.7-4.6C233.9,356.1,234.4,356,235.2,356
			 M235.2,355.2c-1,0-1.7,0.2-2.1,0.8c-0.8,1.1,0,3.4,1.7,5.5c-2.5,0-5,0-7.5,0.1c0.2,4.9,0.3,9.8,0.5,14.7c2.2,0,4.5,0,6.8,0
			c-0.3,0.7-1.6,3.8-0.4,5c0.3,0.3,0.7,0.4,1.3,0.4c1,0,2.6-0.5,5-1.1c3.9-1.2,7.7-2.8,11.1-5.1c1.7-1.1,3.2-2.4,4.8-3.7
			c1.1-0.9,2.9-2.1,2.9-3.7c0-0.5,0-1.8-3.5-4.6c-1.2-1-4.2-3.3-10-5.7c-2.3-0.9-4.4-1.6-6.9-2C237.4,355.4,236.2,355.2,235.2,355.2
			L235.2,355.2z"/>
	</g>
	<path class="st16" d="M288,361.7"/>
	<g class="st47">
		<path d="M192.3,345.7c2.9,0.7,5.7,1.5,8.6,2.1c2.9,0.6,5.8,1.2,8.7,1.7c5.8,1,11.7,1.6,17.5,2.1c2.9,0.3,5.9,0.4,8.8,0.3
			c2.9-0.2,5.8-0.6,8.6-1.4c2.8-0.8,5.6-1.8,8.2-3.1c2.6-1.3,5.1-2.9,7.5-4.6c-2.2,1.9-4.7,3.6-7.3,5c-2.6,1.4-5.4,2.6-8.2,3.4
			c-2.8,0.9-5.8,1.4-8.8,1.6c-3,0.2-6,0.1-8.9-0.2c-3-0.3-5.9-0.6-8.8-1c-2.9-0.4-5.9-0.8-8.8-1.4
			C203.7,349.1,197.9,347.6,192.3,345.7z"/>
	</g>
	<g class="st48">
		<path d="M201.6,362.2c2.2-0.3,4.5-0.3,6.6,0.3c2.2,0.6,4.2,1.6,5.9,3c1.7,1.4,3.1,3.1,4.3,4.8c1.2,1.8,2.3,3.6,3.5,5.3
			c4.7,6.9,10.7,12.9,17.3,18.1c-6.8-5-13.1-10.7-18.2-17.5c-1.3-1.7-2.4-3.5-3.7-5.1c-1.3-1.6-2.7-3.2-4.3-4.4
			c-1.6-1.2-3.4-2.1-5.4-2.5c-1.9-0.4-3.9-0.4-5.9,0L201.6,362.2z"/>
	</g>
	<g class="st11">
		<path class="st12" d="M202.4,363.8c3.6-0.6,7.6,0.2,10.5,2.3c1.5,1.1,2.7,2.3,3.8,3.6c0.6,0.7,1.1,1.4,1.5,2.2
			c0.4,0.7,0.9,1.4,1.3,2.1c1.8,2.8,4,5.3,6.3,7.8c2.3,2.5,4.6,4.9,7.1,7.1c-2.6-2.1-5.2-4.3-7.6-6.6c-2.4-2.3-4.9-4.7-7-7.4
			c-0.5-0.7-1-1.4-1.5-2.1c-0.5-0.7-0.9-1.3-1.5-1.9c-1.2-1.1-2.4-2.2-3.7-3c-2.6-1.6-5.8-2-8.8-1.3L202.4,363.8z"/>
	</g>
	<g class="st48">
		<path d="M203.8,369c0.8-0.1,1.6,0,2.3,0.3c0.7,0.3,1.3,0.7,1.8,1.2c0.5,0.5,0.8,1,1.2,1.5l1.2,1.4l4.6,5.6l-5.4-4.9l-1.3-1.2
			c-0.5-0.4-0.9-0.8-1.3-1.2c-0.9-0.7-1.8-0.9-2.7-0.6L203.8,369z"/>
	</g>
	<g class="st11">
		<path class="st12" d="M204.3,370.8c0.6-0.1,1.2,0,1.8,0.2c0.7,0.3,1,0.7,1.3,1l1.9,1.9c0.6,0.6,1.3,1.2,2,1.8l2,1.8l-2.3-1.4
			c-0.8-0.5-1.5-0.9-2.3-1.4l-2.3-1.5c-0.4-0.2-0.7-0.5-0.9-0.5c-0.3,0-0.6,0-0.9,0.1L204.3,370.8z"/>
	</g>
	<g>
		<path class="st46" d="M197.7,504c-0.9-6.7-3.5-12.3-5.2-18.4c0.1-1.2-1.4-4.4-2.6-5.2c-2.5-3.1-4.1-11.7-6.4-14.9
			c-3.4-5.4-7.7-10-8.3-16.4c-1-9.7-7.5-21-11.2-28.8c-0.4-4.4,0-6.3-2-11.3c-0.5-1.9-4.4-10.8-5.4-13.4c-1.4-2.8-2.3-12.6-3.8-16.4
			c-1-2.8-1.6-2.8-2.4-5.5c-0.5-2.3-0.2-3.9-1.4-5.9c-2.9-9.9-4.2-20.8-1.3-30.2c0.7,0,1.4,0.1,2.1,0.1c-3.2,9-1.6,19.7,0.9,29.2
			c1.2,2,1.2,4.1,1.6,6.3c0.7,2.4,1.4,2.5,2.3,5.3c1.6,3.8,2.4,13.5,3.8,16.5c1,2.4,5,11.6,5.4,13.4c1.8,4.5,1.9,7.4,2.1,11.4
			c4.8,8.8,10.7,21.4,11.8,32c3.1,8.3,6.7,9.1,10.2,18.7c1.8,5.2,2.2,7.3,5.3,11c2.4,7.8,5,13.9,6.3,22.1L197.7,504z"/>
	</g>
	<path class="st33" d="M203,503.1c-0.3,0-0.8,0.1-1.4,0.2c-1.4,0.2-2.5,0.6-2.7,0.6c-1,0.3-3,0.3-7.1-0.8"/>
	<g>
		<path d="M146.3,332.5c4.1,3.5,8.7,6.4,13.6,8.7c4.9,2.3,10.2,4,15.6,5c-5.5-0.4-11-1.4-16.4-3.1c-5.3-1.8-10.5-4.2-15.2-7.3
			L146.3,332.5z"/>
	</g>
	<g class="st49">
		<path d="M145.2,336.2c4.3,2.8,9.1,5.1,14.1,6.7c5,1.6,10.3,2.5,15.6,2.7c-5.3,0.3-10.7-0.1-16-1.3c-5.3-1.1-10.4-3-15.2-5.5
			L145.2,336.2z"/>
	</g>
	<g>
		<path d="M146.8,325.8c0.5,1.1,1.2,2.1,1.9,3c0.4,0.5,0.8,0.9,1.2,1.4l1.3,1.3l-1.5-1.1c-0.5-0.4-1-0.8-1.4-1.2
			c-0.9-0.9-1.7-1.8-2.4-2.9L146.8,325.8z"/>
	</g>
	<g class="st50">
		<path d="M146,326.4c0.7,1,1.4,1.9,2.3,2.8c0.4,0.4,0.9,0.8,1.4,1.2l1.5,1.1l-1.6-0.9c-0.5-0.3-1.1-0.6-1.6-1
			c-1-0.7-1.9-1.6-2.8-2.5L146,326.4z"/>
	</g>
	<g id="XMLID_1_">
		<g>
		</g>
		<g>
			<path class="st51" d="M213.4,686.2c0.6,1,1.7,2.7,2.9,4.9c4,7.2,4.6,12.4,9.8,19c1.6,2,2.5,3.5,4.3,4.5c1.8,1,3.3,1,8.2,1
				c10.3,0,11.7,0.1,14.7-0.7c2.3-0.6,4-1.3,5.4-1.9c4.4-1.9,6.7-2.8,7.6-4.9c0.2-0.5,0.9-2.2-1.2-7.4c-1.1-2.8-3.1-6.7-6.7-11
				c6.1-0.1,12.1-0.1,18.2-0.2c0.5-0.1,1.3-0.4,2.1-1.2c0.2-0.2,1.4-1.3,1.6-3.1c0.2-1.7-0.7-3-1.2-3.7c-0.3-0.4-1.3-1.9-3.5-2.9
				c-1.9-0.9-3.2-0.9-7-1.2c-4.3-0.3-6.4-0.5-7.6-0.8c-3.4-0.9-5.6-2.5-7.1-3.5c-1.9-1.4-4.7-3.4-6.4-7.2c-0.9-1.9-1.2-3.8-1.2-3.9
				c-0.1-0.8-0.1-1.4-0.1-2.2c0-2.4-0.1-4.7-0.2-5.5c-0.3-3.2-2-3.8-3.7-7.8c0,0-1-2.4-1.7-7.2c-0.8-6-0.7-36.9,0.6-79.1
				c-0.3,0.2-0.5,0.3-0.8,0.5c0.2-4.3-0.2-7.7-0.5-10.1c-0.5-3.5-1.1-4.9-1.8-9c-0.2-1.1-0.8-5-0.9-9c-0.2-6.6,1.2-11.8,3.8-21.8
				c1.1-4.3,1.4-4.8,1.8-7.3c0.9-5.4,0.7-9.9,0.4-12.9c1.1-2,2.7-5.1,4.6-8.9c3.6-7.3,8.2-16.8,11.4-27.5c1.9-6.6,2.6-11.9,3.9-22.3
				c1.1-8.6,2.2-20.6,2.6-35.1c1.1-0.4,2.7-1,4.6-1.8c6.7-2.8,8.3-4.3,9.3-5.4c1-1.1,2-2.2,2.3-4c0.4-2.2-0.6-3.7-1.4-5.7
				c-1.3-3-1.6-5.9-2.4-11.6c-0.8-6.2,0.4-5.5-0.4-9.5c-1.2-5.9-4.3-10.3-6.1-12.9c-2-2.9-2.6-2.8-4.6-5.6c-2.9-4.1-4.6-8-5.5-10.7
				c0.6-1.5,1.2-3.1,1.7-4.9c1.3-5,1.5-9.4,1.3-12.8c-0.6-0.6-1.3-1.6-1.7-3c-0.7-2.6,0.5-4.5,1-7.4c0.5-2.5,0.2-3.9-0.1-7.3
				c-0.7-8.1-0.1-10.7-0.8-21.7c-0.8-12-1.8-12.5-2.5-23c-0.5-7.7-0.3-14-0.1-18c1,0.6,2.5,1.6,4.3,2.7c4.1,2.6,8.4,5.5,15.9,10.8
				c9.7,6.8,10.5,7.7,14.6,10.1c6.7,3.9,9.5,4.6,11.3,4.9c3,0.5,8.8,1.5,13.6-2.1c4.2-3.2,5-8.1,5.2-9.1c0.2-1,0.9-5.8-1.6-10.1
				c-1.2-2.1-2.5-3-3.4-5.7c-0.8-2.4-0.7-4.4-0.6-4.7c0-3.3-8.5-12.8-36.2-34.9c0.5-0.6,1.2-1.4,1.9-2.6c0,0,0-0.1,0.1-0.1
				c0.3-0.7,1.3-2.9,0.7-6.9c-0.9-5.5-4.2-10.2-5.1-11.4c0,0-0.1-0.1-0.2-0.3c0,0-0.6-0.8-1.2-1.6c-1.4-1.9-1.8-6.9-1.8-6.9
				c-0.4-5.3-5.6-10.1-9.5-12.3c-4-2.1-8-2.2-10.6-2c-1-0.4-2.3-1.1-4-1.8c-4.5-2-5.5-2.3-6.3-2.5c-2-0.5-3.3-0.4-5.9-0.4
				c-2.5,0-6.1-0.1-10.6-0.4c2.8-1.4,4.4-3.1,5.2-4.2c0.5-0.6,1.2-1.5,1.7-2.9c0.9-2.4,0.6-4.5,0.4-5.6c1.1,0.2,3,0.4,5.1-0.3
				c0,0,1.1-0.3,2.2-0.9c2.5-1.4,5-10.2,5.5-22.4c0.6-0.2,1.5-0.5,2.1-1.3c0.9-1.2,0.6-2.8,0.5-3.2c-0.3-1.8,0-6.1,2.6-16.4
				c0.7-1.2,1.4-3.2,1.4-5.5c-0.1-5-3.7-9.9-8-11c-0.6-0.1-1.1-0.2-1.5-0.2c-0.1-1.1-0.3-2.8-0.8-4.7c-2.2-8.2-7.9-13.2-11.9-16.6
				c-2.8-2.4-7.5-6.3-14.6-8.6c-16.3-5.4-31.2,2.4-35.4,4.6c-3.8,2-13.6,7.3-20,18.7c-2.2,3.9-3.4,7.5-4,10.1
				c-0.1-0.1-0.5-1-1.5-1.3c-0.1,0-1.2-0.3-2,0.4c-0.7,0.6-0.6,1.7-0.5,2.3c0.2,1.9,1.5,3.2,2.2,3.8c0.1,0.7,0.1,1.6-0.4,2.5
				c-0.4,0.7-0.9,1-1.1,1.2c-0.9,0.6-1.2,2-2.7,4.9c-0.7-0.4-2.6-1.2-3.9-1.9c-3.4-2-5.1-3-6.9-3.3c-1.6-0.3-3.4,0-7.1,0.6
				c-3.1,0.5-3.6,0.8-5.9,1.2c-3.1,0.5-5.1,0.3-8.6,0.3c-2.8,0-6.8-0.1-11.9,0.2c-0.4,0.2-1,0.5-1.7,0.9c-2.8,1.7-4.5,3.6-5,4.2
				c-0.9,1.1-8,9.1-14.6,14c-2.9,2.2-2.2,1.1-7.9,4.8c-8.6,5.5-14.2,10.5-15.7,11.8c-2,1.8-4.6,4.5-9.8,10c0,0-13.5,14.3-17.3,23.8
				c-0.3,0.7-0.5,1.4-0.5,1.4c-0.5,1.9-0.2,3.5-0.1,4.2c0.5,3.8,3.1,7.6,3.1,7.6c3.2,4.9,7.3,7.6,10.4,9.7c3.8,2.5,3.6,1.7,8.8,4.8
				c7.1,4.3,6.6,5.3,10.8,7c2.9,1.1,3.9,1,9.7,3c2.7,0.9,4.5,1.7,5,1.9c3.7,1.5,10.6,2.9,24.6,2.9c3.1,0.7,7.8,2.2,11.7,6.2
				c5.3,5.4,6,12.4,6.5,18.2c0.8,9.6,1.5,24.2,0.6,43.2c0.2,0.7,0.5,1.8,0.9,3.2c1.7,6.1,2.5,7.4,3.5,11.6c0.8,3.2,0.5,2.8,1.3,5.9
				c1.1,4.2,2.4,7.3,2.6,7.9c1.1,2.6,1.2,2.3,2.1,4.6c1,2.6,0.9,3.1,2.1,6.3c0.9,2.4,1.7,4.1,2,4.7c1.3,2.8,1.5,2.5,2,3.8
				c1.1,2.9,0.7,5.6,0.4,8.1c-0.4,2.6-0.8,2.9-1.3,5.5c-0.4,2-0.7,4.8-0.4,8.5c-0.7,1.7-1.7,4.2-2.7,7.1c0,0-1.8,5.3-2.8,9.7
				c-2,8.5,0.3,18,1.2,21.2c10.3,40,31,79.9,31,79.9c4.5,8.7,11.1,21.1,19.6,35.8c-0.3,2.8-0.5,5.9-0.5,9.3c0,4.5,0.4,8.5,1,12
				c0.4,1.5,0.9,2.9,1.3,4.4c0.1,1.9,0.3,4.7,0.4,8.2c0.1,6.2-0.2,10.1-1.3,23.9c-0.5,6.8-0.8,11.1-0.8,17c0,4,0.2,8.3,2.2,13.3
				c0.9,2.3,1.9,4.1,2.7,5.3c-0.1,1.6-0.2,4.1,0,7.2c0.2,4.4,0.9,7.7,1,8.4c0.8,4,1.3,14.6,0.8,42.1c-0.4,0.3-0.8,0.6-1.2,0.9
				c-0.1,6-0.1,12.1-0.2,18.2c-0.3,0.9-0.8,2.2-1.5,3.8c-1.5,3.5-1.9,3.6-2.5,5.5c-0.4,1.3-0.2,1-0.8,7.5c-0.3,3.1-0.4,4.1,0.2,5.3
				c0.7,1.4,2,2.1,2.9,2.5c6,0.4,12,0.8,18,1.2C213.1,684.6,213.2,685.4,213.4,686.2z"/>
		</g>
	</g>
	<path class="st41" d="M237.9,449.4c1.6,1.3,4,2.9,7,4c5.9,2.3,11.1,2,13.9,1.6c-0.2,1.4-0.5,3-1,4.8c-0.6,2.2-1.4,4.1-2.2,5.6
		c-1.7-0.1-3.5-0.3-5.3-0.6c-3.5-0.5-6.7-1.2-9.6-2C239.8,458.4,238.8,453.9,237.9,449.4z"/>
	<g>
		<path d="M151.5,380.2c1.4-2.1,3.3-3.9,5.4-5.2c2.2-1.3,4.6-2.2,7.1-2.5c-2.4,0.8-4.6,1.8-6.7,3.1
			C155.2,376.9,153.3,378.4,151.5,380.2z"/>
	</g>
	<g>
		<path d="M152.2,391.3c2.8-2.3,5.7-4.4,8.9-6.2c3.1-1.8,6.4-3.3,9.8-4.6c3.4-1.2,6.9-2.2,10.5-2.8c3.6-0.7,7.2-1,10.8-1.1
			c-3.6,0.3-7.1,0.9-10.6,1.6c-3.5,0.8-7,1.7-10.3,3c-3.4,1.2-6.6,2.7-9.8,4.4C158.2,387.3,155.1,389.2,152.2,391.3z"/>
	</g>
	<g>
		<path d="M161.4,366.2c1.9-1.2,4-2.3,6.1-3.2c2.1-0.9,4.3-1.6,6.5-2.2c2.2-0.5,4.5-1,6.8-1.2c2.3-0.2,4.6-0.3,6.9-0.1
			c-2.3,0.2-4.6,0.4-6.8,0.7c-2.3,0.3-4.5,0.8-6.7,1.4c-2.2,0.5-4.4,1.2-6.5,2C165.6,364.3,163.5,365.2,161.4,366.2z"/>
	</g>
	<g>
		<path d="M158.7,402.6c2.2-2.2,4.6-4.2,7.2-6c2.6-1.8,5.4-3.2,8.2-4.5c2.9-1.2,5.9-2.2,8.9-2.9c3.1-0.7,6.2-1.1,9.3-1.1
			c-3.1,0.4-6.2,0.9-9.1,1.7c-3,0.8-5.9,1.8-8.8,3c-2.9,1.2-5.6,2.7-8.2,4.3C163.6,398.8,161.1,400.6,158.7,402.6z"/>
	</g>
	<g>
		<path d="M160.3,424c1.5-1.8,3.2-3.5,5.1-5.1c1.9-1.5,3.9-2.9,5.9-4.1c2.1-1.2,4.3-2.2,6.5-3c2.3-0.8,4.6-1.4,6.9-1.8
			c-2.3,0.7-4.5,1.4-6.7,2.4c-2.2,0.9-4.3,1.9-6.4,3.1c-2.1,1.1-4,2.5-5.9,3.9C163.8,420.8,162,422.4,160.3,424z"/>
	</g>
	<g>
		<path d="M227.6,405.7c-2.6,0.1-5.2,0.3-7.8,0.6c-2.6,0.3-5.2,0.7-7.7,1.2c-2.6,0.5-5.1,1.1-7.6,1.8c-2.5,0.7-5,1.5-7.5,2.3
			c2.4-1.1,4.8-2,7.3-2.8c2.5-0.8,5.1-1.4,7.6-1.9c2.6-0.5,5.2-0.8,7.8-1C222.3,405.6,224.9,405.6,227.6,405.7z"/>
	</g>
	<g>
		<path d="M189.1,458.7c-0.9-2.3-1.3-4.9-1.1-7.4c0.3-2.5,1.3-5.1,3-7.1c1.7-2,3.8-3.5,6-4.8c1.1-0.6,2.2-1.2,3.3-1.8
			c1.1-0.6,2.3-1.1,3.5-1.6c2.4-0.9,4.8-1.6,7.3-2.1c1.3-0.2,2.5-0.3,3.8-0.4c1.3-0.1,2.5-0.2,3.8-0.1c2.6,0.1,5.1,0.6,7.4,1.7
			c2.3,1.1,4.4,2.5,6.1,4.4c-3.8-3.3-8.7-5-13.6-4.9c-2.4,0-4.9,0.4-7.3,0.8c-2.4,0.4-4.8,1.1-7,2.1c-2.3,0.9-4.5,2.1-6.7,3.2
			c-2.2,1.2-4.2,2.5-5.8,4.3c-1.6,1.8-2.7,4-3.1,6.4C188.3,453.8,188.5,456.3,189.1,458.7z"/>
	</g>
	<g class="st50">
		<path d="M189.1,458.7c-0.7-2.3-0.9-4.7-0.6-7.1c0.4-2.4,1.4-4.7,3.1-6.6c1.6-1.9,3.7-3.2,5.8-4.4c1.1-0.6,2.1-1.1,3.2-1.6
			c1.1-0.5,2.2-1.1,3.3-1.5c2.2-0.9,4.6-1.6,6.9-2.1c1.2-0.2,2.4-0.4,3.6-0.6c1.2-0.2,2.4-0.3,3.6-0.3c2.4-0.1,4.9,0.2,7.2,0.9
			c2.3,0.8,4.4,1.9,6.3,3.4c-4-2.6-8.7-3.6-13.4-3.2c-4.6,0.5-9.3,1.4-13.6,3.2c-2.1,0.9-4.3,1.9-6.4,3c-2.1,1.1-4,2.3-5.6,3.9
			c-1.6,1.6-2.7,3.7-3.2,6C188.7,454,188.7,456.4,189.1,458.7z"/>
	</g>
	<g>
		<path d="M199.4,460.5c2.2-2,4.6-3.7,7.3-5.1c2.6-1.4,5.5-2.4,8.4-3.1c1.5-0.3,2.9-0.6,4.4-0.8c1.5-0.1,3-0.2,4.5-0.2
			c3,0,5.9,0.4,8.8,1.2c-5.9-0.4-11.7-0.2-17.3,1.2c-2.8,0.6-5.5,1.6-8.2,2.7C204.5,457.6,201.9,459,199.4,460.5z"/>
	</g>
	<g class="st50">
		<path d="M200.4,460c2.3-1.5,4.7-2.8,7.2-3.8c2.5-1.1,5.2-1.9,7.8-2.5c2.7-0.6,5.4-1.1,8.1-1.3c2.7-0.2,5.5-0.2,8.2,0.1
			c-2.7,0.3-5.4,0.6-8.1,1c-2.7,0.4-5.3,0.9-7.9,1.6c-2.6,0.6-5.2,1.4-7.8,2.2C205.5,458.1,203,459,200.4,460z"/>
	</g>
	<g class="st50">
		<path d="M211.1,472c3.5-2,7.4-3.3,11.3-4c2-0.3,4-0.6,6-0.6c2-0.1,4,0.1,6,0.4l-5.9,0.8c-2,0.3-3.9,0.6-5.8,0.9
			c-1.9,0.3-3.9,0.7-5.8,1.2L211.1,472z"/>
	</g>
	<g>
		<path d="M210.3,472.4c3.2-2.9,7.3-4.8,11.6-5.6c2.2-0.4,4.3-0.5,6.5-0.3c2.2,0.2,4.3,0.6,6.3,1.4c-2.1-0.2-4.3-0.3-6.3-0.2
			c-2.1,0.1-4.2,0.3-6.2,0.6c-2,0.4-4.1,0.9-6,1.6C214.2,470.6,212.3,471.4,210.3,472.4z"/>
	</g>
	<g>
		<path d="M198.6,479.2c1.9,4.8,4.8,9.2,8.4,12.7c3.7,3.5,8.1,6.3,13.1,7.2c2.5,0.5,5,0.4,7.6,0.3c2.6-0.1,5.2-0.2,7.7-0.6
			c1.2-0.2,2.4-0.6,3.4-1.2c1-0.6,1.9-1.6,2.6-2.6c1.4-2.1,1.9-4.7,2-7.3c0.2,2.6-0.1,5.3-1.4,7.7c-0.6,1.2-1.5,2.3-2.6,3.1
			c-1.1,0.8-2.5,1.3-3.8,1.5c-2.6,0.5-5.2,0.6-7.8,0.9c-2.6,0.2-5.3,0.3-7.9-0.2c-5.3-1-10-4-13.6-7.8
			C202.6,488.9,199.9,484.2,198.6,479.2z"/>
	</g>
	<g class="st50">
		<path d="M198.8,480c1.4,4.7,3.9,9,7.3,12.5c1.7,1.7,3.6,3.2,5.6,4.6c2,1.4,4.1,2.5,6.4,3.1c2.3,0.6,4.7,0.7,7.1,0.6
			c2.5,0,4.9,0,7.3-0.3c1.2-0.2,2.4-0.4,3.5-0.7c1.2-0.3,2.3-0.7,3.2-1.4c2-1.3,3.2-3.6,3.9-5.9c-0.4,2.4-1.5,4.8-3.5,6.5
			c-1,0.8-2.2,1.4-3.4,1.7c-1.2,0.4-2.4,0.7-3.6,1c-2.5,0.5-5,0.5-7.4,0.6c-2.5,0.1-5,0.1-7.5-0.6c-2.5-0.7-4.8-1.9-6.8-3.4
			c-2-1.4-4-3.1-5.6-4.9C201.9,489.5,199.7,484.8,198.8,480z"/>
	</g>
	<g>
		<path d="M260.3,450.7c-2,0.6-4,0.8-6,0.5c-2-0.3-3.9-1-5.6-2c1.8,0.9,3.7,1.4,5.6,1.5c1.9,0.1,3.9-0.2,5.7-1L260.3,450.7z"/>
	</g>
	<g>
		<path d="M251.6,477.2c-1.5,0.1-2.9-0.1-4.3-0.7c-1.3-0.6-2.4-1.5-3.2-2.7c0.9,1,2.1,1.8,3.4,2.2c1.3,0.4,2.7,0.4,4,0.2
			L251.6,477.2z"/>
	</g>
	<g>
		<path d="M201.8,589.1c3.2,1.2,6.6,1.9,10.1,2.1c3.5,0.2,6.9-0.1,10.3-0.8c3.4-0.7,6.7-2,9.8-3.6c3.1-1.6,6-3.6,8.6-5.9
			c-2.6,2.3-5.5,4.4-8.5,6.1c-3.1,1.7-6.3,3.1-9.8,3.9c-3.4,0.9-6.9,1.2-10.5,1.1c-3.5-0.1-7-0.8-10.4-2L201.8,589.1z"/>
	</g>
	<g class="st50">
		<path d="M202.9,589.9c6.3,1.4,12.8,1.3,19-0.2c3.1-0.7,6.1-1.9,9-3.2c2.9-1.3,5.7-2.9,8.4-4.6l0.1,0.1c-2.4,2.2-5.2,3.9-8.1,5.4
			c-2.9,1.4-6,2.4-9.2,3.1c-3.2,0.7-6.4,1-9.7,0.9C209.2,591.3,206,590.8,202.9,589.9L202.9,589.9z"/>
	</g>
	<g>
		<path d="M212,603.2c5.2,0.3,10.5-0.5,15.4-2.4c2.4-1,4.7-2.3,6.9-3.6c2.2-1.4,4.3-3,6.3-4.7l0.1,0.1c-1.6,2.1-3.6,3.9-5.8,5.4
			c-2.2,1.5-4.6,2.7-7.1,3.6C222.7,603.3,217.3,603.9,212,603.2L212,603.2z"/>
	</g>
	<g class="st50">
		<path d="M216.3,603.5c4.5,0,8.9-1,13-2.8c2-0.9,3.9-2.1,5.7-3.4c1.8-1.2,3.5-2.7,5.2-4.2l0.1,0.1c-1.3,1.9-2.9,3.5-4.7,4.9
			c-1.8,1.4-3.9,2.5-6,3.3c-2.1,0.9-4.3,1.5-6.5,1.9C220.8,603.6,218.5,603.7,216.3,603.5L216.3,603.5z"/>
	</g>
	<path class="st33" d="M210.6,626c0,0.1,0.1,0.3,0.2,0.5c0.7,2.6,0.4,4.8,0.6,5.4c0.5,1.4,0.7,5.8,0.9,14.5
		c0.3,14.4-0.2,14.5,0.6,19.2c0.7,4.4,1.1,7,1.3,8.2c0.4,2.4,0.6,5.9-0.2,10.6"/>
	<path class="st6" d="M212.6,646.1c1.1,0.6,2.8,1.3,4.9,1.4c3.8,0.2,6.7-1.7,8.5-2.7c3-1.7,7.8-3.5,15-3.5c-0.2-2.1-0.4-4.4-0.5-6.8
		c-0.1-4.2,0-8,0.4-11.4c-1,0.6-2.4,1.4-4.1,2.2c-2.2,1.1-3.4,1.7-5.1,2.2c-0.6,0.2-3.6,1.1-7.6,1.3c-1.9,0.1-3.4-0.1-4.5-0.2
		c-2.1-0.3-5.3-0.9-8.9-2.5c0.5,1.4,0.6,2.5,0.6,3.3c0,0.7-0.1,0.9-0.1,1.7c0,1.5,0.4,2.5,0.5,2.8C212,635,212.4,638,212.6,646.1z"
		/>
	<path class="st1" d="M213,646.4c0.6,0.3,1.6,0.7,2.7,0.9c2.6,0.6,4.7,0.1,5.2,0c1.4-0.3,1.7-0.7,4.8-2.2c0,0,1.7-0.8,4.4-2.1
		c2.2-1,5.6-1.9,11.1-1.6c0.2,1,0.6,2.5,1.4,4.2c1.2,2.6,2,3.1,2.9,5c0.9,2.1,1,3.8,1,7.2c0.1,3.6-0.4,4.1-0.5,8
		c-0.2,5,0.3,9.1,0.7,12.5c0.3,2.5,0.6,4.6,0.9,6.1c-6-1-12.1-2.1-18.1-3.1c-2.3-6-6.5-15.6-9.5-15.1c-0.2,0-0.4,0.1-0.8,0.3
		c-3.8,1.9-4.7,3.9-5.6,3.7c-1.5-0.3-1.5-5.9-1.4-10.1C212.3,655.9,212.5,651.3,213,646.4z"/>
	<path class="st40" d="M214,670.8c1.1,0,1.5-1.3,3.1-2.5c0.7-0.5,2-1.5,3.2-1.4c0.7,0,2.4,0.5,6.3,9.1c1.1,2.3,1.9,4.3,2.4,5.7
		c6.3,1.1,12.7,2.2,19,3.3c-0.7-3.3-1.2-7-1.4-11.3c-0.2-3.1-0.1-6,0.1-8.5c0.3,1.1,0.9,2.7,2.2,4.3c0.3,0.4,1.2,1.5,3.6,3.3
		c1.9,1.4,4.1,3,7.2,4c1.6,0.5,3.3,0.7,6.8,1c5.9,0.6,7.2,0.2,9.6,1.4c1.2,0.6,3,1.6,3.8,3.8c0.6,1.7,0.5,4-0.8,5.3
		c-1,1-2,0.9-6.5,1c-6.4,0.3-7.6,0.7-11.3,0.3c-1.4-0.2-2.5-0.4-3.3-0.5c0.7,0.7,1.6,1.7,2.6,2.9c1.3,1.6,3.4,4.3,5,8.2
		c1.1,2.7,1.7,4.4,1.2,6.3c-0.2,0.9-0.8,2-2.4,3.5c-2,1.8-4.8,3.3-10.1,4.4c-5.3,1.1-9,1.1-14.9,1c-6.6-0.1-8.1-0.7-9.3-1.5
		c-0.9-0.6-1.8-1.4-4.9-6.9c-0.6-1-2.4-4.4-5.2-9.9c-1.5-3.1-2.7-5.6-4.9-9.5c-0.5-0.8-0.9-1.5-1.2-2c0-0.7,0-1.3,0-2
		c-3.7-0.3-6.7-0.5-8.8-0.6c-6.3-0.3-9.7-0.2-11.2-2.4c-0.3-0.5-0.8-1.5-1.1-2.7c-0.3-1.3-0.2-2.3-0.2-3.3c0.3-3.7,0.4-5.6,1-7.3
		c0.8-2.2,1.3-2.3,2.4-5.2c0.7-1.8,1-3.3,1.2-4.2c0.8,1.1,2.1,2.6,4.1,4.1c0.6,0.4,0.9,0.7,1.3,0.9c2.9,1.4,7.3-2,8.6-3.1
		c0.1,0.6,0.3,1.6,0.3,2.8c0,1.6-0.3,2-0.2,3.6c0,1.4,0.1,2.7,1,3.7C212.6,670.1,213.2,670.8,214,670.8z"/>
	<path class="st1" d="M199.2,639.1c1.4,0.3,3.1,0.6,5.1,0.7c3.2,0.1,5.9-0.4,7.8-1c0.2,2.2,0.4,4.5,0.5,6.8
		c0.3,4.6,0.4,9.1,0.4,13.4c-1.3,0.8-2.5,1.5-3.4,2.1c-2.3,1.4-3.2,1.8-4.3,2c-0.9,0.1-1.7,0.3-2.6-0.1c-1.1-0.5-1.4-1.4-2.5-2.7
		c-0.6-0.7-1.5-1.7-2.8-2.6c0-5.8,0-11.5,0-17.3C197.9,639.9,198.6,639.5,199.2,639.1z"/>
	<path class="st40" d="M258.1,689.2c-2.8-2.8-6.8-7.8-9.1-15c-1-3-1.5-5.8-1.7-8.2"/>
	<path class="st1" d="M279.6,687.9c-0.1-0.7-1.3-1-2.1-1.1c-3.1-0.6-6.2-0.3-8.2,0c-9.4,1.2-7.6,1.1-8.9,1.2c-1.5,0.1-3,0.1-3,0.5
		c-0.1,0.4,2,1.1,3.2,1.5c3,0.8,4.4,0.4,8.6,0.4c5,0,7.8,0.7,9.6-0.9C279,689.2,279.7,688.5,279.6,687.9z"/>
	<path class="st1" d="M213.8,683.6c-0.1-0.4-0.1-1-0.2-1.8c-0.4-2.9-0.8-4.8-1-5.8c-0.3-1.6-0.6-4-0.6-7.2"/>
	<path class="st1" d="M231.6,715.4c1.8,1,3.9,1.9,6.2,2.5c13.3,3.7,25.4-3.2,29.3-5.7c0.2-1.5,0.3-3,0.5-4.4c0-0.2-0.1-0.4-0.1-0.6
		c-0.2-0.9-0.4-1.8-0.6-2.7c-0.6,1-1.2,1.9-1.9,2.7c-9.6,11.3-30.4,7.5-35.4,6.5C230.3,714.2,230.9,714.8,231.6,715.4z"/>
	<g>
		<path class="st3" d="M256.8,693.5c1.4,1.2,2.6,2.6,3.5,4.2c0.9,1.6,1.7,3.5,1.5,5.6c0,0.3-0.1,0.5-0.2,0.8l-0.3,0.7
			c-0.2,0.5-0.5,0.9-0.8,1.3c-0.3,0.4-0.7,0.7-1,1.1c-0.4,0.3-0.8,0.6-1.2,0.9c-1.7,1.1-3.5,1.7-5.3,2.2c-3.7,0.9-7.4,1.1-11.1,0.8
			c-3.7-0.2-7.3-0.9-10.8-1.9c3.7,0.2,7.3,0.4,10.9,0.4c3.6-0.1,7.2-0.4,10.6-1.2c1.7-0.4,3.3-1,4.8-1.9c1.5-0.8,2.5-2.1,2.9-3.6
			c0.3-1.5-0.1-3.3-0.8-4.9C258.8,696.6,257.9,695.1,256.8,693.5z"/>
	</g>
	<g>
		<path class="st3" d="M216.7,684.5c2.4,3.4,4.5,6.9,6.5,10.5c2,3.6,4,7.2,5.6,11c-2.4-3.4-4.5-6.9-6.5-10.5
			C220.4,692,218.4,688.3,216.7,684.5z"/>
	</g>
	<path class="st16" d="M198.7,639.4c-0.4-16.8-0.4-26.8-0.1-31.8c0.1-1.9,0.2-5.1-0.4-9.4c-0.4-3-0.9-3.9-1.2-6.5
		c-0.3-2.4-0.5-5.9,0.2-10.4c0.4,0.5,0.9,1.3,1.4,2.2c0.7,1.1,1.8,3.1,2.6,5.8c0.4,1.3,0.6,2.3,0.7,3.1c0.3,1.8,0.4,3.1,0.5,3.7
		c0.2,2.8,0.8,5,1.6,8c0.8,3,0.9,2.7,2.2,7c2.1,7,1.3,6.5,2.6,9.6c0.9,2.1,2.1,4.3,2.2,6.5c0,0.3,0,1.3,0.1,2.7
		c0.1,0.9,0.2,1.7,0.3,2.3c0.2,1.2,0.4,1.9,0.5,2.4c0.2,1,0.4,2.5,0.4,4.4c-1.5,0.6-3.9,1.2-6.9,1.2
		C202.5,640.5,200.2,639.9,198.7,639.4z"/>
	<path class="st15" d="M197.8,597.9c0.8,0.4,1.7,0.9,2.5,1.3c1,0.5,1.9,1,2.8,1.5c0.3,1.7,0.7,3.4,1,5.2c-1.3-0.6-2.7-1.3-4.1-2.2
		c-0.6-0.3-1.1-0.7-1.6-1C198.2,601.1,198,599.5,197.8,597.9z"/>
	<path class="st43" d="M198.5,612.5c2.9,1.1,5.8,2.2,8.7,3.3c0.2,0.5,0.4,1.3,0.7,2.1c0.4,1.4,0.5,1.6,0.7,2c0.4,0.9,0.5,1.1,0.9,2
		c0.2,0.5,0.5,1.2,0.7,2c-0.6,0-1.2,0-1.8,0c-4.2-0.2-7.5-1.9-9.8-3.4C198.5,617.8,198.5,615.1,198.5,612.5z"/>
	<g>
		<path d="M198.8,626.2c2.6,2.5,6.1,4,9.7,4.2c-3.7,0.1-7.4-1.2-10.3-3.6L198.8,626.2z"/>
	</g>
	<g>
		<path d="M198.8,633.6c1.8,0.7,3.7,1.1,5.6,1c1.9,0,3.8-0.5,5.5-1.5c-1.6,1.1-3.5,1.7-5.5,1.8c-2,0.2-4-0.1-5.8-0.7L198.8,633.6z"
			/>
	</g>
	<g>
		<path d="M212,634.2c4.2,1.5,8.7,2.1,13.1,1.8c2.2-0.2,4.4-0.5,6.6-1.1c2.2-0.6,4.3-1.4,6.3-2.4c-2,1.1-4.1,1.9-6.2,2.6
			c-2.2,0.7-4.4,1.1-6.6,1.4c-4.5,0.4-9.1,0-13.5-1.4L212,634.2z"/>
	</g>
	<g>
		<path d="M213,641.3c3.1,1.1,6.5,1.6,9.8,1.3c-3.3,0.6-6.8,0.5-10.1-0.4L213,641.3z"/>
	</g>
	<g>
		<path class="st3" d="M251,674.1c1.5,1.5,3.2,2.7,5.1,3.5c1.9,0.8,4,1.2,6.1,1.3c-2.1,0.5-4.4,0.3-6.4-0.6
			C253.8,677.4,252,675.9,251,674.1z"/>
	</g>
</g>
</svg>
