<?xml version="1.0" encoding="utf-8"?>
<!-- Generator: Adobe Illustrator 25.2.1, SVG Export Plug-In . SVG Version: 6.00 Build 0)  -->
<svg version="1.1" id="Ebene_1" xmlns="http://www.w3.org/2000/svg" xmlns:xlink="http://www.w3.org/1999/xlink" x="0px" y="0px"
	 viewBox="0 0 598.2 408.5" style="enable-background:new 0 0 598.2 408.5;" xml:space="preserve">
<style type="text/css">
	.st0{fill-rule:evenodd;clip-rule:evenodd;fill:#FFFFFF;}
</style>
<path class="st0" d="M263.6,185.5L263.6,185.5L263.6,185.5C263.6,185.5,263.6,185.5,263.6,185.5
	C263.5,185.5,263.6,185.5,263.6,185.5z M263.5,114.6h0.1v0C263.6,114.6,263.6,114.6,263.5,114.6z M32.5,182.7
	C32.4,182.8,32.4,182.8,32.5,182.7C32.5,182.8,32.5,182.8,32.5,182.7z"/>
<path class="st0" d="M552.9,95.8c-3.7,0.4-13.5,0.7-19.2,0.4c-3.5-0.2-5.1-2.1-3.5-5c4.5-1.5,8.3,0.2,12.5-0.5
	c0.7-1,1.6-1.9,0.5-3.1c-8.7-1.2-18.7,0.3-25.7-1.9c-1.2,0.5-2.6,0.1-4,0.1c-0.8-0.5-1.2-1.3-1.9-1.9c0.3-0.5,0.9-0.7,0.9-1.5
	c8.3,0,14.7-4.2,23.4-3.4c1.2-1.1,2.3-2.2,3.6-3.2c2.8,0.2,6.9,0.1,10.4,0.8c0.8,0.1,0.6-0.5,0.9-0.7c8.3,0.6,10.1,0,4.3-0.6
	c-0.9-0.2-1.3-0.9-1.9-1.4c-5.2,0.7-12.9-0.2-19.2,0.2c-0.9-0.9-1.1-2.7,1.4-2.7c-0.7-0.6-1.1-0.3-2.1-0.2c0-0.4,0.2-0.6,0.6-0.7
	c-3.4-0.1-4-0.1-7.3-0.1c-0.7-0.2-0.9-1.2-0.4-1.7c2.8,0.3,5.4-0.6,7.9-0.6c1.5,0,2.6,0.8,4,0.9c0.7,0,0.7-0.5,1.5-0.5
	c0.7,0,1.8,0.7,2.5,0.7c0.8,0,1.2-0.4,2.1-0.5c3.2-0.3,6.8,1.2,10.1,1c2.6-0.2,4.9-1.8,7.9-1.4c-1.1-1.5-3.2-0.6-5.2-0.6
	c-6.6-0.2-14.1-2.1-19.6-2c-0.7-1.2,0.6-1.7,1.1-2.7c1.8,0.4,3,0.2,4.6,0.4c0.9,0.2-0.4,0.6,0.3,0.9c4.1,0,7.8,0.6,12.6,0.7
	c0.4-0.9,1.6-0.9,0.8-2.2c0.6,0.1,0.8-0.2,1.2-0.3c1.2-0.1,0,0.3,0.3,1c0.8-1.5,2.5,0.3,3.3-0.8c5.6,1.7,6.8-0.2,1.2-0.5
	c-1.2-0.1,0.2-0.8-0.6-1c-1.6-0.1-2.8,0.8-4.2,0.8c-1.8,0-2.4-0.8-4-1.1c-1.8-0.3-3.9,0.1-5.8-0.3c-1.8-0.4-3.2-1.8-5.2-1.1
	c-0.7-0.7-0.4-1.2-1.9-1.7c-0.3-0.8,1.6-1.3,0.5-1.9c-1.1-0.3-0.2,0.8-0.9,0.7c-1.1-0.2-1.5-0.9-2.2-1.4c-2.7,0.7-5.4,0.3-8.2-0.1
	c-0.9-0.3,1.3-0.7,0.3-1.2c-1.2,0.6-4.9,0.3-5.8-0.8c-3.2,0.6-5-0.4-8.6,0.2c-1.2,0-0.1-1.2-0.6-1.2c-2.3-0.9-3.6-0.2-6.1-0.4
	c-1.4-0.9-4.1-1.5-6.1-1.1c-0.1-1.2,1.5-1.1,2.7-1.3c-0.8-1-3.1,0.2-4,0.6c-6.8-1-12.6-3.8-20.6-4.1c-1.2,0-1.7-1.4-2.8-0.7
	c-0.4,0-0.3-0.5,0-0.5c-4.4-0.8-14.3,0.5-17.2-2.3c-1.2,0.5,0.5,0.4-0.3,1.2c-1.7-1.2-4.4,0-5.6-1.6c-4.5-0.4-9,0.9-12.5-0.7
	c-1,0.2-2.3,0.2-2.7,0.8c-2-0.7-5.4-1.3-7.6-0.3C404,39.3,374,40.3,345.2,38c-6.8,1-15.2-0.5-21.7-1c-2.1-0.2-4.1,1-6.1-0.3
	c-6.2-0.2-13.5,0-20-0.4h-0.2c-6.5,0.4-13.8,0.2-20,0.4c-2.1,1.3-4,0.2-6.1,0.3c-6.5,0.5-14.9,2-21.7,1c-28.8,2.3-58.8,1.3-87.2,3.9
	c-2.2-1-5.7-0.4-7.7,0.3c-0.4-0.6-1.7-0.6-2.7-0.8c-3.6,1.6-8,0.3-12.5,0.7c-1.1,1.6-3.9,0.4-5.6,1.6c-0.7-0.8,1-0.7-0.3-1.2
	c-2.9,2.8-12.8,1.5-17.2,2.3c0.3,0,0.4,0.4,0,0.5c-1.1-0.7-1.6,0.7-2.8,0.7c-8,0.3-13.8,3.1-20.6,4.1c-0.9-0.4-3.2-1.6-4-0.6
	c1.2,0.2,2.8,0.1,2.7,1.3c-2.1-0.4-4.8,0.1-6.1,1.1c-2.5,0.1-3.9-0.5-6.1,0.4c-0.5,0,0.5,1.2-0.7,1.2c-3.6-0.6-5.4,0.4-8.5-0.2
	c-0.9,1.1-4.7,1.4-5.8,0.8c-1,0.5,1.1,0.9,0.3,1.2c-2.9,0.3-5.6,0.8-8.2,0.1c-0.7,0.5-1.1,1.2-2.2,1.4c-0.7,0.1,0.2-1.1-0.9-0.7
	c-1,0.6,0.8,1.1,0.5,1.9c-1.4,0.4-1.2,1-1.9,1.7c-2-0.7-3.4,0.7-5.2,1.1c-1.9,0.4-4,0-5.8,0.3c-1.6,0.3-2.2,1.1-4,1.1
	c-1.4,0-2.7-0.9-4.2-0.8c-0.8,0.2,0.6,0.9-0.6,1c-5.6,0.3-4.4,2.2,1.2,0.5c0.8,1.1,2.5-0.7,3.3,0.8c0.4-0.6-0.9-1,0.3-1
	c0.4,0.1,0.6,0.4,1.2,0.3c-0.8,1.3,0.4,1.3,0.8,2.2c4.7-0.1,8.5-0.7,12.6-0.7c0.8-0.3-0.5-0.7,0.3-0.9c1.6-0.2,2.8,0,4.6-0.4
	c0.5,1,1.8,1.4,1.1,2.7c-5.5-0.1-13.1,1.8-19.6,2c-2,0-4.1-0.9-5.2,0.6c3-0.5,5.3,1.2,7.9,1.4c3.3,0.2,6.9-1.3,10.1-1
	c0.9,0.1,1.3,0.5,2.1,0.5c0.6,0,1.7-0.7,2.5-0.7c0.8,0,0.8,0.6,1.5,0.5c1.4-0.1,2.5-0.9,4-0.9c2.6,0,5.1,0.9,7.9,0.6
	c0.5,0.4,0.3,1.5-0.4,1.7c-3.3-0.1-3.9,0-7.3,0.1c0.4,0.1,0.6,0.3,0.6,0.7c-1.1-0.1-1.4-0.4-2.2,0.2c2.5,0,2.3,1.8,1.4,2.7
	c-6.3-0.3-14,0.5-19.2-0.2c-0.6,0.5-0.9,1.2-1.9,1.4c-5.9,0.6-4,1.1,4.3,0.6c0.3,0.2,0.1,0.9,0.9,0.7c3.5-0.7,7.7-0.5,10.4-0.8
	c1.2,1,2.4,2.1,3.6,3.2c8.7-0.9,15.1,3.4,23.4,3.4c0,0.7,0.6,0.9,0.9,1.5c-0.7,0.6-1.1,1.4-1.9,1.9c-1.4,0-2.8,0.4-4-0.1
	c-7,2.2-26,4-25.2,5c4.2,0.7,8-1,12.5,0.5c1.6,2.8-0.1,4.8-3.5,5c-5.7,0.3-15.5,0-19.2-0.4c-16.7,1.7-5,1.9,2.4,1
	c3.1,1.7,9-0.3,12.2,1.5c-0.8,2.7-3.3,4-6.6,4.7c3.3-0.2,6.4,0.7,9.1,0.9c2.3,0.1,6.2-0.7,7.3-0.1c0.2,0.1-0.2,0.6,0.1,0.7
	c0.3-0.1,1.8-0.1,2-0.2c1.2-0.3,1-0.5,2.5-0.4c1.9,0.1,1.8,0.1,3,0.8c6.5,0.4,12.8-0.4,19.2,0.2c0.7,0.1,2,0,2.1,0
	c0.6,0.2,0.1,0.6,0.9,0.7c0.5,0.1,0.3-0.5,0.9-0.5c2.5,0.2,5.4,0.5,7.9,0.4c6.3-0.2,13.8,0.5,18.9,0.4c1.2,0.2-0.4,1,1.2,1
	c8.9,0.6,18.3,1,27.8,1.3c0.7,0.1,0.1,1.1,1.2,1c1.3,0.2,1-1,2.2-0.9c0.7,0.3,1.4,0.7,1.8,1.2c10.9,0.9,22.1-0.1,33.3-0.5
	c10.5-0.4,21-0.4,30.9-0.5c7.8-0.2,15.3-1.2,22.3-0.5c9.4-0.8,17.5-0.8,26.3-0.9c6.3-0.1,13.3,0.5,18.6-0.1c0.9-0.1,2-0.7,3.1-0.7
	c1.5,0,3.1,0.8,4.6,0.8c0,0,0.1,0,0.1,0c0,0,0.1,0,0.1,0c1.5-0.1,3.1-0.8,4.6-0.8c1.1,0,2.2,0.6,3.1,0.7c5.3,0.5,12.3,0,18.6,0.1
	c8.8,0.1,16.9,0.1,26.3,0.9c7-0.7,14.5,0.3,22.3,0.5c9.9,0.2,20.4,0.2,30.9,0.5c11.2,0.4,22.4,1.4,33.3,0.5c0.4-0.6,1-0.9,1.8-1.2
	c1.2-0.1,0.9,1.1,2.2,0.9c1,0.2,0.5-0.9,1.2-1c9.5-0.2,18.9-0.7,27.8-1.3c1.5,0,0-0.8,1.2-1c5.1,0.1,12.6-0.5,18.9-0.4
	c2.5,0.1,5.4-0.2,7.9-0.4c0.7-0.1,0.5,0.5,0.9,0.5c0.8-0.1,0.3-0.6,0.9-0.7c0.1,0,1.5,0,2.1,0c6.5-0.6,12.8,0.3,19.2-0.2
	c1.2-0.6,1.2-0.7,3-0.8c1.4-0.1,1.2,0.1,2.4,0.4c0.2,0,1.7,0.1,2,0.2c0.3-0.1-0.1-0.6,0.1-0.7c1.1-0.6,5.1,0.2,7.3,0.1
	c2.8-0.2,5.8-1.1,9.1-0.9c-3.2-0.7-5.8-1.9-6.6-4.7c3.1-1.8,9.1,0.3,12.2-1.5C557.9,97.8,569.6,97.5,552.9,95.8z M531.4,58.4
	c2.2-0.7,2.9,0.5,5.8-0.1c0.6,0.9,1.3,0.8,2.8,0.7c0.2,1.8,3.9,0.6,3.8,2.6c-1.9,0-3.2,0.4-4.2,1c-0.8-0.3,0.1-1.7-0.4-1.7
	c-1.8,0.9-5.4-0.2-8-0.3C531,59.2,532,59.5,531.4,58.4z M530.9,59.6c-0.2,0.1-0.4,0.2-0.3,0.5C528.8,60.1,530.2,58.4,530.9,59.6z
	 M63.3,60.5c-2.5,0.1-6.1,1.2-8,0.3c-0.5,0,0.5,1.4-0.4,1.7c-1.1-0.6-2.4-1-4.2-1c-0.1-2,3.6-0.8,3.8-2.6c1.4,0.2,2.1,0.3,2.8-0.7
	c2.9,0.7,3.6-0.5,5.8,0.1C62.5,59.5,63.5,59.2,63.3,60.5z M64,60c0.1-0.3,0-0.4-0.3-0.5C64.3,58.4,65.8,60.1,64,60z"/>
<path class="st0" d="M552.9,226.5c-3.7,0.4-13.5,0.7-19.2,0.4c-3.5-0.2-5.1-2.1-3.5-5c4.5-1.5,8.3,0.2,12.5-0.5
	c0.7-1,1.6-1.9,0.5-3.1c-8.7-1.2-18.7,0.3-25.7-1.9c-1.2,0.5-2.6,0.1-4,0.1c-0.8-0.5-1.2-1.3-1.9-1.9c0.3-0.5,0.9-0.7,0.9-1.5
	c8.3,0,14.7-4.2,23.4-3.4c1.2-1.1,2.3-2.2,3.6-3.2c2.8,0.2,6.9,0.1,10.4,0.8c0.8,0.1,0.6-0.5,0.9-0.7c8.3,0.6,10.1,0,4.3-0.6
	c-0.9-0.2-1.3-0.9-1.9-1.4c-5.2,0.7-12.9-0.2-19.2,0.2c-0.9-0.9-1.1-2.7,1.4-2.7c-0.7-0.6-1.1-0.3-2.1-0.2c0-0.4,0.2-0.6,0.6-0.7
	c-3.4-0.1-4-0.1-7.3-0.1c-0.7-0.2-0.9-1.2-0.4-1.7c2.8,0.3,5.4-0.6,7.9-0.6c1.5,0,2.6,0.8,4,0.9c0.7,0,0.7-0.5,1.5-0.5
	c0.7,0,1.8,0.7,2.5,0.7c0.8,0,1.2-0.4,2.1-0.5c3.2-0.3,6.8,1.2,10.1,1c2.6-0.2,4.9-1.8,7.9-1.4c-1.1-1.5-3.2-0.6-5.2-0.6
	c-6.6-0.2-14.1-2.1-19.6-2c-0.7-1.2,0.6-1.7,1.1-2.7c1.8,0.4,3,0.2,4.6,0.4c0.9,0.2-0.4,0.6,0.3,0.9c4.1,0,7.8,0.6,12.6,0.7
	c0.4-0.9,1.6-0.9,0.8-2.2c0.6,0.1,0.8-0.2,1.2-0.3c1.2-0.1,0,0.3,0.3,1c0.8-1.5,2.5,0.3,3.3-0.8c5.6,1.7,6.8-0.2,1.2-0.5
	c-1.2-0.1,0.2-0.8-0.6-1c-1.6-0.1-2.8,0.8-4.2,0.8c-1.8,0-2.4-0.8-4-1.1c-1.8-0.3-3.9,0.1-5.8-0.3c-1.8-0.4-3.2-1.8-5.2-1.1
	c-0.7-0.7-0.4-1.2-1.9-1.7c-0.3-0.8,1.6-1.3,0.5-1.9c-1.1-0.3-0.2,0.8-0.9,0.7c-1.1-0.2-1.5-0.9-2.2-1.4c-2.7,0.7-5.4,0.3-8.2-0.1
	c-0.9-0.3,1.3-0.7,0.3-1.2c-1.2,0.6-4.9,0.3-5.8-0.8c-3.2,0.6-5-0.4-8.6,0.2c-1.2,0-0.1-1.2-0.6-1.2c-2.3-0.9-3.6-0.2-6.1-0.4
	c-1.4-0.9-4.1-1.5-6.1-1.1c-0.1-1.2,1.5-1.1,2.7-1.3c-0.8-1-3.1,0.2-4,0.6c-6.8-1-12.6-3.8-20.6-4.1c-1.2,0-1.7-1.4-2.8-0.7
	c-0.4,0-0.3-0.5,0-0.5c-4.4-0.8-14.3,0.5-17.2-2.3c-1.2,0.5,0.5,0.4-0.3,1.2c-1.7-1.2-4.4,0-5.6-1.6c-4.5-0.4-9,0.9-12.5-0.7
	c-1,0.2-2.3,0.2-2.7,0.8c-2-0.7-5.4-1.3-7.6-0.3c-28.5-2.6-58.5-1.6-87.2-3.9c-6.8,1-15.2-0.5-21.7-1c-2.1-0.2-4.1,1-6.1-0.3
	c-6.2-0.2-13.5,0-20-0.4h-0.2c-6.5,0.4-13.8,0.2-20,0.4c-2.1,1.3-4,0.2-6.1,0.3c-6.5,0.5-14.9,2-21.7,1c-28.8,2.3-58.8,1.3-87.2,3.9
	c-2.2-1-5.7-0.4-7.7,0.3c-0.4-0.6-1.7-0.6-2.7-0.8c-3.6,1.6-8,0.3-12.5,0.7c-1.1,1.6-3.9,0.4-5.6,1.6c-0.7-0.8,1-0.7-0.3-1.2
	c-2.9,2.8-12.8,1.5-17.2,2.3c0.3,0,0.4,0.4,0,0.5c-1.1-0.7-1.6,0.7-2.8,0.7c-8,0.3-13.8,3.1-20.6,4.1c-0.9-0.4-3.2-1.6-4-0.6
	c1.2,0.2,2.8,0.1,2.7,1.3c-2.1-0.4-4.8,0.1-6.1,1.1c-2.5,0.1-3.9-0.5-6.1,0.4c-0.5,0,0.5,1.2-0.7,1.2c-3.6-0.6-5.4,0.4-8.5-0.2
	c-0.9,1.1-4.7,1.4-5.8,0.8c-1,0.5,1.1,0.9,0.3,1.2c-2.9,0.3-5.6,0.8-8.2,0.1c-0.7,0.5-1.1,1.2-2.2,1.4c-0.7,0.1,0.2-1.1-0.9-0.7
	c-1,0.6,0.8,1.1,0.5,1.9c-1.4,0.4-1.2,1-1.9,1.7c-2-0.7-3.4,0.7-5.2,1.1c-1.9,0.4-4,0-5.8,0.3c-1.6,0.3-2.2,1.1-4,1.1
	c-1.4,0-2.7-0.9-4.2-0.8c-0.8,0.2,0.6,0.9-0.6,1c-5.6,0.3-4.4,2.2,1.2,0.5c0.8,1.1,2.5-0.7,3.3,0.8c0.4-0.6-0.9-1,0.3-1
	c0.4,0.1,0.6,0.4,1.2,0.3c-0.8,1.3,0.4,1.3,0.8,2.2c4.7-0.1,8.5-0.7,12.6-0.7c0.8-0.3-0.5-0.7,0.3-0.9c1.6-0.2,2.8,0,4.6-0.4
	c0.5,1,1.8,1.4,1.1,2.7c-5.5-0.1-13.1,1.8-19.6,2c-2,0-4.1-0.9-5.2,0.6c3-0.5,5.3,1.2,7.9,1.4c3.3,0.2,6.9-1.3,10.1-1
	c0.9,0.1,1.3,0.5,2.1,0.5c0.6,0,1.7-0.7,2.5-0.7c0.8,0,0.8,0.6,1.5,0.5c1.4-0.1,2.5-0.9,4-0.9c2.6,0,5.1,0.9,7.9,0.6
	c0.5,0.4,0.3,1.5-0.4,1.7c-3.3-0.1-3.9,0-7.3,0.1c0.4,0.1,0.6,0.3,0.6,0.7c-1.1-0.1-1.4-0.4-2.2,0.2c2.5,0,2.3,1.8,1.4,2.7
	c-6.3-0.3-14,0.5-19.2-0.2c-0.6,0.5-0.9,1.2-1.9,1.4c-5.9,0.6-4,1.1,4.3,0.6c0.3,0.2,0.1,0.9,0.9,0.7c3.5-0.7,7.7-0.5,10.4-0.8
	c1.2,1,2.4,2.1,3.6,3.2c8.7-0.9,15.1,3.4,23.4,3.4c0,0.7,0.6,0.9,0.9,1.5c-0.7,0.6-1.1,1.4-1.9,1.9c-1.4,0-2.8,0.4-4-0.1
	c-7,2.2-26,4-25.2,5c4.2,0.7,8-1,12.5,0.5c1.6,2.8-0.1,4.8-3.5,5c-5.7,0.3-15.5,0-19.2-0.4c-16.7,1.7-5,1.9,2.4,1
	c3.1,1.7,9-0.3,12.2,1.5c-0.8,2.7-3.3,4-6.6,4.7c3.3-0.2,6.4,0.7,9.1,0.9c2.3,0.1,6.2-0.7,7.3-0.1c0.2,0.1-0.2,0.6,0.1,0.7
	c0.3-0.1,1.8-0.1,2-0.2c1.2-0.3,1-0.5,2.5-0.4c1.9,0.1,1.8,0.1,3,0.8c6.5,0.4,12.8-0.4,19.2,0.2c0.7,0.1,2,0,2.1,0
	c0.6,0.2,0.1,0.6,0.9,0.7c0.5,0.1,0.3-0.5,0.9-0.5c2.5,0.2,5.4,0.5,7.9,0.4c6.3-0.2,13.8,0.5,18.9,0.4c1.2,0.2-0.4,1,1.2,1
	c8.9,0.6,18.3,1,27.8,1.3c0.7,0.1,0.1,1.1,1.2,1c1.3,0.2,1-1,2.2-0.9c0.7,0.3,1.4,0.7,1.8,1.2c10.9,0.9,22.1-0.1,33.3-0.5
	c10.5-0.4,21-0.4,30.9-0.5c7.8-0.2,15.3-1.2,22.3-0.5c9.4-0.8,17.5-0.8,26.3-0.9c6.3-0.1,13.3,0.5,18.6-0.1c0.9-0.1,2-0.7,3.1-0.7
	c1.5,0,3.1,0.8,4.6,0.8c0,0,0.1,0,0.1,0c0,0,0.1,0,0.1,0c1.5-0.1,3.1-0.8,4.6-0.8c1.1,0,2.2,0.6,3.1,0.7c5.3,0.5,12.3,0,18.6,0.1
	c8.8,0.1,16.9,0.1,26.3,0.9c7-0.7,14.5,0.3,22.3,0.5c9.9,0.2,20.4,0.2,30.9,0.5c11.2,0.4,22.4,1.4,33.3,0.5c0.4-0.6,1-0.9,1.8-1.2
	c1.2-0.1,0.9,1.1,2.2,0.9c1,0.2,0.5-0.9,1.2-1c9.5-0.2,18.9-0.7,27.8-1.3c1.5,0,0-0.8,1.2-1c5.1,0.1,12.6-0.5,18.9-0.4
	c2.5,0.1,5.4-0.2,7.9-0.4c0.7-0.1,0.5,0.5,0.9,0.5c0.8-0.1,0.3-0.6,0.9-0.7c0.1,0,1.5,0,2.1,0c6.5-0.6,12.8,0.3,19.2-0.2
	c1.2-0.6,1.2-0.7,3-0.8c1.4-0.1,1.2,0.1,2.4,0.4c0.2,0,1.7,0.1,2,0.2c0.3-0.1-0.1-0.6,0.1-0.7c1.1-0.6,5.1,0.2,7.3,0.1
	c2.8-0.2,5.8-1.1,9.1-0.9c-3.2-0.7-5.8-1.9-6.6-4.7c3.1-1.8,9.1,0.3,12.2-1.5C557.9,228.5,569.6,228.2,552.9,226.5z M531.4,189.1
	c2.2-0.7,2.9,0.5,5.8-0.1c0.6,0.9,1.3,0.8,2.8,0.7c0.2,1.8,3.9,0.6,3.8,2.6c-1.9,0-3.2,0.4-4.2,1c-0.8-0.3,0.1-1.7-0.4-1.7
	c-1.8,0.9-5.4-0.2-8-0.3C531,189.9,532,190.2,531.4,189.1z M530.9,190.3c-0.2,0.1-0.4,0.2-0.3,0.5
	C528.8,190.8,530.2,189.1,530.9,190.3z M63.3,191.2c-2.5,0.1-6.1,1.2-8,0.3c-0.5,0,0.5,1.4-0.4,1.7c-1.1-0.6-2.4-1-4.2-1
	c-0.1-2,3.6-0.8,3.8-2.6c1.4,0.2,2.1,0.3,2.8-0.7c2.9,0.7,3.6-0.5,5.8,0.1C62.5,190.2,63.5,189.9,63.3,191.2z M64,190.7
	c0.1-0.3,0-0.4-0.3-0.5C64.3,189.1,65.8,190.8,64,190.7z"/>
<path class="st0" d="M552.9,358c-3.7,0.4-13.5,0.7-19.2,0.4c-3.5-0.2-5.1-2.1-3.5-5c4.5-1.5,8.3,0.2,12.5-0.5c0.7-1,1.6-1.9,0.5-3.1
	c-8.7-1.2-18.7,0.3-25.7-1.9c-1.2,0.5-2.6,0.1-4,0.1c-0.8-0.5-1.2-1.3-1.9-1.9c0.3-0.5,0.9-0.7,0.9-1.5c8.3,0,14.7-4.2,23.4-3.4
	c1.2-1.1,2.3-2.2,3.6-3.2c2.8,0.2,6.9,0.1,10.4,0.8c0.8,0.1,0.6-0.5,0.9-0.7c8.3,0.6,10.1,0,4.3-0.6c-0.9-0.2-1.3-0.9-1.9-1.4
	c-5.2,0.7-12.9-0.2-19.2,0.2c-0.9-0.9-1.1-2.7,1.4-2.7c-0.7-0.6-1.1-0.3-2.1-0.2c0-0.4,0.2-0.6,0.6-0.7c-3.4-0.1-4-0.1-7.3-0.1
	c-0.7-0.2-0.9-1.2-0.4-1.7c2.8,0.3,5.4-0.6,7.9-0.6c1.5,0,2.6,0.8,4,0.9c0.7,0,0.7-0.5,1.5-0.5c0.7,0,1.8,0.7,2.5,0.7
	c0.8,0,1.2-0.4,2.1-0.5c3.2-0.3,6.8,1.2,10.1,1c2.6-0.2,4.9-1.8,7.9-1.4c-1.1-1.5-3.2-0.6-5.2-0.6c-6.6-0.2-14.1-2.1-19.6-2
	c-0.7-1.2,0.6-1.7,1.1-2.7c1.8,0.4,3,0.2,4.6,0.4c0.9,0.2-0.4,0.6,0.3,0.9c4.1,0,7.8,0.6,12.6,0.7c0.4-0.9,1.6-0.9,0.8-2.2
	c0.6,0.1,0.8-0.2,1.2-0.3c1.2-0.1,0,0.3,0.3,1c0.8-1.5,2.5,0.3,3.3-0.8c5.6,1.7,6.8-0.2,1.2-0.5c-1.2-0.1,0.2-0.8-0.6-1
	c-1.6-0.1-2.8,0.8-4.2,0.8c-1.8,0-2.4-0.8-4-1.1c-1.8-0.3-3.9,0.1-5.8-0.3c-1.8-0.4-3.2-1.8-5.2-1.1c-0.7-0.7-0.4-1.2-1.9-1.7
	c-0.3-0.8,1.6-1.3,0.5-1.9c-1.1-0.3-0.2,0.8-0.9,0.7c-1.1-0.2-1.5-0.9-2.2-1.4c-2.7,0.7-5.4,0.3-8.2-0.1c-0.9-0.3,1.3-0.7,0.3-1.2
	c-1.2,0.6-4.9,0.3-5.8-0.8c-3.2,0.6-5-0.4-8.6,0.2c-1.2,0-0.1-1.2-0.6-1.2c-2.3-0.9-3.6-0.2-6.1-0.4c-1.4-0.9-4.1-1.5-6.1-1.1
	c-0.1-1.2,1.5-1.1,2.7-1.3c-0.8-1-3.1,0.2-4,0.6c-6.8-1-12.6-3.8-20.6-4.1c-1.2,0-1.7-1.4-2.8-0.7c-0.4,0-0.3-0.5,0-0.5
	c-4.4-0.8-14.3,0.5-17.2-2.3c-1.2,0.5,0.5,0.4-0.3,1.2c-1.7-1.2-4.4,0-5.6-1.6c-4.5-0.4-9,0.9-12.5-0.7c-1,0.2-2.3,0.2-2.7,0.8
	c-2-0.7-5.4-1.3-7.6-0.3c-28.5-2.6-58.5-1.6-87.2-3.9c-6.8,1-15.2-0.5-21.7-1c-2.1-0.2-4.1,1-6.1-0.3c-6.2-0.2-13.5,0-20-0.4h-0.2
	c-6.5,0.4-13.8,0.2-20,0.4c-2.1,1.3-4,0.2-6.1,0.3c-6.5,0.5-14.9,2-21.7,1c-28.8,2.3-58.8,1.3-87.2,3.9c-2.2-1-5.7-0.4-7.7,0.3
	c-0.4-0.6-1.7-0.6-2.7-0.8c-3.6,1.6-8,0.3-12.5,0.7c-1.1,1.6-3.9,0.4-5.6,1.6c-0.7-0.8,1-0.7-0.3-1.2c-2.9,2.8-12.8,1.5-17.2,2.3
	c0.3,0,0.4,0.4,0,0.5c-1.1-0.7-1.6,0.7-2.8,0.7c-8,0.3-13.8,3.1-20.6,4.1c-0.9-0.4-3.2-1.6-4-0.6c1.2,0.2,2.8,0.1,2.7,1.3
	c-2.1-0.4-4.8,0.1-6.1,1.1c-2.5,0.1-3.9-0.5-6.1,0.4c-0.5,0,0.5,1.2-0.7,1.2c-3.6-0.6-5.4,0.4-8.5-0.2c-0.9,1.1-4.7,1.4-5.8,0.8
	c-1,0.5,1.1,0.9,0.3,1.2c-2.9,0.3-5.6,0.8-8.2,0.1c-0.7,0.5-1.1,1.2-2.2,1.4c-0.7,0.1,0.2-1.1-0.9-0.7c-1,0.6,0.8,1.1,0.5,1.9
	c-1.4,0.4-1.2,1-1.9,1.7c-2-0.7-3.4,0.7-5.2,1.1c-1.9,0.4-4,0-5.8,0.3c-1.6,0.3-2.2,1.1-4,1.1c-1.4,0-2.7-0.9-4.2-0.8
	c-0.8,0.2,0.6,0.9-0.6,1c-5.6,0.3-4.4,2.2,1.2,0.5c0.8,1.1,2.5-0.7,3.3,0.8c0.4-0.6-0.9-1,0.3-1c0.4,0.1,0.6,0.4,1.2,0.3
	c-0.8,1.3,0.4,1.3,0.8,2.2c4.7-0.1,8.5-0.7,12.6-0.7c0.8-0.3-0.5-0.7,0.3-0.9c1.6-0.2,2.8,0,4.6-0.4c0.5,1,1.8,1.4,1.1,2.7
	c-5.5-0.1-13.1,1.8-19.6,2c-2,0-4.1-0.9-5.2,0.6c3-0.5,5.3,1.2,7.9,1.4c3.3,0.2,6.9-1.3,10.1-1c0.9,0.1,1.3,0.5,2.1,0.5
	c0.6,0,1.7-0.7,2.5-0.7c0.8,0,0.8,0.6,1.5,0.5c1.4-0.1,2.5-0.9,4-0.9c2.6,0,5.1,0.9,7.9,0.6c0.5,0.4,0.3,1.5-0.4,1.7
	c-3.3-0.1-3.9,0-7.3,0.1c0.4,0.1,0.6,0.3,0.6,0.7c-1.1-0.1-1.4-0.4-2.2,0.2c2.5,0,2.3,1.8,1.4,2.7c-6.3-0.3-14,0.5-19.2-0.2
	c-0.6,0.5-0.9,1.2-1.9,1.4c-5.9,0.6-4,1.1,4.3,0.6c0.3,0.2,0.1,0.9,0.9,0.7c3.5-0.7,7.7-0.5,10.4-0.8c1.2,1,2.4,2.1,3.6,3.2
	c8.7-0.9,15.1,3.4,23.4,3.4c0,0.7,0.6,0.9,0.9,1.5c-0.7,0.6-1.1,1.4-1.9,1.9c-1.4,0-2.8,0.4-4-0.1c-7,2.2-26,4-25.2,5
	c4.2,0.7,8-1,12.5,0.5c1.6,2.8-0.1,4.8-3.5,5c-5.7,0.3-15.5,0-19.2-0.4c-16.7,1.7-5,1.9,2.4,1c3.1,1.7,9-0.3,12.2,1.5
	c-0.8,2.7-3.3,4-6.6,4.7c3.3-0.2,6.4,0.7,9.1,0.9c2.3,0.1,6.2-0.7,7.3-0.1c0.2,0.1-0.2,0.6,0.1,0.7c0.3-0.1,1.8-0.1,2-0.2
	c1.2-0.3,1-0.5,2.5-0.4c1.9,0.1,1.8,0.1,3,0.8c6.5,0.4,12.8-0.4,19.2,0.2c0.7,0.1,2,0,2.1,0c0.6,0.2,0.1,0.6,0.9,0.7
	c0.5,0.1,0.3-0.5,0.9-0.5c2.5,0.2,5.4,0.5,7.9,0.4c6.3-0.2,13.8,0.5,18.9,0.4c1.2,0.2-0.4,1,1.2,1c8.9,0.6,18.3,1,27.8,1.3
	c0.7,0.1,0.1,1.1,1.2,1c1.3,0.2,1-1,2.2-0.9c0.7,0.3,1.4,0.7,1.8,1.2c10.9,0.9,22.1-0.1,33.3-0.5c10.5-0.4,21-0.4,30.9-0.5
	c7.8-0.2,15.3-1.2,22.3-0.5c9.4-0.8,17.5-0.8,26.3-0.9c6.3-0.1,13.3,0.5,18.6-0.1c0.9-0.1,2-0.7,3.1-0.7c1.5,0,3.1,0.8,4.6,0.8
	c0,0,0.1,0,0.1,0c0,0,0.1,0,0.1,0c1.5-0.1,3.1-0.8,4.6-0.8c1.1,0,2.2,0.6,3.1,0.7c5.3,0.5,12.3,0,18.6,0.1
	c8.8,0.1,16.9,0.1,26.3,0.9c7-0.7,14.5,0.3,22.3,0.5c9.9,0.2,20.4,0.2,30.9,0.5c11.2,0.4,22.4,1.4,33.3,0.5c0.4-0.6,1-0.9,1.8-1.2
	c1.2-0.1,0.9,1.1,2.2,0.9c1,0.2,0.5-0.9,1.2-1c9.5-0.2,18.9-0.7,27.8-1.3c1.5,0,0-0.8,1.2-1c5.1,0.1,12.6-0.5,18.9-0.4
	c2.5,0.1,5.4-0.2,7.9-0.4c0.7-0.1,0.5,0.5,0.9,0.5c0.8-0.1,0.3-0.6,0.9-0.7c0.1,0,1.5,0,2.1,0c6.5-0.6,12.8,0.3,19.2-0.2
	c1.2-0.6,1.2-0.7,3-0.8c1.4-0.1,1.2,0.1,2.4,0.4c0.2,0,1.7,0.1,2,0.2c0.3-0.1-0.1-0.6,0.1-0.7c1.1-0.6,5.1,0.2,7.3,0.1
	c2.8-0.2,5.8-1.1,9.1-0.9c-3.2-0.7-5.8-1.9-6.6-4.7c3.1-1.8,9.1,0.3,12.2-1.5C557.9,359.9,569.6,359.7,552.9,358z M531.4,320.5
	c2.2-0.7,2.9,0.5,5.8-0.1c0.6,0.9,1.3,0.8,2.8,0.7c0.2,1.8,3.9,0.6,3.8,2.6c-1.9,0-3.2,0.4-4.2,1c-0.8-0.3,0.1-1.7-0.4-1.7
	c-1.8,0.9-5.4-0.2-8-0.3C531,321.4,532,321.7,531.4,320.5z M530.9,321.7c-0.2,0.1-0.4,0.2-0.3,0.5
	C528.8,322.3,530.2,320.6,530.9,321.7z M63.3,322.7c-2.5,0.1-6.1,1.2-8,0.3c-0.5,0,0.5,1.4-0.4,1.7c-1.1-0.6-2.4-1-4.2-1
	c-0.1-2,3.6-0.8,3.8-2.6c1.4,0.2,2.1,0.3,2.8-0.7c2.9,0.7,3.6-0.5,5.8,0.1C62.5,321.7,63.5,321.4,63.3,322.7z M64,322.2
	c0.1-0.3,0-0.4-0.3-0.5C64.3,320.6,65.8,322.3,64,322.2z"/>
<path class="st0" d="M181.7,114.6L181.7,114.6l0.1,0C181.8,114.6,181.7,114.6,181.7,114.6z M181.7,185.5L181.7,185.5
	c0.1,0,0.1,0,0.1,0C181.8,185.5,181.7,185.5,181.7,185.5L181.7,185.5z M412.8,182.7C412.8,182.8,412.8,182.8,412.8,182.7
	C412.9,182.8,412.9,182.8,412.8,182.7z"/>
</svg>
