<?xml version="1.0" encoding="utf-8"?>
<!-- Generator: Adobe Illustrator 25.2.1, SVG Export Plug-In . SVG Version: 6.00 Build 0)  -->
<svg version="1.1" id="Ebene_1" xmlns="http://www.w3.org/2000/svg" xmlns:xlink="http://www.w3.org/1999/xlink" x="0px" y="0px"
	 viewBox="0 0 272.9 186.3" style="enable-background:new 0 0 272.9 186.3;" xml:space="preserve">
<style type="text/css">
	.st0{fill-rule:evenodd;clip-rule:evenodd;fill:#FFFFFF;}
</style>
<path class="st0" d="M120.6,85.7L120.6,85.7L120.6,85.7C120.6,85.7,120.6,85.7,120.6,85.7C120.6,85.7,120.6,85.7,120.6,85.7z
	 M120.6,51.3L120.6,51.3L120.6,51.3C120.6,51.3,120.6,51.3,120.6,51.3z M8.6,84.3C8.5,84.4,8.5,84.4,8.6,84.3
	C8.6,84.4,8.6,84.4,8.6,84.3z"/>
<path class="st0" d="M260.9,42.2c-1.8,0.2-6.6,0.3-9.3,0.2c-1.7-0.1-2.5-1-1.7-2.4c2.2-0.7,4,0.1,6.1-0.2c0.4-0.5,0.8-0.9,0.2-1.5
	c-4.2-0.6-9.1,0.1-12.5-0.9c-0.6,0.3-1.3,0.1-1.9,0c-0.4-0.2-0.6-0.6-0.9-0.9c0.1-0.2,0.4-0.3,0.4-0.7c4,0,7.1-2.1,11.3-1.6
	c0.6-0.5,1.1-1,1.7-1.6c1.3,0.1,3.3,0,5.1,0.4c0.4,0.1,0.3-0.2,0.4-0.4c4,0.3,4.9,0,2.1-0.3c-0.5-0.1-0.6-0.4-0.9-0.7
	c-2.5,0.3-6.3-0.1-9.3,0.1c-0.4-0.4-0.5-1.3,0.7-1.3c-0.3-0.3-0.5-0.1-1-0.1c0-0.2,0.1-0.3,0.3-0.4c-1.7,0-1.9-0.1-3.6,0
	c-0.3-0.1-0.4-0.6-0.2-0.8c1.4,0.1,2.6-0.3,3.8-0.3c0.8,0,1.3,0.4,1.9,0.4c0.3,0,0.3-0.2,0.7-0.2c0.4,0,0.9,0.3,1.2,0.3
	c0.4,0,0.6-0.2,1-0.3c1.6-0.2,3.3,0.6,4.9,0.5c1.2-0.1,2.4-0.9,3.8-0.7c-0.6-0.7-1.6-0.3-2.5-0.3c-3.2-0.1-6.8-1-9.5-1
	c-0.3-0.6,0.3-0.8,0.5-1.3c0.9,0.2,1.5,0.1,2.2,0.2c0.4,0.1-0.2,0.3,0.2,0.5c2,0,3.8,0.3,6.1,0.3c0.2-0.4,0.8-0.4,0.4-1.1
	c0.3,0,0.4-0.1,0.6-0.1c0.6,0,0,0.2,0.2,0.5c0.4-0.7,1.2,0.1,1.6-0.4c2.7,0.8,3.3-0.1,0.6-0.2c-0.6,0,0.1-0.4-0.3-0.5
	c-0.8,0-1.4,0.4-2.1,0.4c-0.9,0-1.2-0.4-1.9-0.5c-0.9-0.2-1.9,0-2.8-0.2c-0.9-0.2-1.6-0.8-2.5-0.5c-0.3-0.3-0.2-0.6-0.9-0.8
	c-0.1-0.4,0.8-0.6,0.3-0.9c-0.5-0.2-0.1,0.4-0.4,0.4c-0.5-0.1-0.7-0.4-1.1-0.7c-1.3,0.4-2.6,0.1-4,0c-0.4-0.1,0.6-0.3,0.1-0.6
	c-0.6,0.3-2.4,0.1-2.8-0.4c-1.5,0.3-2.4-0.2-4.1,0.1c-0.6,0,0-0.6-0.3-0.6c-1.1-0.4-1.7-0.1-3-0.2c-0.7-0.5-2-0.7-3-0.5
	c-0.1-0.6,0.7-0.5,1.3-0.6c-0.4-0.5-1.5,0.1-1.9,0.3c-3.3-0.5-6.1-1.9-10-2c-0.6,0-0.8-0.7-1.3-0.3c-0.2,0-0.2-0.2,0-0.2
	c-2.1-0.4-6.9,0.3-8.3-1.1c-0.6,0.2,0.2,0.2-0.1,0.6c-0.8-0.6-2.1,0-2.7-0.8c-2.2-0.2-4.4,0.4-6.1-0.3c-0.5,0.1-1.1,0.1-1.3,0.4
	c-1-0.3-2.6-0.6-3.7-0.2c-13.8-1.3-28.3-0.8-42.3-1.9c-3.3,0.5-7.4-0.2-10.5-0.5c-1-0.1-2,0.5-3-0.2c-3-0.1-6.5,0-9.7-0.2h-0.1
	c-3.2,0.2-6.7,0.1-9.7,0.2c-1,0.6-1.9,0.1-3,0.2c-3.2,0.3-7.2,1-10.5,0.5c-13.9,1.1-28.5,0.6-42.3,1.9c-1.1-0.5-2.8-0.2-3.7,0.2
	c-0.2-0.3-0.8-0.3-1.3-0.4c-1.7,0.8-3.9,0.2-6.1,0.3c-0.6,0.8-1.9,0.2-2.7,0.8c-0.3-0.4,0.5-0.4-0.1-0.6c-1.4,1.4-6.2,0.7-8.3,1.1
	c0.2,0,0.2,0.2,0,0.2c-0.5-0.3-0.8,0.3-1.3,0.3c-3.9,0.2-6.7,1.5-10,2c-0.4-0.2-1.5-0.8-1.9-0.3c0.6,0.1,1.4,0,1.3,0.6
	c-1-0.2-2.3,0.1-3,0.5c-1.2,0.1-1.9-0.2-3,0.2c-0.3,0,0.3,0.6-0.3,0.6c-1.7-0.3-2.6,0.2-4.1-0.1c-0.5,0.5-2.3,0.7-2.8,0.4
	c-0.5,0.2,0.6,0.5,0.1,0.6c-1.4,0.2-2.7,0.4-4,0c-0.3,0.3-0.5,0.6-1.1,0.7c-0.4,0,0.1-0.5-0.4-0.4c-0.5,0.3,0.4,0.5,0.3,0.9
	c-0.7,0.2-0.6,0.5-0.9,0.8c-1-0.3-1.7,0.3-2.5,0.5c-0.9,0.2-1.9,0-2.8,0.2c-0.8,0.2-1.1,0.6-1.9,0.5c-0.7,0-1.3-0.4-2.1-0.4
	c-0.4,0.1,0.3,0.4-0.3,0.5c-2.7,0.1-2.1,1.1,0.6,0.2c0.4,0.5,1.2-0.3,1.6,0.4c0.2-0.3-0.4-0.5,0.2-0.5c0.2,0,0.3,0.2,0.6,0.1
	c-0.4,0.6,0.2,0.6,0.4,1.1c2.3,0,4.1-0.3,6.1-0.3c0.4-0.2-0.3-0.4,0.2-0.5c0.8-0.1,1.3,0,2.2-0.2c0.3,0.5,0.9,0.7,0.5,1.3
	c-2.7,0-6.3,0.9-9.5,1c-1,0-2-0.4-2.5,0.3c1.4-0.2,2.6,0.6,3.8,0.7c1.6,0.1,3.3-0.6,4.9-0.5c0.4,0,0.6,0.3,1,0.3
	c0.3,0,0.8-0.3,1.2-0.3c0.4,0,0.4,0.3,0.7,0.2c0.7-0.1,1.2-0.4,1.9-0.4c1.2,0,2.5,0.5,3.8,0.3c0.3,0.2,0.1,0.7-0.2,0.8
	c-1.6,0-1.9,0-3.6,0c0.2,0.1,0.3,0.2,0.3,0.4c-0.5,0-0.7-0.2-1,0.1c1.2,0,1.1,0.9,0.7,1.3c-3.1-0.2-6.8,0.3-9.3-0.1
	c-0.3,0.2-0.5,0.6-0.9,0.7c-2.8,0.3-2,0.6,2.1,0.3c0.2,0.1,0,0.4,0.4,0.4c1.7-0.3,3.7-0.2,5.1-0.4c0.6,0.5,1.2,1,1.7,1.6
	c4.2-0.4,7.3,1.6,11.3,1.6c0,0.4,0.3,0.5,0.4,0.7c-0.3,0.3-0.5,0.7-0.9,0.9c-0.7,0-1.3,0.2-1.9,0c-3.4,1-12.6,1.9-12.2,2.4
	c2,0.3,3.9-0.5,6.1,0.2c0.8,1.4,0,2.3-1.7,2.4c-2.8,0.1-7.5,0-9.3-0.2c-8.1,0.8-2.4,0.9,1.2,0.5c1.5,0.8,4.4-0.1,5.9,0.7
	c-0.4,1.3-1.6,1.9-3.2,2.3c1.6-0.1,3.1,0.4,4.4,0.4c1.1,0.1,3-0.3,3.6,0c0.1,0.1-0.1,0.3,0.1,0.3c0.1,0,0.9-0.1,1-0.1
	c0.6-0.2,0.5-0.2,1.2-0.2c0.9,0.1,0.9,0.1,1.5,0.4c3.1,0.2,6.2-0.2,9.3,0.1c0.3,0,1,0,1,0c0.3,0.1,0,0.3,0.4,0.4
	c0.2,0,0.1-0.3,0.5-0.2c1.2,0.1,2.6,0.2,3.8,0.2c3.1-0.1,6.7,0.3,9.2,0.2c0.6,0.1-0.2,0.5,0.6,0.5c4.3,0.3,8.9,0.5,13.5,0.6
	c0.3,0,0.1,0.6,0.6,0.5c0.6,0.1,0.5-0.5,1-0.4c0.4,0.2,0.7,0.3,0.9,0.6c5.3,0.4,10.7,0,16.2-0.2c5.1-0.2,10.2-0.2,15-0.3
	c3.8-0.1,7.4-0.6,10.8-0.2c4.6-0.4,8.5-0.4,12.8-0.4c3.1,0,6.5,0.2,9,0c0.4,0,1-0.3,1.5-0.3c0.7,0,1.5,0.4,2.2,0.4c0,0,0,0,0.1,0
	c0,0,0,0,0.1,0c0.7,0,1.5-0.4,2.2-0.4c0.5,0,1.1,0.3,1.5,0.3c2.6,0.3,6,0,9,0c4.3,0.1,8.2,0,12.8,0.4c3.4-0.3,7,0.2,10.8,0.2
	c4.8,0.1,9.9,0.1,15,0.3c5.4,0.2,10.9,0.7,16.2,0.2c0.2-0.3,0.5-0.4,0.9-0.6c0.6,0,0.4,0.5,1,0.4c0.5,0.1,0.2-0.4,0.6-0.5
	c4.6-0.1,9.2-0.3,13.5-0.6c0.8,0,0-0.4,0.6-0.5c2.5,0.1,6.1-0.3,9.2-0.2c1.2,0,2.6-0.1,3.8-0.2c0.3,0,0.2,0.3,0.5,0.2
	c0.4,0,0.1-0.3,0.4-0.4c0.1,0,0.7,0,1,0c3.1-0.3,6.2,0.1,9.3-0.1c0.6-0.3,0.6-0.3,1.5-0.4c0.7,0,0.6,0.1,1.2,0.2
	c0.1,0,0.8,0.1,1,0.1c0.1-0.1-0.1-0.3,0.1-0.3c0.6-0.3,2.5,0.1,3.6,0c1.3-0.1,2.8-0.5,4.4-0.4c-1.6-0.3-2.8-0.9-3.2-2.3
	c1.5-0.9,4.4,0.1,5.9-0.7C263.3,43.2,269,43,260.9,42.2z M250.5,24c1.1-0.3,1.4,0.3,2.8-0.1c0.3,0.4,0.6,0.4,1.3,0.3
	c0.1,0.9,1.9,0.3,1.8,1.2c-0.9,0-1.5,0.2-2.1,0.5c-0.4-0.2,0.1-0.8-0.2-0.8c-0.9,0.4-2.6-0.1-3.9-0.2
	C250.3,24.5,250.7,24.6,250.5,24z M250.2,24.6c-0.1,0-0.2,0.1-0.1,0.2C249.2,24.9,249.9,24.1,250.2,24.6z M23.5,25.1
	c-1.2,0-3,0.6-3.9,0.2c-0.2,0,0.2,0.7-0.2,0.8c-0.5-0.3-1.1-0.5-2.1-0.5c-0.1-1,1.7-0.4,1.8-1.2c0.7,0.1,1,0.1,1.3-0.3
	c1.4,0.3,1.7-0.3,2.8,0.1C23.1,24.6,23.6,24.5,23.5,25.1z M23.8,24.9c0-0.1,0-0.2-0.1-0.2C24,24.1,24.7,24.9,23.8,24.9z"/>
<path class="st0" d="M260.9,105.6c-1.8,0.2-6.6,0.3-9.3,0.2c-1.7-0.1-2.5-1-1.7-2.4c2.2-0.7,4,0.1,6.1-0.2c0.4-0.5,0.8-0.9,0.2-1.5
	c-4.2-0.6-9.1,0.1-12.5-0.9c-0.6,0.3-1.3,0.1-1.9,0c-0.4-0.2-0.6-0.6-0.9-0.9c0.1-0.2,0.4-0.3,0.4-0.7c4,0,7.1-2.1,11.3-1.6
	c0.6-0.5,1.1-1,1.7-1.6c1.3,0.1,3.3,0,5.1,0.4c0.4,0.1,0.3-0.2,0.4-0.4c4,0.3,4.9,0,2.1-0.3c-0.5-0.1-0.6-0.4-0.9-0.7
	c-2.5,0.3-6.3-0.1-9.3,0.1c-0.4-0.4-0.5-1.3,0.7-1.3c-0.3-0.3-0.5-0.1-1-0.1c0-0.2,0.1-0.3,0.3-0.4c-1.7,0-1.9-0.1-3.6,0
	c-0.3-0.1-0.4-0.6-0.2-0.8c1.4,0.1,2.6-0.3,3.8-0.3c0.8,0,1.3,0.4,1.9,0.4c0.3,0,0.3-0.2,0.7-0.2c0.4,0,0.9,0.3,1.2,0.3
	c0.4,0,0.6-0.2,1-0.3c1.6-0.2,3.3,0.6,4.9,0.5c1.2-0.1,2.4-0.9,3.8-0.7c-0.6-0.7-1.6-0.3-2.5-0.3c-3.2-0.1-6.8-1-9.5-1
	c-0.3-0.6,0.3-0.8,0.5-1.3c0.9,0.2,1.5,0.1,2.2,0.2c0.4,0.1-0.2,0.3,0.2,0.5c2,0,3.8,0.3,6.1,0.3c0.2-0.4,0.8-0.4,0.4-1.1
	c0.3,0,0.4-0.1,0.6-0.1c0.6,0,0,0.2,0.2,0.5c0.4-0.7,1.2,0.1,1.6-0.4c2.7,0.8,3.3-0.1,0.6-0.2c-0.6,0,0.1-0.4-0.3-0.5
	c-0.8,0-1.4,0.4-2.1,0.4c-0.9,0-1.2-0.4-1.9-0.5c-0.9-0.2-1.9,0-2.8-0.2c-0.9-0.2-1.6-0.8-2.5-0.5c-0.3-0.3-0.2-0.6-0.9-0.8
	c-0.1-0.4,0.8-0.6,0.3-0.9c-0.5-0.2-0.1,0.4-0.4,0.4c-0.5-0.1-0.7-0.4-1.1-0.7c-1.3,0.4-2.6,0.1-4,0c-0.4-0.1,0.6-0.3,0.1-0.6
	c-0.6,0.3-2.4,0.1-2.8-0.4c-1.5,0.3-2.4-0.2-4.1,0.1c-0.6,0,0-0.6-0.3-0.6c-1.1-0.4-1.7-0.1-3-0.2c-0.7-0.5-2-0.7-3-0.5
	c-0.1-0.6,0.7-0.5,1.3-0.6c-0.4-0.5-1.5,0.1-1.9,0.3c-3.3-0.5-6.1-1.9-10-2c-0.6,0-0.8-0.7-1.3-0.3c-0.2,0-0.2-0.2,0-0.2
	c-2.1-0.4-6.9,0.3-8.3-1.1c-0.6,0.2,0.2,0.2-0.1,0.6c-0.8-0.6-2.1,0-2.7-0.8c-2.2-0.2-4.4,0.4-6.1-0.3c-0.5,0.1-1.1,0.1-1.3,0.4
	c-1-0.3-2.6-0.6-3.7-0.2c-13.8-1.3-28.3-0.8-42.3-1.9c-3.3,0.5-7.4-0.2-10.5-0.5c-1-0.1-2,0.5-3-0.2c-3-0.1-6.5,0-9.7-0.2h-0.1
	c-3.2,0.2-6.7,0.1-9.7,0.2c-1,0.6-1.9,0.1-3,0.2c-3.2,0.3-7.2,1-10.5,0.5c-13.9,1.1-28.5,0.6-42.3,1.9c-1.1-0.5-2.8-0.2-3.7,0.2
	c-0.2-0.3-0.8-0.3-1.3-0.4c-1.7,0.8-3.9,0.2-6.1,0.3c-0.6,0.8-1.9,0.2-2.7,0.8c-0.3-0.4,0.5-0.4-0.1-0.6c-1.4,1.4-6.2,0.7-8.3,1.1
	c0.2,0,0.2,0.2,0,0.2c-0.5-0.3-0.8,0.3-1.3,0.3c-3.9,0.2-6.7,1.5-10,2c-0.4-0.2-1.5-0.8-1.9-0.3c0.6,0.1,1.4,0,1.3,0.6
	c-1-0.2-2.3,0.1-3,0.5c-1.2,0.1-1.9-0.2-3,0.2c-0.3,0,0.3,0.6-0.3,0.6c-1.7-0.3-2.6,0.2-4.1-0.1c-0.5,0.5-2.3,0.7-2.8,0.4
	c-0.5,0.2,0.6,0.5,0.1,0.6c-1.4,0.2-2.7,0.4-4,0c-0.3,0.3-0.5,0.6-1.1,0.7c-0.4,0,0.1-0.5-0.4-0.4c-0.5,0.3,0.4,0.5,0.3,0.9
	c-0.7,0.2-0.6,0.5-0.9,0.8c-1-0.3-1.7,0.3-2.5,0.5c-0.9,0.2-1.9,0-2.8,0.2c-0.8,0.2-1.1,0.6-1.9,0.5c-0.7,0-1.3-0.4-2.1-0.4
	c-0.4,0.1,0.3,0.4-0.3,0.5c-2.7,0.1-2.1,1.1,0.6,0.2c0.4,0.5,1.2-0.3,1.6,0.4c0.2-0.3-0.4-0.5,0.2-0.5c0.2,0,0.3,0.2,0.6,0.1
	c-0.4,0.6,0.2,0.6,0.4,1.1c2.3,0,4.1-0.3,6.1-0.3c0.4-0.2-0.3-0.4,0.2-0.5c0.8-0.1,1.3,0,2.2-0.2c0.3,0.5,0.9,0.7,0.5,1.3
	c-2.7,0-6.3,0.9-9.5,1c-1,0-2-0.4-2.5,0.3c1.4-0.2,2.6,0.6,3.8,0.7c1.6,0.1,3.3-0.6,4.9-0.5c0.4,0,0.6,0.3,1,0.3
	c0.3,0,0.8-0.3,1.2-0.3c0.4,0,0.4,0.3,0.7,0.2c0.7-0.1,1.2-0.4,1.9-0.4c1.2,0,2.5,0.5,3.8,0.3c0.3,0.2,0.1,0.7-0.2,0.8
	c-1.6,0-1.9,0-3.6,0c0.2,0.1,0.3,0.2,0.3,0.4c-0.5,0-0.7-0.2-1,0.1c1.2,0,1.1,0.9,0.7,1.3c-3.1-0.2-6.8,0.3-9.3-0.1
	c-0.3,0.2-0.5,0.6-0.9,0.7c-2.8,0.3-2,0.6,2.1,0.3c0.2,0.1,0,0.4,0.4,0.4c1.7-0.3,3.7-0.2,5.1-0.4c0.6,0.5,1.2,1,1.7,1.6
	c4.2-0.4,7.3,1.6,11.3,1.6c0,0.4,0.3,0.5,0.4,0.7c-0.3,0.3-0.5,0.7-0.9,0.9c-0.7,0-1.3,0.2-1.9,0c-3.4,1-12.6,1.9-12.2,2.4
	c2,0.3,3.9-0.5,6.1,0.2c0.8,1.4,0,2.3-1.7,2.4c-2.8,0.1-7.5,0-9.3-0.2c-8.1,0.8-2.4,0.9,1.2,0.5c1.5,0.8,4.4-0.1,5.9,0.7
	c-0.4,1.3-1.6,1.9-3.2,2.3c1.6-0.1,3.1,0.4,4.4,0.4c1.1,0.1,3-0.3,3.6,0c0.1,0.1-0.1,0.3,0.1,0.3c0.1,0,0.9-0.1,1-0.1
	c0.6-0.2,0.5-0.2,1.2-0.2c0.9,0.1,0.9,0.1,1.5,0.4c3.1,0.2,6.2-0.2,9.3,0.1c0.3,0,1,0,1,0c0.3,0.1,0,0.3,0.4,0.4
	c0.2,0,0.1-0.3,0.5-0.2c1.2,0.1,2.6,0.2,3.8,0.2c3.1-0.1,6.7,0.3,9.2,0.2c0.6,0.1-0.2,0.5,0.6,0.5c4.3,0.3,8.9,0.5,13.5,0.6
	c0.3,0,0.1,0.6,0.6,0.5c0.6,0.1,0.5-0.5,1-0.4c0.4,0.2,0.7,0.3,0.9,0.6c5.3,0.4,10.7,0,16.2-0.2c5.1-0.2,10.2-0.2,15-0.3
	c3.8-0.1,7.4-0.6,10.8-0.2c4.6-0.4,8.5-0.4,12.8-0.4c3.1,0,6.5,0.2,9,0c0.4,0,1-0.3,1.5-0.3c0.7,0,1.5,0.4,2.2,0.4c0,0,0,0,0.1,0
	c0,0,0,0,0.1,0c0.7,0,1.5-0.4,2.2-0.4c0.5,0,1.1,0.3,1.5,0.3c2.6,0.3,6,0,9,0c4.3,0.1,8.2,0,12.8,0.4c3.4-0.3,7,0.2,10.8,0.2
	c4.8,0.1,9.9,0.1,15,0.3c5.4,0.2,10.9,0.7,16.2,0.2c0.2-0.3,0.5-0.4,0.9-0.6c0.6,0,0.4,0.5,1,0.4c0.5,0.1,0.2-0.4,0.6-0.5
	c4.6-0.1,9.2-0.3,13.5-0.6c0.8,0,0-0.4,0.6-0.5c2.5,0.1,6.1-0.3,9.2-0.2c1.2,0,2.6-0.1,3.8-0.2c0.3,0,0.2,0.3,0.5,0.2
	c0.4,0,0.1-0.3,0.4-0.4c0.1,0,0.7,0,1,0c3.1-0.3,6.2,0.1,9.3-0.1c0.6-0.3,0.6-0.3,1.5-0.4c0.7,0,0.6,0.1,1.2,0.2
	c0.1,0,0.8,0.1,1,0.1c0.1-0.1-0.1-0.3,0.1-0.3c0.6-0.3,2.5,0.1,3.6,0c1.3-0.1,2.8-0.5,4.4-0.4c-1.6-0.3-2.8-0.9-3.2-2.3
	c1.5-0.9,4.4,0.1,5.9-0.7C263.3,106.5,269,106.4,260.9,105.6z M250.5,87.4c1.1-0.3,1.4,0.3,2.8-0.1c0.3,0.4,0.6,0.4,1.3,0.3
	c0.1,0.9,1.9,0.3,1.8,1.2c-0.9,0-1.5,0.2-2.1,0.5c-0.4-0.2,0.1-0.8-0.2-0.8c-0.9,0.4-2.6-0.1-3.9-0.2
	C250.3,87.8,250.7,88,250.5,87.4z M250.2,88c-0.1,0-0.2,0.1-0.1,0.2C249.2,88.2,249.9,87.4,250.2,88z M23.5,88.5
	c-1.2,0-3,0.6-3.9,0.2c-0.2,0,0.2,0.7-0.2,0.8c-0.5-0.3-1.1-0.5-2.1-0.5c-0.1-1,1.7-0.4,1.8-1.2c0.7,0.1,1,0.1,1.3-0.3
	c1.4,0.3,1.7-0.3,2.8,0.1C23.1,88,23.6,87.8,23.5,88.5z M23.8,88.2c0-0.1,0-0.2-0.1-0.2C24,87.4,24.7,88.2,23.8,88.2z"/>
<path class="st0" d="M260.9,169.3c-1.8,0.2-6.6,0.3-9.3,0.2c-1.7-0.1-2.5-1-1.7-2.4c2.2-0.7,4,0.1,6.1-0.2c0.4-0.5,0.8-0.9,0.2-1.5
	c-4.2-0.6-9.1,0.1-12.5-0.9c-0.6,0.3-1.3,0.1-1.9,0c-0.4-0.2-0.6-0.6-0.9-0.9c0.1-0.2,0.4-0.3,0.4-0.7c4,0,7.1-2.1,11.3-1.6
	c0.6-0.5,1.1-1,1.7-1.6c1.3,0.1,3.3,0,5.1,0.4c0.4,0.1,0.3-0.2,0.4-0.4c4,0.3,4.9,0,2.1-0.3c-0.5-0.1-0.6-0.4-0.9-0.7
	c-2.5,0.3-6.3-0.1-9.3,0.1c-0.4-0.4-0.5-1.3,0.7-1.3c-0.3-0.3-0.5-0.1-1-0.1c0-0.2,0.1-0.3,0.3-0.4c-1.7,0-1.9-0.1-3.6,0
	c-0.3-0.1-0.4-0.6-0.2-0.8c1.4,0.1,2.6-0.3,3.8-0.3c0.8,0,1.3,0.4,1.9,0.4c0.3,0,0.3-0.2,0.7-0.2c0.4,0,0.9,0.3,1.2,0.3
	c0.4,0,0.6-0.2,1-0.3c1.6-0.2,3.3,0.6,4.9,0.5c1.2-0.1,2.4-0.9,3.8-0.7c-0.6-0.7-1.6-0.3-2.5-0.3c-3.2-0.1-6.8-1-9.5-1
	c-0.3-0.6,0.3-0.8,0.5-1.3c0.9,0.2,1.5,0.1,2.2,0.2c0.4,0.1-0.2,0.3,0.2,0.5c2,0,3.8,0.3,6.1,0.3c0.2-0.4,0.8-0.4,0.4-1.1
	c0.3,0,0.4-0.1,0.6-0.1c0.6,0,0,0.2,0.2,0.5c0.4-0.7,1.2,0.1,1.6-0.4c2.7,0.8,3.3-0.1,0.6-0.2c-0.6,0,0.1-0.4-0.3-0.5
	c-0.8,0-1.4,0.4-2.1,0.4c-0.9,0-1.2-0.4-1.9-0.5c-0.9-0.2-1.9,0-2.8-0.2c-0.9-0.2-1.6-0.8-2.5-0.5c-0.3-0.3-0.2-0.6-0.9-0.8
	c-0.1-0.4,0.8-0.6,0.3-0.9c-0.5-0.2-0.1,0.4-0.4,0.4c-0.5-0.1-0.7-0.4-1.1-0.7c-1.3,0.4-2.6,0.1-4,0c-0.4-0.1,0.6-0.3,0.1-0.6
	c-0.6,0.3-2.4,0.1-2.8-0.4c-1.5,0.3-2.4-0.2-4.1,0.1c-0.6,0,0-0.6-0.3-0.6c-1.1-0.4-1.7-0.1-3-0.2c-0.7-0.5-2-0.7-3-0.5
	c-0.1-0.6,0.7-0.5,1.3-0.6c-0.4-0.5-1.5,0.1-1.9,0.3c-3.3-0.5-6.1-1.9-10-2c-0.6,0-0.8-0.7-1.3-0.3c-0.2,0-0.2-0.2,0-0.2
	c-2.1-0.4-6.9,0.3-8.3-1.1c-0.6,0.2,0.2,0.2-0.1,0.6c-0.8-0.6-2.1,0-2.7-0.8c-2.2-0.2-4.4,0.4-6.1-0.3c-0.5,0.1-1.1,0.1-1.3,0.4
	c-1-0.3-2.6-0.6-3.7-0.2c-13.8-1.3-28.3-0.8-42.3-1.9c-3.3,0.5-7.4-0.2-10.5-0.5c-1-0.1-2,0.5-3-0.2c-3-0.1-6.5,0-9.7-0.2h-0.1
	c-3.2,0.2-6.7,0.1-9.7,0.2c-1,0.6-1.9,0.1-3,0.2c-3.2,0.3-7.2,1-10.5,0.5c-13.9,1.1-28.5,0.6-42.3,1.9c-1.1-0.5-2.8-0.2-3.7,0.2
	c-0.2-0.3-0.8-0.3-1.3-0.4c-1.7,0.8-3.9,0.2-6.1,0.3c-0.6,0.8-1.9,0.2-2.7,0.8c-0.3-0.4,0.5-0.4-0.1-0.6c-1.4,1.4-6.2,0.7-8.3,1.1
	c0.2,0,0.2,0.2,0,0.2c-0.5-0.3-0.8,0.3-1.3,0.3c-3.9,0.2-6.7,1.5-10,2c-0.4-0.2-1.5-0.8-1.9-0.3c0.6,0.1,1.4,0,1.3,0.6
	c-1-0.2-2.3,0.1-3,0.5c-1.2,0.1-1.9-0.2-3,0.2c-0.3,0,0.3,0.6-0.3,0.6c-1.7-0.3-2.6,0.2-4.1-0.1c-0.5,0.5-2.3,0.7-2.8,0.4
	c-0.5,0.2,0.6,0.5,0.1,0.6c-1.4,0.2-2.7,0.4-4,0c-0.3,0.3-0.5,0.6-1.1,0.7c-0.4,0,0.1-0.5-0.4-0.4c-0.5,0.3,0.4,0.5,0.3,0.9
	c-0.7,0.2-0.6,0.5-0.9,0.8c-1-0.3-1.7,0.3-2.5,0.5c-0.9,0.2-1.9,0-2.8,0.2c-0.8,0.2-1.1,0.6-1.9,0.5c-0.7,0-1.3-0.4-2.1-0.4
	c-0.4,0.1,0.3,0.4-0.3,0.5c-2.7,0.1-2.1,1.1,0.6,0.2c0.4,0.5,1.2-0.3,1.6,0.4c0.2-0.3-0.4-0.5,0.2-0.5c0.2,0,0.3,0.2,0.6,0.1
	c-0.4,0.6,0.2,0.6,0.4,1.1c2.3,0,4.1-0.3,6.1-0.3c0.4-0.2-0.3-0.4,0.2-0.5c0.8-0.1,1.3,0,2.2-0.2c0.3,0.5,0.9,0.7,0.5,1.3
	c-2.7,0-6.3,0.9-9.5,1c-1,0-2-0.4-2.5,0.3c1.4-0.2,2.6,0.6,3.8,0.7c1.6,0.1,3.3-0.6,4.9-0.5c0.4,0,0.6,0.3,1,0.3
	c0.3,0,0.8-0.3,1.2-0.3c0.4,0,0.4,0.3,0.7,0.2c0.7-0.1,1.2-0.4,1.9-0.4c1.2,0,2.5,0.5,3.8,0.3c0.3,0.2,0.1,0.7-0.2,0.8
	c-1.6,0-1.9,0-3.6,0c0.2,0.1,0.3,0.2,0.3,0.4c-0.5,0-0.7-0.2-1,0.1c1.2,0,1.1,0.9,0.7,1.3c-3.1-0.2-6.8,0.3-9.3-0.1
	c-0.3,0.2-0.5,0.6-0.9,0.7c-2.8,0.3-2,0.6,2.1,0.3c0.2,0.1,0,0.4,0.4,0.4c1.7-0.3,3.7-0.2,5.1-0.4c0.6,0.5,1.2,1,1.7,1.6
	c4.2-0.4,7.3,1.6,11.3,1.6c0,0.4,0.3,0.5,0.4,0.7c-0.3,0.3-0.5,0.7-0.9,0.9c-0.7,0-1.3,0.2-1.9,0c-3.4,1-12.6,1.9-12.2,2.4
	c2,0.3,3.9-0.5,6.1,0.2c0.8,1.4,0,2.3-1.7,2.4c-2.8,0.1-7.5,0-9.3-0.2c-8.1,0.8-2.4,0.9,1.2,0.5c1.5,0.8,4.4-0.1,5.9,0.7
	c-0.4,1.3-1.6,1.9-3.2,2.3c1.6-0.1,3.1,0.4,4.4,0.4c1.1,0.1,3-0.3,3.6,0c0.1,0.1-0.1,0.3,0.1,0.3c0.1,0,0.9-0.1,1-0.1
	c0.6-0.2,0.5-0.2,1.2-0.2c0.9,0.1,0.9,0.1,1.5,0.4c3.1,0.2,6.2-0.2,9.3,0.1c0.3,0,1,0,1,0c0.3,0.1,0,0.3,0.4,0.4
	c0.2,0,0.1-0.3,0.5-0.2c1.2,0.1,2.6,0.2,3.8,0.2c3.1-0.1,6.7,0.3,9.2,0.2c0.6,0.1-0.2,0.5,0.6,0.5c4.3,0.3,8.9,0.5,13.5,0.6
	c0.3,0,0.1,0.6,0.6,0.5c0.6,0.1,0.5-0.5,1-0.4c0.4,0.2,0.7,0.3,0.9,0.6c5.3,0.4,10.7,0,16.2-0.2c5.1-0.2,10.2-0.2,15-0.3
	c3.8-0.1,7.4-0.6,10.8-0.2c4.6-0.4,8.5-0.4,12.8-0.4c3.1,0,6.5,0.2,9,0c0.4,0,1-0.3,1.5-0.3c0.7,0,1.5,0.4,2.2,0.4c0,0,0,0,0.1,0
	c0,0,0,0,0.1,0c0.7,0,1.5-0.4,2.2-0.4c0.5,0,1.1,0.3,1.5,0.3c2.6,0.3,6,0,9,0c4.3,0.1,8.2,0,12.8,0.4c3.4-0.3,7,0.2,10.8,0.2
	c4.8,0.1,9.9,0.1,15,0.3c5.4,0.2,10.9,0.7,16.2,0.2c0.2-0.3,0.5-0.4,0.9-0.6c0.6,0,0.4,0.5,1,0.4c0.5,0.1,0.2-0.4,0.6-0.5
	c4.6-0.1,9.2-0.3,13.5-0.6c0.8,0,0-0.4,0.6-0.5c2.5,0.1,6.1-0.3,9.2-0.2c1.2,0,2.6-0.1,3.8-0.2c0.3,0,0.2,0.3,0.5,0.2
	c0.4,0,0.1-0.3,0.4-0.4c0.1,0,0.7,0,1,0c3.1-0.3,6.2,0.1,9.3-0.1c0.6-0.3,0.6-0.3,1.5-0.4c0.7,0,0.6,0.1,1.2,0.2
	c0.1,0,0.8,0.1,1,0.1c0.1-0.1-0.1-0.3,0.1-0.3c0.6-0.3,2.5,0.1,3.6,0c1.3-0.1,2.8-0.5,4.4-0.4c-1.6-0.3-2.8-0.9-3.2-2.3
	c1.5-0.9,4.4,0.1,5.9-0.7C263.3,170.3,269,170.1,260.9,169.3z M250.5,151.1c1.1-0.3,1.4,0.3,2.8-0.1c0.3,0.4,0.6,0.4,1.3,0.3
	c0.1,0.9,1.9,0.3,1.8,1.2c-0.9,0-1.5,0.2-2.1,0.5c-0.4-0.2,0.1-0.8-0.2-0.8c-0.9,0.4-2.6-0.1-3.9-0.2
	C250.3,151.6,250.7,151.7,250.5,151.1z M250.2,151.7c-0.1,0-0.2,0.1-0.1,0.2C249.2,152,249.9,151.2,250.2,151.7z M23.5,152.2
	c-1.2,0-3,0.6-3.9,0.2c-0.2,0,0.2,0.7-0.2,0.8c-0.5-0.3-1.1-0.5-2.1-0.5c-0.1-1,1.7-0.4,1.8-1.2c0.7,0.1,1,0.1,1.3-0.3
	c1.4,0.3,1.7-0.3,2.8,0.1C23.1,151.7,23.6,151.6,23.5,152.2z M23.8,152c0-0.1,0-0.2-0.1-0.2C24,151.2,24.7,152,23.8,152z"/>
<path class="st0" d="M80.9,51.3L80.9,51.3L80.9,51.3C80.9,51.3,80.9,51.3,80.9,51.3z M80.9,85.7L80.9,85.7
	C80.9,85.7,80.9,85.7,80.9,85.7C80.9,85.7,80.9,85.7,80.9,85.7L80.9,85.7z M192.9,84.3C192.9,84.4,192.9,84.4,192.9,84.3
	C193,84.4,193,84.4,192.9,84.3z"/>
</svg>
