<?xml version="1.0" encoding="utf-8"?>
<!-- Generator: Adobe Illustrator 25.2.1, SVG Export Plug-In . SVG Version: 6.00 Build 0)  -->
<svg version="1.1" xmlns="http://www.w3.org/2000/svg" xmlns:xlink="http://www.w3.org/1999/xlink" x="0px" y="0px"
	 viewBox="0 0 412.1 616.5" style="enable-background:new 0 0 412.1 616.5;" xml:space="preserve">
<style type="text/css">
	.st0{display:none;}
	.st1{fill:#BA105A;stroke:#FFFFFF;stroke-width:20;stroke-miterlimit:10;}
	.st2{fill:#141412;}
	.st3{fill:#FFFFFF;stroke:#FFFFFF;stroke-width:20;stroke-miterlimit:10;}
	.st4{fill:#B9B9BA;}
	.st5{fill:#FFFFFF;}
	.st6{fill:#8C0D4A;}
	.st7{fill:#4B7F79;stroke:#FFFFFF;stroke-width:20;stroke-miterlimit:10;}
	.st8{fill:#FFFFFF;stroke:#FFFFFF;stroke-width:21;stroke-miterlimit:10;}
	.st9{fill:#63A8A1;stroke:#141412;stroke-miterlimit:10;}
	.st10{fill:#B9B9BA;stroke:#141412;stroke-miterlimit:10;}
	.st11{fill:#8F8F8F;}
	.st12{fill:#F7F7F7;stroke:#FFFFFF;stroke-width:30;stroke-miterlimit:10;}
	.st13{fill:#DEDEDE;}
	.st14{fill:#141412;stroke:#141412;stroke-miterlimit:10;}
	.st15{fill:#EEEFEF;}
	.st16{fill:none;stroke:#141412;stroke-width:2;stroke-miterlimit:10;}
	.st17{fill:none;stroke:#141412;stroke-width:1.8578;stroke-miterlimit:10;}
	.st18{fill:#141412;stroke:#141412;stroke-width:0.9705;stroke-miterlimit:10;}
	.st19{fill:#141412;stroke:#141412;stroke-width:0.9879;stroke-miterlimit:10;}
	.st20{fill:#BA105A;stroke:#141412;stroke-miterlimit:10;}
	.st21{fill:#FFFFFF;stroke:#141412;stroke-miterlimit:10;}
	.st22{fill:#4B7F79;stroke:#141412;stroke-miterlimit:10;}
	.st23{fill:#F7F7F7;stroke:#141412;stroke-miterlimit:10;}
</style>
<g id="Ebene_1" class="st0">
</g>
<g id="Ebene_2">
	<g id="Ebene_4">
	</g>
</g>
<g id="Ebene_3" class="st0">
</g>
<g id="Ebene_5">
</g>
<g id="Ebene_6">
</g>
<g id="Ebene_7">
	<g>
		<g>
			<path class="st1" d="M197.8,290.4c16.9-24.2,29.6-44.3,38.1-58.3c11.4-18.8,14.6-25.4,24.1-36.5c11.2-13,17.3-16.1,31.6-33.3
				c8.2-9.8,13.8-17.9,18.3-24.4c5.2-7.6,6.7-10.3,24.4-40.4c13.8-23.4,22.2-37.7,36.8-55.1c0.1-0.1,0.3-0.5,0.7-0.8
				c0.2-0.1,0.6-0.4,1.3-0.5c1.2-0.2,2.3,0.2,2.7,0.4c1.8,0.7,3.1,1.6,4.9,2.8c1.9,1.3,2.8,2,2.9,2.2c2.2,2.8-0.7,8.6-1.7,10.4
				c-3.8,6.1-7.5,12.1-11.3,18.2c-15.5,23.3-31,46.9-46.5,70.9c-30.8,47.7-60.2,94.8-88.4,141.4c-8.3,2.6-16.6,5.3-24.9,7.9
				c-5.8,1.2-11.7,2.3-17.5,3.5C194.8,295.9,196.3,293.2,197.8,290.4z"/>
			<g>
				<path class="st2" d="M312.2,135.4c3.3-4.6,6.6-9.1,9.9-13.6l5-6.8l4.8-6.9l19.4-27.6l0,0l6.7-9.8l6.7-9.7l6.7-9.7l1.7-2.4
					c0.6-0.8,1.1-1.6,1.3-2.6c0.3-0.9,0.4-1.9,0-2.8c-0.3-0.9-1.1-1.7-1.9-2.1c0.9,0.4,1.7,1.1,2.1,2.1c0.4,0.9,0.4,2,0.1,3
					c-0.2,1-0.7,1.9-1.3,2.7l-1.6,2.5l-6.5,9.9l-6.6,9.8L352,81l0,0c-3.2,4.6-6.4,9.2-9.6,13.8l-9.8,13.7l-4.9,6.8l-5.1,6.7
					C319.1,126.5,315.6,131,312.2,135.4z"/>
			</g>
			<path class="st3" d="M373,41.4c-4.3-3.6-10.7-6.3-10.7-6.3c-3-1.3-11.1-6.5-11.6-5.8c-0.3,0.5-0.9,1.1-2.1,2.4
				c-1.3,1.3-1.4,1.4-1.9,2c-0.9,1.3-0.6,1.7-1.4,2.6c-0.7,0.9-1.2,0.9-2.8,1.9c-1.1,0.7-2.4,1.6-3.4,2.9c-0.8,1-0.5,1.1-1.9,4.4
				c-1.4,3.2-2,3.8-2.2,4.1c-1.2,1.1-1.9,0.8-2.8,1.9c-0.7,0.8-0.8,1.5-1.4,4c-0.8,3.6-1.3,5.4-2,6.4c-1,1.3-1.5,0.9-3.2,2.6
				c-0.6,0.6-2.2,2.3-3.2,4.8c-1,2.6-0.1,3.2-1.1,5.8c-0.4,1.1-1.1,2.9-2.9,4.2c-2,1.5,0.2,4.2,3.6,6.9c7.5,6,9.5,12.1,13.8,12
				c2.1,0,3.7-1.5,6.5-4.6c7.7-8.9,10.4-14.8,17-24.6c6.5-9.7,9.7-14.5,10.1-14.9c0,0,2.8-2.6,4.7-7.5c0.2-0.6,0.6-1.8,0.2-3
				C374.1,42.4,373.4,41.7,373,41.4z"/>
			<path class="st4" d="M335.3,97.2c0.6-0.3,1.4-0.7,1.7-1.5c0.7-1.8-1.4-4.2-2.9-5.9c-3.6-4-7.6-6.2-7.5-6.4c0.1-0.2,3.3,2,4.1,1.2
				c0.9-0.8-2.1-4.2-1.2-5.4c0.8-1,4.7,0,7.6,2.2c3.5,2.6,3.6,5.3,5.6,5.5c2.4,0.2,5.6-2.9,5.7-6.1c0.2-4.8-7-8.4-6.3-9.4
				c0.5-0.8,4.1,1.9,8.8,1.1c2.5-0.4,6-2,6.4-4.3c0.7-4.4-10.5-9.6-10-10.5c0.4-0.7,6.4,3.4,12.8,1.7c1-0.3,4.8-1.3,5.2-3.6
				c0.7-3.4-7-6-6.7-10.7c0.1-1.2,0.8-2.8,2-3.4c1.9-0.8,3.8,1.5,8.2,2.2c1.7,0.3,3.1,0.2,4,0.2c0,2.3-0.4,5.5-2.5,8.1
				c-0.4,0.5-0.5,0.6-1.3,1.4c-2.4,2.7-3.6,4.9-5.2,7.6c-1.9,3.3-3.6,5.7-4.8,7.5c-2.8,4.1-3.2,4.2-5.3,7.4
				c-2.1,3.4-1.9,3.6-3.7,6.4c-2.3,3.5-2.6,3-5.7,7.2c-3.4,4.7-4.5,7.3-7.1,7.6C336.5,97.5,335.7,97.4,335.3,97.2z"/>
			<g>
				<path class="st2" d="M373,50.1c-8.7-4-17-9.2-24.2-15.5c7.5,6,15.9,10.7,24.7,14.3L373,50.1z"/>
			</g>
			<g>
				<path class="st2" d="M372,51c-2-0.8-4-1.7-6-2.4c-1-0.4-2-0.7-3.1-1c-1-0.3-2.1-0.7-3.1-1.1c-2-1-3.8-2.2-5.6-3.3
					c-1.8-1.1-3.7-2.3-5.5-3.4c1.9,1,3.8,2.1,5.7,3.1c1.9,1,3.8,2.1,5.7,3c1.9,0.8,4.1,1.2,6.2,1.8c2.1,0.6,4.1,1.4,6.2,2.1L372,51z
					"/>
			</g>
			<g>
				<path class="st5" d="M369.2,54.7c-1.5-0.3-2.3-0.9-5.1-2.4c-3.8-2.1-7.5-4.3-10.4-5.7"/>
				<path class="st2" d="M369.1,55.3c-0.8-0.2-1.5-0.5-2.2-0.9c-0.7-0.4-1.3-0.8-1.9-1.1l-3.7-2.3c-2.5-1.5-4.9-3.1-7.5-4.4
					c2.7,1.1,5.3,2.5,7.9,3.9l3.9,2c1.3,0.7,2.5,1.4,3.9,1.6L369.1,55.3z"/>
			</g>
			<g>
				<path class="st2" d="M373.5,49.1c-3.5-2-6.6-4.5-9-7.6c2.7,2.8,6,5,9.5,6.6L373.5,49.1z"/>
			</g>
			<g>
				<path class="st2" d="M342.1,93.5c-5.9-6.8-12.8-12.8-20.6-17.6c7.9,4.5,15.1,10.2,21.5,16.8L342.1,93.5z"/>
			</g>
			<g>
				<path class="st2" d="M342.8,92.6c-1.3-1.7-2.7-3.4-3.9-5.1c-1.3-1.7-2.5-3.5-3.7-5.2c-1.3-1.7-2.7-3.3-4.1-4.9
					c-1.4-1.6-2.9-3.1-4.5-4.6c1.6,1.4,3.1,2.9,4.7,4.4c1.5,1.5,3,3,4.4,4.7c1.3,1.7,2.6,3.4,3.9,5.1c1.3,1.7,2.7,3.3,4.1,4.9
					L342.8,92.6z"/>
			</g>
			<g>
				<path class="st2" d="M341.7,94.4c-1-1-2-2-3.1-2.9c-1.2-0.9-2.2-1.8-3.4-2.8l-3.3-2.8c-1.1-0.9-2.2-1.9-3.5-2.5
					c1.3,0.6,2.5,1.5,3.6,2.3l3.5,2.6c1.2,0.9,2.3,1.7,3.5,2.6c1.2,0.8,2.4,1.7,3.5,2.7L341.7,94.4z"/>
			</g>
			<g>
				<path class="st5" d="M352.5,79.1L352.5,79.1c-2.6-1.3-5.4-2.8-8.3-4.8c-5.6-3.9-10-8.2-13.2-12"/>
				<path class="st2" d="M352.2,79.7c-8.2-4.2-15.4-10.3-21.2-17.4c6.1,6.8,13.5,12.4,21.8,16.2L352.2,79.7z"/>
			</g>
			<g>
				<path class="st5" d="M353.9,77.8c-1.1-0.5-2.9-1.8-4.2-3.1c-3.4-3.4-11.6-9.4-11.9-11.3"/>
				<path class="st2" d="M353.6,78.4c-1.7-1-3.1-2.2-4.4-3.5c-1.2-1.3-2.6-2.5-3.9-3.7c-1.3-1.2-2.7-2.4-4-3.7
					c-0.7-0.6-1.3-1.3-1.9-1.9c-0.3-0.3-0.6-0.7-0.9-1c-0.3-0.4-0.6-0.7-0.6-1.2c0.1,0.4,0.4,0.8,0.7,1.1c0.3,0.3,0.6,0.7,0.9,1
					c0.7,0.6,1.3,1.2,2,1.8c1.4,1.2,2.8,2.3,4.2,3.4c1.4,1.1,2.8,2.3,4.2,3.5c1.3,1.2,2.8,2.3,4.3,2.9L353.6,78.4z"/>
			</g>
			<g>
				<path class="st5" d="M360.9,67.3c-1.1-0.9-2.3-1.7-3.7-2.6c-6.7-4-13.4-9.2-18.8-11"/>
				<path class="st2" d="M360.5,67.8c-1.7-1.4-3.5-2.5-5.3-3.7c-1.8-1.2-3.6-2.5-5.5-3.7c-1.8-1.2-3.6-2.5-5.5-3.6
					c-1.9-1.1-3.8-2.2-5.8-3c2.1,0.7,4.1,1.7,6,2.7c1.9,1.1,3.8,2.2,5.7,3.4c1.9,1.2,3.7,2.3,5.6,3.4c1.9,1.1,3.8,2.2,5.6,3.5
					L360.5,67.8z"/>
			</g>
			<g>
				<path class="st5" d="M360.9,66.4c-0.9-0.9-2.4-2.2-4.2-3.8c-3.3-2.8-5.8-4.7-6.6-5.4c-2.7-2.1-6.6-5.5-11.9-11.2"/>
				<path class="st2" d="M360.5,66.8l-2.8-2.6l-1.4-1.3l-1.5-1.2l-5.8-4.9c-3.9-3.3-7.5-7-10.9-10.8c3.6,3.7,7.3,7.2,11.3,10.3
					l6,4.7l1.5,1.2l1.5,1.3l2.9,2.5L360.5,66.8z"/>
			</g>
			<path class="st5" d="M271.3,187.6c-3.2,3.7-7.7,9.1-12.7,16c-8.3,11.3-13,19.5-21.4,33.8c-17.2,29.5-22.9,38.2-22.6,38.4
				C214.9,276,225.9,259.3,271.3,187.6z"/>
			<path class="st6" d="M237.7,279.4c0.3,0.2,6-8.8,17.4-26.6c4.9-7.8,8.4-13.3,11.2-17.8c3.4-5.5,6.4-10.4,8.9-14.5
				c8.4-13.4,15.6-24.7,20.9-33.2c23.3-36.9,15.6-24.2,27.1-42.4c2.4-3.7,7.1-11.3,13.9-21.2c3-4.4,5.5-7.9,7.2-10.3
				c5.8-8.2,7.6-11.6,15.5-23.7c2.9-4.4,7.1-10.9,12.4-18.8c1.7-2.4,3.5-5.1,5.2-8.2c2.1-3.8,3.7-7.5,4.9-10.7
				c-41.1,53.7-81.9,114.2-120.1,182.1C256.8,243.6,237,278.9,237.7,279.4z"/>
			<path class="st7" d="M192.5,297.8c-13.6-26.2-23.5-47.8-30.1-62.8c-8.9-20.2-11.1-27.1-19.1-39.3c-9.4-14.4-15-18.2-27-37.1
				c-6.9-10.8-11.4-19.6-14.9-26.6c-4.2-8.2-5.3-11-18.9-43.3c-10.6-25-17.1-40.3-29.3-59.4c-0.1-0.1-0.2-0.5-0.6-0.9
				c-0.2-0.2-0.5-0.5-1.2-0.7c-1.2-0.3-2.3-0.1-2.7,0c-1.9,0.5-3.3,1.2-5.2,2.2c-2,1.1-3.1,1.6-3.2,1.8c-2.6,2.5-0.4,8.6,0.3,10.6
				c2.9,6.5,5.9,13,8.8,19.5c12.3,25.1,24.6,50.6,36.9,76.4c24.3,51.3,47.3,101.9,69.1,151.7c7.9,3.7,15.8,7.4,23.6,11.1
				c5.6,1.9,11.3,3.8,16.9,5.7C194.8,303.7,193.6,300.8,192.5,297.8z"/>
			<g>
				<path class="st2" d="M99.4,129.2c-2.9-4.8-5.7-9.7-8.5-14.6l-4.2-7.3l-4-7.4L74.8,85c-2.6-5-5.2-10-7.8-14.9l0,0l-5.3-10.6
					l-5.2-10.6l-5.2-10.6l-1.3-2.7c-0.5-0.9-0.8-1.8-0.9-2.8c-0.1-1-0.1-2,0.5-2.9c0.5-0.9,1.4-1.5,2.3-1.8c-0.9,0.3-1.7,1-2.2,1.8
					c-0.5,0.9-0.5,1.9-0.4,2.8c0.1,1,0.5,1.9,1,2.7l1.4,2.6l5.4,10.5l5.4,10.5l5.3,10.6l0,0l15.6,29.9l3.9,7.5l4,7.4
					C94.1,119.3,96.8,124.2,99.4,129.2z"/>
			</g>
			<path class="st8" d="M51.4,28.1c4.8-3,11.4-4.8,11.4-4.8c3.1-0.9,11.9-5,12.2-4.2c0.2,0.5,0.8,1.2,1.8,2.6
				c1.1,1.5,1.3,1.5,1.6,2.2c0.7,1.4,0.4,1.8,1,2.8c0.6,1,1.1,1.1,2.5,2.3c1,0.8,2.2,1.9,3,3.3c0.6,1.1,0.3,1.2,1.3,4.6
				c0.9,3.4,1.4,4.1,1.7,4.3c1,1.3,1.7,1.1,2.5,2.3c0.6,0.9,0.6,1.6,0.8,4.1c0.4,3.7,0.6,5.5,1.2,6.6c0.9,1.5,1.4,1.1,2.9,3
				c0.5,0.7,1.9,2.6,2.5,5.2c0.6,2.7-0.3,3.1,0.3,5.9c0.3,1.1,0.7,3,2.3,4.5c1.8,1.8-0.7,4.1-4.5,6.4c-8.3,5-11,10.7-15.3,10.1
				c-2.1-0.3-3.5-2-5.8-5.4c-6.5-9.8-8.4-16-13.6-26.7c-5.1-10.4-7.7-15.7-8.1-16.1c0,0-2.4-3-3.6-8.1c-0.2-0.7-0.4-1.9,0.2-3
				C50.1,28.9,51,28.3,51.4,28.1z"/>
			<path class="st4" d="M81.5,88.3c-0.6-0.3-1.3-0.9-1.5-1.7c-0.5-1.9,1.9-4,3.6-5.5c4.1-3.5,8.4-5.2,8.3-5.4
				c-0.1-0.2-3.6,1.5-4.3,0.7c-0.7-0.9,2.7-3.9,1.9-5.2c-0.7-1.1-4.6-0.6-7.8,1.2c-3.8,2.1-4.2,4.7-6.3,4.7
				c-2.4-0.1-5.2-3.6-4.9-6.7c0.5-4.8,8-7.4,7.5-8.5c-0.4-0.8-4.3,1.4-8.8,0c-2.4-0.8-5.7-2.8-5.8-5.1c-0.1-4.5,11.6-8.1,11.2-9.1
				c-0.3-0.8-6.8,2.5-12.9,0c-0.9-0.4-4.6-1.9-4.7-4.2c-0.2-3.5,7.8-5,8-9.7c0.1-1.2-0.4-2.9-1.5-3.6c-1.8-1.1-4,0.9-8.4,1.1
				c-1.7,0.1-3.1-0.2-4-0.3c-0.3,2.3-0.3,5.5,1.4,8.4c0.4,0.6,0.5,0.6,1.1,1.5c2.1,3,2.9,5.3,4.1,8.2c1.5,3.5,2.8,6.1,3.8,8.1
				c2.2,4.5,2.7,4.6,4.2,8c1.7,3.6,1.4,3.8,2.8,6.8c1.8,3.8,2.2,3.4,4.7,7.9c2.8,5.1,3.5,7.8,6,8.5C80.3,88.5,81,88.4,81.5,88.3z"/>
			<g>
				<path class="st2" d="M49.9,35.5c9.2-2.4,18.1-6,26.4-11c-8,5.3-16.8,9.3-26,12.2L49.9,35.5z"/>
			</g>
			<g>
				<path class="st2" d="M50.9,36.5c2.1-0.4,4.2-0.9,6.4-1.3c2.1-0.4,4.3-0.5,6.4-1c2-0.6,4-1.5,6.1-2.3c2-0.8,4-1.6,6.1-2.3
					c-2,0.9-4,1.7-5.9,2.6c-2,0.9-3.9,1.8-6,2.6c-1.1,0.4-2.1,0.5-3.2,0.7c-1.1,0.2-2.1,0.4-3.2,0.6c-2.1,0.4-4.2,1-6.3,1.6
					L50.9,36.5z"/>
			</g>
			<g>
				<path class="st5" d="M53.4,41.7c1.5-0.1,2.4-0.6,5.4-1.8c4-1.6,8-3.3,11-4.3"/>
				<path class="st2" d="M53.4,41.1c1.3,0,2.7-0.6,4-1.1l4.1-1.5c2.7-1,5.5-2,8.3-2.8c-2.8,1-5.4,2.2-8.1,3.4l-4,1.8
					c-0.7,0.3-1.3,0.6-2,0.9c-0.7,0.3-1.5,0.5-2.3,0.6L53.4,41.1z"/>
			</g>
			<g>
				<path class="st2" d="M49.5,34.5c3.7-1.1,7.2-2.8,10.3-5.3c-2.8,2.8-6.2,4.9-9.9,6.4L49.5,34.5z"/>
			</g>
			<g>
				<path class="st2" d="M74.4,82.8c7.1-5.7,15-10.5,23.5-13.9c-8.3,3.7-15.9,8.8-22.7,14.8L74.4,82.8z"/>
			</g>
			<g>
				<path class="st2" d="M73.8,81.8c1.6-1.4,3.2-2.8,4.7-4.3c1.6-1.5,3-3,4.6-4.5c1.6-1.5,3.3-2.8,5-4.1c1.7-1.3,3.4-2.5,5.2-3.8
					c-1.7,1.3-3.4,2.6-5,4c-1.6,1.4-3.3,2.8-4.7,4.3c-1.4,1.6-2.9,3.2-4.3,4.7c-1.5,1.6-3,3-4.6,4.5L73.8,81.8z"/>
			</g>
			<g>
				<path class="st2" d="M74.7,83.7c1.2-0.8,2.5-1.5,3.8-2.2c1.3-0.6,2.5-1.4,3.8-2.1l3.8-2.1c1.3-0.7,2.5-1.4,3.9-1.9
					c-1.4,0.5-2.6,1.3-3.8,2.1l-3.7,2.3c-1.2,0.8-2.4,1.6-3.7,2.3c-1.2,0.7-2.4,1.6-3.5,2.5L74.7,83.7z"/>
			</g>
			<g>
				<path class="st5" d="M66.8,68.1L66.8,68.1c2.7-0.9,5.7-2.1,8.8-3.7c6.1-3.1,10.9-6.8,14.7-10.1"/>
				<path class="st2" d="M66.6,67.4c8.7-2.6,16.8-7.2,23.7-13.2c-6.6,6.3-14.6,11.4-23.3,14.5L66.6,67.4z"/>
			</g>
			<g>
				<path class="st5" d="M65.6,66.6c1.2-0.4,3.1-1.4,4.6-2.5c3.8-2.9,12.8-7.8,13.3-9.6"/>
				<path class="st2" d="M65.4,65.9c1.6-0.5,3.2-1.4,4.6-2.4c1.5-1.1,3.1-2,4.6-2.9c1.6-0.9,3.1-1.9,4.6-2.8c0.8-0.5,1.5-1,2.3-1.5
					c0.4-0.3,0.7-0.5,1.1-0.8c0.3-0.3,0.7-0.6,0.8-1c-0.1,0.4-0.5,0.8-0.8,1.1c-0.3,0.3-0.7,0.6-1,0.9c-0.7,0.6-1.4,1.1-2.2,1.6
					c-1.5,1.1-3,2.1-4.5,3.1c-1.5,1-3,2-4.4,3.2c-1.5,1.2-3,2.2-4.8,2.9L65.4,65.9z"/>
			</g>
			<g>
				<path class="st5" d="M60,55.3c1.2-0.7,2.6-1.4,4-2.1c7.2-3.1,14.5-7.3,20.1-8.4"/>
				<path class="st2" d="M59.7,54.8c1.9-1.1,4-1.9,6-2.8c2-0.9,4-1.8,6-2.7c2-0.9,4-1.8,6.1-2.6c2-0.8,4.1-1.5,6.3-1.9
					c-2.1,0.5-4.2,1.3-6.2,2.2c-2,0.9-4,1.9-5.9,2.8c-2,1-3.9,2-5.9,2.9c-2,0.9-4,1.8-5.8,3L59.7,54.8z"/>
			</g>
			<g>
				<path class="st5" d="M60.2,54.4c1.1-0.7,2.7-1.9,4.7-3.2c3.6-2.4,6.4-3.9,7.3-4.5c2.9-1.7,7.3-4.6,13.3-9.5"/>
				<path class="st2" d="M59.8,53.9l3.2-2.1l1.6-1l1.7-1l6.6-3.9c4.4-2.6,8.5-5.6,12.5-8.7c-3.9,3.3-7.9,6.5-12.2,9.2l-6.4,4.1
					l-1.6,1l-1.6,1.1l-3.1,2.2L59.8,53.9z"/>
			</g>
			<path class="st9" d="M154.4,281.7c-0.3,0.1-4.8-9.5-13.7-28.7c-3.9-8.4-6.6-14.2-8.8-19.1c-2.7-5.9-5-11.2-6.9-15.5
				c-6.6-14.4-12.2-26.5-16.4-35.6c-18.3-39.7-12.3-26-21.3-45.6c-1.8-4-5.6-12.2-11-22.9c-2.4-4.7-4.4-8.6-5.8-11.1
				c-4.7-8.9-6-12.5-12.2-25.5c-2.3-4.8-5.6-11.7-9.8-20.2c-1.4-2.6-2.8-5.5-4.1-8.8c-1.6-4.1-2.7-7.9-3.5-11.2
				c33.7,58.6,66.3,124,95.2,196.2C140.1,243.7,155.1,281.4,154.4,281.7z"/>
			<path class="st5" d="M63.2,83.5c2.7,4.1,6.4,10,10.5,17.5c6.8,12.2,10.3,21,16.8,36.4c13.2,31.5,17.7,40.9,17.4,41
				C107.5,178.5,98.8,160.6,63.2,83.5z"/>
			<path class="st10" d="M76.4,255.6c3.6-3.9,9.6-9.5,18.2-14.2c3.7-2,24.1-12.6,48.7-7.4c12.9,2.8,11.9,6.7,32.3,13.1
				c12.6,3.9,20.5,6.4,30.8,6c13.9-0.5,15.6-5.6,38.2-12.3c16.4-4.8,25.8-7.6,38.5-6c17.3,2.2,29.4,11.4,35.3,15.9
				c10.9,8.2,17.7,17.4,21.5,23.5c-6.8,3.9-16.6,9-28.8,14c-15.6,6.4-53.5,21.7-104.4,18.6c-51.4-3.2-86.5-21.8-93.9-25.9
				C96.8,272.1,84.6,262.7,76.4,255.6z"/>
			<path class="st11" d="M155.4,244.9c-3.6-1-8.2-1.5-8.4-0.8c-0.1,0.5,1.5,1.2,3.7,2.5c3.5,2.1,3.8,3.9,8.8,6.5
				c5.5,2.8,5.4,4,11.3,7.8c3.7,2.3,11.9,7,21.9,9.4c12,2.8,22.8,1.5,30.3-0.4c2.2-5.2,4.3-10.3,6.5-15.5c-2,0.6-5,1.6-8.6,2.9
				c-6.1,2.2-7.5,2.8-10,3.3c-3.7,0.7-6.8,0.5-11.9-0.4c-16.1-2.6-24.2-4-29.2-7.4C165.1,249.6,162.2,246.7,155.4,244.9z"/>
			<path class="st12" d="M195.1,268.8c-23.5-4.2-30.9-17.5-51-26c-3.1-1.3-27.9-11.5-54-4c-39.2,11.2-54.1,54.3-55,57
				c-9.6,29.2-1.1,56.1,7,82c9.2,29.2,23.9,31.7,31,63.4c4.2,18.7,0,18.8,0,50.6c-0.1,37.9,9,56.9,23,76c3.1,4.2,22.4,30.4,40,26
				c8.4-2.1,13.5-10.5,15-13c4.1-6.7,3.7-11.5,5-32.4c1.4-23.5,2.7-30.4,3.1-32.9c2.4-12.8,11.2-44.6,14.8-51.9
				c8.6-17.2,14.6-49.2,18.4-50.1c17.7-4.3,26.1-5.9,36.8,1.2c3.5,2.3,21.4,59.1,24.7,74.3c0.8,3.5,1.4,10.9,3.2,19
				c3.3,15.5,1.3,22.8,2,42.7c0.6,17.7,1,26.6,6.3,32.1c6.6,6.9,17.4,8.1,25,6.7c13-2.5,20.3-13.4,27.4-24.3
				c7.6-11.6,11.5-22.3,16.4-39.5c6.9-24,0.9-44.3,6.7-68.9c2.3-9.9,11.7-24.3,24.3-44.6c19.8-32.1,17.6-43.4,20.3-64.2
				c3.5-26.5-4.3-41.3-5.5-45.4c-1.7-6-6.5-16.6-17.6-30.1c-5.7-6.9-19.7-21.7-43-28.2c-5.6-1.5-29.2-8.1-51.7,2
				c-7.2,3.2-10.7,6.5-28.2,14.9c-10.3,4.9-15.4,6.8-21.5,7.8C215.1,269.6,206.5,270.9,195.1,268.8z"/>
			<path class="st5" d="M40.7,351c0.6,5.7,2.1,14,5.7,23.5c3,7.8,6.1,12.8,12,22.4c11.4,18.8,17.2,28.3,18.3,30.8
				c4.2,9.6,7.3,25,0,49c5-6.1,11.3-16,12-28.7c0.8-13.5-5-23.9-12.5-37.6c-6.9-12.4-10.6-14.9-19.3-28.7
				C48.9,369.1,43.7,358,40.7,351z"/>
			<path class="st13" d="M230.1,414.5c0.7,1.5,1.9,3.9,3.2,6.9c4.4,10.1,5.3,14.7,10.8,31.4c2.8,8.5,3.6,10.3,6.1,18.3
				c2.4,7.6,3.6,11.5,4.3,15.7c1,5.6,0.7,7.2,2.2,15.5c0.9,5.2,1.1,5,1.8,9.3c0.3,1.8,1,6.9,1.4,13.9c0.2,3.7-0.1,7-0.1,8.8
				c0,22.9,0.1,21.3,0.3,24.6c0.7,12,1.2,19.3,6.7,24.6c4.2,4,9.3,5,12.1,5.6c0.7,0.1,1.5,0.6,1.7,0.3c0.7-0.9-7-5.3-11.1-13
				c-3.8-7.1-3.5-14.8-3-26.8c0.1-2.4,0.3-4.4,0.7-6.6c1-5.4,3-9.4,4.5-13.2c6.6-16.2,1.2-32.1-7.3-56.9
				C255.3,446.5,241.4,427.2,230.1,414.5z"/>
			<path class="st4" d="M177.5,427.6c3.7-3.2,7.4-6.3,11.1-9.5c-0.3,1.2-0.8,2.8-1.4,4.8c-0.6,2-1.7,5.7-3.7,12
				c-3.2,10.3-4.3,13.6-5,15.7c-0.7,2.1-1.1,3.2-1.6,4.7c-2.1,5.6-4,9.5-4.7,11.1c-1.9,4.1-3.6,10.1-7,22.1
				c-2.3,8.1-3.7,14-4.1,15.7c-1.3,5.6-2.4,10.8-3.3,15.3c-0.7,6.4-1,10-1.2,12.1c0,0.3-0.2,1.8-0.3,3.9c-0.2,1.9-0.3,3.5-0.4,4.5
				c-0.1,1.3-0.2,3.4-0.3,5.9c-0.1,1.9-0.5,9.6-1,17.5c-0.3,5.3-0.4,6.3-0.8,8c-0.3,1.5-1.2,4.8-3.2,8.5c-1.5,2.8-3.2,5-4.6,6.7
				c-0.8,1.1-2.3,2.8-4.5,4.2c-2.3,1.5-4.4,2.1-5.8,2.4c1.8-1.2,4.3-3.2,6.7-6.2c6.4-8.1,6.9-17.4,7.3-27.2
				c0.7-16.6,0.7-28.3,0.8-31.8c0.4-22.1,7-27.8,20.9-77.7C174.3,440.4,176.3,432.3,177.5,427.6z"/>
			<g>
				<path class="st2" d="M208.7,383.9c-3.9,11.8-10.1,22.9-18.6,32c-8.5,9.1-19.2,16-31,20c-5.9,2-12,3.2-18.1,3.9
					c-6.1,0.6-12.4,0.7-18.5-0.1c-12.3-1.6-24-6.3-34.3-13.1c10.3,6.7,22.1,11.3,34.3,12.7c6.1,0.7,12.3,0.6,18.4-0.1
					c6.1-0.7,12.1-2,17.9-4.1c11.6-4,22.1-11,30.3-20c8.2-9.1,14.1-20.1,17.8-31.7L208.7,383.9z"/>
			</g>
			<g>
				<path class="st2" d="M217.1,385.7c4.1,11.5,10.4,22.4,19,31.2c8.5,8.8,19.4,15.4,31.1,19c5.9,1.9,12,3,18.1,3.5
					c6.2,0.5,12.3,0.4,18.5-0.5c12.2-1.8,23.9-6.7,34.1-13.7c-10.1,7.2-21.8,12.2-34,14.2c-6.1,1-12.4,1.2-18.6,0.7
					c-6.2-0.4-12.4-1.5-18.3-3.3c-11.9-3.5-23-10.1-31.8-18.9c-8.9-8.9-15.4-19.8-19.7-31.6L217.1,385.7z"/>
			</g>
			<g>
				<path class="st4" d="M230.8,413.3c3,3.5,6.3,6.8,9.8,9.8c1.8,1.5,3.6,2.9,5.6,4.1c1,0.6,1.9,1.3,2.9,1.9l3,1.7
					c8.2,4.4,17.2,7.3,26.4,8.6c4.6,0.6,9.3,0.9,13.9,0.8c4.7-0.1,9.3-0.6,13.9-1.5c9.2-1.7,18.1-5.1,26.2-9.7
					c-8.1,4.8-16.9,8.2-26.1,10.2c-4.6,1-9.3,1.5-14,1.7c-4.7,0.2-9.4,0-14.1-0.5c-9.4-1.1-18.5-3.9-26.9-8.2l-3.1-1.7
					c-1-0.6-2-1.3-3-1.9c-2-1.2-3.9-2.7-5.8-4.1c-3.7-2.9-7.1-6.2-10.3-9.8L230.8,413.3z"/>
			</g>
			<g>
				<path class="st4" d="M185.5,424.3c-6.6,5.4-14.1,9.8-22.2,12.6c-8,2.8-16.5,4.4-25,4.7c-8.5,0.3-17-0.7-25.1-3.1
					c-8.1-2.3-15.9-5.9-22.9-10.5c7.2,4.4,15,7.8,23.1,9.8c8.1,2.1,16.6,2.9,24.9,2.4c8.3-0.5,16.6-2.3,24.4-5.2
					c7.8-2.9,14.9-7.4,21.2-12.8L185.5,424.3z"/>
			</g>
			<path class="st14" d="M203.5,376.8c1.2,4.5,2.3,11.8-0.3,19.6c-1.2,3.5-2.8,6.3-3.7,7.7c-3,4.9-6.3,8.3-8.7,10.4
				c4.2,1.4,10.1,2.9,17.3,3c10.4,0.2,18.6-2.4,23.5-4.4c-2.4-2.5-5.3-6.1-7.6-11c-5-10.6-4.1-20.6-3.4-25
				C215,377,209.2,376.9,203.5,376.8z"/>
			<path class="st15" d="M31.3,306.6c5.1-9.7,19.5-10.4,35-11c34.8-1.3,61.3,9.3,65.2,11c32.3,13.3,53,34.5,64.2,48
				c0.6,1.3,5.3,11.4,1.6,15.1c-1.9,1.9-5.4,1.7-16.7-2.1c-15.2-5-26-10.4-26.1-10.4c-15.8-7.8-23.7-11.7-28.7-13.6
				c-18.8-7-36.7-6.9-53.2-6.8c-20.6,0.1-26.9,2.9-33.9-2.6C30.8,328,26.9,315.1,31.3,306.6z"/>
			<path class="st15" d="M381.5,308.2c-5.1-9.7-19.5-10.4-35-11c-34.8-1.3-61.3,9.3-65.2,11c-32.3,13.3-53,34.5-64.2,48
				c-0.6,1.3-5.3,11.4-1.6,15.1c1.9,1.9,5.4,1.7,16.7-2.1c15.2-5,26-10.4,26.1-10.4c15.8-7.8,23.7-11.7,28.7-13.6
				c18.8-7,36.7-6.9,53.2-6.8c20.6,0.1,26.9,2.9,33.9-2.6C382.1,329.6,385.9,316.6,381.5,308.2z"/>
			<path class="st13" d="M315.9,558.4c1.5-10.8,4.3-18.4,5.5-21.9c4.1-11.9,5.4-22.3,6.3-32.3c2.1-24-3.6-29,0.5-48.3
				c2.2-10.6,5.9-18.1,8.9-24.3c9.7-19.9,20.6-28,28.4-38.1c8.9-11.5,18-30.7,16.7-64.4c0.9,2.3,2,6,2.3,10.5c0.1,1,0.2,3-0.7,13.3
				c-0.5,5.8-0.8,8.8-1.4,12.8c-0.4,2.8-0.9,6-1.9,10.3c0,0-1.2,5.2-2.7,9.9c-1.6,4.8-3.7,9.2-12.9,24.6c-5.4,9-10.5,17.2-10.5,17.2
				c-3.6,5.9-5.8,9.3-8.5,14.7c-2,3.9-3.7,7.3-5.2,11.4c-1.3,3.7-2.6,8.6-3.4,20.2c-1,14.2,0.3,15.2-0.7,28.4
				c-0.8,10.4-2.2,17.4-2.5,19.1c-0.7,3.3-2.2,9.8-5,17.9c-1.9,5.4-4.8,13.6-10.8,23.2c-1.3,2.2-2.6,4-3.4,5.2
				C315.1,565.5,315.3,562.2,315.9,558.4z"/>
			<path class="st16" d="M31,330.1c3.8,3.3,7.4,4.2,9.4,4.4c8.7,1.3,19-5.9,24.6-16c0.7,1.4,2,3.5,4.1,5.4c6.5,5.8,16.3,5.5,23.1,3
				c7.7-2.9,11.6-8.9,13-11.2c0.3,1.8,1.1,4.5,3.1,7c4.2,5.4,10.7,6.4,14.9,7c9.5,1.4,17.3-1.5,21.4-3.4c0.5,2.7,1.7,6.6,4.7,10.2
				c8.9,10.5,24.9,7.2,25.6,7c0,2.3,0.4,7.3,3.7,12.3c5.7,8.6,15.4,10,17,10.2c-0.1,0.2-2,3.9,0,7.3c1.7,2.8,5.4,4.2,8.9,3.1"/>
			<path class="st17" d="M382.1,318c-3.3,3.3-6.7,4.5-8.5,5c-8.2,2.1-18.9-3.1-25.2-11.4c-0.5,1.4-1.5,3.3-3.4,5.2
				c-5.7,5.9-15.1,6.8-21.8,5.3c-7.6-1.7-12.1-6.6-13.7-8.5c-0.1,1.6-0.6,4.1-2.3,6.6c-3.4,5.3-9.6,6.9-13.5,7.9
				c-8.9,2.4-16.8,0.6-20.8-0.6c-0.2,2.5-0.9,6.1-3.4,9.6c-7.4,10.3-23.1,9.2-23.8,9.1c0.2,2.1,0.4,6.5-2.2,11.3
				c-4.5,8.3-13.7,10.6-15.2,11c0.1,0.2,2.3,3.2,0.8,6.5c-1.3,2.7-4.7,4.3-8.2,3.8"/>
			<path class="st5" d="M37.1,309.1c1-7.6,4.3-23.9,16.8-39.5c17-21.3,39.6-27.1,46.6-28.6c-10,5-25.4,14.3-39.9,30.5
				C48.1,285.5,41.1,299.4,37.1,309.1z"/>
			<path class="st5" d="M34.7,189"/>
			<path class="st14" d="M75,451.7c3.9,1.8,9.7,4.2,16.8,6.5c11.3,3.6,29.2,9.2,51.4,6.8c8-0.9,20.2-3.1,34.2-9.9
				c-1.3,2.9-2.6,6-3.8,9.2c-0.8,2.2-1.6,4.3-2.3,6.4c-11.2,3.7-20.8,5.2-27.7,5.9c-25,2.6-44.7-2.7-54.2-5.3
				c-6.4-1.8-11.6-3.6-15.2-5c0.3-2.5,0.5-5.2,0.6-8C75,456,75,453.8,75,451.7z"/>
			<path class="st14" d="M74.2,442.5c4.9,2.1,11.8,4.9,20.3,7.4c13.1,3.9,30.3,9.1,51.4,6.8c8-0.9,20.2-3.1,34.2-9.9
				c-1.2,2.9-2.3,5.8-3.5,8.8c-0.9,2.3-1.8,4.5-2.6,6.8c-11.2,3.7-20.8,5.2-27.7,5.9c-25,2.6-44.7-2.7-54.2-5.3
				c-6.4-1.8-11.6-3.6-15.2-5c-0.6-2.4-1.1-5-1.6-7.7C74.8,447.5,74.4,444.9,74.2,442.5z"/>
			<path class="st18" d="M342.4,451.2c-4.1,2-10,4.6-17.4,7c-10.7,3.5-27.6,9.2-48.4,6.8c-7.5-0.9-19-3.1-32.2-9.9
				c1.2,2.6,2.5,5.7,3.6,9.2c0.7,2.4,1.3,4.7,1.7,6.8c10.7,3.5,19.9,4.9,26.5,5.6c8.2,0.8,27.9,2,51-5.3c5-1.6,9-3.2,11.7-4.3
				c0.3-2.4,0.7-5.1,1.3-8C340.8,456.1,341.6,453.5,342.4,451.2z"/>
			<path class="st19" d="M346,443.2c-4.7,2.1-11.7,5-20.4,7.7c-12.7,3.9-29.5,9.1-50.2,6.8c-7.8-0.9-19.7-3.1-33.4-9.9
				c1.3,2.6,2.6,5.7,3.7,9.2c0.8,2.4,1.3,4.7,1.7,6.8c11.1,3.5,20.6,4.9,27.5,5.6c8.5,0.8,28.9,2,52.9-5.3c5.2-1.6,9.4-3.2,12.1-4.3
				c0.4-2.3,1-4.9,2-7.8C343.2,448.4,344.7,445.5,346,443.2z"/>
		</g>
		<g>
			<path class="st20" d="M197.8,290.4c16.9-24.2,29.6-44.3,38.1-58.3c11.4-18.8,14.6-25.4,24.1-36.5c11.2-13,17.3-16.1,31.6-33.3
				c8.2-9.8,13.8-17.9,18.3-24.4c5.2-7.6,6.7-10.3,24.4-40.4c13.8-23.4,22.2-37.7,36.8-55.1c0.1-0.1,0.3-0.5,0.7-0.8
				c0.2-0.1,0.6-0.4,1.3-0.5c1.2-0.2,2.3,0.2,2.7,0.4c1.8,0.7,3.1,1.6,4.9,2.8c1.9,1.3,2.8,2,2.9,2.2c2.2,2.8-0.7,8.6-1.7,10.4
				c-3.8,6.1-7.5,12.1-11.3,18.2c-15.5,23.3-31,46.9-46.5,70.9c-30.8,47.7-60.2,94.8-88.4,141.4c-8.3,2.6-16.6,5.3-24.9,7.9
				c-5.8,1.2-11.7,2.3-17.5,3.5C194.7,295.9,196.2,293.2,197.8,290.4z"/>
			<g>
				<path class="st2" d="M312.1,135.4c3.3-4.6,6.6-9.1,9.9-13.6l5-6.8l4.8-6.9l19.4-27.6l0,0l6.7-9.8l6.7-9.7l6.7-9.7l1.7-2.4
					c0.6-0.8,1.1-1.6,1.3-2.6c0.3-0.9,0.4-1.9,0-2.8c-0.3-0.9-1.1-1.7-1.9-2.1c0.9,0.4,1.7,1.1,2.1,2.1c0.4,0.9,0.4,2,0.1,3
					c-0.2,1-0.7,1.9-1.3,2.7l-1.6,2.5l-6.5,9.9l-6.6,9.8l-6.6,9.8l0,0c-3.2,4.6-6.4,9.2-9.6,13.8l-9.8,13.7l-4.9,6.8l-5.1,6.7
					C319,126.5,315.6,131,312.1,135.4z"/>
			</g>
			<path class="st21" d="M373,41.4c-4.3-3.6-10.7-6.3-10.7-6.3c-3-1.3-6.9-3.9-10.7-9.9c0.1,2.1-0.4,3.4-0.9,4.1
				c-0.3,0.5-0.9,1.1-2.1,2.4c-1.3,1.3-1.4,1.4-1.9,2c-0.9,1.3-0.6,1.7-1.4,2.6c-0.7,0.9-1.2,0.9-2.8,1.9c-1.1,0.7-2.4,1.6-3.4,2.9
				c-0.8,1-0.5,1.1-1.9,4.4c-1.4,3.2-2,3.8-2.2,4.1c-1.2,1.1-1.9,0.8-2.8,1.9c-0.7,0.8-0.8,1.5-1.4,4c-0.8,3.6-1.3,5.4-2,6.4
				c-1,1.3-1.5,0.9-3.2,2.6c-0.6,0.6-2.2,2.3-3.2,4.8c-1,2.6-0.1,3.2-1.1,5.8c-0.4,1.1-1.1,2.9-2.9,4.2c-2,1.5-4.3,1.6-5.1,1.6
				c2.1,1,5.3,2.6,8.7,5.3c7.5,6,9.5,12.1,13.8,12c2.1,0,3.7-1.5,6.5-4.6c7.7-8.9,10.4-14.8,17-24.6c6.5-9.7,9.7-14.5,10.1-14.9
				c0,0,2.8-2.6,4.7-7.5c0.2-0.6,0.6-1.8,0.2-3C374.1,42.4,373.3,41.7,373,41.4z"/>
			<path class="st4" d="M335.2,97.2c0.6-0.3,1.4-0.7,1.7-1.5c0.7-1.8-1.4-4.2-2.9-5.9c-3.6-4-7.6-6.2-7.5-6.4c0.1-0.2,3.3,2,4.1,1.2
				c0.9-0.8-2.1-4.2-1.2-5.4c0.8-1,4.7,0,7.6,2.2c3.5,2.6,3.6,5.3,5.6,5.5c2.4,0.2,5.6-2.9,5.7-6.1c0.2-4.8-7-8.4-6.3-9.4
				c0.5-0.8,4.1,1.9,8.8,1.1c2.5-0.4,6-2,6.4-4.3c0.7-4.4-10.5-9.6-10-10.5c0.4-0.7,6.4,3.4,12.8,1.7c1-0.3,4.8-1.3,5.2-3.6
				c0.7-3.4-7-6-6.7-10.7c0.1-1.2,0.8-2.8,2-3.4c1.9-0.8,3.8,1.5,8.2,2.2c1.7,0.3,3.1,0.2,4,0.2c0,2.3-0.4,5.5-2.5,8.1
				c-0.4,0.5-0.5,0.6-1.3,1.4c-2.4,2.7-3.6,4.9-5.2,7.6c-1.9,3.3-3.6,5.7-4.8,7.5c-2.8,4.1-3.2,4.2-5.3,7.4
				c-2.1,3.4-1.9,3.6-3.7,6.4c-2.3,3.5-2.6,3-5.7,7.2c-3.4,4.7-4.5,7.3-7.1,7.6C336.4,97.5,335.7,97.4,335.2,97.2z"/>
			<g>
				<path class="st2" d="M372.9,50.1c-8.7-4-17-9.2-24.2-15.5c7.5,6,15.9,10.7,24.7,14.3L372.9,50.1z"/>
			</g>
			<g>
				<path class="st2" d="M371.9,51c-2-0.8-4-1.7-6-2.4c-1-0.4-2-0.7-3.1-1c-1-0.3-2.1-0.7-3.1-1.1c-2-1-3.8-2.2-5.6-3.3
					c-1.8-1.1-3.7-2.3-5.5-3.4c1.9,1,3.8,2.1,5.7,3.1c1.9,1,3.8,2.1,5.7,3c1.9,0.8,4.1,1.2,6.2,1.8c2.1,0.6,4.1,1.4,6.2,2.1
					L371.9,51z"/>
			</g>
			<g>
				<path class="st5" d="M369.1,54.7c-1.5-0.3-2.3-0.9-5.1-2.4c-3.8-2.1-7.5-4.3-10.4-5.7"/>
				<path class="st2" d="M369,55.3c-0.8-0.2-1.5-0.5-2.2-0.9c-0.7-0.4-1.3-0.8-1.9-1.1l-3.7-2.3c-2.5-1.5-4.9-3.1-7.5-4.4
					c2.7,1.1,5.3,2.5,7.9,3.9l3.9,2c1.3,0.7,2.5,1.4,3.9,1.6L369,55.3z"/>
			</g>
			<g>
				<path class="st2" d="M373.4,49.1c-3.5-2-6.6-4.5-9-7.6c2.7,2.8,6,5,9.5,6.6L373.4,49.1z"/>
			</g>
			<g>
				<path class="st2" d="M342.1,93.5c-5.9-6.8-12.8-12.8-20.6-17.6c7.9,4.5,15.1,10.2,21.5,16.8L342.1,93.5z"/>
			</g>
			<g>
				<path class="st2" d="M342.7,92.6c-1.3-1.7-2.7-3.4-3.9-5.1c-1.3-1.7-2.5-3.5-3.7-5.2c-1.3-1.7-2.7-3.3-4.1-4.9
					c-1.4-1.6-2.9-3.1-4.5-4.6c1.6,1.4,3.1,2.9,4.7,4.4c1.5,1.5,3,3,4.4,4.7c1.3,1.7,2.6,3.4,3.9,5.1c1.3,1.7,2.7,3.3,4.1,4.9
					L342.7,92.6z"/>
			</g>
			<g>
				<path class="st2" d="M341.7,94.4c-1-1-2-2-3.1-2.9c-1.2-0.9-2.2-1.8-3.4-2.8l-3.3-2.8c-1.1-0.9-2.2-1.9-3.5-2.5
					c1.3,0.6,2.5,1.5,3.6,2.3l3.5,2.6c1.2,0.9,2.3,1.7,3.5,2.6c1.2,0.8,2.4,1.7,3.5,2.7L341.7,94.4z"/>
			</g>
			<g>
				<path class="st5" d="M352.4,79.1L352.4,79.1c-2.6-1.3-5.4-2.8-8.3-4.8c-5.6-3.9-10-8.2-13.2-12"/>
				<path class="st2" d="M352.1,79.7c-8.2-4.2-15.4-10.3-21.2-17.4c6.1,6.8,13.5,12.4,21.8,16.2L352.1,79.7z"/>
			</g>
			<g>
				<path class="st5" d="M353.8,77.8c-1.1-0.5-2.9-1.8-4.2-3.1c-3.4-3.4-11.6-9.4-11.9-11.3"/>
				<path class="st2" d="M353.5,78.4c-1.7-1-3.1-2.2-4.4-3.5c-1.2-1.3-2.6-2.5-3.9-3.7c-1.3-1.2-2.7-2.4-4-3.7
					c-0.7-0.6-1.3-1.3-1.9-1.9c-0.3-0.3-0.6-0.7-0.9-1c-0.3-0.4-0.6-0.7-0.6-1.2c0.1,0.4,0.4,0.8,0.7,1.1c0.3,0.3,0.6,0.7,0.9,1
					c0.7,0.6,1.3,1.2,2,1.8c1.4,1.2,2.8,2.3,4.2,3.4c1.4,1.1,2.8,2.3,4.2,3.5c1.3,1.2,2.8,2.3,4.3,2.9L353.5,78.4z"/>
			</g>
			<g>
				<path class="st5" d="M360.8,67.3c-1.1-0.9-2.3-1.7-3.7-2.6c-6.7-4-13.4-9.2-18.8-11"/>
				<path class="st2" d="M360.5,67.8c-1.7-1.4-3.5-2.5-5.3-3.7c-1.8-1.2-3.6-2.5-5.5-3.7c-1.8-1.2-3.6-2.5-5.5-3.6
					c-1.9-1.1-3.8-2.2-5.8-3c2.1,0.7,4.1,1.7,6,2.7c1.9,1.1,3.8,2.2,5.7,3.4c1.9,1.2,3.7,2.3,5.6,3.4c1.9,1.1,3.8,2.2,5.6,3.5
					L360.5,67.8z"/>
			</g>
			<g>
				<path class="st5" d="M360.8,66.4c-0.9-0.9-2.4-2.2-4.2-3.8c-3.3-2.8-5.8-4.7-6.6-5.4c-2.7-2.1-6.6-5.5-11.9-11.2"/>
				<path class="st2" d="M360.4,66.8l-2.8-2.6l-1.4-1.3l-1.5-1.2l-5.8-4.9c-3.9-3.3-7.5-7-10.9-10.8c3.6,3.7,7.3,7.2,11.3,10.3
					l6,4.7l1.5,1.2l1.5,1.3l2.9,2.5L360.4,66.8z"/>
			</g>
			<path class="st5" d="M271.2,187.6c-3.2,3.7-7.7,9.1-12.7,16c-8.3,11.3-13,19.5-21.4,33.8c-17.2,29.5-22.9,38.2-22.6,38.4
				C214.8,276,225.9,259.3,271.2,187.6z"/>
			<path class="st6" d="M237.6,279.4c0.3,0.2,6-8.8,17.4-26.6c4.9-7.8,8.4-13.3,11.2-17.8c3.4-5.5,6.4-10.4,8.9-14.5
				c8.4-13.4,15.6-24.7,20.9-33.2c23.3-36.9,15.6-24.2,27.1-42.4c2.4-3.7,7.1-11.3,13.9-21.2c3-4.4,5.5-7.9,7.2-10.3
				c5.8-8.2,7.6-11.6,15.5-23.7c2.9-4.4,7.1-10.9,12.4-18.8c1.7-2.4,3.5-5.1,5.2-8.2c2.1-3.8,3.7-7.5,4.9-10.7
				c-41.1,53.7-81.9,114.2-120.1,182.1C256.8,243.6,236.9,278.9,237.6,279.4z"/>
			<path class="st22" d="M192.4,297.8c-13.6-26.2-23.5-47.8-30.1-62.8c-8.9-20.2-11.1-27.1-19.1-39.3c-9.4-14.4-15-18.2-27-37.1
				c-6.9-10.8-11.4-19.6-14.9-26.6c-4.2-8.2-5.3-11-18.9-43.3c-10.6-25-17.1-40.3-29.3-59.4c-0.1-0.1-0.2-0.5-0.6-0.9
				c-0.2-0.2-0.5-0.5-1.2-0.7c-1.2-0.3-2.3-0.1-2.7,0c-1.9,0.5-3.3,1.2-5.2,2.2c-2,1.1-3.1,1.6-3.2,1.8c-2.6,2.5-0.4,8.6,0.3,10.6
				c2.9,6.5,5.9,13,8.8,19.5c12.3,25.1,24.6,50.6,36.9,76.4c24.3,51.3,47.3,101.9,69.1,151.7c7.9,3.7,15.8,7.4,23.6,11.1
				c5.6,1.9,11.3,3.8,16.9,5.7C194.7,303.7,193.5,300.8,192.4,297.8z"/>
			<g>
				<path class="st2" d="M99.3,129.2c-2.9-4.8-5.7-9.7-8.5-14.6l-4.2-7.3l-4-7.4L74.8,85c-2.6-5-5.2-10-7.8-14.9l0,0l-5.3-10.6
					l-5.2-10.6l-5.2-10.6l-1.3-2.7c-0.5-0.9-0.8-1.8-0.9-2.8c-0.1-1-0.1-2,0.5-2.9c0.5-0.9,1.4-1.5,2.3-1.8c-0.9,0.3-1.7,1-2.2,1.8
					c-0.5,0.9-0.5,1.9-0.4,2.8c0.1,1,0.5,1.9,1,2.7l1.4,2.6l5.4,10.5l5.4,10.5l5.3,10.6l0,0l15.6,29.9l3.9,7.5l4,7.4
					C94,119.3,96.7,124.2,99.3,129.2z"/>
			</g>
			<path class="st21" d="M51.3,28.1c4.8-3,11.4-4.8,11.4-4.8c3.1-0.9,7.4-2.9,11.9-8.4c-0.4,2.1,0,3.4,0.3,4.2
				c0.2,0.5,0.8,1.2,1.8,2.6c1.1,1.5,1.3,1.5,1.6,2.2c0.7,1.4,0.4,1.8,1,2.8c0.6,1,1.1,1.1,2.5,2.3c1,0.8,2.2,1.9,3,3.3
				c0.6,1.1,0.3,1.2,1.3,4.6c0.9,3.4,1.4,4.1,1.7,4.3c1,1.3,1.7,1.1,2.5,2.3c0.6,0.9,0.6,1.6,0.8,4.1c0.4,3.7,0.6,5.5,1.2,6.6
				c0.9,1.5,1.4,1.1,2.9,3c0.5,0.7,1.9,2.6,2.5,5.2c0.6,2.7-0.3,3.1,0.3,5.9c0.3,1.1,0.7,3,2.3,4.5c1.8,1.8,4,2.1,4.9,2.2
				c-2.2,0.7-5.6,1.9-9.4,4.1c-8.3,5-11,10.7-15.3,10.1c-2.1-0.3-3.5-2-5.8-5.4c-6.5-9.8-8.4-16-13.6-26.7
				c-5.1-10.4-7.7-15.7-8.1-16.1c0,0-2.4-3-3.7-8.1c-0.2-0.7-0.4-1.9,0.2-3C50.1,28.9,50.9,28.3,51.3,28.1z"/>
			<path class="st4" d="M81.5,88.3c-0.6-0.3-1.3-0.9-1.5-1.7c-0.5-1.9,1.9-4,3.6-5.5c4.1-3.5,8.4-5.2,8.3-5.4
				c-0.1-0.2-3.6,1.5-4.3,0.7c-0.7-0.9,2.7-3.9,1.9-5.2c-0.7-1.1-4.6-0.6-7.8,1.2c-3.8,2.1-4.2,4.7-6.3,4.7
				c-2.4-0.1-5.2-3.6-4.9-6.7c0.5-4.8,8-7.4,7.5-8.5c-0.4-0.8-4.3,1.4-8.8,0c-2.4-0.8-5.7-2.8-5.8-5.1c-0.1-4.5,11.6-8.1,11.2-9.1
				c-0.3-0.8-6.8,2.5-12.9,0c-0.9-0.4-4.6-1.9-4.7-4.2c-0.2-3.5,7.8-5,8-9.7c0.1-1.2-0.4-2.9-1.5-3.6c-1.8-1.1-4,0.9-8.4,1.1
				c-1.7,0.1-3.1-0.2-4-0.3c-0.3,2.3-0.3,5.5,1.4,8.4c0.4,0.6,0.5,0.6,1.1,1.5c2.1,3,2.9,5.3,4.1,8.2c1.5,3.5,2.8,6.1,3.8,8.1
				c2.2,4.5,2.7,4.6,4.2,8c1.7,3.6,1.4,3.8,2.8,6.8c1.8,3.8,2.2,3.4,4.7,7.9c2.8,5.1,3.5,7.8,6,8.5C80.2,88.5,80.9,88.4,81.5,88.3z"
				/>
			<g>
				<path class="st2" d="M49.9,35.5c9.2-2.4,18.1-6,26.4-11c-8,5.3-16.8,9.3-26,12.2L49.9,35.5z"/>
			</g>
			<g>
				<path class="st2" d="M50.8,36.5c2.1-0.4,4.2-0.9,6.4-1.3c2.1-0.4,4.3-0.5,6.4-1c2-0.6,4-1.5,6.1-2.3c2-0.8,4-1.6,6.1-2.3
					c-2,0.9-4,1.7-5.9,2.6c-2,0.9-3.9,1.8-6,2.6c-1.1,0.4-2.1,0.5-3.2,0.7c-1.1,0.2-2.1,0.4-3.2,0.6c-2.1,0.4-4.2,1-6.3,1.6
					L50.8,36.5z"/>
			</g>
			<g>
				<path class="st5" d="M53.4,41.7c1.5-0.1,2.4-0.6,5.4-1.8c4-1.6,8-3.3,11-4.3"/>
				<path class="st2" d="M53.3,41.1c1.3,0,2.7-0.6,4-1.1l4.1-1.5c2.7-1,5.5-2,8.3-2.8c-2.8,1-5.4,2.2-8.1,3.4l-4,1.8
					c-0.7,0.3-1.3,0.6-2,0.9c-0.7,0.3-1.5,0.5-2.3,0.6L53.3,41.1z"/>
			</g>
			<g>
				<path class="st2" d="M49.4,34.5c3.7-1.1,7.2-2.8,10.3-5.3c-2.8,2.8-6.2,4.9-9.9,6.4L49.4,34.5z"/>
			</g>
			<g>
				<path class="st2" d="M74.4,82.8c7.1-5.7,15-10.5,23.5-13.9c-8.3,3.7-15.9,8.8-22.7,14.8L74.4,82.8z"/>
			</g>
			<g>
				<path class="st2" d="M73.8,81.8c1.6-1.4,3.2-2.8,4.7-4.3c1.6-1.5,3-3,4.6-4.5c1.6-1.5,3.3-2.8,5-4.1c1.7-1.3,3.4-2.5,5.2-3.8
					c-1.7,1.3-3.4,2.6-5,4c-1.6,1.4-3.3,2.8-4.7,4.3c-1.4,1.6-2.9,3.2-4.3,4.7c-1.5,1.6-3,3-4.6,4.5L73.8,81.8z"/>
			</g>
			<g>
				<path class="st2" d="M74.7,83.7c1.2-0.8,2.5-1.5,3.8-2.2c1.3-0.6,2.5-1.4,3.8-2.1l3.8-2.1c1.3-0.7,2.5-1.4,3.9-1.9
					c-1.4,0.5-2.6,1.3-3.8,2.1l-3.7,2.3c-1.2,0.8-2.4,1.6-3.7,2.3c-1.2,0.7-2.4,1.6-3.5,2.5L74.7,83.7z"/>
			</g>
			<g>
				<path class="st5" d="M66.8,68.1L66.8,68.1c2.7-0.9,5.7-2.1,8.8-3.7c6.1-3.1,10.9-6.8,14.7-10.1"/>
				<path class="st2" d="M66.5,67.4c8.7-2.6,16.8-7.2,23.7-13.2C83.6,60.5,75.7,65.6,67,68.7L66.5,67.4z"/>
			</g>
			<g>
				<path class="st5" d="M65.5,66.6c1.2-0.4,3.1-1.4,4.6-2.5c3.8-2.9,12.8-7.8,13.3-9.6"/>
				<path class="st2" d="M65.3,65.9c1.6-0.5,3.2-1.4,4.6-2.4c1.5-1.1,3.1-2,4.6-2.9c1.6-0.9,3.1-1.9,4.6-2.8c0.8-0.5,1.5-1,2.3-1.5
					c0.4-0.3,0.7-0.5,1.1-0.8c0.3-0.3,0.7-0.6,0.8-1c-0.1,0.4-0.5,0.8-0.8,1.1c-0.3,0.3-0.7,0.6-1,0.9c-0.7,0.6-1.4,1.1-2.2,1.6
					c-1.5,1.1-3,2.1-4.5,3.1c-1.5,1-3,2-4.4,3.2c-1.5,1.2-3,2.2-4.8,2.9L65.3,65.9z"/>
			</g>
			<g>
				<path class="st5" d="M59.9,55.3c1.2-0.7,2.6-1.4,4-2.1c7.2-3.1,14.5-7.3,20.1-8.4"/>
				<path class="st2" d="M59.6,54.8c1.9-1.1,4-1.9,6-2.8c2-0.9,4-1.8,6-2.7c2-0.9,4-1.8,6.1-2.6c2-0.8,4.1-1.5,6.3-1.9
					c-2.1,0.5-4.2,1.3-6.2,2.2c-2,0.9-4,1.9-5.9,2.8c-2,1-3.9,2-5.9,2.9c-2,0.9-4,1.8-5.8,3L59.6,54.8z"/>
			</g>
			<g>
				<path class="st5" d="M60.1,54.4c1.1-0.7,2.7-1.9,4.7-3.2c3.6-2.4,6.4-3.9,7.3-4.5c2.9-1.7,7.3-4.6,13.3-9.5"/>
				<path class="st2" d="M59.8,53.9l3.2-2.1l1.6-1l1.7-1l6.6-3.9c4.4-2.6,8.5-5.6,12.5-8.7c-3.9,3.3-7.9,6.5-12.2,9.2l-6.4,4.1
					l-1.6,1l-1.6,1.1l-3.1,2.2L59.8,53.9z"/>
			</g>
			<path class="st9" d="M154.3,281.7c-0.3,0.1-4.8-9.5-13.7-28.7c-3.9-8.4-6.6-14.2-8.8-19.1c-2.7-5.9-5-11.2-6.9-15.5
				c-6.6-14.4-12.2-26.5-16.4-35.6c-18.3-39.7-12.3-26-21.3-45.6c-1.8-4-5.6-12.2-11-22.9c-2.4-4.7-4.4-8.6-5.8-11.1
				c-4.7-8.9-6-12.5-12.2-25.5c-2.3-4.8-5.6-11.7-9.8-20.2c-1.4-2.6-2.8-5.5-4.1-8.8c-1.6-4.1-2.7-7.9-3.5-11.2
				C74.5,96,107,161.3,136,233.6C140,243.7,155.1,281.4,154.3,281.7z"/>
			<path class="st5" d="M63.2,83.5c2.7,4.1,6.4,10,10.5,17.5c6.8,12.2,10.3,21,16.8,36.4c13.2,31.5,17.7,40.9,17.4,41
				C107.5,178.5,98.7,160.6,63.2,83.5z"/>
			<path class="st10" d="M76.4,255.6c3.6-3.9,9.6-9.5,18.2-14.2c3.7-2,24.1-12.6,48.7-7.4c12.9,2.8,11.9,6.7,32.3,13.1
				c12.6,3.9,20.5,6.4,30.8,6c13.9-0.5,15.6-5.6,38.2-12.3c16.4-4.8,25.8-7.6,38.5-6c17.3,2.2,29.4,11.4,35.3,15.9
				c10.9,8.2,17.7,17.4,21.5,23.5c-6.8,3.9-16.6,9-28.8,14c-15.6,6.4-53.5,21.7-104.4,18.6c-51.4-3.2-86.5-21.8-93.9-25.9
				C96.7,272.1,84.6,262.7,76.4,255.6z"/>
			<path class="st11" d="M155.4,244.9c-3.6-1-8.2-1.5-8.4-0.8c-0.1,0.5,1.5,1.2,3.7,2.5c3.5,2.1,3.8,3.9,8.8,6.5
				c5.5,2.8,5.4,4,11.3,7.8c3.7,2.3,11.9,7,21.9,9.4c12,2.8,22.8,1.5,30.3-0.4c2.2-5.2,4.3-10.3,6.5-15.5c-2,0.6-5,1.6-8.6,2.9
				c-6.1,2.2-7.5,2.8-10,3.3c-3.7,0.7-6.8,0.5-11.9-0.4c-16.1-2.6-24.2-4-29.2-7.4C165,249.6,162.1,246.7,155.4,244.9z"/>
			<path class="st23" d="M195,268.8c-23.5-4.2-30.9-17.5-51-26c-3.1-1.3-27.9-11.5-54-4c-39.2,11.2-54.1,54.3-55,57
				c-9.6,29.2-1.1,56.1,7,82c9.2,29.2,23.9,31.7,31,63.4c4.2,18.7,0,18.8,0,50.6c-0.1,37.9,9,56.9,23,76c3.1,4.2,22.4,30.4,40,26
				c8.4-2.1,13.5-10.5,15-13c4.1-6.7,3.7-11.5,5-32.4c1.4-23.5,2.7-30.4,3.1-32.9c2.4-12.8,11.2-44.6,14.8-51.9
				c8.6-17.2,14.6-49.2,18.4-50.1c17.7-4.3,26.1-5.9,36.8,1.2c3.5,2.3,21.4,59.1,24.7,74.3c0.8,3.5,1.4,10.9,3.2,19
				c3.3,15.5,1.3,22.8,2,42.7c0.6,17.7,1,26.6,6.3,32.1c6.6,6.9,17.4,8.1,25,6.7c13-2.5,20.3-13.4,27.4-24.3
				c7.6-11.6,11.5-22.3,16.4-39.5c6.9-24,0.9-44.3,6.7-68.9c2.3-9.9,11.7-24.3,24.3-44.6c19.8-32.1,17.6-43.4,20.3-64.2
				c3.5-26.5-4.3-41.3-5.5-45.4c-1.7-6-6.5-16.6-17.6-30.1c-5.7-6.9-19.7-21.7-43-28.2c-5.6-1.5-29.2-8.1-51.7,2
				c-7.2,3.2-10.7,6.5-28.2,14.9c-10.3,4.9-15.4,6.8-21.5,7.8C215.1,269.6,206.4,270.9,195,268.8z"/>
			<path class="st5" d="M40.7,351c0.6,5.7,2.1,14,5.7,23.5c3,7.8,6.1,12.8,12,22.4c11.4,18.8,17.2,28.3,18.3,30.8
				c4.2,9.6,7.3,25,0,49c5-6.1,11.3-16,12-28.7c0.8-13.5-5-23.9-12.5-37.6c-6.9-12.4-10.6-14.9-19.3-28.7
				C48.8,369.1,43.7,358,40.7,351z"/>
			<path class="st13" d="M230.1,414.5c0.7,1.5,1.9,3.9,3.2,6.9c4.4,10.1,5.3,14.7,10.8,31.4c2.8,8.5,3.6,10.3,6.1,18.3
				c2.4,7.6,3.6,11.5,4.3,15.7c1,5.6,0.7,7.2,2.2,15.5c0.9,5.2,1.1,5,1.8,9.3c0.3,1.8,1,6.9,1.4,13.9c0.2,3.7-0.1,7-0.1,8.8
				c0,22.9,0.1,21.3,0.3,24.6c0.7,12,1.2,19.3,6.7,24.6c4.2,4,9.3,5,12.1,5.6c0.7,0.1,1.5,0.6,1.7,0.3c0.7-0.9-7-5.3-11.1-13
				c-3.8-7.1-3.5-14.8-3-26.8c0.1-2.4,0.3-4.4,0.7-6.6c1-5.4,3-9.4,4.5-13.2c6.6-16.2,1.2-32.1-7.3-56.9
				C255.2,446.5,241.3,427.2,230.1,414.5z"/>
			<path class="st4" d="M177.4,427.6c3.7-3.2,7.4-6.3,11.1-9.5c-0.3,1.2-0.8,2.8-1.4,4.8c-0.6,2-1.7,5.7-3.7,12
				c-3.2,10.3-4.3,13.6-5,15.7c-0.7,2.1-1.1,3.2-1.6,4.7c-2.1,5.6-4,9.5-4.7,11.1c-1.9,4.1-3.6,10.1-7,22.1
				c-2.3,8.1-3.7,14-4.1,15.7c-1.3,5.6-2.4,10.8-3.3,15.3c-0.7,6.4-1,10-1.2,12.1c0,0.3-0.2,1.8-0.3,3.9c-0.2,1.9-0.3,3.5-0.4,4.5
				c-0.1,1.3-0.2,3.4-0.3,5.9c-0.1,1.9-0.5,9.6-1,17.5c-0.3,5.3-0.4,6.3-0.8,8c-0.3,1.5-1.2,4.8-3.2,8.5c-1.5,2.8-3.2,5-4.6,6.7
				c-0.8,1.1-2.3,2.8-4.5,4.2c-2.3,1.5-4.4,2.1-5.8,2.4c1.8-1.2,4.3-3.2,6.7-6.2c6.4-8.1,6.9-17.4,7.3-27.2
				c0.7-16.6,0.7-28.3,0.8-31.8c0.4-22.1,7-27.8,20.9-77.7C174.2,440.4,176.3,432.3,177.4,427.6z"/>
			<g>
				<path class="st2" d="M208.6,383.9c-3.9,11.8-10.1,22.9-18.6,32c-8.5,9.1-19.2,16-31,20c-5.9,2-12,3.2-18.1,3.9
					c-6.1,0.6-12.4,0.7-18.5-0.1c-12.3-1.6-24-6.3-34.3-13.1c10.3,6.7,22.1,11.3,34.3,12.7c6.1,0.7,12.3,0.6,18.4-0.1
					c6.1-0.7,12.1-2,17.9-4.1c11.6-4,22.1-11,30.3-20c8.2-9.1,14.1-20.1,17.8-31.7L208.6,383.9z"/>
			</g>
			<g>
				<path class="st2" d="M217.1,385.7c4.1,11.5,10.4,22.4,19,31.2c8.5,8.8,19.4,15.4,31.1,19c5.9,1.9,12,3,18.1,3.5
					c6.2,0.5,12.3,0.4,18.5-0.5c12.2-1.8,23.9-6.7,34.1-13.7c-10.1,7.2-21.8,12.2-34,14.2c-6.1,1-12.4,1.2-18.6,0.7
					c-6.2-0.4-12.4-1.5-18.3-3.3c-11.9-3.5-23-10.1-31.8-18.9c-8.9-8.9-15.4-19.8-19.7-31.6L217.1,385.7z"/>
			</g>
			<g>
				<path class="st4" d="M230.8,413.3c3,3.5,6.3,6.8,9.8,9.8c1.8,1.5,3.6,2.9,5.6,4.1c1,0.6,1.9,1.3,2.9,1.9l3,1.7
					c8.2,4.4,17.2,7.3,26.4,8.6c4.6,0.6,9.3,0.9,13.9,0.8c4.7-0.1,9.3-0.6,13.9-1.5c9.2-1.7,18.1-5.1,26.2-9.7
					c-8.1,4.8-16.9,8.2-26.1,10.2c-4.6,1-9.3,1.5-14,1.7c-4.7,0.2-9.4,0-14.1-0.5c-9.4-1.1-18.5-3.9-26.9-8.2l-3.1-1.7
					c-1-0.6-2-1.3-3-1.9c-2-1.2-3.9-2.7-5.8-4.1c-3.7-2.9-7.1-6.2-10.3-9.8L230.8,413.3z"/>
			</g>
			<g>
				<path class="st4" d="M185.5,424.3c-6.6,5.4-14.1,9.8-22.2,12.6c-8,2.8-16.5,4.4-25,4.7c-8.5,0.3-17-0.7-25.1-3.1
					c-8.1-2.3-15.9-5.9-22.9-10.5c7.2,4.4,15,7.8,23.1,9.8c8.1,2.1,16.6,2.9,24.9,2.4c8.3-0.5,16.6-2.3,24.4-5.2
					c7.8-2.9,14.9-7.4,21.2-12.8L185.5,424.3z"/>
			</g>
			<path class="st14" d="M203.4,376.8c1.2,4.5,2.3,11.8-0.3,19.6c-1.2,3.5-2.8,6.3-3.7,7.7c-3,4.9-6.3,8.3-8.7,10.4
				c4.2,1.4,10.1,2.9,17.3,3c10.4,0.2,18.6-2.4,23.5-4.4c-2.4-2.5-5.3-6.1-7.6-11c-5-10.6-4.1-20.6-3.4-25
				C214.9,377,209.2,376.9,203.4,376.8z"/>
			<path class="st15" d="M31.3,306.6c5.1-9.7,19.5-10.4,35-11c34.8-1.3,61.3,9.3,65.2,11c32.3,13.3,53,34.5,64.2,48
				c0.6,1.3,5.3,11.4,1.6,15.1c-1.9,1.9-5.4,1.7-16.7-2.1c-15.2-5-26-10.4-26.1-10.4c-15.8-7.8-23.7-11.7-28.7-13.6
				c-18.8-7-36.7-6.9-53.2-6.8c-20.6,0.1-26.9,2.9-33.9-2.6C30.7,328,26.8,315.1,31.3,306.6z"/>
			<path class="st15" d="M381.5,308.2c-5.1-9.7-19.5-10.4-35-11c-34.8-1.3-61.3,9.3-65.2,11c-32.3,13.3-53,34.5-64.2,48
				c-0.6,1.3-5.3,11.4-1.6,15.1c1.9,1.9,5.4,1.7,16.7-2.1c15.2-5,26-10.4,26.1-10.4c15.8-7.8,23.7-11.7,28.7-13.6
				c18.8-7,36.7-6.9,53.2-6.8c20.6,0.1,26.9,2.9,33.9-2.6C382,329.6,385.9,316.6,381.5,308.2z"/>
			<path class="st14" d="M30.7,330.1c14.7-4.4,53.5-22.3,97.4-9.7c48.9,14.1,74.8,55.3,84.1,67c11.9-13.7,33-48.9,70.8-65.1
				c42.1-18,82.4-5.9,100.8-4.3c-0.8-4.8-2.3-11.1-5.2-18.2c-2.8-7-5.8-11.9-7.6-14.9c-3.1-5-8.2-13.2-17.4-21.5
				c-7.5-6.8-14.3-10.6-16.4-11.7c-10.8-5.8-20.2-7.7-25.8-8.8c-10.9-2.1-19.1-1.9-21.9-1.8c-4,0.2-8.3,0.4-13.7,2
				c-4.9,1.4-8.5,3.2-12.5,5.3c-4.6,2.3-4.6,2.7-10.6,6.1c-6.6,3.7-12.1,6.3-16,8c-4.5,2-7.8,3.5-12.7,4.9
				c-1.4,0.4-6.9,1.5-10.8,2.2c-11.1,1.8-19.7-0.5-25-2.2c-9.1-2.8-15.5-7.1-21.7-11.2c-5.8-3.9-5.9-4.7-11.2-7.8
				c-1.7-1-8.8-5.2-19.2-8.4c-4.9-1.5-11.1-3.4-19.6-3.9c-7.4-0.4-13.1,0.4-16.8,1c-2.8,0.4-7.5,1.2-13.5,3.1
				c-3.5,1.1-8.7,2.9-14.7,6.7c-5,3.1-8.3,6.2-10.4,8.2c-3.7,3.5-6,6.5-9.4,10.8c-2.6,3.3-5.2,6.7-8.2,11.5c-1.6,2.7-4.4,7.3-7,13.9
				c-0.8,1.9-2.7,7-4.1,13.7C31.3,310.8,30,319.5,30.7,330.1z"/>
			<path class="st13" d="M315.8,558.4c1.5-10.8,4.3-18.4,5.5-21.9c4.1-11.9,5.4-22.3,6.3-32.3c2.1-24-3.6-29,0.5-48.3
				c2.2-10.6,5.9-18.1,8.9-24.3c9.7-19.9,20.6-28,28.4-38.1c8.9-11.5,18-30.7,16.7-64.4c0.9,2.3,2,6,2.3,10.5c0.1,1,0.2,3-0.7,13.3
				c-0.5,5.8-0.8,8.8-1.4,12.8c-0.4,2.8-0.9,6-1.9,10.3c0,0-1.2,5.2-2.7,9.9c-1.6,4.8-3.7,9.2-12.9,24.6c-5.4,9-10.5,17.2-10.5,17.2
				c-3.6,5.9-5.8,9.3-8.5,14.7c-2,3.9-3.7,7.3-5.2,11.4c-1.3,3.7-2.6,8.6-3.4,20.2c-1,14.2,0.3,15.2-0.7,28.4
				c-0.8,10.4-2.2,17.4-2.5,19.1c-0.7,3.3-2.2,9.8-5,17.9c-1.9,5.4-4.8,13.6-10.8,23.2c-1.3,2.2-2.6,4-3.4,5.2
				C315,565.5,315.3,562.2,315.8,558.4z"/>
			<path class="st16" d="M30.9,330.1c3.8,3.3,7.4,4.2,9.4,4.4c8.7,1.3,19-5.9,24.6-16c0.7,1.4,2,3.5,4.1,5.4
				c6.5,5.8,16.3,5.5,23.1,3c7.7-2.9,11.6-8.9,13-11.2c0.3,1.8,1.1,4.5,3.1,7c4.2,5.4,10.7,6.4,14.9,7c9.5,1.4,17.3-1.5,21.4-3.4
				c0.5,2.7,1.7,6.6,4.7,10.2c8.9,10.5,24.9,7.2,25.6,7c0,2.3,0.4,7.3,3.7,12.3c5.7,8.6,15.4,10,17,10.2c-0.1,0.2-2,3.9,0,7.3
				c1.7,2.8,5.4,4.2,8.9,3.1"/>
			<path class="st17" d="M382,318c-3.3,3.3-6.7,4.5-8.5,5c-8.2,2.1-18.9-3.1-25.2-11.4c-0.5,1.4-1.5,3.3-3.4,5.2
				c-5.7,5.9-15.1,6.8-21.8,5.3c-7.6-1.7-12.1-6.6-13.7-8.5c-0.1,1.6-0.6,4.1-2.3,6.6c-3.4,5.3-9.6,6.9-13.5,7.9
				c-8.9,2.4-16.8,0.6-20.8-0.6c-0.2,2.5-0.9,6.1-3.4,9.6c-7.4,10.3-23.1,9.2-23.8,9.1c0.2,2.1,0.4,6.5-2.2,11.3
				c-4.5,8.3-13.7,10.6-15.2,11c0.1,0.2,2.3,3.2,0.8,6.5c-1.3,2.7-4.7,4.3-8.2,3.8"/>
			<path class="st5" d="M37,309.1c1-7.6,4.3-23.9,16.8-39.5c17-21.3,39.6-27.1,46.6-28.6c-10,5-25.4,14.3-39.9,30.5
				C48.1,285.5,41,299.4,37,309.1z"/>
			<path class="st5" d="M34.7,189"/>
			<path class="st14" d="M75,451.7c3.9,1.8,9.7,4.2,16.8,6.5c11.3,3.6,29.2,9.2,51.4,6.8c8-0.9,20.2-3.1,34.2-9.9
				c-1.3,2.9-2.6,6-3.8,9.2c-0.8,2.2-1.6,4.3-2.3,6.4c-11.2,3.7-20.8,5.2-27.7,5.9c-25,2.6-44.7-2.7-54.2-5.3
				c-6.4-1.8-11.6-3.6-15.2-5c0.3-2.5,0.5-5.2,0.6-8C74.9,456,75,453.8,75,451.7z"/>
			<path class="st14" d="M74.1,442.5c4.9,2.1,11.8,4.9,20.3,7.4c13.1,3.9,30.3,9.1,51.4,6.8c8-0.9,20.2-3.1,34.2-9.9
				c-1.2,2.9-2.3,5.8-3.5,8.8c-0.9,2.3-1.8,4.5-2.6,6.8c-11.2,3.7-20.8,5.2-27.7,5.9c-25,2.6-44.7-2.7-54.2-5.3
				c-6.4-1.8-11.6-3.6-15.2-5c-0.6-2.4-1.1-5-1.6-7.7C74.7,447.5,74.4,444.9,74.1,442.5z"/>
			<path class="st18" d="M342.3,451.2c-4.1,2-10,4.6-17.4,7c-10.7,3.5-27.6,9.2-48.4,6.8c-7.5-0.9-19-3.1-32.2-9.9
				c1.2,2.6,2.5,5.7,3.6,9.2c0.7,2.4,1.3,4.7,1.7,6.8c10.7,3.5,19.9,4.9,26.5,5.6c8.2,0.8,27.9,2,51-5.3c5-1.6,9-3.2,11.7-4.3
				c0.3-2.4,0.7-5.1,1.3-8C340.8,456.1,341.5,453.5,342.3,451.2z"/>
			<path class="st19" d="M345.9,443.2c-4.7,2.1-11.7,5-20.4,7.7c-12.7,3.9-29.5,9.1-50.2,6.8c-7.8-0.9-19.7-3.1-33.4-9.9
				c1.3,2.6,2.6,5.7,3.7,9.2c0.8,2.4,1.3,4.7,1.7,6.8c11.1,3.5,20.6,4.9,27.5,5.6c8.5,0.8,28.9,2,52.9-5.3c5.2-1.6,9.4-3.2,12.1-4.3
				c0.4-2.3,1-4.9,2-7.8C343.1,448.4,344.6,445.5,345.9,443.2z"/>
		</g>
	</g>
</g>
</svg>
